<?xml version="1.0" encoding="UTF-8" standalone="no"?>
<svg
   id="Layer_1"
   data-name="Layer 1"
   version="1.2"
   viewBox="0 0 92051.557 88863.608"
   sodipodi:docname="Advertisers.svg"
   width="92051.555"
   height="88863.609"
   xmlns:inkscape="http://www.inkscape.org/namespaces/inkscape"
   xmlns:sodipodi="http://sodipodi.sourceforge.net/DTD/sodipodi-0.dtd"
   xmlns="http://www.w3.org/2000/svg"
   xmlns:svg="http://www.w3.org/2000/svg">
  <defs
     id="defs27" />
  <sodipodi:namedview
     id="namedview27"
     pagecolor="#ffffff"
     bordercolor="#000000"
     borderopacity="0.25"
     inkscape:showpageshadow="2"
     inkscape:pageopacity="0.0"
     inkscape:pagecheckerboard="0"
     inkscape:deskcolor="#d1d1d1" />
  <g
     id="g4">
    <path
       d="m 249.5,44.8 c 7.7,0.1 14.2,6.4 14.9,14.1 0.1,1.8 0.2,3.5 0.2,5.3 v 179 c 0,11.5 -5.9,20.3 -15.8,24.1 -2.9,1.1 -5.9,1.5 -9,1.5 h -78.5 c -1.6,0 -2.4,0.8 -2.4,2.3 v 17.8 c 0,1.7 0.9,2.6 2.6,2.6 13.5,0.2 27.1,-0.4 40.5,0.2 3.3,0.6 3.5,5.3 0.1,6.1 -46.3,0.7 -92.6,0 -138.9,0.2 -4.2,-0.3 -4.4,-6.1 0,-6.5 13.4,-0.2 26.8,0 40.2,0 13.4,0 2,-0.4 1.9,-2 v -19.6 c 0,-0.8 -0.2,-1.1 -1,-1.1 H 24.8 c -4.2,0 -8.2,-0.5 -12.1,-2 C 4.6,263.5 0,256.9 0,248.2 V 60.1 C 0,51.6 7,44.8 15.6,44.8 Z"
       fill="#000000"
       stroke-width="0"
       id="path1" />
    <path
       d="m 131.9,262.4 h 109.4 c 8.4,-0.3 16.3,-8 16.5,-16.4 0.2,-8.8 0,-17.6 0,-26.4 0,-8.8 -0.5,-1.7 -1.7,-1.6 H 7.8 c -1.2,0 -1.6,0.2 -1.6,1.5 V 248 c 0,6.4 3.3,11 9.4,13.1 3.1,1.1 6.2,1.4 9.4,1.4 h 106.9 z m 0.1,6.5 h -18.9 c -0.8,0 -1.5,-0.2 -1.4,1.1 v 19.8 c 0,1.4 0.4,1.8 1.8,1.8 h 38 c 0.9,0 1,-0.1 1,-1.1 0,-6.7 -0.1,-13.4 0,-20.1 0,-1.4 -0.4,-1.5 -1.5,-1.5 z"
       fill="#ffffff"
       stroke-width="0"
       id="path2" />
    <path
       d="m 255,211.6 c 1.9,0 2.9,-1 2.9,-3 V 61.2 c 0,-6.3 -3.7,-9.9 -9.9,-10 -7.5,0.3 -82.9,0 -92.4,0 -46.3,0 -92.5,-0.2 -138.8,0 C 11.1,50.9 6.3,54.7 6.4,61 v 147.2 c 0,2.3 1.1,3.4 3.3,3.4 z"
       fill="#ffffff"
       stroke-width="0"
       id="path3" />
    <path
       d="m 146.9,238.7 c 0,8.3 -6.5,14.7 -14.8,14.7 -8.3,0 -14.8,-6.7 -14.7,-14.8 0,-8.1 6.8,-14.7 14.9,-14.6 8,0 14.5,6.7 14.5,14.8 h 0.1 z m -6.4,0 c 0,-4.6 -3.7,-8.4 -8.2,-8.4 -4.5,0 -8.3,3.8 -8.4,8.2 0,4.5 3.7,8.3 8.2,8.4 4.6,0 8.3,-3.7 8.4,-8.2 z"
       fill="#000000"
       stroke-width="0"
       id="path4" />
  </g>
  <path
     d="m 132.2,230.4 c -4.5,0 -8.4,3.8 -8.4,8.2 0,4.4 3.7,8.3 8.2,8.4 4.6,0 8.3,-3.7 8.4,-8.2 0,-4.6 -3.7,-8.4 -8.2,-8.4 z"
     fill="#969696"
     stroke-width="0"
     id="path5" />
  <g
     id="g16">
    <path
       d="m 22.5,176 c 1.7,-0.6 3.8,-1.2 6,-1.9 1.1,-0.3 1.2,-0.9 0.8,-1.9 -1.6,-3.8 -2.8,-7.6 -3.7,-11.6 -0.2,-1 -0.7,-1.4 -1.8,-1.1 -2,0.7 -3.9,1.3 -5.9,1.9 -0.9,0.2 -1.2,0.9 -1.2,1.8 -0.2,4.5 1.2,8.4 3.9,12.1 0.3,0.6 0.8,0.9 2,0.8 h -0.1 z"
       fill="#d9e2e9"
       stroke-width="0"
       id="path6" />
    <path
       d="m 138.9,139.4 c 0.3,-1.3 0.3,-2.7 0.3,-4.7 -0.3,-6.4 -2.4,-12.8 -6.6,-18.5 -0.7,-0.9 -1.4,-2.1 -2.5,-1.8 -1.1,0.3 -0.9,1.9 -1,2.9 -0.3,6.9 1.8,13.2 5.2,19 0.8,1.3 1.8,2.4 2.9,3.4 0.9,0.7 1.3,0.7 1.7,-0.6 h 0.1 z"
       fill="#969696"
       stroke-width="0"
       id="path7" />
    <path
       d="m 67.7,124.6 c -1,1.1 -1.4,2.2 -1.4,3.8 0.2,14.8 4,28.7 12,41.3 1.7,2.7 3.3,4.2 6.8,4.5 9.2,0.7 18.3,1.8 27.3,2.7 9.3,1 18.6,1.9 27.9,2.8 2.8,0.2 5.4,0.6 8.3,0.8 -12.1,-15.1 -19.4,-32.2 -25.2,-49.9 -5.9,-17.8 -10,-36 -10,-54.8 -0.1,0 -0.3,-0.2 -0.6,-0.2 -0.3,0.4 -0.8,1 -1.1,1.4 -5,5.4 -10,11 -15.1,16.4 -9.7,10.5 -19.4,21 -29.1,31.4 h 0.2 z"
       fill="#d9e2e9"
       stroke-width="0"
       id="path8" />
    <path
       d="m 80.5,228.1 c -3.3,-10.1 -6.4,-20.2 -9.6,-30.2 -1.2,-4 -2.5,-8 -3.9,-12 -0.2,-0.7 -0.2,-1.6 -1.3,-1.4 -3.1,0.8 -6.1,1.6 -9.2,2.2 -1.3,0.3 -1.4,0.9 -1.1,2.1 4.7,14.4 9.2,28.7 13.7,43.1 0.4,1.3 1.1,1.6 2.3,1.1 2.5,-0.9 5.2,-1.8 7.9,-2.4 1.4,-0.4 1.7,-1 1.2,-2.4 z"
       fill="#d9e2e9"
       stroke-width="0"
       id="path9" />
    <path
       d="m 124.4,107.3 c 0.2,1.2 0.6,1.3 1.7,0.7 2.1,-1.4 4.3,-1.4 6.6,-0.6 2.2,0.9 3.9,2.4 5.4,4.2 3.9,4.9 6.2,10.5 7.5,16.6 1,4.7 1.6,9.3 0,13.8 -1,2.9 -2.7,5.2 -5.9,5.5 -1.9,0.2 -1.6,0.9 -1,2 2.3,5 4.8,9.9 7.5,14.6 3.2,5.3 6.6,10.5 11.4,14.5 4.3,3.7 6.8,2.8 8.2,-2.5 1.1,-3.9 1.2,-7.8 1.1,-12.1 0.2,-4.5 -0.3,-9.3 -1,-14.1 -2.5,-18.2 -7.8,-35.7 -14.9,-52.5 -4.1,-9.7 -8.9,-19.3 -15.5,-27.6 -2.1,-2.7 -4.3,-5.3 -7.3,-7 -2,-1.2 -2.9,-1 -4.4,0.7 -1.1,1.1 -1.7,2.5 -2,4 -1.1,5.3 -1.2,10.7 -0.9,16.2 0.6,8 1.9,15.7 3.4,23.5 z"
       fill="#5fc4f8"
       stroke-width="0"
       id="path10" />
    <path
       d="m 72.1,173.2 v 0 c -8,-12.4 -12.3,-26.1 -13,-41 q 0,-2.1 -2,-1.3 c -8.4,3.7 -16.8,7.3 -25.2,10.9 -1.4,0.7 -1.9,1.4 -1.8,2.9 0.3,4.1 1,8.1 1.9,12.1 2,8.6 5,16.8 9.7,24.2 0.4,0.8 0.9,1.6 2,1.4 0.4,0 1,-0.2 1.4,-0.3 8.6,-2.1 17.4,-4.3 26,-6.4 q 2.2,-0.6 0.9,-2.4 z"
       fill="#5fc4f8"
       stroke-width="0"
       id="path11" />
    <path
       d="m 11.1,173.6 c 0,0 0,0.1 0.1,0.2 v -0.2 z"
       fill="#000000"
       stroke-width="0"
       id="path12" />
    <path
       d="m 9.4,160.4 c -1.7,6.1 1.8,13.4 1.8,13.4 0,0 0,0 0,-0.1 v 0 c 0,0 0,0.1 0,0.1 0,0 0,0 0,0.1 l 0.3,-16.9 -2.1,3.3 z"
       fill="#000000"
       stroke-width="0"
       id="path13" />
    <path
       d="m 140.1,63.8 c 0,0 0,0 0,0 l 7.5,10.6"
       fill="#000000"
       stroke-width="0"
       id="path14" />
    <path
       d="m 172.3,143.5 c -4.4,-24 -12.1,-46.9 -24.2,-68.3 -0.2,-0.4 -0.4,-0.6 -0.5,-0.9 l -7.5,-10.6 c -2.4,-3.2 -5.4,-5.8 -9.1,-7.6 -5.2,-2.5 -9.7,-1.4 -13.1,3.3 -1.2,1.7 -2.7,3.2 -4.1,4.8 l 0.3,-0.4 -0.3,0.4 c 0,0 0,0 -0.1,0.1 -0.5,0.6 -1,1.2 -1.5,1.6 l -8,8.6 c 0,0 -0.1,0.1 -0.2,0.2 v 0 c 0,0 0,0 0,0 -0.1,0.1 -0.3,0.3 -0.4,0.4 -11.4,11.7 -22.3,24 -33.4,36 -2.9,3.1 -5.8,6.2 -8.6,9.4 -0.7,0.8 -1.4,1.2 -2.3,1.7 -7.9,3.3 -15.6,6.8 -23.5,10.1 -1.5,0.7 -2.9,1.3 -4.5,2 l 0.9,-0.4 -0.9,0.4 c 0,0 0,0 0,0 -0.1,0 -0.2,0.1 -0.4,0.1 l -8,3.1 c 0.1,4.1 0.5,8.3 1,12.4 0.2,1.6 -0.2,2.1 -1.6,2.4 -3,0.9 -6.1,1.8 -9,3 -0.6,0.3 -0.9,0.6 -1.1,0.6 l -0.7,1 -0.3,16.9 c 1.6,3 3.4,5.7 5.7,8.1 1.1,1.1 2.3,1.9 3.9,1.7 0.3,0 0.6,0 0.8,0 l 10.1,-3.2 -10.1,3.2 c 0.8,0.1 10.1,-3.1 10.1,-3.1 1.2,-0.3 1.6,0.5 2.1,1.4 1.1,1.9 2.4,3.7 3.5,5.5 1.6,2.4 3.7,3.1 6.4,2.5 q 4.2,-0.9 5.5,3.2 c 1.9,5.8 3.7,11.6 5.5,17.4 0.1,0.4 0.2,0.6 0.2,0.9 l 2.9,9.1 c 0.2,0.3 0.3,0.6 0.4,1 0.2,0.9 0.5,1.9 0.8,2.8 l 0.5,1.4 c 0.4,1.1 0.8,2.2 1.2,3.4 0.1,0.4 0.2,0.7 0.2,1 l 3.8,9.6 c 1,1.2 2.5,1.5 4.2,1.3 0.4,0 1,-0.1 1.4,-0.3 1.6,-0.7 3.3,-1.3 4.9,-1.7 l 11.7,-3.9 1.7,-4.6 c -0.1,-0.2 -0.2,-0.4 -0.3,-0.7 -0.8,-2.8 -1.7,-5.4 -2.5,-8.2 -0.7,-2.1 -2.8,-9.5 -3.3,-10.5 l 2.9,9.5 -2.9,-9.5 c -0.1,-0.2 -0.2,-0.5 -0.3,-0.8 -0.7,-2.5 -1.6,-5 -2.3,-7.5 -2,-6.2 -4,-12.5 -6,-18.8 -0.2,-0.8 -0.9,-1.7 0.6,-2 2.8,-0.6 5.3,-1.7 8.2,-1.3 4.1,0.4 8.1,0.8 12.2,1.2 10.4,1.1 20.8,2.1 31.2,3.2 9.2,1 18.4,1.9 27.6,2.8 2.9,0.2 5.6,1 8.5,0.6 5.1,-0.9 8.3,-4 10,-8.9 1.4,-4.3 2,-8.7 2.1,-13.3 0.2,-7.8 -0.7,-15.3 -2.1,-22.8 z M 28.4,174.2 c -2.1,0.7 -4.3,1.3 -6,1.9 -1.2,0.2 -1.7,-0.2 -2,-0.8 -2.7,-3.5 -4.1,-7.5 -3.9,-12.1 0,-0.9 0.3,-1.4 1.2,-1.8 h 0.1 c 2,-0.6 4,-1.2 5.9,-1.9 1.1,-0.3 1.6,0 1.8,1.1 0.9,4 2.2,7.9 3.7,11.6 0.4,1 0.3,1.6 -0.8,1.9 z m 16.8,8.2 v 0 c -0.6,0 -1.1,0.1 -1.4,0.2 -1.1,0 -1.6,-0.8 -2,-1.4 C 37,173.8 34,165.6 32.1,157 c -0.9,-4 -1.6,-8 -1.9,-12.1 -0.1,-1.4 0.3,-2.3 1.8,-2.9 8.4,-3.5 16.8,-7.3 25.2,-10.9 q 2,-0.9 2,1.3 c 0.7,14.8 5,28.6 13,41.1 1.2,2 1.2,1.9 -0.9,2.4 -8.6,2.1 -17.4,4.3 -26,6.4 z m 35.3,45.7 c 0.4,1.4 0.2,2.1 -1.2,2.4 -2.7,0.7 -5.2,1.6 -7.9,2.4 -1.2,0.4 -1.9,0.2 -2.3,-1.1 -4.5,-14.4 -9.2,-28.8 -13.7,-43.1 -0.3,-1.1 -0.2,-1.8 1.1,-2.1 3.1,-0.7 6.1,-1.6 9.2,-2.2 1.1,-0.1 1.1,0.8 1.3,1.4 1.3,4 2.5,8 3.9,12 3.2,10.1 6.4,20.2 9.6,30.2 z m 59.9,-48.6 c -9.3,-0.9 -18.6,-1.9 -27.9,-2.8 -9.1,-0.9 -18.3,-2 -27.3,-2.7 -3.4,-0.2 -5.1,-1.9 -6.8,-4.5 -8,-12.6 -11.8,-26.5 -12,-41.3 0,-1.6 0.4,-2.7 1.4,-3.8 9.7,-10.5 19.5,-20.9 29.1,-31.4 5,-5.4 10.1,-11 15.1,-16.4 h -0.2 c 0.4,-0.3 0.8,-0.8 1.1,-1.3 0.2,0 0.3,0.2 0.6,0.2 0,18.9 4.1,37 10,54.8 5.9,17.8 13.2,35 25.2,49.9 -2.9,-0.2 -5.6,-0.6 -8.3,-0.8 z m -10.3,-64.9 c 1.1,-0.3 1.9,1 2.5,1.8 4.3,5.6 6.4,12.1 6.6,18.5 0,2 0,3.3 -0.3,4.7 -0.3,1.1 -0.9,1.2 -1.7,0.6 h -0.1 c -1.2,-1.1 -2.1,-2.3 -2.9,-3.5 -3.4,-5.9 -5.5,-12.2 -5.2,-19 0,-1.1 -0.1,-2.5 1,-2.9 z m 36.9,49.6 c 0,4.2 0,8.2 -1.1,12.1 -1.6,5.4 -4,6.2 -8.2,2.5 -4.8,-4.1 -8.2,-9.2 -11.4,-14.5 -2.8,-4.7 -5.3,-9.6 -7.5,-14.6 -0.6,-1.2 -0.8,-1.9 1,-2 3.2,-0.3 5,-2.7 5.9,-5.5 1.6,-4.7 1.1,-9.2 0,-13.8 -1.3,-6.1 -3.7,-11.7 -7.5,-16.6 -1.4,-1.8 -3.2,-3.3 -5.4,-4.2 -2.3,-1 -4.5,-0.9 -6.6,0.6 -1,0.8 -1.4,0.6 -1.7,-0.7 -1.6,-7.8 -3,-15.5 -3.4,-23.5 -0.3,-5.4 -0.3,-10.9 0.9,-16.2 0.3,-1.6 1,-2.9 2,-4 1.6,-1.7 2.4,-1.9 4.4,-0.7 3,1.8 5.2,4.3 7.3,7 6.6,8.4 11.3,17.8 15.5,27.6 7.2,16.8 12.3,34.3 14.9,52.5 0.7,4.8 1.2,9.5 1,14.1 z"
       fill="#000000"
       stroke-width="0"
       id="path15" />
    <path
       d="m 59.2,224.4 c 0.2,0.5 0.3,1 0.5,1.4 z"
       fill="#000000"
       stroke-width="0"
       id="path16" />
  </g>
  <g
     id="g27">
    <g
       id="g24">
      <path
         d="m 175.2,83 c -1.5,1.5 -2.9,3 -4.2,4.6 -1.4,1.6 -1.3,3.3 0.3,4.8 3.1,2.9 6.2,5.8 9.3,8.6 1.7,1.5 3.4,1.4 5,-0.2 1.4,-1.5 2.8,-3 4.1,-4.5 0.6,-0.7 1,-1.4 1,-2.4 0,-1 -0.4,-1.8 -1.1,-2.5 -3.1,-2.9 -6.3,-5.8 -9.5,-8.6 -1.6,-1.4 -3.3,-1.3 -4.8,0.2 z"
         fill="#fdd100"
         stroke-width="0"
         id="path17" />
      <path
         d="m 199.8,133.6 c -2.1,-0.5 -4.3,-1 -6.4,-1.5 -1.6,-0.3 -3.1,0.5 -3.5,2 -1.1,4.5 -2.1,9 -3,13.5 -0.3,1.7 0.5,3 2.1,3.5 2.3,0.8 4.8,1.2 6.9,1.5 2.2,0 3.3,-0.7 3.8,-2.8 1,-4.1 1.9,-8.2 2.8,-12.4 0.4,-2 -0.6,-3.4 -2.6,-3.9 h -0.1 z"
         fill="#fdd100"
         stroke-width="0"
         id="path18" />
      <path
         d="m 293.4,146.1 c -5.5,-0.7 -11,-1.4 -16.5,-2.1 -16.3,-2.1 -32.6,-4.2 -48.8,-6.3 -2.6,-0.3 -3.8,0.5 -4.4,3 -1.3,5.4 -2.6,10.8 -3.9,16.2 -0.5,2.2 0.2,3.6 2.3,4.4 20.4,8 40.7,15.9 61.1,23.9 0.7,0.3 1.4,0.6 2.2,0.6 1.7,0 2.8,-0.8 3.3,-2.8 2.7,-10.8 5.4,-21.5 8,-32.3 0.6,-2.6 -0.6,-4.3 -3.3,-4.6 z"
         fill="#fdd100"
         stroke-width="0"
         id="path19" />
      <path
         d="m 205.1,77.2 c 2,1.9 3.6,2 5.7,0.3 11.6,-9.3 23.2,-18.6 34.8,-27.9 5.3,-4.2 10.7,-8.4 16,-12.7 2.8,-2.2 2.9,-4.1 0.5,-6.6 -3.8,-3.7 -7.6,-7.3 -11.4,-11 -4,-3.9 -8.1,-7.8 -12.1,-11.6 -0.8,-0.7 -1.6,-1.3 -2.8,-1.3 -1.2,0 -2.4,1.1 -3.3,2.2 -6.4,8.4 -12.8,16.8 -19.1,25.2 -6.8,8.9 -13.6,17.8 -20.4,26.7 -1.6,2.1 -1.5,3.7 0.4,5.5 3.9,3.7 7.8,7.5 11.6,11.2 z"
         fill="#fdd100"
         stroke-width="0"
         id="path20" />
      <path
         d="m 201.2,82.3 c 3.7,3.5 8.9,3.9 13,0.7 9.6,-7.5 19.1,-15.2 28.6,-22.8 7.5,-6 15,-12.2 22.6,-18.1 6.2,-4.8 6.6,-11.4 0.8,-16.8 -7.4,-7 -14.8,-14.1 -22,-21.3 -1.8,-1.8 -3.8,-3.3 -6.3,-4 h -4 c -2.7,0.9 -4.8,2.5 -6.5,4.8 -13.1,17.3 -26.2,34.6 -39.4,51.8 -3.7,4.9 -3.4,9.9 1,14.2 4,3.9 8.1,7.7 12.2,11.6 v 0 z m -8.1,-21.8 c 6.8,-8.9 13.6,-17.8 20.4,-26.7 6.4,-8.4 12.8,-16.8 19.1,-25.2 0.8,-1.1 1.7,-2.2 3.3,-2.2 1.6,0 2,0.6 2.8,1.3 4,3.9 8.1,7.8 12.1,11.6 3.8,3.7 7.6,7.3 11.4,11 2.5,2.4 2.3,4.3 -0.5,6.6 -5.3,4.2 -10.7,8.4 -16,12.7 -11.6,9.3 -23.2,18.6 -34.8,27.9 -2.1,1.7 -3.6,1.6 -5.7,-0.3 -3.9,-3.7 -7.8,-7.5 -11.6,-11.2 -1.9,-1.8 -2,-3.4 -0.4,-5.5 z"
         fill="#000000"
         stroke-width="0"
         id="path21" />
      <path
         d="m 294.4,139.8 c -5.3,-0.7 -10.6,-1.4 -15.8,-2 -12.5,-1.6 -25,-3.2 -37.6,-4.8 -4.7,-0.6 -9.4,-1.2 -13.7,-1.7 -4.9,0 -8.7,3 -9.9,7.6 -1.4,5.7 -2.8,11.4 -4.1,17.1 -1.2,5.1 1.2,9.5 6.1,11.4 3.5,1.4 7,2.8 10.6,4.2 17.1,6.7 34.3,13.4 51.4,20.1 5.9,2.3 12,-0.7 13.5,-6.7 2.7,-10.9 5.4,-21.7 8.1,-32.6 1.6,-6.3 -2,-11.6 -8.5,-12.5 h -0.1 z m 2.2,11 c -2.6,10.8 -5.3,21.5 -8,32.3 -0.5,2 -1.6,2.9 -3.3,2.8 -0.8,0 -1.5,-0.3 -2.2,-0.6 -20.4,-8 -40.7,-15.9 -61.1,-23.9 -2.2,-0.8 -2.8,-2.2 -2.3,-4.4 1.3,-5.4 2.6,-10.8 3.9,-16.2 0.6,-2.5 1.9,-3.4 4.4,-3 16.3,2.1 32.6,4.2 48.8,6.3 5.5,0.7 11,1.4 16.5,2.1 2.6,0.3 3.9,2 3.3,4.6 z"
         fill="#000000"
         stroke-width="0"
         id="path22" />
      <path
         d="m 201.3,127.2 c -2.1,-0.5 -4.2,-1 -6.3,-1.4 -3.1,-0.7 -5.9,0 -8.4,2 -1.2,1 -2.2,2.2 -2.7,3.7 -1.7,5.4 -2.7,11 -3.6,15.6 0,5.6 2.8,9.4 7.3,10.5 2.3,0.6 4.6,1.1 6.9,1.5 5.4,1 10.1,-2.1 11.4,-7.5 1,-4.2 1.9,-8.3 2.8,-12.5 1.2,-5.5 -1.9,-10.4 -7.4,-11.8 v 0 z m 1.1,10.3 c -0.9,4.1 -1.8,8.3 -2.8,12.4 -0.5,2 -1.6,2.8 -3.8,2.8 -2.1,-0.3 -4.6,-0.8 -6.9,-1.5 -1.6,-0.5 -2.4,-1.8 -2.1,-3.5 0.9,-4.5 1.9,-9 3,-13.5 0.4,-1.5 2,-2.3 3.5,-2 2.1,0.4 4.3,0.9 6.4,1.5 2,0.5 3,2 2.6,3.9 h 0.1 z"
         fill="#000000"
         stroke-width="0"
         id="path23" />
      <path
         d="m 170.8,78.4 c -1.6,1.6 -3.1,3.3 -4.6,5 -3.8,4.2 -3.5,10 0.6,13.8 3.2,3 6.4,5.9 9.6,8.8 3.9,3.5 9.6,3.4 13.4,-0.3 1.8,-1.7 3.4,-3.6 5,-5.5 3.3,-3.8 3.1,-9.5 -0.5,-13 -3.4,-3.3 -6.9,-6.4 -10.4,-9.6 -1.8,-1.6 -3.9,-2.3 -6.2,-2.2 -2.8,0 -5,1 -6.9,3 z m 18.7,13.1 c 0.7,0.7 1.1,1.5 1.1,2.5 0,1 -0.4,1.7 -1,2.4 -1.3,1.5 -2.7,3 -4.1,4.5 -1.5,1.6 -3.3,1.7 -5,0.2 -3.1,-2.8 -6.2,-5.7 -9.3,-8.6 -1.6,-1.5 -1.7,-3.2 -0.3,-4.8 1.4,-1.6 2.8,-3.1 4.2,-4.6 1.5,-1.5 3.2,-1.6 4.8,-0.2 3.2,2.8 6.3,5.7 9.5,8.6 z"
         fill="#000000"
         stroke-width="0"
         id="path24" />
    </g>
    <g
       id="g26">
      <path
         d="m 217.4,114.5 h -8.8 l -1.2,4.1 h -7.9 l 9.4,-25 h 8.4 l 9.4,25 h -8.1 z m -1.6,-5.4 -2.8,-9 -2.7,9 z"
         fill="#9f0000"
         stroke-width="0"
         id="path25" />
      <path
         d="m 229.3,93.7 h 11.5 c 2.3,0 4.1,0.3 5.5,0.9 1.4,0.6 2.5,1.5 3.5,2.6 1,1.1 1.6,2.5 2,4 0.4,1.5 0.6,3.1 0.6,4.8 0,2.7 -0.3,4.7 -0.9,6.2 -0.6,1.5 -1.5,2.7 -2.5,3.7 -1,1 -2.2,1.7 -3.5,2 -1.7,0.5 -3.2,0.7 -4.6,0.7 h -11.5 v -25 h -0.1 z m 7.7,5.6 V 113 h 1.9 c 1.6,0 2.8,-0.2 3.4,-0.5 0.6,-0.3 1.2,-1 1.6,-1.9 0.4,-0.9 0.6,-2.3 0.6,-4.3 0,-2 -0.4,-4.5 -1.3,-5.4 -0.9,-0.9 -2.3,-1.5 -4.3,-1.5 H 237 Z"
         fill="#9f0000"
         stroke-width="0"
         id="path26" />
    </g>
  </g>
</svg>
