<?xml version="1.0" encoding="UTF-8" standalone="no"?>
<svg
   id="Layer_1"
   data-name="Layer 1"
   version="1.2"
   viewBox="0 0 86789.162 84042.01"
   sodipodi:docname="Advertisers.svg"
   width="86789.164"
   height="84042.008"
   xmlns:inkscape="http://www.inkscape.org/namespaces/inkscape"
   xmlns:sodipodi="http://sodipodi.sourceforge.net/DTD/sodipodi-0.dtd"
   xmlns="http://www.w3.org/2000/svg"
   xmlns:svg="http://www.w3.org/2000/svg">
  <defs
     id="defs29" />
  <sodipodi:namedview
     id="namedview27"
     bordercolor="#000000"
     borderopacity="0.25"
     inkscape:deskcolor="#d1d1d1"
     inkscape:pagecheckerboard="0"
     inkscape:pageopacity="0.0"
     inkscape:showpageshadow="2"
     pagecolor="#ffffff" />
  <sodipodi:namedview
     id="namedview1"
     bordercolor="#000000"
     borderopacity="0.25"
     inkscape:deskcolor="#d1d1d1"
     inkscape:pagecheckerboard="0"
     inkscape:pageopacity="0.0"
     inkscape:showpageshadow="2"
     pagecolor="#ffffff" />
  <sodipodi:namedview
     id="namedview2"
     bordercolor="#000000"
     borderopacity="0.25"
     inkscape:deskcolor="#d1d1d1"
     inkscape:pagecheckerboard="0"
     inkscape:pageopacity="0.0"
     inkscape:showpageshadow="2"
     pagecolor="#ffffff" />
  <g
     id="g29">
    <path
       d="m 291.5,134.9 c -1.4,-2 -3.1,-3.7 -5.1,-5 v -2.1 c 0,0 -8.6,-1.1 -8.6,-1.1 -4.7,-0.6 -9.6,-1.3 -14.4,-1.8 -1.3,-0.2 -2.6,-0.3 -3.9,-0.5 V 68.2 c 0,-1.8 0,-3.5 -0.2,-5.1 v -0.6 c -0.3,-2.6 -0.9,-5 -1.9,-7.3 4.4,-3.8 7,-8.8 7.2,-14 C 264.9,35.6 262.4,30 257.8,25.7 249.8,18.1 243.7,12.2 238.1,6.6 235,3.5 231.7,1.4 228,0.4 L 226.7,0 h -6.6 l -1.5,0.5 c -4.3,1.4 -7.9,4.1 -10.7,7.8 -8,10.6 -16.2,21.4 -24.4,32.2 H 24.1 C 10.8,40.5 0,51.2 0,64.3 v 170.3 c 0,11.8 6.6,21.6 17.7,26.1 h 0.2 c 4.3,1.7 9.1,2.5 14.5,2.5 h 62.9 v 0.5 c -1.3,0 -2.5,0 -3.8,0 -4.1,0 -8.1,0 -12.2,0 -4.1,0 -8.6,0 -12.3,0 h -0.4 c 0,0 -0.4,0 -0.4,0 -6.9,0.6 -12.1,6.2 -12,13 0,6.8 5.3,12.3 12.2,12.8 h 0.4 c 0,0 0.4,0 0.4,0 5.6,0 11.2,0 16.8,0 10.8,0 21.6,0 32.3,0 10.8,0 21.6,0 32.4,0 17.2,0 31.3,0 44.3,-0.3 h 1.1 c 0,0 1.1,-0.3 1.1,-0.3 6,-1.4 10.1,-6.7 9.9,-12.8 -0.2,-6.1 -4.5,-11.2 -10.5,-12.3 h -0.7 c 0,-0.1 -0.7,-0.2 -0.7,-0.2 -3.9,-0.2 -8.2,-0.3 -13.4,-0.3 -5.2,0 -6,0 -9.1,0 -2.3,0 -4.6,0 -7,0 v -0.6 h 63.2 c 4.3,0 8.1,-0.7 11.7,-2 13,-5 20.7,-16.6 20.7,-31.2 v -37.9 c 0.5,0.2 1,0.4 1.6,0.6 2.4,0.9 4.8,1.4 7.3,1.4 v 0 c 8.8,0 16.1,-5.8 18.3,-14.4 1.2,-4.9 2.4,-9.8 3.6,-14.7 1.2,-4.9 2.5,-9.9 3.7,-14.8 1.4,-5.5 0.5,-11 -2.5,-15.5 z"
       fill="#ffffff"
       stroke-width="0"
       id="path2" />
    <g
       id="g28">
      <g
         id="g4">
        <path
           id="path1"
           d="m 235.9,50.6 c 7,0 12.9,5.8 13.5,12.8 0,1.6 0.2,3.2 0.2,4.8 v 162 c 0,10.4 -5.3,18.4 -14.3,21.8 -2.6,1 -5.3,1.4 -8.1,1.4 h -71.1 c -1.4,0 -2.2,0.7 -2.2,2.1 v 16.1 c 0,1.5 0.8,2.4 2.4,2.4 12.2,0.2 24.5,-0.4 36.7,0.2 3,0.5 3.2,4.8 0,5.5 -41.9,0.6 -83.8,0 -125.7,0.2 -3.8,-0.3 -4,-5.5 0,-5.9 12.1,-0.2 24.3,0 36.4,0 12.1,0 1.8,-0.4 1.7,-1.8 v -17.7 c 0,-0.7 -0.2,-1 -0.9,-1 h -72 c -3.8,0 -7.4,-0.5 -11,-1.8 -7.3,-3 -11.5,-9 -11.5,-16.8 V 64.4 c 0,-7.7 6.3,-13.8 14.1,-13.8 h 211.7 z"
           fill="#000000"
           stroke-width="0" />
        <path
           id="path3"
           d="m 129.4,247.5 h 99 c 7.6,-0.3 14.8,-7.2 14.9,-14.8 0.2,-8 0,-15.9 0,-23.9 0,-8 -0.5,-1.5 -1.5,-1.4 H 17.1 c -1.1,0 -1.4,0.2 -1.4,1.4 v 25.8 c 0,5.8 3,10 8.5,11.9 2.8,1 5.6,1.3 8.5,1.3 h 96.8 z m 0.1,5.9 h -17.1 c -0.7,0 -1.4,-0.2 -1.3,1 v 17.9 c 0,1.3 0.4,1.6 1.6,1.6 h 34.4 c 0.8,0 0.9,0 0.9,-1 0,-6.1 0,-12.1 0,-18.2 0,-1.3 -0.4,-1.4 -1.4,-1.4 h -17.2 z"
           fill="#ffffff"
           stroke-width="0" />
        <path
           id="path4"
           d="m 240.8,201.5 c 1.7,0 2.6,-0.9 2.6,-2.7 V 65.4 c 0,-5.7 -3.3,-9 -9,-9.1 -6.8,0.3 -75,0 -83.6,0 -41.9,0 -83.7,-0.2 -125.6,0 -5.2,-0.3 -9.5,3.2 -9.4,8.9 v 133.2 c 0,2.1 1,3.1 3,3.1 z"
           fill="#ffffff"
           stroke-width="0" />
        <path
           id="path5"
           d="m 143,226.1 c 0,7.5 -5.9,13.3 -13.4,13.3 -7.5,0 -13.4,-6.1 -13.3,-13.4 0,-7.3 6.2,-13.3 13.5,-13.2 7.2,0 13.1,6.1 13.1,13.4 v 0 z m -5.8,0 c 0,-4.2 -3.3,-7.6 -7.4,-7.6 -4.1,0 -7.5,3.4 -7.6,7.4 0,4.1 3.3,7.5 7.4,7.6 4.2,0 7.5,-3.3 7.6,-7.4 z"
           fill="#000000"
           stroke-width="0" />
      </g>
      <path
         id="path6"
         d="m 129.7,218.6 c -4.1,0 -7.6,3.4 -7.6,7.4 0,4 3.3,7.5 7.4,7.6 4.2,0 7.5,-3.3 7.6,-7.4 0,-4.2 -3.3,-7.6 -7.4,-7.6 z"
         fill="#969696"
         stroke-width="0" />
      <g
         id="g16">
        <path
           id="path7"
           d="m 30.4,169.3 c 1.5,-0.5 3.4,-1.1 5.4,-1.7 1,-0.3 1.1,-0.8 0.7,-1.7 -1.4,-3.4 -2.5,-6.9 -3.3,-10.5 -0.2,-0.9 -0.6,-1.3 -1.6,-1 -1.8,0.6 -3.5,1.2 -5.3,1.7 -0.8,0.2 -1.1,0.8 -1.1,1.6 -0.2,4.1 1.1,7.6 3.5,11 0.3,0.5 0.7,0.8 1.8,0.7 v 0 0 z"
           fill="#d9e2e9"
           stroke-width="0" />
        <path
           id="path8"
           d="m 135.7,136.2 c 0.3,-1.2 0.3,-2.4 0.3,-4.3 -0.3,-5.8 -2.2,-11.6 -6,-16.7 -0.6,-0.8 -1.3,-1.9 -2.3,-1.6 -1,0.3 -0.8,1.7 -0.9,2.6 -0.3,6.2 1.6,11.9 4.7,17.2 0.7,1.2 1.6,2.2 2.6,3.1 0.8,0.6 1.2,0.6 1.5,-0.5 v 0 0.3 z"
           fill="#969696"
           stroke-width="0" />
        <path
           id="path9"
           d="m 71.3,122.8 c -0.9,1 -1.3,2 -1.3,3.4 0.2,13.4 3.6,26 10.9,37.4 1.5,2.4 3,3.8 6.2,4.1 8.3,0.6 16.6,1.6 24.7,2.4 8.4,0.9 16.8,1.7 25.3,2.5 2.5,0.2 4.9,0.5 7.5,0.7 -11,-13.7 -17.6,-29.1 -22.8,-45.2 -5.3,-16.1 -9.1,-32.6 -9.1,-49.6 0,0 -0.3,-0.2 -0.5,-0.2 -0.3,0.4 -0.7,0.9 -1,1.3 -4.5,4.9 -9.1,10 -13.7,14.8 -8.8,9.5 -17.6,19 -26.3,28.4 h 0.2 v -0.2 z"
           fill="#d9e2e9"
           stroke-width="0" />
        <path
           id="path10"
           d="m 82.9,216.5 c -3,-9.1 -5.8,-18.3 -8.7,-27.3 -1.1,-3.6 -2.3,-7.2 -3.5,-10.9 -0.2,-0.6 -0.2,-1.4 -1.2,-1.3 -2.8,0.7 -5.5,1.4 -8.3,2 -1.2,0.3 -1.3,0.8 -1,1.9 4.3,13 8.3,26 12.4,39 0.4,1.2 1,1.4 2.1,1 2.3,-0.8 4.7,-1.6 7.2,-2.2 1.3,-0.4 1.5,-0.9 1.1,-2.2 v 0 z"
           fill="#d9e2e9"
           stroke-width="0" />
        <path
           id="path11"
           d="m 122.6,107.1 c 0.2,1.1 0.5,1.2 1.5,0.6 1.9,-1.3 3.9,-1.3 6,-0.5 2,0.8 3.5,2.2 4.9,3.8 3.5,4.4 5.6,9.5 6.8,15 0.9,4.3 1.4,8.4 0,12.5 -0.9,2.6 -2.4,4.7 -5.3,5 -1.7,0.2 -1.4,0.8 -0.9,1.8 2.1,4.5 4.3,9 6.8,13.2 2.9,4.8 6,9.5 10.3,13.1 3.9,3.3 6.2,2.5 7.4,-2.3 1,-3.5 1.1,-7.1 1,-11 0.2,-4.1 -0.3,-8.4 -0.9,-12.8 -2.3,-16.5 -7.1,-32.3 -13.5,-47.5 -3.7,-8.8 -8.1,-17.5 -14,-25 -1.9,-2.4 -3.9,-4.8 -6.6,-6.3 -1.8,-1.1 -2.6,-0.9 -4,0.6 -1,1 -1.5,2.3 -1.8,3.6 -1,4.8 -1.1,9.7 -0.8,14.7 0.5,7.2 1.7,14.2 3.1,21.3 v 0 z"
           fill="#5fc4f8"
           stroke-width="0" />
        <path
           id="path12"
           d="m 75.3,166.8 v 0 c -7.2,-11.2 -11.1,-23.6 -11.8,-37.1 0,-1.3 -0.6,-1.7 -1.8,-1.2 -7.6,3.3 -15.2,6.6 -22.8,9.9 -1.3,0.6 -1.7,1.3 -1.6,2.6 0.3,3.7 0.9,7.3 1.7,11 1.8,7.8 4.5,15.2 8.8,21.9 0.4,0.7 0.8,1.4 1.8,1.3 0.4,0 0.9,-0.2 1.3,-0.3 7.8,-1.9 15.8,-3.9 23.5,-5.8 1.3,-0.4 1.6,-1.1 0.8,-2.2 v 0 z"
           fill="#5fc4f8"
           stroke-width="0" />
        <path
           id="path13"
           d="m 20.1,167.1 c 0,0 0,0 0,0.2 z"
           fill="#000000"
           stroke-width="0" />
        <path
           id="path14"
           d="m 18.5,155.2 c -1.5,5.5 1.6,12.1 1.6,12.1 v 0 c 0,0 0,0 0,0 v 0 c 0,0 0.3,-15.2 0.3,-15.2 l -1.9,3 v 0 z"
           fill="#000000"
           stroke-width="0" />
        <path
           id="path15"
           d="m 136.8,67.8 v 0 l 6.8,9.6"
           fill="#000000"
           stroke-width="0" />
        <path
           id="path16"
           d="m 166,139.9 c -4,-21.7 -11,-42.5 -21.9,-61.8 -0.2,-0.4 -0.4,-0.5 -0.5,-0.8 l -6.8,-9.6 c -2.2,-2.9 -4.9,-5.3 -8.2,-6.9 -4.7,-2.3 -8.8,-1.3 -11.9,3 -1.1,1.5 -2.4,2.9 -3.7,4.3 l 0.3,-0.4 -0.3,0.4 v 0 c -0.5,0.6 -0.9,1.2 -1.4,1.5 l -7.2,7.8 -0.2,0.2 v 0 l -0.4,0.4 c -10.3,10.6 -20.2,21.7 -30.2,32.6 -2.6,2.8 -5.3,5.6 -7.8,8.5 -0.6,0.7 -1.3,1.1 -2.1,1.5 -7.2,3 -14.1,6.2 -21.3,9.1 -1.4,0.6 -2.6,1.2 -4.1,1.8 l 0.8,-0.4 -0.8,0.4 v 0 c 0,0 -0.2,0 -0.4,0 l -7.2,2.8 c 0,3.7 0.5,7.5 0.9,11.2 0.2,1.4 -0.2,1.9 -1.4,2.2 -2.7,0.8 -5.5,1.6 -8.1,2.7 -0.5,0.3 -0.8,0.5 -1,0.5 l -0.6,0.9 -0.3,15.3 c 1.4,2.7 3.1,5.2 5.2,7.3 1,1 2.1,1.7 3.5,1.5 h 0.7 l 9.1,-2.9 -9.1,2.9 c 0.7,0 9.1,-2.8 9.1,-2.8 1.1,-0.3 1.4,0.5 1.9,1.3 1,1.7 2.2,3.3 3.2,5 1.4,2.2 3.3,2.8 5.8,2.3 2.5,-0.5 4.2,0.4 5,2.9 1.7,5.3 3.3,10.5 5,15.8 0,0.4 0.2,0.5 0.2,0.8 l 2.6,8.2 c 0.2,0.3 0.3,0.5 0.4,0.9 0.2,0.8 0.5,1.7 0.7,2.5 l 0.5,1.3 c 0.4,1 0.7,2 1.1,3.1 0,0.4 0.2,0.6 0.2,0.9 l 3.4,8.7 c 0.9,1.1 2.3,1.4 3.8,1.2 0.4,0 0.9,0 1.3,-0.3 1.4,-0.6 3,-1.2 4.4,-1.5 l 10.6,-3.5 1.5,-4.2 c 0,-0.2 -0.2,-0.4 -0.3,-0.6 -0.7,-2.5 -1.5,-4.9 -2.3,-7.4 -0.6,-1.9 -2.5,-8.6 -3,-9.5 l 2.6,8.6 -2.6,-8.6 c 0,-0.2 -0.2,-0.5 -0.3,-0.7 -0.6,-2.3 -1.4,-4.5 -2.1,-6.8 -1.8,-5.6 -3.6,-11.3 -5.4,-17 -0.2,-0.7 -0.8,-1.5 0.5,-1.8 2.5,-0.5 4.8,-1.5 7.4,-1.2 3.7,0.4 7.3,0.7 11,1.1 9.4,1 18.8,1.9 28.2,2.9 8.3,0.9 16.7,1.7 25,2.5 2.6,0.2 5.1,0.9 7.7,0.5 4.6,-0.8 7.5,-3.6 9.1,-8.1 1.3,-3.9 1.8,-7.9 1.9,-12 0.2,-7.1 -0.6,-13.8 -1.9,-20.6 v 0 z M 35.7,167.7 c -1.9,0.6 -3.9,1.2 -5.4,1.7 -1.1,0.2 -1.5,-0.2 -1.8,-0.7 -2.4,-3.2 -3.7,-6.8 -3.5,-11 0,-0.8 0.3,-1.3 1.1,-1.6 v 0 c 1.8,-0.5 3.6,-1.1 5.3,-1.7 1,-0.3 1.4,0 1.6,1 0.8,3.6 2,7.2 3.3,10.5 0.4,0.9 0.3,1.4 -0.7,1.7 v 0 z m 15.2,7.4 v 0 c -0.5,0 -1,0 -1.3,0.2 -1,0 -1.4,-0.7 -1.8,-1.3 -4.3,-6.7 -7.1,-14.1 -8.8,-21.9 -0.8,-3.6 -1.4,-7.2 -1.7,-11 0,-1.3 0.3,-2.1 1.6,-2.6 7.6,-3.2 15.2,-6.6 22.8,-9.9 1.2,-0.5 1.8,-0.2 1.8,1.2 0.6,13.4 4.5,25.9 11.8,37.2 1.1,1.8 1.1,1.7 -0.8,2.2 -7.8,1.9 -15.8,3.9 -23.5,5.8 v 0 z m 32,41.4 c 0.4,1.3 0.2,1.9 -1.1,2.2 -2.4,0.6 -4.7,1.4 -7.2,2.2 -1.1,0.4 -1.7,0.2 -2.1,-1 -4.1,-13 -8.3,-26.1 -12.4,-39 -0.3,-1 -0.2,-1.6 1,-1.9 2.8,-0.6 5.5,-1.4 8.3,-2 1,0 1,0.7 1.2,1.3 1.2,3.6 2.3,7.2 3.5,10.9 2.9,9.1 5.8,18.3 8.7,27.3 v 0 z m 54.2,-44 c -8.4,-0.8 -16.8,-1.7 -25.3,-2.5 -8.2,-0.8 -16.6,-1.8 -24.7,-2.4 -3.1,-0.2 -4.6,-1.7 -6.2,-4.1 -7.2,-11.4 -10.7,-24 -10.9,-37.4 0,-1.4 0.4,-2.4 1.3,-3.4 8.8,-9.5 17.7,-18.9 26.3,-28.4 4.5,-4.9 9.1,-10 13.7,-14.8 h -0.2 c 0.4,-0.3 0.7,-0.7 1,-1.2 0.2,0 0.3,0.2 0.5,0.2 0,17.1 3.7,33.5 9.1,49.6 5.3,16.1 11.9,31.7 22.8,45.2 -2.6,-0.2 -5.1,-0.5 -7.5,-0.7 v 0 z m -9.3,-58.8 c 1,-0.3 1.7,0.9 2.3,1.6 3.9,5.1 5.8,11 6,16.7 0,1.8 0,3 -0.3,4.3 -0.3,1 -0.8,1.1 -1.5,0.5 v 0 c -1.1,-1 -1.9,-2.1 -2.6,-3.2 -3.1,-5.3 -5,-11 -4.7,-17.2 0,-1 0,-2.3 0.9,-2.6 v -0.2 z m 33.4,44.9 c 0,3.8 0,7.4 -1,11 -1.4,4.9 -3.6,5.6 -7.4,2.3 -4.3,-3.7 -7.4,-8.3 -10.3,-13.1 -2.5,-4.3 -4.8,-8.7 -6.8,-13.2 -0.5,-1.1 -0.7,-1.7 0.9,-1.8 2.9,-0.3 4.5,-2.4 5.3,-5 1.4,-4.3 1,-8.3 0,-12.5 -1.2,-5.5 -3.3,-10.6 -6.8,-15 -1.3,-1.6 -2.9,-3 -4.9,-3.8 -2.1,-0.9 -4.1,-0.8 -6,0.5 -0.9,0.7 -1.3,0.5 -1.5,-0.6 -1.4,-7.1 -2.7,-14 -3.1,-21.3 -0.3,-4.9 -0.3,-9.9 0.8,-14.7 0.3,-1.4 0.9,-2.6 1.8,-3.6 1.4,-1.5 2.2,-1.7 4,-0.6 2.7,1.6 4.7,3.9 6.6,6.3 6,7.6 10.2,16.1 14,25 6.5,15.2 11.1,31 13.5,47.5 0.6,4.3 1.1,8.6 0.9,12.8 v 0 z"
           fill="#000000"
           stroke-width="0" />
        <path
           id="path17"
           d="m 63.6,213.1 c 0.2,0.5 0.3,0.9 0.5,1.3 z"
           fill="#000000"
           stroke-width="0" />
      </g>
      <g
         id="g27">
        <g
           id="g24">
          <path
             id="path18"
             d="m 168.6,85.1 c -1.4,1.4 -2.6,2.7 -3.8,4.2 -1.3,1.4 -1.2,3 0.3,4.3 2.8,2.6 5.6,5.3 8.4,7.8 1.5,1.4 3.1,1.3 4.5,-0.2 1.3,-1.4 2.5,-2.7 3.7,-4.1 0.5,-0.6 0.9,-1.3 0.9,-2.2 0,-0.9 -0.4,-1.6 -1,-2.3 -2.8,-2.6 -5.7,-5.3 -8.6,-7.8 -1.4,-1.3 -3,-1.2 -4.3,0.2 v 0 z"
             fill="#fdd100"
             stroke-width="0" />
          <path
             id="path19"
             d="m 190.9,130.9 c -1.9,-0.5 -3.9,-0.9 -5.8,-1.4 -1.4,-0.3 -2.8,0.5 -3.2,1.8 -1,4.1 -1.9,8.1 -2.7,12.2 -0.3,1.5 0.5,2.7 1.9,3.2 2.1,0.7 4.3,1.1 6.2,1.4 2,0 3,-0.6 3.4,-2.5 0.9,-3.7 1.7,-7.4 2.5,-11.2 0.4,-1.8 -0.5,-3.1 -2.4,-3.5 v 0 z"
             fill="#fdd100"
             stroke-width="0" />
          <path
             id="path20"
             d="m 275.6,142.3 c -5,-0.6 -10,-1.3 -14.9,-1.9 -14.8,-1.9 -29.5,-3.8 -44.2,-5.7 -2.4,-0.3 -3.4,0.5 -4,2.7 -1.2,4.9 -2.4,9.8 -3.5,14.7 -0.5,2 0.2,3.3 2.1,4 18.5,7.2 36.8,14.4 55.3,21.6 0.6,0.3 1.3,0.5 2,0.5 1.5,0 2.5,-0.7 3,-2.5 2.4,-9.8 4.9,-19.5 7.2,-29.2 0.5,-2.4 -0.5,-3.9 -3,-4.2 z"
             fill="#fdd100"
             stroke-width="0" />
          <path
             id="path21"
             d="m 195.7,79.9 c 1.8,1.7 3.3,1.8 5.2,0.3 10.5,-8.4 21,-16.8 31.5,-25.3 4.8,-3.8 9.7,-7.6 14.5,-11.5 2.5,-2 2.6,-3.7 0.5,-6 -3.4,-3.3 -6.9,-6.6 -10.3,-10 -3.6,-3.5 -7.3,-7.1 -11,-10.5 -0.7,-0.6 -1.4,-1.2 -2.5,-1.2 -1.1,0 -2.2,1 -3,2 -5.8,7.6 -11.6,15.2 -17.3,22.8 -6.2,8.1 -12.3,16.1 -18.5,24.2 -1.4,1.9 -1.4,3.3 0.4,5 3.5,3.3 7.1,6.8 10.5,10.1 v 0 z"
             fill="#fdd100"
             stroke-width="0" />
          <path
             id="path22"
             d="m 192.1,84.5 c 3.3,3.2 8.1,3.5 11.8,0.6 8.7,-6.8 17.3,-13.8 25.9,-20.6 6.8,-5.4 13.6,-11 20.5,-16.4 5.6,-4.3 6,-10.3 0.7,-15.2 -6.7,-6.3 -13.4,-12.8 -19.9,-19.3 -1.6,-1.6 -3.4,-3 -5.7,-3.6 h -3.6 c -2.4,0.8 -4.3,2.3 -5.9,4.3 -11.9,15.7 -23.7,31.3 -35.7,46.9 -3.3,4.4 -3.1,9 0.9,12.9 3.6,3.5 7.3,7 11,10.5 v 0 z m -7.3,-19.7 c 6.2,-8.1 12.3,-16.1 18.5,-24.2 5.8,-7.6 11.6,-15.2 17.3,-22.8 0.7,-1 1.5,-2 3,-2 1.5,0 1.8,0.5 2.5,1.2 3.6,3.5 7.3,7.1 11,10.5 3.4,3.3 6.9,6.6 10.3,10 2.3,2.2 2.1,3.9 -0.5,6 -4.8,3.8 -9.7,7.6 -14.5,11.5 -10.5,8.4 -21,16.8 -31.5,25.3 -1.9,1.5 -3.3,1.4 -5.2,-0.3 -3.5,-3.3 -7.1,-6.8 -10.5,-10.1 -1.7,-1.6 -1.8,-3.1 -0.4,-5 v 0 z"
             fill="#000000"
             stroke-width="0" />
          <path
             id="path23"
             d="m 276.5,136.5 c -4.8,-0.6 -9.6,-1.3 -14.3,-1.8 -11.3,-1.4 -22.6,-2.9 -34,-4.3 -4.3,-0.5 -8.5,-1.1 -12.4,-1.5 -4.4,0 -7.9,2.7 -9,6.9 -1.3,5.2 -2.5,10.3 -3.7,15.5 -1.1,4.6 1.1,8.6 5.5,10.3 3.2,1.3 6.3,2.5 9.6,3.8 15.5,6.1 31,12.1 46.5,18.2 5.3,2.1 10.9,-0.6 12.2,-6.1 2.4,-9.9 4.9,-19.6 7.3,-29.5 1.4,-5.7 -1.8,-10.5 -7.7,-11.3 v 0 z m 2,10 c -2.4,9.8 -4.8,19.5 -7.2,29.2 -0.5,1.8 -1.4,2.6 -3,2.5 -0.7,0 -1.4,-0.3 -2,-0.5 -18.5,-7.2 -36.8,-14.4 -55.3,-21.6 -2,-0.7 -2.5,-2 -2.1,-4 1.2,-4.9 2.4,-9.8 3.5,-14.7 0.5,-2.3 1.7,-3.1 4,-2.7 14.8,1.9 29.5,3.8 44.2,5.7 5,0.6 10,1.3 14.9,1.9 2.4,0.3 3.5,1.8 3,4.2 z"
             fill="#000000"
             stroke-width="0" />
          <path
             id="path24"
             d="m 192.2,125.1 c -1.9,-0.5 -3.8,-0.9 -5.7,-1.3 -2.8,-0.6 -5.3,0 -7.6,1.8 -1.1,0.9 -2,2 -2.4,3.3 -1.5,4.9 -2.4,10 -3.3,14.1 0,5.1 2.5,8.5 6.6,9.5 2.1,0.5 4.2,1 6.2,1.4 4.9,0.9 9.1,-1.9 10.3,-6.8 0.9,-3.8 1.7,-7.5 2.5,-11.3 1.1,-5 -1.7,-9.4 -6.7,-10.7 v 0 z m 1,9.4 c -0.8,3.7 -1.6,7.5 -2.5,11.2 -0.5,1.8 -1.4,2.5 -3.4,2.5 -1.9,-0.3 -4.2,-0.7 -6.2,-1.4 -1.4,-0.5 -2.2,-1.6 -1.9,-3.2 0.8,-4.1 1.7,-8.1 2.7,-12.2 0.4,-1.4 1.8,-2.1 3.2,-1.8 1.9,0.4 3.9,0.8 5.8,1.4 1.8,0.5 2.7,1.8 2.4,3.5 v 0 z"
             fill="#000000"
             stroke-width="0" />
          <path
             id="path25"
             d="m 164.6,81 c -1.4,1.4 -2.8,3 -4.2,4.5 -3.4,3.8 -3.2,9.1 0.5,12.5 2.9,2.7 5.8,5.3 8.7,8 3.5,3.2 8.7,3.1 12.1,-0.3 1.6,-1.5 3.1,-3.3 4.5,-5 3,-3.4 2.8,-8.6 -0.5,-11.8 -3.1,-3 -6.2,-5.8 -9.4,-8.7 -1.6,-1.4 -3.5,-2.1 -5.6,-2 -2.5,0 -4.5,0.9 -6.2,2.7 v 0 z m 16.9,11.8 c 0.6,0.6 1,1.4 1,2.3 0,0.9 -0.4,1.5 -0.9,2.2 -1.2,1.4 -2.4,2.7 -3.7,4.1 -1.4,1.4 -3,1.5 -4.5,0.2 -2.8,-2.5 -5.6,-5.2 -8.4,-7.8 -1.4,-1.4 -1.5,-2.9 -0.3,-4.3 1.3,-1.4 2.5,-2.8 3.8,-4.2 1.4,-1.4 2.9,-1.4 4.3,-0.2 2.9,2.5 5.7,5.2 8.6,7.8 v 0 z"
             fill="#000000"
             stroke-width="0" />
        </g>
        <g
           id="g26">
          <path
             id="path26"
             d="m 206.8,113.6 h -8 l -1.1,3.7 h -7.2 L 199,94.7 h 7.6 l 8.5,22.6 h -7.3 l -1.1,-3.7 z m -1.5,-4.8 -2.5,-8.1 -2.4,8.1 h 5 z"
             fill="#9f0000"
             stroke-width="0" />
          <path
             id="path27"
             d="M 217.6,94.8 H 228 c 2.1,0 3.7,0.3 5,0.8 1.3,0.5 2.3,1.4 3.2,2.4 0.9,1 1.4,2.3 1.8,3.6 0.4,1.3 0.5,2.8 0.5,4.3 0,2.4 -0.3,4.3 -0.8,5.6 -0.5,1.4 -1.4,2.4 -2.3,3.3 -0.9,0.9 -2,1.5 -3.2,1.8 -1.5,0.5 -2.9,0.6 -4.2,0.6 h -10.4 v -22.6 0 z m 6.9,5.1 v 12.4 h 1.7 c 1.4,0 2.5,-0.2 3.1,-0.5 0.5,-0.3 1.1,-0.9 1.4,-1.7 0.4,-0.8 0.5,-2.1 0.5,-3.9 0,-1.8 -0.4,-4.1 -1.2,-4.9 -0.8,-0.8 -2.1,-1.4 -3.9,-1.4 h -1.7 z"
             fill="#9f0000"
             stroke-width="0" />
        </g>
      </g>
    </g>
    <sodipodi:namedview
       id="namedview28"
       bordercolor="#000000"
       borderopacity="0.25"
       inkscape:deskcolor="#d1d1d1"
       inkscape:pagecheckerboard="0"
       inkscape:pageopacity="0.0"
       inkscape:showpageshadow="2"
       pagecolor="#ffffff" />
  </g>
</svg>
