<?xml version="1.0" encoding="UTF-8" standalone="no"?>
<svg
   id="Layer_1"
   data-name="Layer 1"
   version="1.2"
   viewBox="0 0 131188.84 121870.81"
   sodipodi:docname="AnalyticProviders.svg"
   width="131188.84"
   height="121870.81"
   xmlns:inkscape="http://www.inkscape.org/namespaces/inkscape"
   xmlns:sodipodi="http://sodipodi.sourceforge.net/DTD/sodipodi-0.dtd"
   xmlns="http://www.w3.org/2000/svg"
   xmlns:svg="http://www.w3.org/2000/svg">
  <defs
     id="defs1" />
  <g
     id="Layer_1-2"
     data-name="Layer 1"
     sodipodi:docname="AnalyticProviders.svg">
    <sodipodi:namedview
       id="namedview23"
       bordercolor="#000000"
       borderopacity="0.25"
       inkscape:current-layer="Layer_1"
       inkscape:cx="182.18797"
       inkscape:cy="174.55"
       inkscape:deskcolor="#d1d1d1"
       inkscape:pagecheckerboard="0"
       inkscape:pageopacity="0.0"
       inkscape:showpageshadow="2"
       inkscape:window-height="991"
       inkscape:window-maximized="1"
       inkscape:window-width="1920"
       inkscape:window-x="-9"
       inkscape:window-y="-9"
       inkscape:zoom="2.2257232"
       pagecolor="#ffffff" />
    <g
       id="g1">
      <path
         id="path7"
         d="M 89.3,130.6 H 105 c 5,0 8.7,4 8.7,8.7 V 261 c 0,4.7 -3.7,8.7 -8.7,8.7 H 89.3 c -4.7,0 -8.7,-4 -8.7,-8.7 V 139.3 c 0,-4.7 4,-8.7 8.7,-8.7 z"
         fill="#ff9800"
         stroke-width="0" />
      <path
         id="path8"
         d="M 127.3,168.6 H 143 c 5,0 8.7,3.7 8.7,8.7 v 83.3 c 0,5 -3.7,8.7 -8.7,8.7 h -15.7 c -4.7,0 -8.7,-3.7 -8.7,-8.7 v -83.3 c 0,-5 4,-8.7 8.7,-8.7 z"
         fill="#8bc34a"
         stroke-width="0" />
      <path
         id="path1"
         d="M 97.2,92.6 C 43.5,92.6 0,136.1 0,189.8 0,243.5 43.5,287 97.2,287 c 53.7,0 97.2,-43.5 97.2,-97.2 0,-53.7 -43.5,-97.2 -97.2,-97.2 z m 0,172.3 c -41.5,0 -75.1,-33.6 -75.1,-75.1 0,-41.5 33.6,-75.1 75.1,-75.1 41.5,0 75.1,33.6 75.1,75.1 0,41.5 -33.6,75.1 -75.1,75.1 z"
         fill="#000000"
         stroke-width="0" />
      <path
         id="path2"
         d="M 281.3,89 255,154"
         fill="none"
         stroke="#000000"
         stroke-miterlimit="10"
         stroke-width="6.7" />
      <path
         id="path3"
         d="m 267,77.8 c 6.5,-7.9 18.4,-9.7 25.9,-3.2 7.9,6.5 9.3,18 2.8,25.9 -6,8.3 -18,9.7 -25.9,3.7 -7.3,-6.5 -8.7,-18 -2.8,-26.3 v 0 z"
         fill="#78b8ef"
         fill-rule="evenodd"
         stroke-width="0" />
      <path
         id="path4"
         d="M 228.7,219 255,154"
         fill="none"
         stroke="#000000"
         stroke-miterlimit="10"
         stroke-width="6.7" />
      <path
         id="path5"
         d="m 242.1,229.7 c -6.3,8 -17.4,9.3 -25,3.1 -7.6,-5.7 -8.4,-17 -2.7,-25 6.3,-8 17.4,-9.3 25,-3.1 7.6,5.7 8.9,17.4 2.7,25 z"
         fill="#78b8ef"
         fill-rule="evenodd"
         stroke-width="0" />
      <path
         id="path6"
         d="M 274.3,220.6 251,154.6"
         fill="none"
         stroke="#000000"
         stroke-miterlimit="10"
         stroke-width="6.7" />
      <path
         id="path9"
         d="m 284.4,219.7 c 0.6,6.2 -4,11.2 -9.8,11.4 -5.6,0.2 -10.6,-4.2 -11.2,-10.2 -0.2,-6.2 4,-11.2 9.8,-11.4 5.8,-0.2 11,4.2 11.2,10.2 z"
         fill="#d2e7fa"
         fill-rule="evenodd"
         stroke-width="0" />
      <path
         id="path10"
         d="m 249.3,341.6 v 0 c -10,10 -26.3,10 -36.3,0 L 162.7,291.3 199,255 l 50.3,50.3 c 10,10 10,26.3 0,36.3 z"
         fill="#212121"
         stroke-width="0" />
      <path
         id="path11"
         d="m 187.3,254 -9.7,-9.7 c -6.7,10 -15.3,18.7 -25.3,25.7 v 0 l 9.3,9.3 1,12 36.3,-36.3 -11.7,-1 v 0 z"
         fill="#424242"
         stroke-width="0" />
      <path
         id="path12"
         d="m 68.7,80.6 h -19 c -3.7,0 -7,3 -7,7 v 153.7 c 9,9.3 20.3,16.7 33,20.3 v -174 c 0,-4 -3,-7 -7,-7 z"
         fill="#e53935"
         stroke-width="0" />
      <path
         id="path13"
         d="m 213.3,15.6 -19.7,60"
         fill="none"
         stroke="#000000"
         stroke-miterlimit="10"
         stroke-width="6.7" />
      <path
         id="path14"
         d="m 342.3,213 -88,-58"
         fill="none"
         stroke="#000000"
         stroke-miterlimit="10"
         stroke-width="6.7" />
      <path
         id="path15"
         d="M 254.3,155 193,78"
         fill="none"
         stroke="#000000"
         stroke-miterlimit="10"
         stroke-width="6.7" />
      <path
         id="path16"
         d="M 193,78 133,56"
         fill="none"
         stroke="#000000"
         stroke-miterlimit="10"
         stroke-width="6.7" />
      <path
         id="path17"
         d="m 351,131 -96,23"
         fill="none"
         stroke="#000000"
         stroke-miterlimit="10"
         stroke-width="6.7" />
      <path
         id="path18"
         d="m 174.7,63.3 c 8,-10 22.3,-11.7 32,-4 10,7.7 11.3,22 3.7,32 -8,10 -22.3,11.7 -32,4 -10,-7.7 -11.3,-22 -3.7,-32 z"
         fill="#1e88e5"
         fill-rule="evenodd"
         stroke-width="0" />
      <path
         id="path19"
         d="m 201,6 c 5.3,-6.7 15,-8 21.3,-2.7 6.7,5.3 8,15 2.7,21.7 -5.3,6.7 -15.3,8 -21.7,2.7 -6.7,-5 -7.7,-15 -2.3,-21.7 z"
         fill="#78b8ef"
         fill-rule="evenodd"
         stroke-width="0" />
      <path
         id="path20"
         d="m 228,135 c 11.7,-14.7 32.3,-17.3 47,-5.7 14.3,11.3 16.7,32.3 5,46.7 -11.3,14.7 -32.3,17.3 -46.7,6 C 219,170.7 216.6,149.3 228,135 Z"
         fill="#0f4473"
         fill-rule="evenodd"
         stroke-width="0" />
      <path
         id="path21"
         d="m 123.9,49 c 4,-4.8 11.2,-5.8 16,-1.8 4.8,3.8 5.6,11 1.6,15.8 -4,4.8 -11,5.8 -15.8,1.8 -4.8,-3.8 -5.6,-11 -1.8,-15.8 z"
         fill="#a5cff5"
         fill-rule="evenodd"
         stroke-width="0" />
      <path
         id="path22"
         d="m 342.8,124.2 c 3.8,-4.8 10.4,-5.6 15,-2.2 4.6,3.8 5.4,10.4 1.6,15.2 -3.4,4.6 -10.4,5.6 -15,1.8 -4.6,-3.8 -5,-10.4 -1.6,-15 v 0 z"
         fill="#d2e7fa"
         fill-rule="evenodd"
         stroke-width="0" />
      <path
         id="path23"
         d="m 325.3,199.3 c 7.3,-9 20.3,-10.7 29,-3.7 9,7 10.7,20.3 3.3,29.3 -7.3,9 -20,10.7 -29,3.7 -9,-7.3 -10.3,-20.3 -3.3,-29.3 z"
         fill="#4ba0ea"
         fill-rule="evenodd"
         stroke-width="0" />
    </g>
  </g>
</svg>
