<?xml version="1.0" encoding="UTF-8"?>
<svg id="Layer_1" data-name="Layer 1" xmlns="http://www.w3.org/2000/svg" baseProfile="tiny" version="1.2" viewBox="0 0 264.5 253.3">
  <g>
    <path d="M249.5,0c7.7.1,14.2,6.4,14.9,14.1.1,1.8.2,3.5.2,5.3v179c0,11.5-5.9,20.3-15.8,24.1-2.9,1.1-5.9,1.5-9,1.5h-78.5c-1.6,0-2.4.8-2.4,2.3v17.8c0,1.7.9,2.6,2.6,2.6,13.5.2,27.1-.4,40.5.2,3.3.6,3.5,5.3.1,6.1-46.3.7-92.6,0-138.9.2-4.2-.3-4.4-6.1,0-6.5,13.4-.2,26.8,0,40.2,0s2-.4,1.9-2v-19.6c0-.8-.2-1.1-1-1.1H24.8c-4.2,0-8.2-.5-12.1-2-8.1-3.3-12.7-9.9-12.7-18.6V15.3C0,6.8,7,0,15.6,0h233.9Z" fill="#000" stroke-width="0"/>
    <path d="M131.9,217.6h109.4c8.4-.3,16.3-8,16.5-16.4.2-8.8,0-17.6,0-26.4s-.5-1.7-1.7-1.6H7.8c-1.2,0-1.6.2-1.6,1.5v28.5c0,6.4,3.3,11,9.4,13.1,3.1,1.1,6.2,1.4,9.4,1.4h106.9ZM132,224.1h-18.9c-.8,0-1.5-.2-1.4,1.1v19.8c0,1.4.4,1.8,1.8,1.8h38c.9,0,1-.1,1-1.1,0-6.7-.1-13.4,0-20.1,0-1.4-.4-1.5-1.5-1.5h-19Z" fill="#fff" stroke-width="0"/>
    <path d="M255,166.8c1.9,0,2.9-1,2.9-3V16.4c0-6.3-3.7-9.9-9.9-10-7.5.3-82.9,0-92.4,0-46.3,0-92.5-.2-138.8,0-5.7-.3-10.5,3.5-10.4,9.8v147.2c0,2.3,1.1,3.4,3.3,3.4h245.3Z" fill="#fff" stroke-width="0"/>
    <path d="M146.9,193.9c0,8.3-6.5,14.7-14.8,14.7s-14.8-6.7-14.7-14.8c0-8.1,6.8-14.7,14.9-14.6,8,0,14.5,6.7,14.5,14.8h.1ZM140.5,193.9c0-4.6-3.7-8.4-8.2-8.4s-8.3,3.8-8.4,8.2c0,4.5,3.7,8.3,8.2,8.4,4.6,0,8.3-3.7,8.4-8.2Z" fill="#000" stroke-width="0"/>
  </g>
  <rect x="25.5" y="90.7" width="16.5" height="55" rx="1.5" ry="1.5" fill="#237db6" stroke="#000" stroke-miterlimit="10" stroke-width="4"/>
  <rect x="54.9" y="64.2" width="16.5" height="81.5" rx="1.5" ry="1.5" fill="#237db6" stroke="#000" stroke-miterlimit="10" stroke-width="4"/>
  <rect x="84.3" y="78.5" width="16.5" height="67.2" rx="1.5" ry="1.5" fill="#237db6" stroke="#000" stroke-miterlimit="10" stroke-width="4"/>
  <rect x="113.6" y="90.7" width="16.5" height="55" rx="1.5" ry="1.5" fill="#237db6" stroke="#000" stroke-miterlimit="10" stroke-width="4"/>
  <polyline points="12.8 84.7 62.2 39.9 119.8 71.4 141.3 45.7" fill="none" stroke="#000" stroke-linecap="round" stroke-linejoin="round" stroke-width="7"/>
  <polyline points="134.8 43 146.2 39.9 146.2 50" fill="none" stroke="#000" stroke-linecap="round" stroke-linejoin="round" stroke-width="7"/>
  <g>
    <path d="M200.5,137.9c-7.2,0-14.3-1.9-20.5-5.4-17.3-9.8-25.2-30.7-18.9-49.6,5-15,21.4-28.2,35-28.2s.5,0,.8,0v40.3c0,1.9.6,3.3,1.9,4.7,7.7,7.7,15.4,15.4,23.2,23.1l5.3,5.2c-6.9,6.2-16.8,9.8-26.8,9.8h0Z" fill="#19b394" stroke="#000" stroke-miterlimit="10" stroke-width="4"/>
    <path d="M215,101.8l-2.3-2.3c-1.9-1.9-3.8-3.8-5.6-5.7-.4-.4-.6-.9-.6-1v-39.5h1.2c10.6,0,25.9,10.6,32,22.2,7.9,15.1,5.8,33.7-5,46.1l-19.7-19.7h0Z" fill="#e46301" stroke="#000" stroke-miterlimit="10" stroke-width="4"/>
  </g>
  <path d="M132.2,185.6c-4.5,0-8.4,3.8-8.4,8.2s3.7,8.3,8.2,8.4c4.6,0,8.3-3.7,8.4-8.2,0-4.6-3.7-8.4-8.2-8.4Z" fill="#969696" stroke-width="0"/>
</svg>