<?xml version="1.0" encoding="UTF-8" standalone="no"?>
<svg
   id="Layer_1"
   data-name="Layer 1"
   version="1.2"
   viewBox="0 0 118611.36 110157.61"
   sodipodi:docname="AnalyticProviders.svg"
   width="118611.36"
   height="110157.61"
   xmlns:inkscape="http://www.inkscape.org/namespaces/inkscape"
   xmlns:sodipodi="http://sodipodi.sourceforge.net/DTD/sodipodi-0.dtd"
   xmlns="http://www.w3.org/2000/svg"
   xmlns:svg="http://www.w3.org/2000/svg">
  <defs
     id="defs1" />
  <rect
     id="rect1"
     width="344"
     height="331.89999"
     fill="#ffffff"
     stroke-width="0"
     x="0"
     y="0" />
  <g
     id="Layer_1-2"
     data-name="Layer 1-2"
     sodipodi:docname="AnalyticProviders.svg">
    <sodipodi:namedview
       id="namedview23"
       bordercolor="#000000"
       borderopacity="0.25"
       inkscape:current-layer="Layer_1"
       inkscape:cx="182.18797"
       inkscape:cy="174.55"
       inkscape:deskcolor="#d1d1d1"
       inkscape:pagecheckerboard="0"
       inkscape:pageopacity="0.0"
       inkscape:showpageshadow="2"
       inkscape:window-height="991"
       inkscape:window-maximized="1"
       inkscape:window-width="1920"
       inkscape:window-x="-9"
       inkscape:window-y="-9"
       inkscape:zoom="2.2257232"
       pagecolor="#ffffff"
       showgrid="false" />
    <g
       id="g1">
      <path
         id="path7"
         d="m 84.9,124.2 h 14.9 c 4.8,0 8.3,3.8 8.3,8.3 v 115.7 c 0,4.5 -3.5,8.3 -8.3,8.3 H 84.9 c -4.5,0 -8.3,-3.8 -8.3,-8.3 V 132.5 c 0,-4.5 3.8,-8.3 8.3,-8.3 z"
         fill="#ff9800"
         stroke-width="0" />
      <path
         id="path8"
         d="m 121,160.3 h 14.9 c 4.8,0 8.3,3.5 8.3,8.3 v 79.2 c 0,4.8 -3.5,8.3 -8.3,8.3 H 121 c -4.5,0 -8.3,-3.5 -8.3,-8.3 v -79.2 c 0,-4.8 3.8,-8.3 8.3,-8.3 z"
         fill="#8bc34a"
         stroke-width="0" />
      <path
         id="path1"
         d="M 92.4,88 C 41.4,88 0,129.4 0,180.4 c 0,51 41.4,92.4 92.4,92.4 51,0 92.4,-41.4 92.4,-92.4 0,-51 -41.4,-92.4 -92.4,-92.4 z m 0,163.8 C 52.9,251.8 21,219.9 21,180.4 21,140.9 52.9,109 92.4,109 c 39.5,0 71.4,31.9 71.4,71.4 0,39.5 -31.9,71.4 -71.4,71.4 z"
         fill="#000000"
         stroke-width="0" />
      <path
         id="path2"
         d="m 267.4,84.6 -25,61.8"
         fill="none"
         stroke="#000000"
         stroke-miterlimit="10"
         stroke-width="6.7" />
      <path
         id="path3"
         d="m 253.8,74 c 6.2,-7.5 17.5,-9.2 24.6,-3 7.5,6.2 8.8,17.1 2.7,24.6 -5.7,7.9 -17.1,9.2 -24.6,3.5 -6.9,-6.2 -8.3,-17.1 -2.7,-25 v 0 z"
         fill="#78b8ef"
         fill-rule="evenodd"
         stroke-width="0" />
      <path
         id="path4"
         d="m 217.4,208.2 25,-61.8"
         fill="none"
         stroke="#000000"
         stroke-miterlimit="10"
         stroke-width="6.7" />
      <path
         id="path5"
         d="m 230.2,218.4 c -6,7.6 -16.5,8.8 -23.8,2.9 -7.2,-5.4 -8,-16.2 -2.6,-23.8 6,-7.6 16.5,-8.8 23.8,-2.9 7.2,5.4 8.5,16.5 2.6,23.8 z"
         fill="#78b8ef"
         fill-rule="evenodd"
         stroke-width="0" />
      <path
         id="path6"
         d="M 260.8,209.7 238.6,147"
         fill="none"
         stroke="#000000"
         stroke-miterlimit="10"
         stroke-width="6.7" />
      <path
         id="path9"
         d="m 270.4,208.9 c 0.6,5.9 -3.8,10.6 -9.3,10.8 -5.3,0.2 -10.1,-4 -10.6,-9.7 -0.2,-5.9 3.8,-10.6 9.3,-10.8 5.5,-0.2 10.5,4 10.6,9.7 z"
         fill="#d2e7fa"
         fill-rule="evenodd"
         stroke-width="0" />
      <path
         id="path10"
         d="m 237,324.8 v 0 c -9.5,9.5 -25,9.5 -34.5,0 L 154.7,277 189.2,242.5 237,290.3 c 9.5,9.5 9.5,25 0,34.5 z"
         fill="#212121"
         stroke-width="0" />
      <path
         id="path11"
         d="m 178.1,241.5 -9.2,-9.2 c -6.4,9.5 -14.5,17.8 -24.1,24.4 v 0 l 8.8,8.8 1,11.4 34.5,-34.5 -11.1,-1 v 0 z"
         fill="#424242"
         stroke-width="0" />
      <path
         id="path12"
         d="M 65.3,76.6 H 47.2 c -3.5,0 -6.7,2.9 -6.7,6.7 v 146.1 c 8.6,8.8 19.3,15.9 31.4,19.3 V 83.3 c 0,-3.8 -2.9,-6.7 -6.7,-6.7 v 0 z"
         fill="#e53935"
         stroke-width="0" />
      <path
         id="path13"
         d="m 202.8,14.8 -18.7,57"
         fill="none"
         stroke="#000000"
         stroke-miterlimit="10"
         stroke-width="6.7" />
      <path
         id="path14"
         d="M 325.4,202.5 241.7,147.4"
         fill="none"
         stroke="#000000"
         stroke-miterlimit="10"
         stroke-width="6.7" />
      <path
         id="path15"
         d="M 241.8,147.4 183.5,74.2"
         fill="none"
         stroke="#000000"
         stroke-miterlimit="10"
         stroke-width="6.7" />
      <path
         id="path16"
         d="m 183.5,74.2 -57,-20.9"
         fill="none"
         stroke="#000000"
         stroke-miterlimit="10"
         stroke-width="6.7" />
      <path
         id="path17"
         d="m 333.7,124.5 -91.3,21.9"
         fill="none"
         stroke="#000000"
         stroke-miterlimit="10"
         stroke-width="6.7" />
      <path
         id="path18"
         d="m 166.1,60.2 c 7.6,-9.5 21.2,-11.1 30.4,-3.8 9.5,7.3 10.7,20.9 3.5,30.4 -7.6,9.5 -21.2,11.1 -30.4,3.8 -9.5,-7.3 -10.7,-20.9 -3.5,-30.4 z"
         fill="#1e88e5"
         fill-rule="evenodd"
         stroke-width="0" />
      <path
         id="path19"
         d="m 191.1,5.7 c 5,-6.4 14.3,-7.6 20.2,-2.6 6.4,5 7.6,14.3 2.6,20.6 -5,6.3 -14.5,7.6 -20.6,2.6 C 186.9,21.5 186,12 191.1,5.7 Z"
         fill="#78b8ef"
         fill-rule="evenodd"
         stroke-width="0" />
      <path
         id="path20"
         d="m 216.8,128.3 c 11.1,-14 30.7,-16.4 44.7,-5.4 13.6,10.7 15.9,30.7 4.8,44.4 -10.7,14 -30.7,16.4 -44.4,5.7 -13.6,-10.7 -15.9,-31.1 -5,-44.7 z"
         fill="#0f4473"
         fill-rule="evenodd"
         stroke-width="0" />
      <path
         id="path21"
         d="m 117.8,46.6 c 3.8,-4.6 10.6,-5.5 15.2,-1.7 4.6,3.6 5.3,10.5 1.5,15 -3.8,4.6 -10.5,5.5 -15,1.7 -4.6,-3.6 -5.3,-10.5 -1.7,-15 z"
         fill="#a5cff5"
         fill-rule="evenodd"
         stroke-width="0" />
      <path
         id="path22"
         d="m 325.9,118.1 c 3.6,-4.6 9.9,-5.3 14.3,-2.1 4.4,3.6 5.1,9.9 1.5,14.5 -3.2,4.4 -9.9,5.3 -14.3,1.7 -4.4,-3.6 -4.8,-9.9 -1.5,-14.3 v 0 z"
         fill="#d2e7fa"
         fill-rule="evenodd"
         stroke-width="0" />
      <path
         id="path23"
         d="m 309.3,189.5 c 6.9,-8.6 19.3,-10.2 27.6,-3.5 8.6,6.7 10.2,19.3 3.1,27.9 -6.9,8.6 -19,10.2 -27.6,3.5 -8.6,-6.9 -9.8,-19.3 -3.1,-27.9 z"
         fill="#4ba0ea"
         fill-rule="evenodd"
         stroke-width="0" />
    </g>
  </g>
</svg>
