<?xml version="1.0" encoding="UTF-8" standalone="no"?>
<svg
   id="Layer_1"
   data-name="Layer 1"
   version="1.2"
   viewBox="0 0 132860.25 123833.61"
   sodipodi:docname="AnalyticProviders.svg"
   width="132860.25"
   height="123833.61"
   xmlns:inkscape="http://www.inkscape.org/namespaces/inkscape"
   xmlns:sodipodi="http://sodipodi.sourceforge.net/DTD/sodipodi-0.dtd"
   xmlns="http://www.w3.org/2000/svg"
   xmlns:svg="http://www.w3.org/2000/svg">
  <defs
     id="defs24" />
  <path
     d="m 364.3,208.3 c -0.9,-7.9 -4.9,-15.2 -11.2,-20.1 -5.1,-4.1 -11.5,-6.3 -18,-6.3 -6.5,0 -13.2,2.3 -18.4,6.3 l -25.3,-16.7 c 1.4,-4.2 2.2,-8.7 2.2,-13.4 0,-4.7 0,-0.9 0,-1.3 l 35.4,-8.5 c 3.7,3.8 8.9,6.1 14.6,6.1 5.7,0 3.1,-0.2 4.5,-0.5 4.7,-1 8.8,-3.6 11.7,-7.4 0.1,-0.2 0.3,-0.4 0.4,-0.6 0.2,-0.3 0.4,-0.5 0.5,-0.8 0.2,-0.3 0.4,-0.7 0.6,-1 0.1,-0.2 0.2,-0.4 0.3,-0.6 0.3,-0.5 0.5,-1 0.7,-1.5 0,0 0,0 0,-0.1 3.5,-8.2 1.4,-17.8 -5.8,-23.7 l -0.2,-0.2 -0.2,-0.2 c -0.3,-0.3 -0.7,-0.5 -1.1,-0.7 -3.3,-2.2 -7.2,-3.6 -11.5,-3.6 -9.5,0 -17.5,6.5 -19.8,15.4 l -35.5,8.5 c -2.6,-4.8 -6.2,-9 -10.6,-12.5 -0.5,-0.4 -0.9,-0.7 -1.4,-1 l 0.6,-1.4 c 0,0 0.1,0 0.2,0 8.7,0 16.9,-4.1 22,-10.9 9.2,-11.6 7.4,-28.7 -4.2,-38.3 -4.6,-4 -10.6,-6.2 -16.8,-6.2 -6.2,0 -16.6,3.9 -22,10.4 l -2.3,2.8 v 0.9 c -6,11 -4.2,24.7 4.5,33.8 l -0.5,1.4 c -2,-0.3 -3.9,-0.4 -6,-0.4 -2.1,0 -4.9,0.2 -7.3,0.7 -3.5,0.6 -6.9,1.6 -10,3 l -15.1,-18.9 c 8.9,-13.8 6.1,-32.3 -6.8,-42.2 -0.1,0 -0.2,-0.1 -0.3,-0.2 l 3,-9.1 c 6.4,-0.9 12.4,-4.2 16.4,-9.2 4.1,-5.1 5.9,-11.5 5.1,-18.1 -0.8,-6.6 -4,-12.4 -9.2,-16.5 -4.1,-3.4 -9.4,-5.3 -14.9,-5.3 -5.5,0 -14.8,3.5 -19.4,9.5 -4.2,5.2 -6.1,12 -5.3,18.6 0.8,6.1 3.6,11.5 8.2,15.3 l -2.8,8.4 c 0,0 0,0 0,0 -9.8,0 -18.9,4.4 -25.1,12.1 l -0.2,0.2 c 0,0 0,0 0,0 l -11.4,-4.2 c -0.8,-5.1 -3.4,-9.8 -7.4,-12.9 -3.6,-3 -8.2,-4.6 -12.9,-4.6 -4.7,0 -12.2,2.8 -16.3,7.7 v 0 c -3.4,4.4 -5,10 -4.3,15.4 0.6,5.5 3.3,10.3 7.5,13.7 3.6,3 8.1,4.6 12.8,4.6 4.7,0 9.9,-1.9 13.7,-5.2 l 11.8,4.3 c -0.2,9.6 3.9,19.2 11.9,25.4 5.5,4.3 12.3,6.7 19.3,6.7 7,0 7.6,-0.7 11,-2 l 14.8,18.6 c -5.8,7.2 -9.3,16.4 -9.3,26.3 0,9.9 6.1,25.1 15.7,32.8 -7.5,0.6 -14.4,4.3 -19.2,10.3 l -0.2,0.2 v 0.2 c -0.8,1 -1.4,2 -2,3 0.7,-4.7 1,-9.4 1,-14.3 0,-56.5 -45.9,-102.4 -102.4,-102.4 -56.5,0 -7.5,0.2 -11.2,0.6 -2,-7 -8.3,-12 -15.9,-12 H 56.9 c -9.2,0 -16.7,7.5 -16.7,16.7 v 15.6 C 15.9,127.6 0,157.2 0,190.4 c 0,56.5 45.9,102.4 102.4,102.4 56.5,0 35.8,-4.9 50.8,-13.5 l 0.7,0.7 0.3,3.3 -3.7,3.7 4.4,4.4 9.6,9.6 40.8,40.8 c 6.5,6.5 15.1,10.1 24.3,10.1 9.2,0 17.8,-3.6 24.3,-10.1 13.4,-13.4 13.4,-35.2 0,-48.6 l -40.8,-40.8 -9.6,-9.6 -4.4,-4.4 -3.7,3.7 -3,-0.3 -1,-1 c 3.7,-6.4 6.6,-13.3 8.8,-20.5 0.5,7.4 3.9,14.4 9.9,19 3.1,2.5 6.8,4.2 10.6,5.1 h 0.4 c 1.8,0.5 3.7,0.7 5.6,0.7 8.2,0 15.9,-3.8 21.2,-10.4 1.8,-2.2 3.2,-4.7 4.2,-7.4 3.2,7.3 10.4,12.4 18.6,12.4 8.2,0 0.5,0 0.7,0 5.4,-0.2 10.6,-2.7 14.2,-6.7 3.5,-4 5.2,-9.2 4.8,-14.7 -0.4,-9.2 -7.2,-16.8 -16.1,-18.7 l -1.8,-5 c 3,-1.7 5.7,-3.8 8.1,-6.1 l 25.2,16.6 c -2.5,10.9 1.1,22.8 10.3,30.2 h 0.1 c 5.3,4.2 11.5,6.3 18.1,6.3 6.6,0 17.6,-4.1 23.4,-11.3 5.1,-6.2 7.4,-14 6.5,-21.9 z"
     fill="#ffffff"
     fill-rule="evenodd"
     stroke-width="0"
     id="path1" />
  <g
     id="Layer_1-2"
     data-name="Layer 1-2"
     sodipodi:docname="AnalyticProviders.svg">
    <sodipodi:namedview
       id="namedview23"
       bordercolor="#000000"
       borderopacity="0.25"
       inkscape:current-layer="Layer_1"
       inkscape:cx="182.18797"
       inkscape:cy="174.55"
       inkscape:deskcolor="#d1d1d1"
       inkscape:pagecheckerboard="0"
       inkscape:pageopacity="0.0"
       inkscape:showpageshadow="2"
       inkscape:window-height="991"
       inkscape:window-maximized="1"
       inkscape:window-width="1920"
       inkscape:window-x="-9"
       inkscape:window-y="-9"
       inkscape:zoom="2.2257232"
       pagecolor="#ffffff"
       showgrid="false" />
    <g
       id="g1">
      <path
         id="path7"
         d="m 94.9,134.2 h 14.9 c 4.8,0 8.3,3.8 8.3,8.3 v 115.7 c 0,4.5 -3.5,8.3 -8.3,8.3 H 94.9 c -4.5,0 -8.3,-3.8 -8.3,-8.3 V 142.5 c 0,-4.5 3.8,-8.3 8.3,-8.3 z"
         fill="#ff9800"
         stroke-width="0" />
      <path
         id="path8"
         d="m 131,170.3 h 14.9 c 4.8,0 8.3,3.5 8.3,8.3 v 79.2 c 0,4.8 -3.5,8.3 -8.3,8.3 H 131 c -4.5,0 -8.3,-3.5 -8.3,-8.3 v -79.2 c 0,-4.8 3.8,-8.3 8.3,-8.3 z"
         fill="#8bc34a"
         stroke-width="0" />
      <path
         id="path2"
         d="m 102.4,98 c -51,0 -92.4,41.4 -92.4,92.4 0,51 41.4,92.4 92.4,92.4 51,0 92.4,-41.4 92.4,-92.4 0,-51 -41.4,-92.4 -92.4,-92.4 z m 0,163.8 C 62.9,261.8 31,229.9 31,190.4 31,150.9 62.9,119 102.4,119 c 39.5,0 71.4,31.9 71.4,71.4 0,39.5 -31.9,71.4 -71.4,71.4 z"
         fill="#000000"
         stroke-width="0" />
      <path
         id="path3"
         d="m 277.4,94.6 -25,61.8"
         fill="none"
         stroke="#000000"
         stroke-miterlimit="10"
         stroke-width="6.7" />
      <path
         id="path4"
         d="m 263.8,84 c 6.2,-7.5 17.5,-9.2 24.6,-3 7.5,6.2 8.8,17.1 2.7,24.6 -5.7,7.9 -17.1,9.2 -24.6,3.5 -6.9,-6.2 -8.3,-17.1 -2.7,-25 v 0 z"
         fill="#78b8ef"
         fill-rule="evenodd"
         stroke-width="0" />
      <path
         id="path5"
         d="m 227.4,218.2 25,-61.8"
         fill="none"
         stroke="#000000"
         stroke-miterlimit="10"
         stroke-width="6.7" />
      <path
         id="path6"
         d="m 240.2,228.4 c -6,7.6 -16.5,8.8 -23.8,2.9 -7.2,-5.4 -8,-16.2 -2.6,-23.8 6,-7.6 16.5,-8.8 23.8,-2.9 7.2,5.4 8.5,16.5 2.6,23.8 z"
         fill="#78b8ef"
         fill-rule="evenodd"
         stroke-width="0" />
      <path
         id="path9"
         d="M 270.8,219.7 248.6,157"
         fill="none"
         stroke="#000000"
         stroke-miterlimit="10"
         stroke-width="6.7" />
      <path
         id="path10"
         d="m 280.4,218.9 c 0.6,5.9 -3.8,10.6 -9.3,10.8 -5.3,0.2 -10.1,-4 -10.6,-9.7 -0.2,-5.9 3.8,-10.6 9.3,-10.8 5.5,-0.2 10.5,4 10.6,9.7 z"
         fill="#d2e7fa"
         fill-rule="evenodd"
         stroke-width="0" />
      <path
         id="path11"
         d="m 247,334.8 v 0 c -9.5,9.5 -25,9.5 -34.5,0 L 164.7,287 199.2,252.5 247,300.3 c 9.5,9.5 9.5,25 0,34.5 z"
         fill="#212121"
         stroke-width="0" />
      <path
         id="path12"
         d="m 188.1,251.5 -9.2,-9.2 c -6.4,9.5 -14.5,17.8 -24.1,24.4 v 0 l 8.8,8.8 1,11.4 34.5,-34.5 -11.1,-1 h 0.1 z"
         fill="#424242"
         stroke-width="0" />
      <path
         id="path13"
         d="M 75.3,86.6 H 57.2 c -3.5,0 -6.7,2.9 -6.7,6.7 v 146.1 c 8.6,8.8 19.3,15.9 31.4,19.3 V 93.3 c 0,-3.8 -2.9,-6.7 -6.7,-6.7 v 0 z"
         fill="#e53935"
         stroke-width="0" />
      <path
         id="path14"
         d="m 212.8,24.8 -18.7,57"
         fill="none"
         stroke="#000000"
         stroke-miterlimit="10"
         stroke-width="6.7" />
      <path
         id="path15"
         d="M 335.4,212.5 251.7,157.4"
         fill="none"
         stroke="#000000"
         stroke-miterlimit="10"
         stroke-width="6.7" />
      <path
         id="path16"
         d="M 251.8,157.4 193.5,84.2"
         fill="none"
         stroke="#000000"
         stroke-miterlimit="10"
         stroke-width="6.7" />
      <path
         id="path17"
         d="m 193.5,84.2 -57,-20.9"
         fill="none"
         stroke="#000000"
         stroke-miterlimit="10"
         stroke-width="6.7" />
      <path
         id="path18"
         d="m 343.7,134.5 -91.3,21.9"
         fill="none"
         stroke="#000000"
         stroke-miterlimit="10"
         stroke-width="6.7" />
      <path
         id="path19"
         d="m 176.1,70.2 c 7.6,-9.5 21.2,-11.1 30.4,-3.8 9.5,7.3 10.7,20.9 3.5,30.4 -7.6,9.5 -21.2,11.1 -30.4,3.8 -9.5,-7.3 -10.7,-20.9 -3.5,-30.4 z"
         fill="#1e88e5"
         fill-rule="evenodd"
         stroke-width="0" />
      <path
         id="path20"
         d="m 201.1,15.7 c 5,-6.4 14.3,-7.6 20.2,-2.6 6.4,5 7.6,14.3 2.6,20.6 -5,6.3 -14.5,7.6 -20.6,2.6 C 196.9,31.5 196,22 201.1,15.7 Z"
         fill="#78b8ef"
         fill-rule="evenodd"
         stroke-width="0" />
      <path
         id="path21"
         d="m 226.8,138.3 c 11.1,-14 30.7,-16.4 44.7,-5.4 13.6,10.7 15.9,30.7 4.8,44.4 -10.7,14 -30.7,16.4 -44.4,5.7 -13.6,-10.7 -15.9,-31.1 -5,-44.7 v 0 z"
         fill="#0f4473"
         fill-rule="evenodd"
         stroke-width="0" />
      <path
         id="path22"
         d="m 127.8,56.6 c 3.8,-4.6 10.6,-5.5 15.2,-1.7 4.6,3.6 5.3,10.5 1.5,15 -3.8,4.6 -10.5,5.5 -15,1.7 -4.6,-3.6 -5.3,-10.5 -1.7,-15 z"
         fill="#a5cff5"
         fill-rule="evenodd"
         stroke-width="0" />
      <path
         id="path23"
         d="m 335.9,128.1 c 3.6,-4.6 9.9,-5.3 14.3,-2.1 4.4,3.6 5.1,9.9 1.5,14.5 -3.2,4.4 -9.9,5.3 -14.3,1.7 -4.4,-3.6 -4.8,-9.9 -1.5,-14.3 v 0 z"
         fill="#d2e7fa"
         fill-rule="evenodd"
         stroke-width="0" />
      <path
         id="path24"
         d="m 319.3,199.5 c 6.9,-8.6 19.3,-10.2 27.6,-3.5 8.6,6.7 10.2,19.3 3.1,27.9 -6.9,8.6 -19,10.2 -27.6,3.5 -8.6,-6.9 -9.8,-19.3 -3.1,-27.9 z"
         fill="#4ba0ea"
         fill-rule="evenodd"
         stroke-width="0" />
    </g>
  </g>
  <sodipodi:namedview
     id="namedview24"
     bordercolor="#000000"
     borderopacity="0.25"
     inkscape:current-layer="Layer_1"
     inkscape:cx="182.18797"
     inkscape:cy="174.55"
     inkscape:deskcolor="#d1d1d1"
     inkscape:pagecheckerboard="0"
     inkscape:pageopacity="0.0"
     inkscape:showpageshadow="2"
     inkscape:window-height="991"
     inkscape:window-maximized="1"
     inkscape:window-width="1920"
     inkscape:window-x="-9"
     inkscape:window-y="-9"
     inkscape:zoom="2.2257232"
     pagecolor="#ffffff"
     showgrid="false" />
</svg>
