<?xml version="1.0" encoding="UTF-8" standalone="no"?>
<svg
   id="Layer_1"
   data-name="Layer 1"
   version="1.2"
   viewBox="0 0 54943.361 57984.64"
   sodipodi:docname="CommercialEntities.svg"
   width="54943.359"
   height="57984.641"
   xmlns:inkscape="http://www.inkscape.org/namespaces/inkscape"
   xmlns:sodipodi="http://sodipodi.sourceforge.net/DTD/sodipodi-0.dtd"
   xmlns="http://www.w3.org/2000/svg"
   xmlns:svg="http://www.w3.org/2000/svg">
  <defs
     id="defs7" />
  <sodipodi:namedview
     id="namedview8"
     bordercolor="#000000"
     borderopacity="0.25"
     inkscape:deskcolor="#d1d1d1"
     inkscape:pagecheckerboard="0"
     inkscape:pageopacity="0.0"
     inkscape:showpageshadow="2"
     pagecolor="#ffffff" />
  <g
     id="g7">
    <path
       d="m 170.8,52.3 c 7.6,0 13.8,-4.3 18.1,-8.6 4.3,4.3 10.5,8.6 18.1,8.6 14.2,0 22.7,-17.4 25,-22.8 L 234.4,23.8 213.9,0 H 21.1 L 0,21.5 v 4.1 c 0,4.9 5.7,13.3 6.4,14.3 5.7,8.3 12.2,12.4 19.3,12.4 7.1,0 13.8,-4.3 18.1,-8.6 4.1,4.3 10.3,8.6 18.2,8.6 h 0.1 c 7.7,0 13.9,-4.3 18.1,-8.6 4.3,4.3 10.5,8.6 18.2,8.6 7.7,0 13.8,-4.3 18.1,-8.6 1.2,1.2 2.6,2.4 4.1,3.5 -6.5,5 -10.7,12.8 -10.7,21.6 0,8.8 2.5,13.1 6.7,17.9 -7.4,4.2 -13.2,10.8 -16.3,18.7 V 73 H 47.6 V 83.1 H 32.8 v 22.4 h -5.9 v 34.3 h 8 V 141 H 5.5 v 37.4 H 11 V 217 c 0,13.1 10.6,23.7 23.7,23.7 h 160.1 c 13.1,0 23.7,-10.6 23.7,-23.7 v -38.6 h 5.1 V 141 h -46.9 v -22 c 0,-13.8 -7.6,-25.9 -18.9,-32.3 4.2,-4.8 6.7,-11 6.7,-17.9 0,-10 -5.4,-18.8 -13.5,-23.6 0.6,-0.5 1.2,-1.1 1.7,-1.6 4.3,4.3 10.5,8.6 18.1,8.6 z"
       fill="#ffffff"
       stroke-width="0"
       id="path1" />
    <g
       id="g5">
      <g
         id="g2">
        <g
           id="g6">
          <g
             id="g4">
            <g
               id="g1">
              <path
                 id="path2"
                 d="m 167.5,119.1 c 0,-15 -12.1,-27.1 -27.1,-27.1 h -4.8 c -15,0 -27.1,12.1 -27.1,27.1 v 45 h 59 z"
                 fill="#ffffff"
                 stroke="#000000"
                 stroke-miterlimit="10"
                 stroke-width="6" />
              <circle
                 id="circle1"
                 cx="138"
                 cy="68.900002"
                 r="17.299999"
                 fill="#ffffff"
                 stroke="#000000"
                 stroke-miterlimit="10"
                 stroke-width="6" />
            </g>
            <path
               id="path3"
               d="m 154,121.9 c 0,-6.6 -3.6,-12 -8,-12 h -15.6 c -4.4,0 -8,5.4 -8,12 v 26.7 H 154 Z"
               fill="#89e177"
               stroke="#000000"
               stroke-linecap="round"
               stroke-linejoin="round"
               stroke-width="6" />
            <g
               id="g3">
              <line
                 id="line2"
                 x1="126.3"
                 y1="96"
                 x2="128.3"
                 y2="111.5"
                 fill="none"
                 stroke="#000000"
                 stroke-miterlimit="10"
                 stroke-width="4" />
              <line
                 id="line3"
                 x1="150"
                 y1="96"
                 x2="148.10001"
                 y2="111.5"
                 fill="none"
                 stroke="#000000"
                 stroke-miterlimit="10"
                 stroke-width="4" />
            </g>
          </g>
          <rect
             id="rect4"
             x="45.700001"
             y="130.7"
             width="41.700001"
             height="19.299999"
             fill="#e3a76f"
             stroke="#000000"
             stroke-miterlimit="10"
             stroke-width="6" />
          <rect
             id="rect5"
             x="37.700001"
             y="115.6"
             width="56.900002"
             height="14.3"
             fill="#e3a76f"
             stroke="#000000"
             stroke-miterlimit="10"
             stroke-width="6" />
          <rect
             id="rect6"
             x="58.400002"
             y="83.099998"
             width="32.700001"
             height="20.200001"
             fill="#f2d1a5"
             stroke="#000000"
             stroke-miterlimit="10"
             stroke-width="6" />
          <polyline
             id="polyline6"
             points="58.4 93.2 43.6 93.2 43.6 115.6"
             fill="none"
             stroke="#000000"
             stroke-miterlimit="10"
             stroke-width="6" />
        </g>
        <rect
           id="rect7"
           x="16.299999"
           y="151.10001"
           width="198.10001"
           height="17.4"
           fill="#dbdbdb"
           stroke="#000000"
           stroke-miterlimit="10"
           stroke-width="6" />
        <path
           id="path7"
           d="m 21.9,168.5 h 187.4 v 48.6 c 0,7.5 -6.1,13.7 -13.7,13.7 H 35.5 c -7.5,0 -13.7,-6.1 -13.7,-13.7 v -48.6 z"
           fill="#ededed"
           stroke="#000000"
           stroke-miterlimit="10"
           stroke-width="6" />
        <path
           id="path8"
           d="M 209.4,10 H 26.1 L 10.8,25.6 c 0,0.6 7,16.7 15.7,16.7 8.7,0 15.8,-11.7 15.8,-11.7 h 4.9 c 0,0 6.3,11.8 15.7,11.7 8.7,0 15.8,-11.7 15.8,-11.7 h 4.7 c 0,0.6 0,0 0,0 0,0 7.1,11.7 15.8,11.7 8.7,0 15.8,-11.7 15.8,-11.7 h 4.6 c 0,0 7.1,11.7 15.8,11.7 8.7,0 15.8,-11.7 15.8,-11.7 h 4.6 c 0,0 7.1,11.7 15.8,11.7 8.7,0 15.8,-11.7 15.8,-11.7 h 4.6 c 0,0 7.1,11.7 15.8,11.7 8.7,0 15.8,-16.7 15.8,-16.7 L 210.1,10 Z"
           fill="#ffe177"
           stroke="#000000"
           stroke-linecap="round"
           stroke-linejoin="round"
           stroke-width="6" />
      </g>
    </g>
    <sodipodi:namedview
       id="namedview3"
       bordercolor="#000000"
       borderopacity="0.25"
       inkscape:deskcolor="#d1d1d1"
       inkscape:pagecheckerboard="0"
       inkscape:pageopacity="0.0"
       inkscape:showpageshadow="2"
       pagecolor="#ffffff" />
  </g>
</svg>
