<?xml version="1.0" encoding="UTF-8" standalone="no"?>
<svg
   id="svg1"
   version="1.2"
   viewBox="0 0 88923.239 72145.959"
   sodipodi:docname="GeographicEntities.svg"
   width="88923.242"
   height="72145.961"
   xmlns:inkscape="http://www.inkscape.org/namespaces/inkscape"
   xmlns:sodipodi="http://sodipodi.sourceforge.net/DTD/sodipodi-0.dtd"
   xmlns="http://www.w3.org/2000/svg"
   xmlns:svg="http://www.w3.org/2000/svg">
  <defs
     id="defs8" />
  <path
     d="M 256.2,151.7 C 230.8,125 196.4,109.3 158.6,107.1 V 84.7 c 6.9,-0.1 13.2,-2 18.6,-3.7 h 0.2 c 3.7,-1.3 7.2,-2.5 10.7,-3.4 1.4,-0.3 2.6,-0.5 3.8,-0.5 2,0 3.7,0.5 5.3,1.5 2.4,1.5 5,2.4 7.6,2.4 7.2,0 12.6,-5.9 12.6,-13.6 V 0 l -10.2,10.2 c -4.5,-2.2 -8.8,-3.3 -13,-3.3 -4.2,0 -1.2,0 -1.7,0 -4.9,0.3 -9.9,1.1 -14.9,2.2 h -0.1 c -3.2,0.8 -6.2,1.8 -9,2.8 -2,0.7 -3.9,1.3 -5.7,1.8 -1.7,0.5 -3.2,0.7 -4.5,0.7 -1.3,0 0,0 0,0 -1.5,-5.9 -6.4,-10 -12.4,-10 -6,0 -0.3,0 -0.5,0 -7.1,0.2 -12.4,5.9 -12.4,13.5 v 89.7 c -35,3.6 -66.8,19 -90.7,44.1 C 14.9,180.3 0,219 0,260.9 v 7.7 h 298.1 v -0.7 h 0.1 v -7 c 0,-41.9 -14.9,-80.7 -42,-109.2 z"
     fill="#ffffff"
     stroke-width="0"
     id="path1" />
  <g
     id="Layer_1"
     data-name="Layer 1"
     sodipodi:docname="GeographicEntities.svg">
    <sodipodi:namedview
       id="namedview7"
       bordercolor="#000000"
       borderopacity="0.25"
       inkscape:deskcolor="#d1d1d1"
       inkscape:pagecheckerboard="0"
       inkscape:pageopacity="0.0"
       inkscape:showpageshadow="2"
       pagecolor="#ffffff" />
    <g
       id="g1">
      <path
         id="path2"
         d="m 10,259.4 h 278.1 v -0.7 h 0.1 C 288.2,178 229.8,114.6 149.1,114.6 68.4,114.6 10,178.1 10,258.7 Z"
         fill="#000000"
         stroke-width="0" />
      <path
         id="path3"
         d="m 16.9,253.5 h 72.6 l -1.6,-1.2 0.2,-0.2 c -0.4,-0.3 -0.8,-0.6 -1.1,-0.8 -0.4,-0.3 -0.7,-0.5 -1,-0.7 -0.3,-0.2 -0.6,-0.4 -0.8,-0.6 -0.3,-0.2 -0.5,-0.4 -0.8,-0.6 -0.5,-0.4 -1,-0.7 -1.5,-1 -2.7,-1.7 -5.4,-3.5 -8.1,-5.2 -5.5,-3.6 -11.1,-7.2 -16.8,-10.8 -1.9,-1.2 -3.8,-2.3 -5.7,-3.5 -1.4,-0.8 -2.4,-1.7 -3.2,-2.6 0,-0.2 -0.3,-0.4 -0.4,-0.5 -0.3,-0.5 -0.6,-1.1 -0.7,-1.7 v -0.6 c 0,-1.3 0.3,-2.7 1.1,-4.4 0.9,-2 1.8,-4 2.6,-6 0.8,-2 1.6,-3.9 2.2,-5.8 0.5,-1.3 0.9,-2.5 1.3,-3.6 0.3,-0.7 0.5,-1.8 0.5,-2.9 0,-1.1 0,-1.1 -0.2,-1.6 0,-0.5 -0.3,-1 -0.6,-1.3 -1,-1.2 -1.9,-2.4 -2.9,-3.7 -3,-3.6 -6,-7.2 -9.2,-11 -1.2,-1.4 -2.5,-2.9 -3.7,-4.4 -14,21 -22.2,46.1 -22.2,73.2"
         fill="#43cb8e"
         stroke-width="0" />
      <path
         id="path4"
         d="m 189.4,126.5 c -1,-0.3 -2,-0.6 -3,-0.8 -6.1,-1.6 -12.4,-2.9 -18.7,-3.7 -4.3,-0.6 -8.6,-0.9 -12.9,-1.1 H 144 c -2.9,0 -5.7,0.3 -8.6,0.5 -2.9,0.2 -5.6,0.6 -8.4,1 -2.8,0.4 -5.5,0.9 -8.2,1.5 -5.4,1.1 -10.6,2.6 -15.6,4.4 -5,1.8 -4.9,1.9 -7.3,2.9 -3.6,1.6 -7.1,3.3 -10.4,5.2 l -1,0.6 0.8,0.9 c 1.1,1.3 2.3,2.7 3.3,4 2.3,2.9 4.6,5.6 7.2,7.9 10.5,9.2 14.8,19 13.4,30.7 0,0.8 -0.2,1.6 -0.4,2.4 -0.2,0.9 -0.2,1.7 0,2.4 0,0.7 0.3,1.4 0.7,2 0.7,1.2 2,2.3 3.9,3.1 6.4,3 12.9,6.2 19.3,9.5 2.1,1.1 4.3,2.2 6.4,3.4 1.1,0.6 2,0.9 2.9,1 h 1.5 c 0.2,0 0.4,0 0.6,-0.1 0.4,0 0.8,-0.2 1.2,-0.4 0.6,-0.3 1.2,-0.7 1.8,-1.2 0.2,-0.2 0.4,-0.4 0.6,-0.5 4,-3.6 8.1,-7.2 12.1,-10.6 1.3,-1.2 2.7,-2.3 4,-3.5 1.3,-1.2 2.7,-2.3 4,-3.5 2.7,-2.4 5.4,-4.8 8,-7.2 1.1,-1 2.1,-1.8 3.2,-2.6 1.6,-1.1 3.3,-2 5.1,-2.6 1.2,-0.4 2.4,-0.7 3.7,-1 0.6,-0.1 1.3,-0.2 2,-0.3 1.4,-0.1 2.8,-0.3 4.3,-0.5 1.4,-0.2 2.8,-0.4 4.2,-0.6 3.2,-0.5 6.4,-1 9.6,-1.2 1.1,0 2.1,-0.1 3.2,-0.1 4.1,0 7.7,-1 11,-2.4 0.9,-0.4 1.9,-0.9 2.7,-1.4 0.4,-0.2 0.9,-0.5 1.3,-0.8 2.2,-1.3 4.3,-2.8 6.3,-4.3 0.4,-0.3 0.8,-0.6 1.2,-0.9 0.8,-0.6 1.6,-1.2 2.4,-1.7 0.8,-0.6 1.6,-1.2 2.4,-1.7 l 0.3,-0.2 c -11,-10.2 -23.7,-18.5 -37.7,-24.4 -1.8,-0.7 -3.6,-1.4 -5.5,-2 -2,-0.7 -3.9,-1.3 -6,-1.9 v 0 -0.2 z"
         fill="#43cb8e"
         stroke-width="0" />
      <path
         id="path5"
         d="m 256.9,252.5 c 0.9,-0.6 1.7,-1.3 1.9,-2.1 0.2,-1.1 0.8,-2.2 1.4,-3.3 0.2,-0.4 0.4,-0.8 0.6,-1.2 0.2,-0.4 0.4,-0.8 0.5,-1.2 0.2,-0.4 0.3,-0.9 0.4,-1.3 0.2,-0.9 0.3,-1.8 0.2,-2.7 v -0.2 c 0,-0.4 -0.2,-0.9 -0.4,-1.3 -0.1,-0.2 -0.2,-0.5 -0.4,-0.7 -0.4,-0.7 -1,-1.5 -1.8,-2.3 -1.3,-1.2 -2.6,-2.5 -3.9,-3.8 l -4.2,-4.2 c -2.7,-2.7 -5.3,-5.4 -7.9,-8 -2,-2.1 -4.1,-4.1 -6.1,-6.2 l -1,-1 c -0.5,-0.5 -0.9,-1 -1.2,-1.4 -0.3,-0.4 -0.6,-0.7 -0.7,-1.1 -0.4,-0.7 -0.6,-1.4 -0.6,-1.9 v 0 -0.5 c 0.1,-0.3 0.3,-0.6 0.5,-1 0.3,-0.4 0.6,-0.7 1.1,-1.1 0.7,-0.6 1.6,-1.3 2.7,-2.1 6.2,-4.4 12.5,-8.8 18.9,-13.3 l 6.6,-4.6 c -5.5,-9.5 -12.1,-18.2 -19.7,-26.1 -0.3,0.2 -0.5,0.4 -0.8,0.5 -0.8,0.5 -1.6,1.1 -2.3,1.6 -1.6,1.1 -3.2,2.2 -4.8,3.2 -1.5,1.1 -3,2.2 -4.4,3.3 -1.1,0.9 -2.2,1.7 -3.4,2.3 -3.5,2 -7.6,3.2 -12.4,3.7 -0.9,0 -1.8,0.2 -2.7,0.3 -0.9,0.1 -1.8,0.2 -2.7,0.3 -2.8,0.4 -5.7,0.7 -8.6,0.8 -2.9,0.1 -5.7,0.4 -8.3,1 -2,0.4 -3.8,1 -5.6,1.6 -0.6,0.2 -1.2,0.5 -1.8,0.7 -4.7,2 -8.8,5 -12.7,9 l -3.3,3.3 c -2.3,2.2 -4.7,4.2 -7.1,6.2 -1.2,1 -2.4,2 -3.6,3 -3.5,2.9 -7,5.9 -10.4,9 -1.8,1.7 -3.5,2.5 -5.2,2.5 -1.7,0 -2.8,-0.5 -4.6,-1.5 -1.3,-0.7 -2.6,-1.5 -3.9,-2.2 -1.4,-0.8 -2.8,-1.6 -4.3,-2.4 -1.4,-0.8 -2.9,-1.6 -4.4,-2.3 -1,-0.5 -1.9,-0.9 -2.9,-1.4 -1.8,-0.8 -3.5,-1.5 -5.4,-2.1 -0.3,0 -0.5,-0.2 -0.8,-0.3 -4.4,-1.4 -8,-3.2 -10.7,-5.5 -1.1,-0.9 -2.1,-1.9 -2.9,-3 -3.7,-4.8 -4.8,-11.2 -3.3,-19.3 0.2,-0.9 0.2,-2 0,-3.1 v -0.2 c 0,-0.7 -0.2,-1.4 -0.4,-2.1 -0.3,-1.1 -0.7,-2.1 -1.4,-2.8 -1.2,-1.5 -2.5,-3 -3.8,-4.5 -2.6,-3 -5.2,-5.9 -7.9,-9 -1.4,-1.5 -2.7,-3 -4.1,-4.6 -1,-1.2 -2.1,-2.3 -3.2,-3.5 -0.7,-0.7 -1.4,-1.5 -2,-2.3 -13.3,8.5 -25,19.4 -34.5,31.9 1.5,1.8 3,3.6 4.5,5.5 1.1,1.4 2.2,2.7 3.4,4.1 2.3,2.8 4.5,5.5 6.9,8.3 1.2,1.4 2.3,2.7 3.5,4.1 1,1.1 1.6,2.1 2,3.2 0.6,1.8 0.4,3.6 -0.6,5.8 -0.5,1 -0.9,2 -1.3,3 -1.3,3 -2.5,6.1 -3.7,9.3 -0.7,1.8 -1.4,3.6 -2.1,5.4 l -0.3,0.7 11,7.2 c 3,2 6,3.9 9.1,5.9 5,3.3 10.1,6.6 15.2,9.9 4.2,2.7 8.3,5.4 12.5,8 0.2,0.1 0.4,0.3 0.7,0.4 h 151.2 c 0.6,-0.2 1.2,-0.5 1.7,-0.8 z"
         fill="#23a8fe"
         stroke-width="0" />
      <path
         id="path6"
         d="m 281.1,251.8 c 0,-21.3 -5.1,-41.5 -14,-59.3 l -24.7,17.3 0.8,0.8 c 1.5,1.4 2.9,2.9 4.4,4.3 l 1.4,1.4 c 2.1,2.1 4.1,4.1 6.2,6.1 1,1 2.1,1.9 3.1,2.9 1.1,0.9 2.1,1.8 3.2,2.7 2,1.6 3.7,3.2 4.9,4.8 1.7,2.2 2.7,4.3 3,6.6 0.3,2.2 0,4.4 -1.1,6.8 -0.4,1 -0.9,1.9 -1.5,3 -0.2,0.4 -0.3,0.8 -0.4,1.2 0,0.4 -0.1,0.8 -0.1,1.3 0,0.5 0,0.8 -0.1,1.2 v 0.5 h 15 v -1.5 0 z"
         fill="#43cb8e"
         stroke-width="0" />
      <g
         id="g7">
        <path
           id="path7"
           d="m 201.3,60.9 c -8.8,-3.4 -17,-1.2 -25.2,1.5 -4.9,1.6 -9.9,3 -14.9,4.1 -3.8,0.9 -7.6,0.3 -11.1,-1.4 -0.7,-0.3 -1.5,-1.3 -1.5,-1.9 V 27 c 0,-0.2 0.1,-0.4 0.2,-0.8 8.8,3.4 17.2,0.9 25.6,-1.8 5,-1.6 10,-3 15.2,-4.1 3.6,-0.8 7.2,0 10.5,1.6 0.7,0.4 1.5,1.4 1.6,2.2 v 35.6 c 0,0.3 0,0.5 -0.2,1.2 z"
           fill="#ffffff"
           stroke-width="0" />
        <path
           id="path8"
           d="m 207.2,22 c 0,-1.7 -0.6,-2.9 -2,-3.7 -3.8,-2.3 -7.8,-3.9 -12.2,-3.6 -4.5,0.3 -9,1 -13.3,2 -4.9,1.2 -9.5,3.1 -14.4,4.5 -4.2,1.2 -8.5,1.6 -12.8,0.3 -2.7,-0.8 -4,-2.6 -4.1,-5.4 v -0.4 c -0.1,-2.2 -1.3,-3.5 -3,-3.4 -1.7,0 -2.7,1.3 -2.7,3.5 v 132.6 h 5.9 V 70.8 c 8.9,3.3 17.2,1.1 25.5,-1.6 3.8,-1.3 7.6,-2.6 11.5,-3.6 5.9,-1.5 11.7,-1.1 17,2.3 2.6,1.7 4.7,0.3 4.7,-2.9 v -43.1 0 z m -5.6,37.7 c 0,0.3 0,0.5 -0.2,1.2 -8.8,-3.4 -17,-1.2 -25.2,1.5 -4.9,1.6 -9.9,3 -14.9,4.1 -3.8,0.9 -7.6,0.3 -11.1,-1.4 -0.7,-0.3 -1.5,-1.3 -1.5,-1.9 V 27 c 0,-0.2 0.1,-0.4 0.2,-0.8 8.8,3.4 17.2,0.9 25.6,-1.8 5,-1.6 10,-3 15.2,-4.1 3.6,-0.8 7.2,0 10.5,1.6 0.7,0.4 1.5,1.4 1.6,2.2 v 35.6 z"
           fill="#000000"
           stroke-width="0" />
      </g>
    </g>
  </g>
  <sodipodi:namedview
     id="namedview8"
     bordercolor="#000000"
     borderopacity="0.25"
     inkscape:deskcolor="#d1d1d1"
     inkscape:pagecheckerboard="0"
     inkscape:pageopacity="0.0"
     inkscape:showpageshadow="2"
     pagecolor="#ffffff" />
</svg>
