<?xml version="1.0" encoding="UTF-8" standalone="no"?>
<svg
   id="Layer_1"
   data-name="Layer 1"
   version="1.2"
   viewBox="0 0 86494.811 77228.408"
   sodipodi:docname="LawEnforcement.svg"
   inkscape:export-filename="LawEnforcement.svg"
   inkscape:export-xdpi="96"
   inkscape:export-ydpi="96"
   inkscape:version="1.3.2 (091e20e, 2023-11-25, custom)"
   width="86494.812"
   height="77228.406"
   xmlns:inkscape="http://www.inkscape.org/namespaces/inkscape"
   xmlns:sodipodi="http://sodipodi.sourceforge.net/DTD/sodipodi-0.dtd"
   xmlns="http://www.w3.org/2000/svg"
   xmlns:svg="http://www.w3.org/2000/svg">
  <defs
     id="defs8" />
  <sodipodi:namedview
     id="namedview7"
     bordercolor="#000000"
     borderopacity="0.25"
     inkscape:deskcolor="#d1d1d1"
     inkscape:pagecheckerboard="0"
     inkscape:pageopacity="0.0"
     inkscape:showpageshadow="2"
     pagecolor="#ffffff"
     inkscape:zoom="2.9255128"
     inkscape:cx="146.98278"
     inkscape:cy="138.95"
     inkscape:window-width="1920"
     inkscape:window-height="1009"
     inkscape:window-x="-8"
     inkscape:window-y="-8"
     inkscape:window-maximized="1"
     inkscape:current-layer="Layer_1" />
  <g
     id="g8">
    <path
       d="M 292.6,136.8 C 287,121.1 281.4,109.4 276,98.1 270.5,86.6 265.3,75.8 260.1,60.9 c -0.5,-1.4 -1,-2.7 -1.4,-4.1 h 1.9 c 9.2,-0.2 15.6,-6.4 15.6,-15 V 41.5 C 275.9,33 269.4,27.1 260.4,27.1 h -90.1 c -2.1,-3.5 -5,-6.3 -8.5,-8.4 0,-0.2 0,-0.3 0,-0.5 0,-0.6 0,-1.2 0,-2.5 C 161.8,6.6 155.6,0 147,0 c -8.6,0 -14.9,6.4 -14.9,15.5 0,9.1 0,2.2 0,2.7 0,0.3 0,0.6 0,1 -2.9,2.1 -5.8,4.6 -8.1,7.8 H 35.1 c -0.6,0 -1.5,-0.2 -2.7,-0.2 -3.4,0 -6.5,1.3 -8.9,3.7 -2.4,2.4 -5.4,6.4 -5.7,11.4 -0.3,3.9 1,7.5 3.6,10.2 2.8,3 6.7,4.6 11.1,4.6 h 2.4 C 30.3,68.5 25.8,78.4 21,88.7 14.9,101.9 8.7,115.5 2.5,133 l -0.2,0.5 c -1.1,3.2 -2.7,7.5 -2.4,12.3 1.8,26 22,47.4 48,50.8 h 0.2 c 2.1,0.3 4.2,0.4 6.2,0.4 18.3,0 35.1,-9 45.2,-23.2 0.9,1.2 1.8,2.1 2.3,2.6 6.6,6.9 13.3,13.4 18.9,18.9 v 0 c 1.9,1.9 4.6,4.2 8.1,5.4 v 23.9 h -11.1 c -10,0 -18.2,8.2 -18.2,18.2 v 0.9 c -9.2,0.9 -16.4,8.7 -16.4,18.1 v 16 h 127.5 v -16 c 0,-9.4 -7.2,-17.2 -16.4,-18.1 v -0.9 c 0,-10 -8.2,-18.2 -18.2,-18.2 h -11.2 v -21.9 l 11.7,11.5 c 12.4,12.3 22,21.6 31,30.2 3.7,3.5 8.5,5.4 13.5,5.4 5,0 11.6,-2.6 15.7,-7.2 7.5,-8.5 7.3,-20.8 -0.6,-28.7 -7.9,-7.9 -15.7,-15.9 -23.6,-23.7 6.1,3.4 12.9,5.6 20.2,6.3 2,0.2 4.1,0.3 6.1,0.3 v 0 c 24.2,0 45.3,-15.5 52.5,-38.5 1.7,-5.2 4.2,-12.9 1.1,-21.6 z"
       fill="#ffffff"
       stroke-width="0"
       id="path1" />
    <g
       id="g7">
      <g
         id="g4">
        <path
           id="path2"
           d="m 233.7,46.8 h -65.2 c -2.7,0 -4.4,0.4 -5.6,3.3 -1.1,2.6 -3.3,4.8 -5.5,6.7 -1.7,1.4 -2.3,2.6 -2.3,4.7 v 41.8 c 0,2.3 -0.7,3.4 -2.8,4.9 -4,2.8 -7.3,6.6 -10.8,10 -0.7,0.6 -1.1,1.5 -1.7,2.2 -0.3,0 -0.6,-0.2 -0.9,-0.3 V 62.3 c 0,-2.4 -0.5,-3.9 -2.6,-5.6 -2.4,-1.9 -3.9,-4.9 -5.9,-7.3 -0.8,-1 -2.1,-2.3 -3.2,-2.3 H 62.1 c -21.7,0 -0.9,0 -1.6,0.2 0,0.7 0.2,1.4 0.4,2 12.7,36 25.6,55.9 37.9,92 1.4,4.1 0,9.6 -1.2,14.1 C 91.5,176.2 71,189.2 49.3,186.8 28.2,184 11.5,166.6 10,145.2 c -0.2,-2.9 1,-6 2,-8.8 C 24.1,102 36.3,83.6 48.4,49.1 48.6,48.5 48.7,47.8 49,46.7 H 32.5 c -2.6,0 -4.9,-1.4 -4.7,-4.2 0.1,-1.8 1.5,-3.7 2.8,-5 1.3,-1.3 2.7,-0.5 4.1,-0.5 h 90.9 c 2.7,0 4.2,-0.5 5.8,-3.2 1.9,-3.1 5.2,-5.6 8.3,-7.8 1.5,-1.1 2.4,-1.8 2.4,-3.8 -0.1,-3.9 0,-2.8 0,-6.7 0,-3.9 1.9,-5.5 4.9,-5.5 3,0 4.8,2.1 4.8,5.7 0,3.6 0.1,2.8 0,6.7 0,1.9 0.6,2.9 2.4,3.7 4,1.6 7,4.4 8.7,8.4 1,2.3 2.3,2.7 4.6,2.7 h 93 c 3.7,0 5.7,1.7 5.8,4.7 0,3.1 -2,4.9 -5.9,5 h -15.7 c 2.1,6.1 4,11.7 6,17.4 10.8,30.6 21.6,45.3 32.5,75.9 1.9,5.3 0.4,10.3 -1.2,15.2 -6.5,20.8 -26.3,33.6 -48,31.3 -21,-2.2 -37.8,-19.5 -39.7,-41 -0.1,-1.6 0.1,-3.3 0.6,-4.8 12.5,-35.5 25.1,-55.1 37.6,-90.6 0.3,-0.9 0.6,-1.8 1.1,-3.3 v -0.2 0 z m -140,95 C 80.8,105.2 68,84.9 55.2,48.6 H 54.3 C 41.5,84.9 28.7,105.2 15.8,141.8 Z m 184.5,0.1 c -13,-36.8 -25.8,-57.1 -38.6,-93.4 h -0.8 c -12.8,36.3 -25.6,56.7 -38.5,93.3 h 77.9 z"
           fill="#000000"
           stroke-width="0" />
        <path
           id="path3"
           d="m 172.1,150.6 c -2,1.8 -4.3,3.8 -6.7,5.9 0.9,1 1.4,1.8 2,2.4 20.6,20.7 41.2,41.4 61.8,62.2 4.2,4.2 4.2,10.5 0.2,15 -4,4.5 -10.5,5.3 -14.8,1.2 -10.4,-9.9 -20.7,-20 -30.9,-30.1 -10.3,-10.2 -20.6,-20.4 -30.9,-30.6 -1.1,-1.1 -1.8,-2.5 -2.8,-3.9 -3,2.8 -5.2,4.9 -7.3,6.9 -8.2,-8.2 -16.3,-16.2 -24.5,-24.4 10,-9.6 20,-19.3 30.1,-29 7.4,7.6 15.5,15.9 23.9,24.5 h -0.1 z"
           fill="#73482c"
           stroke-width="0" />
        <path
           id="path4"
           d="m 110.7,156.9 c 9.8,10 19.6,20 29.5,30.2 -4,5.7 -7.1,6.1 -12.4,1.1 -6.3,-6.1 -12.6,-12.3 -18.7,-18.7 -4.9,-5 -4.4,-8.2 1.6,-12.6 z"
           fill="#442510"
           stroke-width="0" />
        <path
           id="path5"
           d="m 178.8,148.3 c -10,-10 -19.9,-19.9 -29.8,-29.7 3.7,-5.5 7.4,-6.1 12.3,-1.5 6.7,6.4 13.2,13.1 19.7,19.8 4,4.1 3.3,7.1 -2.1,11.5 v 0 z"
           fill="#442510"
           stroke-width="0" />
      </g>
      <path
         id="path6"
         d="m 155,189.6 v 39.9 h -16 v -28.3 l 12.7,-12.9 c 1.2,-1.2 3.3,-0.4 3.3,1.4 v 0 z"
         fill="#000000"
         stroke-width="0" />
      <path
         id="path7"
         d="m 117.9,234.7 h 58.3 c 4.5,0 8.2,3.7 8.2,8.2 v 6 h -74.7 v -6 c 0,-4.5 3.7,-8.2 8.2,-8.2 z"
         fill="#000000"
         stroke-width="0" />
      <path
         id="path8"
         d="m 101.5,253.7 h 91.1 c 4.5,0 8.2,3.7 8.2,8.2 v 6 H 93.3 v -6 c 0,-4.5 3.7,-8.2 8.2,-8.2 z"
         fill="#000000"
         stroke-width="0" />
    </g>
    <circle
       id="circle7"
       cx="147"
       cy="42.400002"
       r="9.6999998"
       fill="#ffffff"
       stroke-width="0" />
  </g>
</svg>
