<?xml version="1.0" encoding="UTF-8" standalone="no"?>
<svg
   id="Layer_1"
   data-name="Layer 1"
   version="1.2"
   viewBox="0 0 75130.811 71770.408"
   sodipodi:docname="LawEnforcement.svg"
   width="75130.812"
   height="71770.406"
   xmlns:inkscape="http://www.inkscape.org/namespaces/inkscape"
   xmlns:sodipodi="http://sodipodi.sourceforge.net/DTD/sodipodi-0.dtd"
   xmlns="http://www.w3.org/2000/svg"
   xmlns:svg="http://www.w3.org/2000/svg">
  <defs
     id="defs7" />
  <sodipodi:namedview
     id="namedview7"
     pagecolor="#ffffff"
     bordercolor="#000000"
     borderopacity="0.25"
     inkscape:showpageshadow="2"
     inkscape:pageopacity="0.0"
     inkscape:pagecheckerboard="0"
     inkscape:deskcolor="#d1d1d1" />
  <g
     id="g7">
    <g
       id="g4">
      <path
         d="m 223.7,41.8 h -65.2 c -2.7,0 -4.4,0.4 -5.6,3.3 -1.1,2.6 -3.3,4.8 -5.5,6.7 -1.7,1.4 -2.3,2.6 -2.3,4.7 v 41.8 c 0,2.3 -0.7,3.4 -2.8,4.9 -4,2.8 -7.3,6.6 -10.8,10 -0.7,0.6 -1.1,1.5 -1.7,2.2 -0.3,0 -0.6,-0.2 -0.9,-0.3 V 57.3 c 0,-2.4 -0.5,-3.9 -2.6,-5.6 -2.4,-1.9 -3.9,-4.9 -5.9,-7.3 -0.8,-1 -2.1,-2.3 -3.2,-2.3 -21.7,0 -43.4,0 -65.1,0 -21.7,0 -0.9,0 -1.6,0.2 0,0.7 0.2,1.4 0.4,2 12.7,36 25.6,60.9 37.9,97 1.4,4.1 0,9.6 -1.2,14.1 C 81.5,176.2 61,189.2 39.3,186.8 18.2,184 1.5,166.6 0,145.2 c -0.2,-2.9 1,-6 2,-8.8 C 14.1,102 26.3,78.6 38.4,44.1 38.6,43.5 38.7,42.8 39,41.7 H 22.5 c -2.6,0 -4.9,-1.4 -4.7,-4.2 0.1,-1.8 1.5,-3.7 2.8,-5 1.3,-1.3 2.7,-0.5 4.1,-0.5 h 90.9 c 2.7,0 4.2,-0.5 5.8,-3.2 1.9,-3.1 5.2,-5.6 8.3,-7.8 1.5,-1.1 2.4,-1.8 2.4,-3.8 -0.1,-3.9 0,-7.8 0,-11.7 0,-3.4 1.9,-5.5 4.9,-5.5 3,0 4.8,2.1 4.8,5.7 0,3.6 0.1,7.8 0,11.7 0,1.9 0.6,2.9 2.4,3.7 4,1.6 7,4.4 8.7,8.4 1,2.3 2.3,2.7 4.6,2.7 h 93 c 3.7,0 5.7,1.7 5.8,4.7 0,3.1 -2,4.9 -5.9,5 h -15.7 c 2.1,6.1 4,11.7 6,17.4 10.8,30.6 21.6,50.3 32.5,80.9 1.9,5.3 0.4,10.3 -1.2,15.2 -6.5,20.8 -26.3,33.6 -48,31.3 -21,-2.2 -37.8,-19.5 -39.7,-41 -0.1,-1.6 0.1,-3.3 0.6,-4.8 12.5,-35.5 25.1,-60.1 37.6,-95.6 0.3,-0.9 0.6,-1.8 1.1,-3.3 v -0.2 z m -140,100 C 70.8,105.2 58,79.9 45.2,43.6 H 44.3 C 31.5,79.9 18.7,105.2 5.8,141.8 Z m 184.5,0.1 c -13,-36.8 -25.8,-62.1 -38.6,-98.4 -0.3,0 -0.5,0 -0.8,0 -12.8,36.3 -25.6,61.7 -38.5,98.3 h 77.9 z"
         fill="#000000"
         stroke-width="0"
         id="path1" />
      <path
         d="m 162.1,150.6 c -2,1.8 -4.3,3.8 -6.7,5.9 0.9,1 1.4,1.8 2,2.4 20.6,20.7 41.2,41.4 61.8,62.2 4.2,4.2 4.2,10.5 0.2,15 -4,4.5 -10.5,5.3 -14.8,1.2 -10.4,-9.9 -20.7,-20 -30.9,-30.1 -10.3,-10.2 -20.6,-20.4 -30.9,-30.6 -1.1,-1.1 -1.8,-2.5 -2.8,-3.9 -3,2.8 -5.2,4.9 -7.3,6.9 -8.2,-8.2 -16.3,-16.2 -24.5,-24.4 10,-9.6 20,-19.3 30.1,-29 7.4,7.6 15.5,15.9 23.9,24.5 h -0.1 z"
         fill="#73482c"
         stroke-width="0"
         id="path2" />
      <path
         d="m 100.7,156.9 c 9.8,10 19.6,20 29.5,30.2 -4,5.7 -7.1,6.1 -12.4,1.1 -6.3,-6.1 -12.6,-12.3 -18.7,-18.7 -4.9,-5 -4.4,-8.2 1.6,-12.6 z"
         fill="#442510"
         stroke-width="0"
         id="path3" />
      <path
         d="m 168.8,148.3 c -10,-10 -19.9,-19.9 -29.8,-29.7 3.7,-5.5 7.4,-6.1 12.3,-1.5 6.7,6.4 13.2,13.1 19.7,19.8 4,4.1 3.3,7.1 -2.1,11.5 v 0 z"
         fill="#442510"
         stroke-width="0"
         id="path4" />
    </g>
    <path
       d="m 145,189.6 v 39.9 h -16 v -28.3 l 12.7,-12.9 c 1.2,-1.2 3.3,-0.4 3.3,1.4 v 0 z"
       fill="#000000"
       stroke-width="0"
       id="path5" />
    <path
       d="m 107.9,234.7 h 58.3 c 4.5,0 8.2,3.7 8.2,8.2 v 6 H 99.7 v -6 c 0,-4.5 3.7,-8.2 8.2,-8.2 z"
       fill="#000000"
       stroke-width="0"
       id="path6" />
    <path
       d="m 91.5,253.7 h 91.1 c 4.5,0 8.2,3.7 8.2,8.2 v 6 H 83.3 v -6 c 0,-4.5 3.7,-8.2 8.2,-8.2 z"
       fill="#000000"
       stroke-width="0"
       id="path7" />
  </g>
  <circle
     cx="137"
     cy="37.400002"
     r="9.6999998"
     fill="#ffffff"
     stroke-width="0"
     id="circle7" />
</svg>
