<?xml version="1.0" encoding="UTF-8" standalone="no"?>
<svg
   id="Layer_1"
   data-name="Layer 1"
   version="1.2"
   viewBox="0 0 75350.25 75350.25"
   sodipodi:docname="Other.svg"
   width="75350.25"
   height="75350.25"
   xmlns:inkscape="http://www.inkscape.org/namespaces/inkscape"
   xmlns:sodipodi="http://sodipodi.sourceforge.net/DTD/sodipodi-0.dtd"
   xmlns="http://www.w3.org/2000/svg"
   xmlns:svg="http://www.w3.org/2000/svg">
  <defs
     id="defs3" />
  <sodipodi:namedview
     id="namedview3"
     pagecolor="#ffffff"
     bordercolor="#000000"
     borderopacity="0.25"
     inkscape:showpageshadow="2"
     inkscape:pageopacity="0.0"
     inkscape:pagecheckerboard="0"
     inkscape:deskcolor="#d1d1d1" />
  <g
     id="g2">
    <path
       d="M 137.2,3 C 63.1,3 3,63.1 3,137.2 c 0,74.1 60.1,134.2 134.2,134.2 74.1,0 134.2,-60.1 134.2,-134.2 C 271.4,63.1 211.3,3 137.2,3 Z m 0,252.3 C 72,255.3 19.1,202.4 19.1,137.2 19.1,72 72,19.1 137.2,19.1 c 65.2,0 118.1,52.9 118.1,118.1 0,65.2 -52.9,118.1 -118.1,118.1 z"
       fill="#000000"
       stroke-width="0"
       id="path1" />
    <path
       d="M 137.2,3 C 63.1,3 3,63.1 3,137.2 c 0,74.1 60.1,134.2 134.2,134.2 74.1,0 134.2,-60.1 134.2,-134.2 C 271.4,63.1 211.3,3 137.2,3 Z m 0,252.3 C 72,255.3 19.1,202.4 19.1,137.2 19.1,72 72,19.1 137.2,19.1 c 65.2,0 118.1,52.9 118.1,118.1 0,65.2 -52.9,118.1 -118.1,118.1 z"
       fill="none"
       stroke="#000000"
       stroke-miterlimit="10"
       stroke-width="2"
       id="path2" />
  </g>
  <path
     d="m 151.1,179.5 h -29.8 c 0,-4.3 0,-6.9 0,-7.8 0,-9.6 1.6,-17.6 4.8,-23.8 3.2,-6.2 9.6,-13.2 19.1,-21 9.6,-7.8 15.3,-12.9 17.2,-15.3 2.9,-3.8 4.3,-8 4.3,-12.6 0,-4.6 -2.5,-11.8 -7.6,-16.4 -5.1,-4.6 -12,-6.8 -20.6,-6.8 -8.6,0 -15.3,2.4 -20.9,7.1 -5.6,4.7 -9.5,12 -11.6,21.7 L 75.9,100.9 C 76.8,87 82.7,75.2 93.7,65.4 c 11,-9.7 25.5,-14.6 43.4,-14.6 17.9,0 33.8,4.9 44.9,14.8 11.1,9.8 16.7,21.3 16.7,34.4 0,13.1 -2,14.1 -6.1,20.5 -4.1,6.5 -12.8,15.2 -26.2,26.4 -6.9,5.8 -11.2,10.4 -12.9,13.9 -1.7,3.5 -2.4,9.8 -2.3,18.8 v 0 z m -29.7,44.2 v -32.8 h 32.8 v 32.8 z"
     fill="#c27a7a"
     stroke-width="0"
     id="path3" />
</svg>
