<?xml version="1.0" encoding="UTF-8"?>
<svg id="Layer_1" data-name="Layer 1" xmlns="http://www.w3.org/2000/svg" version="1.1" viewBox="0 0 298.1 266.3">
  <g>
    <path d="M7.3,44.1V8.2h36.3v35.9s-36.3,0-36.3,0Z" style="fill: #32ff00; stroke-width: 0px;"/>
    <path d="M22.4,51.6H4c-2.7,0-4-1.4-4-4.2V9.1c0-2.9,1.4-4.2,4.5-4.2h18.1c4.2,0,4.3,2.6,4.3,3.4s-.2,2-.8,2.6c-.9.9-2.4,1.1-3.5,1.2H7.4v32.1h32.3v-10.1c0-3.7,2-4.2,3.5-4.2h0c1.5,0,3.4.4,3.4,4v13.6c0,2.8-1.3,4.1-4,4.2h-20.4.2,0Z" style="fill: #000; stroke-width: 0px;"/>
    <path d="M23.2,23.8c4.8-6,9.3-11.6,13.8-17.2,2.1-2.7,4.5-4.4,7.8-2.2,2.8,1.9,2.7,4.8,0,8.4-5.9,7.5-11.8,14.9-17.8,22.3-3.6,4.5-7.1,4.1-9.8-1-1.4-2.6-2.6-5.2-4-7.8-1.4-2.9-1.3-5.6,1.6-7.2,3.2-1.8,5.6-.4,7.2,2.7.3.5.6,1,1.3,2.1h0Z" style="fill: #000; stroke-width: 0px;"/>
  </g>
  <g>
    <path d="M258.3,44.1V8.2h36.3v35.9s-36.3,0-36.3,0Z" style="fill: #32ff00; stroke-width: 0px;"/>
    <path d="M273.5,51.6h-18.4c-2.7,0-4-1.4-4-4.2V9.1c0-2.9,1.4-4.2,4.5-4.2h18.1c4.2,0,4.3,2.6,4.3,3.4s-.2,2-.8,2.6c-.9.9-2.4,1.1-3.5,1.2h-15.2v32.1h32.3v-10.1c0-3.7,2-4.2,3.5-4.2h.1c1.5,0,3.4.4,3.4,4v13.6c0,2.8-1.3,4.1-4,4.2h-20.4.1Z" style="fill: #000; stroke-width: 0px;"/>
    <path d="M274.3,23.8c4.8-6,9.3-11.6,13.8-17.2,2.1-2.7,4.5-4.4,7.8-2.2,2.8,1.9,2.7,4.8,0,8.4-5.9,7.5-11.8,14.9-17.8,22.3-3.6,4.5-7.1,4.1-9.8-1-1.4-2.6-2.6-5.2-4-7.8-1.4-2.9-1.3-5.6,1.6-7.2,3.2-1.8,5.6-.4,7.2,2.7.3.5.6,1,1.3,2.1h-.1Z" style="fill: #000; stroke-width: 0px;"/>
  </g>
  <g>
    <path d="M7.3,115.6v-35.9h36.3v35.9H7.3Z" style="fill: #32ff00; stroke-width: 0px;"/>
    <path d="M22.4,123.1H4c-2.7,0-4-1.4-4-4.2v-38.3c0-2.9,1.4-4.2,4.5-4.2h18.1c4.2,0,4.3,2.6,4.3,3.4s-.2,2-.8,2.6c-.9.9-2.4,1.1-3.5,1.2H7.4v32.1h32.3v-10.1c0-3.7,2-4.2,3.5-4.2h0c1.5,0,3.4.4,3.4,4v13.6c0,2.8-1.3,4.1-4,4.2h-20.4.2,0Z" style="fill: #000; stroke-width: 0px;"/>
    <path d="M23.2,95.3c4.8-6,9.3-11.6,13.8-17.2,2.1-2.7,4.5-4.4,7.8-2.2,2.8,1.9,2.7,4.8,0,8.4-5.9,7.5-11.8,14.9-17.8,22.3-3.6,4.5-7.1,4.1-9.8-1-1.4-2.6-2.6-5.2-4-7.8-1.4-2.9-1.3-5.6,1.6-7.2,3.2-1.8,5.6-.4,7.2,2.7.3.5.6,1,1.3,2.1h0Z" style="fill: #000; stroke-width: 0px;"/>
  </g>
  <g>
    <path d="M258.3,115.6v-35.9h36.3v35.9h-36.3Z" style="fill: #32ff00; stroke-width: 0px;"/>
    <path d="M273.5,123.1h-18.4c-2.7,0-4-1.4-4-4.2v-38.3c0-2.9,1.4-4.2,4.5-4.2h18.1c4.2,0,4.3,2.6,4.3,3.4s-.2,2-.8,2.6c-.9.9-2.4,1.1-3.5,1.2h-15.2v32.1h32.3v-10.1c0-3.7,2-4.2,3.5-4.2h.1c1.5,0,3.4.4,3.4,4v13.6c0,2.8-1.3,4.1-4,4.2h-20.4.1Z" style="fill: #000; stroke-width: 0px;"/>
    <path d="M274.3,95.3c4.8-6,9.3-11.6,13.8-17.2,2.1-2.7,4.5-4.4,7.8-2.2,2.8,1.9,2.7,4.8,0,8.4-5.9,7.5-11.8,14.9-17.8,22.3-3.6,4.5-7.1,4.1-9.8-1-1.4-2.6-2.6-5.2-4-7.8-1.4-2.9-1.3-5.6,1.6-7.2,3.2-1.8,5.6-.4,7.2,2.7.3.5.6,1,1.3,2.1h-.1Z" style="fill: #000; stroke-width: 0px;"/>
  </g>
  <g>
    <path d="M258.3,187.2v-35.9h36.3v35.9h-36.3Z" style="fill: #32ff00; stroke-width: 0px;"/>
    <path d="M273.5,194.7h-18.4c-2.7,0-4-1.4-4-4.2v-38.3c0-2.9,1.4-4.2,4.5-4.2h18.1c4.2,0,4.3,2.6,4.3,3.4s-.2,2-.8,2.6c-.9.9-2.4,1.1-3.5,1.2h-15.2v32.1h32.3v-10.1c0-3.7,2-4.2,3.5-4.2h.1c1.5,0,3.4.4,3.4,4v13.6c0,2.8-1.3,4.1-4,4.2h-20.4.1Z" style="fill: #000; stroke-width: 0px;"/>
    <path d="M274.3,166.9c4.8-6,9.3-11.6,13.8-17.2,2.1-2.7,4.5-4.4,7.8-2.2,2.8,1.9,2.7,4.8,0,8.4-5.9,7.5-11.8,14.9-17.8,22.3-3.6,4.5-7.1,4.1-9.8-1-1.4-2.6-2.6-5.2-4-7.8-1.4-2.9-1.3-5.6,1.6-7.2,3.2-1.8,5.6-.4,7.2,2.7.3.5.6,1,1.3,2.1h-.1Z" style="fill: #000; stroke-width: 0px;"/>
  </g>
  <g>
    <path d="M7.3,258.7v-35.9h36.3v35.9H7.3Z" style="fill: #32ff00; stroke-width: 0px;"/>
    <path d="M22.4,266.2H4c-2.7,0-4-1.4-4-4.2v-38.3c0-2.9,1.4-4.2,4.5-4.2h18.1c4.2,0,4.3,2.6,4.3,3.4s-.2,2-.8,2.6c-.9.9-2.4,1.1-3.5,1.2H7.4v32.1h32.3v-10.1c0-3.7,2-4.2,3.5-4.2h0c1.5,0,3.4.4,3.4,4v13.6c0,2.8-1.3,4.1-4,4.2h-20.4.2,0Z" style="fill: #000; stroke-width: 0px;"/>
    <path d="M23.2,238.4c4.8-6,9.3-11.6,13.8-17.2,2.1-2.7,4.5-4.4,7.8-2.2,2.8,1.9,2.7,4.8,0,8.4-5.9,7.5-11.8,14.9-17.8,22.3-3.6,4.5-7.1,4.1-9.8-1-1.4-2.6-2.6-5.2-4-7.8-1.4-2.9-1.3-5.6,1.6-7.2,3.2-1.8,5.6-.4,7.2,2.7.3.5.6,1,1.3,2.1h0Z" style="fill: #000; stroke-width: 0px;"/>
  </g>
  <g>
    <path d="M3,191.5v-38.7h41.7v38.7H3Z" style="fill: #ff0c17; stroke-width: 0px;"/>
    <rect x="3.1" y="150.9" width="40.8" height="40.8" rx="3.6" ry="3.6" style="fill: none; stroke: #000; stroke-linecap: round; stroke-linejoin: round; stroke-width: 6px;"/>
  </g>
  <g>
    <path d="M254.1,263v-38.7h41.7v38.7h-41.7Z" style="fill: #ff0c17; stroke-width: 0px;"/>
    <rect x="254.3" y="222.4" width="40.8" height="40.8" rx="3.6" ry="3.6" style="fill: none; stroke: #000; stroke-linecap: round; stroke-linejoin: round; stroke-width: 6px;"/>
  </g>
  <g>
    <path d="M128.8,176.2c.3-1,.7-1.9,1-2.8,3.6-8.4,7.1-16.7,10.7-25,5.9-13.9,12.1-28.2,18.1-42.4,1.4-3.2,2.7-4.1,6.1-4.1h52.5c5.8,0,2.1,0,3.3,0l-2.3,5.4c-4.2,10-6.2,25.4-10.4,34.8-.2.6-2.5-.5-4.2-.1-8.1,1.9-11.8,3-16.9,9.8-6.6,9.1-.4,14.9,6.9,22.1l-65,2.1h.2v.2h0Z" style="fill: #d2d2d2; stroke-width: 0px;"/>
    <path d="M193.2,166.3c-2.1,0-4.6-.2-8-.8,3.4-10.8,12.5-18.1,23.9-18.9-4.8,16.9-8.2,19.6-16,19.6h.1Z" style="fill: #f0c8a0; stroke-width: 0px;"/>
    <path d="M135.1,61.2c-7.7,0-14.9-3.1-20.4-8.6-5.5-5.5-8.5-12.8-8.4-20.5,0-15.8,13-28.6,28.8-28.6h.5c15.7.3,28.5,13.2,28.5,28.9s-11.5,27.5-26.2,28.9h-2.8Z" style="fill: #f0caa3; stroke-width: 0px;"/>
    <path d="M135,64.6c-17.8,0-32.3-14.5-32.4-32.3,0-8.5,3.3-16.6,9.4-22.7,6.2-6.2,14.4-9.6,23.1-9.6h.4c8.6,0,16.7,3.5,22.8,9.7s9.4,14.3,9.3,22.9c-.2,17.7-14.7,32.1-32.4,32.1h-.2ZM131.7,56.2h3.4c13.2,0,24-10.8,24-24s-10.6-23.7-23.6-23.9h-.4c-13,0-23.7,10.6-23.9,23.7,0,6.4,2.4,12.5,6.9,17.1,3.8,3.8,8.6,6.2,13.8,6.9l-.3.3h.1Z" style="fill: #000; stroke-width: 0px;"/>
    <path d="M164.9,264.6v-81.8h-36.8c-4.3,0-6.5-.4-7.3-1.5-.8-1-.7-3.3.3-7.7l.4-1.8h-15.7v92.6h-8.4v-92.9h-8.3c-10.6-.5-19.2-8.4-19.6-17.9-.7-15.8-1.1-32.6.3-48.8,1.4-16.7,17.6-31.2,35.3-31.7h.5c4.7,0,5.4,1.9,5.5,4,0,2-.4,4.1-5.2,4.5-16.9,1.3-28.3,13.5-28.3,30.4v36.6c0,9.8,4.9,14.7,14.4,14.7s9.8.1,14.8.1,10.4,0,14.8-.2h0c2.1,0,4.8-1.8,5.9-3.8,1.4-2.7,2.6-5.6,3.8-8.6.7-1.7,1.4-3.5,2.2-5.3l.9-2h-30.3c-6,0-6.9-.8-6.9-6.7v-14c0-2,.7-4.5,4-4.5s4.1,1.4,4.3,4.4v12.1h24.4l-2.2-2.4c-2.3-2.5-4.3-4.5-6.1-6.3-.9-.9-2-2.3-2-3.7s.5-2,1.5-3c.9-.8,1.8-1.2,2.7-1.2,1.5,0,2.8,1.1,3.7,2,1.3,1.4,2.6,2.8,3.9,4.2,1.9,2.1,3.9,4.2,6.2,6.6l1.5,1.6.8-2c1.3-3.1,2.6-6.1,3.9-9,3-7,5.9-13.6,8.6-20.4,1.6-4,3.8-5.5,7.8-5.5s.5,0,.7,0h27.6l-1.8-2.3c-5.5-7-12.3-10.8-21.5-11.8-.4,0-.8,0-1.3-.2-1,0-2.6-.3-2.9-.7-1.2-1.6-1.8-3.8-1.5-4.5.6-1.3,3-2.9,4.3-2.9,13.3,0,23.7,5.9,31,17.2,2.4,3.7,4.9,5.2,8.7,5.2h.8c2.2,0,4.6-.2,7.4-.2h11.5c1.9,0,4.3.4,5.3,1.9s.3,3.9-.4,5.7c-3.7,8.9-7.6,18-11.4,26.8l-3.6,8.4.6.7c3.3,3.6,3.8,7.6,1.6,12.2-2.7,5.6-5.6,11.4-8.6,17-.9,1.6-2.3,2.9-2.8,3h-.6c-4.8,0-6,3.7-7,6.4v.3c-1.3,3.5-3.4,5.1-7.2,5.1s-.4,0-.6,0c-.8,0-1.6,0-2.5-.2-1.5-.1-3.1-.2-4.6-.2-2.2,0-5.3.2-7.2,1.9-2.2,2-1.9,6.1-1.6,10.1.1,1.4.2,2.7.2,3.8v.9h.2v65.3h-8.4.3ZM166,104.1c-4.1,0-6.2,1.4-7.9,5.2-5.2,12.3-10.5,24.7-15.6,36.8-3.1,7.2-6.2,14.4-9.3,21.7-.5,1-.8,2.1-1.3,3.4l-.4,1.1-.6,1.9h59.6l-3.4-2.6c-7.7-5.8-8.8-12.6-3.3-20.2,3.9-5.4,9.1-8.9,15.5-10.4.9-.2,4.1-1,5-3.1,3.7-8.2,7.1-16.4,10.8-25l3.6-8.4-3.5-.2h-49.2v-.2h0ZM202.9,149.6c-6.9,0-12.4,4.6-13.6,11.4l-.3,1.4,1.4.3c2.3.4,3.9.6,5.2.6,6.1,0,7.8-4.5,9.7-11.8l.4-1.6h-1.7c-.4-.2-.8-.2-1.2-.2h.1Z" style="fill: #000; stroke-width: 0px;"/>
    <path d="M130.9,264.6v-67.8c.1-4.6,2.4-5.2,4.4-5.2s3.8.6,4.1,5.1v4.8h0v63.1h-8.6.1Z" style="fill: #000; stroke-width: 0px;"/>
  </g>
</svg>