<?xml version="1.0" encoding="UTF-8" standalone="no"?>
<svg
   id="svg1"
   version="1.2"
   viewBox="0 0 65178.089 51892.839"
   sodipodi:docname="Researchers.svg"
   width="65178.09"
   height="51892.84"
   xmlns:inkscape="http://www.inkscape.org/namespaces/inkscape"
   xmlns:sodipodi="http://sodipodi.sourceforge.net/DTD/sodipodi-0.dtd"
   xmlns="http://www.w3.org/2000/svg"
   xmlns:svg="http://www.w3.org/2000/svg">
  <defs
     id="defs1" />
  <g
     id="Layer_1"
     data-name="Layer 1"
     inkscape:version="1.3.2 (091e20e, 2023-11-25, custom)">
    <sodipodi:namedview
       id="namedview26"
       bordercolor="#000000"
       borderopacity="0.25"
       inkscape:current-layer="Layer_1"
       inkscape:cx="149.20005"
       inkscape:cy="133.14999"
       inkscape:deskcolor="#d1d1d1"
       inkscape:pagecheckerboard="0"
       inkscape:pageopacity="0.0"
       inkscape:showpageshadow="2"
       inkscape:window-height="1009"
       inkscape:window-maximized="1"
       inkscape:window-width="1920"
       inkscape:window-x="1912"
       inkscape:window-y="-8"
       inkscape:zoom="3.0529479"
       pagecolor="#ffffff"
       showgrid="false" />
    <g
       id="g1">
      <rect
         id="rect1"
         x="0.30000001"
         width="254.5"
         height="226"
         fill="#ffffff"
         stroke-width="0"
         y="0" />
      <g
         id="g27">
        <g
           id="g3">
          <path
             id="path1"
             d="M 6.6,37.8 V 7.1 h 31 v 30.7 z"
             fill="#699c5c"
             stroke-width="0" />
          <path
             id="path2"
             d="M 19.4,44.2 H 3.8 C 1.5,44.2 0.3,43 0.3,40.6 V 7.8 C 0.3,5.3 1.5,4.2 4.2,4.2 h 15.4 c 3.6,0 3.7,2.3 3.7,2.9 0,0.6 -0.1,1.7 -0.7,2.3 -0.8,0.8 -2.1,0.9 -3,1.1 H 6.7 v 27.4 h 27.5 v -8.7 c 0,-3.2 1.7,-3.6 3,-3.6 v 0 c 1.3,0 2.9,0.3 2.9,3.5 v 11.6 c 0,2.4 -1.1,3.5 -3.5,3.6 h -17.4 0.2 v -0.2 z"
             fill="#000000"
             stroke-width="0" />
          <path
             id="path3"
             d="m 20.2,20.3 c 4,-5.1 7.9,-9.9 11.9,-14.7 1.8,-2.3 3.9,-3.7 6.6,-1.8 2.4,1.6 2.3,4 0,7.2 -5.1,6.4 -10,12.7 -15.2,19 -3,3.9 -6.1,3.5 -8.4,-0.9 -1.2,-2.3 -2.3,-4.5 -3.5,-6.6 -1.2,-2.5 -1.1,-4.8 1.3,-6.1 2.7,-1.5 4.8,-0.3 6.1,2.3 0.3,0.4 0.5,0.9 1.1,1.8 v 0 -0.2 z"
             fill="#000000"
             stroke-width="0" />
        </g>
        <g
           id="g6">
          <path
             id="path4"
             d="M 220.9,37.8 V 7.1 h 31 v 30.7 z"
             fill="#699c5c"
             stroke-width="0" />
          <path
             id="path5"
             d="m 233.9,44.2 h -15.7 c -2.3,0 -3.5,-1.2 -3.5,-3.6 V 7.8 c 0,-2.5 1.2,-3.6 3.9,-3.6 H 234 c 3.6,0 3.7,2.3 3.7,2.9 0,0.6 -0.1,1.7 -0.7,2.3 -0.8,0.8 -2.1,0.9 -3,1.1 h -13.1 v 27.4 h 27.5 v -8.7 c 0,-3.2 1.7,-3.6 3,-3.6 v 0 c 1.3,0 2.9,0.3 2.9,3.5 v 11.6 c 0,2.4 -1.1,3.5 -3.5,3.6 h -17.4 0.2 v -0.2 z"
             fill="#000000"
             stroke-width="0" />
          <path
             id="path6"
             d="m 234.5,20.3 c 4,-5.1 7.9,-9.9 11.9,-14.7 1.8,-2.3 3.9,-3.7 6.6,-1.8 2.4,1.6 2.3,4 0,7.2 -5.1,6.4 -10,12.7 -15.2,19 -3,3.9 -6.1,3.5 -8.4,-0.9 -1.2,-2.3 -2.3,-4.5 -3.5,-6.6 -1.2,-2.5 -1.1,-4.8 1.3,-6.1 2.7,-1.5 4.8,-0.3 6.1,2.3 0.3,0.4 0.5,0.9 1.1,1.8 v 0 -0.2 z"
             fill="#000000"
             stroke-width="0" />
        </g>
        <g
           id="g9">
          <path
             id="path7"
             d="M 6.6,98.8 V 68.1 h 31 v 30.7 z"
             fill="#699c5c"
             stroke-width="0" />
          <path
             id="path8"
             d="M 19.4,105.2 H 3.8 c -2.3,0 -3.5,-1.2 -3.5,-3.6 V 68.9 c 0,-2.5 1.2,-3.6 3.9,-3.6 h 15.4 c 3.6,0 3.7,2.3 3.7,2.9 0,0.6 -0.1,1.7 -0.7,2.3 -0.8,0.8 -2.1,0.9 -3,1.1 H 6.7 V 99 h 27.5 v -8.7 c 0,-3.2 1.7,-3.6 3,-3.6 v 0 c 1.3,0 2.9,0.3 2.9,3.5 v 11.6 c 0,2.4 -1.1,3.5 -3.5,3.6 h -17.4 0.2 z"
             fill="#000000"
             stroke-width="0" />
          <path
             id="path9"
             d="m 20.2,81.4 c 4,-5.1 7.9,-9.9 11.9,-14.7 1.8,-2.3 3.9,-3.7 6.6,-1.8 2.4,1.6 2.3,4 0,7.2 -5.1,6.4 -10,12.7 -15.2,19 -3,3.9 -6.1,3.5 -8.4,-0.9 -1.2,-2.3 -2.3,-4.5 -3.5,-6.6 -1.2,-2.5 -1.1,-4.8 1.3,-6.1 2.7,-1.5 4.8,-0.3 6.1,2.3 0.3,0.4 0.5,0.9 1.1,1.8 v 0 -0.2 z"
             fill="#000000"
             stroke-width="0" />
        </g>
        <g
           id="g12">
          <path
             id="path10"
             d="M 220.9,98.8 V 68.1 h 31 v 30.7 z"
             fill="#699c5c"
             stroke-width="0" />
          <path
             id="path11"
             d="m 233.9,105.2 h -15.7 c -2.3,0 -3.5,-1.2 -3.5,-3.6 V 68.9 c 0,-2.5 1.2,-3.6 3.9,-3.6 H 234 c 3.6,0 3.7,2.3 3.7,2.9 0,0.6 -0.1,1.7 -0.7,2.3 -0.6,0.6 -2.1,0.9 -3,1.1 H 220.9 V 99 h 27.5 v -8.7 c 0,-3.2 1.7,-3.6 3,-3.6 v 0 c 1.3,0 2.9,0.3 2.9,3.5 v 11.6 c 0,2.4 -1.1,3.5 -3.5,3.6 h -17.4 0.2 v -0.2 z"
             fill="#000000"
             stroke-width="0" />
          <path
             id="path12"
             d="m 234.5,81.4 c 4,-5.1 7.9,-9.9 11.9,-14.7 1.8,-2.3 3.9,-3.7 6.6,-1.8 2.4,1.6 2.3,4 0,7.2 -5.1,6.4 -10,12.7 -15.2,19 -3,3.9 -6.1,3.5 -8.4,-0.9 -1.2,-2.3 -2.3,-4.5 -3.5,-6.6 -1.2,-2.5 -1.1,-4.8 1.3,-6.1 2.7,-1.5 4.8,-0.3 6.1,2.3 0.3,0.4 0.5,0.9 1.1,1.8 v 0 -0.2 z"
             fill="#000000"
             stroke-width="0" />
        </g>
        <g
           id="g15">
          <path
             id="path13"
             d="m 220.9,159.9 v -30.7 h 31 v 30.7 z"
             fill="#699c5c"
             stroke-width="0" />
          <path
             id="path14"
             d="m 233.9,166.4 h -15.7 c -2.3,0 -3.5,-1.2 -3.5,-3.6 v -32.7 c 0,-2.5 1.2,-3.6 3.9,-3.6 H 234 c 3.6,0 3.7,2.3 3.7,2.9 0,0.6 -0.1,1.7 -0.7,2.3 -0.6,0.6 -2.1,0.9 -3,1.1 h -13.1 v 27.4 h 27.5 v -8.7 c 0,-3.2 1.7,-3.6 3,-3.6 v 0 c 1.3,0 2.9,0.3 2.9,3.5 V 163 c 0,2.4 -1.1,3.5 -3.5,3.6 h -17.4 0.2 v -0.2 z"
             fill="#000000"
             stroke-width="0" />
          <path
             id="path15"
             d="m 234.5,142.6 c 4,-5.1 7.9,-9.9 11.9,-14.7 1.8,-2.3 3.9,-3.7 6.6,-1.8 2.4,1.6 2.3,4 0,7.2 -5.1,6.4 -10,12.7 -15.2,19 -3,3.9 -6.1,3.5 -8.4,-0.9 -1.2,-2.3 -2.3,-4.5 -3.5,-6.6 -1.2,-2.5 -1.1,-4.8 1.3,-6.1 2.7,-1.5 4.8,-0.3 6.1,2.3 0.3,0.4 0.5,0.9 1.1,1.8 v 0 -0.2 z"
             fill="#000000"
             stroke-width="0" />
        </g>
        <g
           id="g18">
          <path
             id="path16"
             d="m 6.6,221 v -30.7 h 31 V 221 Z"
             fill="#699c5c"
             stroke-width="0" />
          <path
             id="path17"
             d="M 19.4,227.4 H 3.8 c -2.3,0 -3.5,-1.2 -3.5,-3.6 v -32.7 c 0,-2.5 1.2,-3.6 3.9,-3.6 h 15.4 c 3.6,0 3.7,2.3 3.7,2.9 0,0.6 -0.1,1.7 -0.7,2.3 -0.8,0.8 -2.1,0.9 -3,1.1 H 6.7 v 27.4 h 27.5 v -8.7 c 0,-3.2 1.7,-3.6 3,-3.6 v 0 c 1.3,0 2.9,0.3 2.9,3.5 V 224 c 0,2.4 -1.1,3.5 -3.5,3.6 h -17.4 0.2 z"
             fill="#000000"
             stroke-width="0" />
          <path
             id="path18"
             d="m 20.2,203.7 c 4,-5.1 7.9,-9.9 11.9,-14.7 1.8,-2.3 3.9,-3.7 6.6,-1.8 2.4,1.6 2.3,4 0,7.2 -5.1,6.4 -10,12.7 -15.2,19 -3,3.9 -6.1,3.5 -8.4,-0.9 -1.2,-2.3 -2.3,-4.5 -3.5,-6.6 -1.2,-2.5 -1.1,-4.8 1.3,-6.1 2.7,-1.5 4.8,-0.3 6.1,2.3 0.3,0.4 0.5,0.9 1.1,1.8 v 0 -0.2 z"
             fill="#000000"
             stroke-width="0" />
        </g>
        <g
           id="g19">
          <path
             id="path19"
             d="m 2.9,163.5 v -33.1 h 35.6 v 33.1 z"
             fill="#b71122"
             stroke-width="0" />
          <rect
             id="rect19"
             x="3"
             y="128.89999"
             width="34.799999"
             height="34.799999"
             rx="3"
             ry="3"
             fill="none"
             stroke="#000000"
             stroke-linecap="round"
             stroke-linejoin="round"
             stroke-width="6" />
        </g>
        <g
           id="g20">
          <path
             id="path20"
             d="m 217.3,224.7 v -33.1 h 35.6 v 33.1 z"
             fill="#b71122"
             stroke-width="0" />
          <rect
             id="rect20"
             x="217.39999"
             y="190"
             width="34.799999"
             height="34.799999"
             rx="3"
             ry="3"
             fill="none"
             stroke="#000000"
             stroke-linecap="round"
             stroke-linejoin="round"
             stroke-width="6" />
        </g>
        <g
           id="g26">
          <path
             id="path21"
             d="m 110.3,150.6 c 0.3,-0.9 0.7,-1.6 0.9,-2.4 3,-7.2 6.1,-14.3 9.1,-21.3 5.1,-11.9 10.3,-24 15.4,-36.2 1.2,-2.7 2.3,-3.5 5.2,-3.5 h 44.8 c 4.9,0 1.8,0 2.8,0 l -2,4.7 c -3.6,8.5 -5.2,21.7 -8.8,29.7 -0.1,0.5 -2.1,-0.4 -3.6,0 -6.9,1.6 -10,2.5 -14.5,8.4 -5.7,7.8 -0.3,12.7 5.9,18.8 l -55.5,1.8 h 0.1 c 0,0.1 0,0 0,0 z"
             fill="#d2d2d2"
             stroke-width="0" />
          <path
             id="path22"
             d="m 165.3,142.1 c -1.8,0 -3.9,-0.1 -6.9,-0.7 2.9,-9.2 10.7,-15.4 20.3,-16.2 -4,14.5 -7.1,16.8 -13.6,16.8 h 0.1 z"
             fill="#f0c8a0"
             stroke-width="0" />
          <path
             id="path23"
             d="M 115.7,52.3 C 109.1,52.3 103,49.6 98.3,45 93.6,40.3 91,34.1 91.1,27.5 91.1,14 102.2,3.1 115.7,3.1 h 0.4 c 13.4,0.3 24.4,11.2 24.4,24.7 0,13.5 -9.8,23.5 -22.4,24.7 h -2.4 z"
             fill="#f0caa3"
             stroke-width="0" />
          <path
             id="path24"
             d="M 115.6,55.2 C 100.4,55.2 88.1,42.8 88,27.7 88,20.4 90.8,13.4 96.1,8.3 101.3,3.1 108.4,0 115.9,0 h 0.3 c 7.3,0 14.3,3 19.5,8.3 5.2,5.2 8.1,12.2 7.9,19.6 C 143.5,43 131,55.3 116,55.3 h -0.3 v 0 z M 112.8,48 h 2.9 c 11.2,0 20.5,-9.2 20.5,-20.5 0,-11.3 -9,-20.2 -20.2,-20.3 h -0.3 c -11.1,0 -20.2,9 -20.3,20.2 0,5.4 2.1,10.7 5.9,14.6 3.3,3.3 7.3,5.2 11.9,5.9 l -0.3,0.3 v 0 -0.2 h 0.1 z"
             fill="#000000"
             stroke-width="0" />
          <path
             id="path25"
             d="m 141.1,226 v -69.9 h -31.4 c -3.7,0 -5.5,-0.3 -6.3,-1.3 -0.7,-0.9 -0.7,-2.8 0.3,-6.6 l 0.3,-1.5 H 90.6 v 79.1 h -7.2 v -79.3 h -7.1 c -9,-0.4 -16.4,-7.2 -16.8,-15.2 -0.7,-13.5 -0.9,-27.9 0.3,-41.7 1.2,-14.3 15,-26.7 30.1,-27.1 h 0.4 c 4,0 4.7,1.6 4.7,3.5 0,1.9 -0.3,3.5 -4.5,3.9 C 76,71 66.3,81.4 66.3,95.9 v 31.2 c 0,8.4 4.2,12.6 12.3,12.6 h 12.6 c 4.2,0 8.8,0 12.6,-0.1 v 0 c 1.8,0 4,-1.5 5.1,-3.3 1.2,-2.3 2.3,-4.8 3.3,-7.3 0.7,-1.5 1.2,-3 1.8,-4.5 l 0.8,-1.7 H 88.9 c -5.1,0 -5.9,-0.7 -5.9,-5.7 v -12 c 0,-1.7 0.7,-3.9 3.5,-3.9 2.8,0 3.5,1.2 3.7,3.7 v 10.3 H 111 l -1.8,-2.1 c -2,-2.1 -3.7,-3.9 -5.2,-5.4 -1.5,-1.5 -1.7,-2 -1.7,-3.2 0,-1.2 0.4,-1.7 1.3,-2.5 0.8,-0.7 1.5,-1.1 2.3,-1.1 1.3,0 2.4,0.9 3.2,1.7 1.1,1.2 2.3,2.4 3.3,3.6 1.6,1.8 3.3,3.6 5.2,5.7 l 1.3,1.3 0.7,-1.7 c 1.1,-2.7 2.3,-5.2 3.3,-7.6 2.5,-6 5.1,-11.6 7.3,-17.4 1.3,-3.5 3.3,-4.7 6.6,-4.7 3.3,0 0.4,0 0.7,0 h 23.6 l -1.5,-2 c -4.7,-6 -10.4,-9.2 -18.4,-10 -0.3,0 -0.7,0 -1.1,-0.1 -0.9,0 -2.3,-0.3 -2.5,-0.7 -1.1,-1.3 -1.5,-3.3 -1.3,-3.9 0.5,-1.1 2.5,-2.5 3.7,-2.5 11.4,0 20.2,5.1 26.4,14.7 2.1,3.2 4.2,4.5 7.5,4.5 h 0.7 c 1.8,0 3.9,-0.1 6.3,-0.1 h 9.8 c 1.6,0 3.7,0.3 4.5,1.6 0.9,1.3 0.3,3.3 -0.3,4.9 -3.2,7.6 -6.4,15.4 -9.7,22.8 l -3,7.2 0.5,0.7 c 2.8,3 3.3,6.4 1.3,10.4 -2.3,4.8 -4.8,9.7 -7.3,14.5 -0.8,1.3 -2,2.5 -2.4,2.5 h -0.5 c -4,0 -5.1,3.2 -6,5.4 v 0.3 c -1.1,3 -2.9,4.4 -6.1,4.4 -3.2,0 -0.3,0 -0.5,0 -0.7,0 -1.3,0 -2.1,-0.1 -1.3,0 -2.7,-0.1 -3.9,-0.1 -1.8,0 -4.5,0.1 -6.1,1.6 -1.8,1.7 -1.6,5.2 -1.3,8.7 0,1.2 0.1,2.3 0.1,3.3 v 0.8 h 0.1 v 55.8 h -7.2 0.3 -0.1 v -0.5 z m 1.1,-137 c -3.5,0 -5.2,1.2 -6.7,4.5 -4.5,10.4 -9,21.1 -13.3,31.4 -2.7,6.1 -5.2,12.3 -7.9,18.6 -0.4,0.9 -0.7,1.8 -1.1,2.9 l -0.3,0.9 -0.5,1.6 h 50.9 l -2.9,-2.3 c -6.6,-4.9 -7.5,-10.8 -2.8,-17.2 3.3,-4.7 7.8,-7.6 13.3,-8.8 0.8,-0.1 3.5,-0.9 4.2,-2.7 3.2,-7.1 6.1,-14 9.2,-21.3 l 3,-7.2 h -3 c 0,-0.1 -42,-0.1 -42,-0.1 v 0 -0.3 z m 31.4,38.8 c -5.9,0 -10.7,3.9 -11.6,9.7 l -0.3,1.2 1.2,0.3 c 2,0.3 3.3,0.5 4.5,0.5 5.2,0 6.6,-3.9 8.3,-10 l 0.3,-1.3 h -1.5 c -0.3,-0.1 -0.7,-0.1 -1.1,-0.1 h 0.1 l 0.2,-0.3 z"
             fill="#000000"
             stroke-width="0" />
          <path
             id="path26"
             d="m 112.1,226 v -57.9 c 0,-3.9 2.1,-4.5 3.7,-4.5 1.6,0 3.3,0.5 3.5,4.4 v 4 0 53.9 h -7.3 0.1 z"
             fill="#000000"
             stroke-width="0" />
        </g>
      </g>
    </g>
  </g>
</svg>
