<?xml version="1.0" encoding="UTF-8" standalone="no"?>
<svg
   id="Layer_1"
   data-name="Layer 1"
   version="1.1"
   viewBox="0 0 88863.608 70915.691"
   sodipodi:docname="Researchers.svg"
   inkscape:version="1.3.2 (091e20e, 2023-11-25, custom)"
   width="88863.609"
   height="70915.688"
   xmlns:inkscape="http://www.inkscape.org/namespaces/inkscape"
   xmlns:sodipodi="http://sodipodi.sourceforge.net/DTD/sodipodi-0.dtd"
   xmlns="http://www.w3.org/2000/svg"
   xmlns:svg="http://www.w3.org/2000/svg">
  <defs
     id="defs26" />
  <sodipodi:namedview
     id="namedview26"
     pagecolor="#ffffff"
     bordercolor="#000000"
     borderopacity="0.25"
     inkscape:showpageshadow="2"
     inkscape:pageopacity="0.0"
     inkscape:pagecheckerboard="0"
     inkscape:deskcolor="#d1d1d1"
     inkscape:zoom="3.0529479"
     inkscape:cx="149.20005"
     inkscape:cy="133.14999"
     inkscape:window-width="1920"
     inkscape:window-height="1009"
     inkscape:window-x="1912"
     inkscape:window-y="-8"
     inkscape:window-maximized="1"
     inkscape:current-layer="Layer_1" />
  <g
     id="g27">
    <g
       id="g3">
      <path
         d="M 7.3,44.1 V 8.2 h 36.3 v 35.9 c 0,0 -36.3,0 -36.3,0 z"
         style="fill:#32ff00;stroke-width:0px"
         id="path1" />
      <path
         d="M 22.4,51.6 H 4 C 1.3,51.6 0,50.2 0,47.4 V 9.1 C 0,6.2 1.4,4.9 4.5,4.9 h 18.1 c 4.2,0 4.3,2.6 4.3,3.4 0,0.8 -0.2,2 -0.8,2.6 -0.9,0.9 -2.4,1.1 -3.5,1.2 H 7.4 V 44.2 H 39.7 V 34.1 c 0,-3.7 2,-4.2 3.5,-4.2 v 0 c 1.5,0 3.4,0.4 3.4,4 v 13.6 c 0,2.8 -1.3,4.1 -4,4.2 h -20.4 0.2 v 0 z"
         style="fill:#000000;stroke-width:0px"
         id="path2" />
      <path
         d="M 23.2,23.8 C 28,17.8 32.5,12.2 37,6.6 c 2.1,-2.7 4.5,-4.4 7.8,-2.2 2.8,1.9 2.7,4.8 0,8.4 C 38.9,20.3 33,27.7 27,35.1 c -3.6,4.5 -7.1,4.1 -9.8,-1 -1.4,-2.6 -2.6,-5.2 -4,-7.8 -1.4,-2.9 -1.3,-5.6 1.6,-7.2 3.2,-1.8 5.6,-0.4 7.2,2.7 0.3,0.5 0.6,1 1.3,2.1 v 0 z"
         style="fill:#000000;stroke-width:0px"
         id="path3" />
    </g>
    <g
       id="g6">
      <path
         d="M 258.3,44.1 V 8.2 h 36.3 v 35.9 c 0,0 -36.3,0 -36.3,0 z"
         style="fill:#32ff00;stroke-width:0px"
         id="path4" />
      <path
         d="m 273.5,51.6 h -18.4 c -2.7,0 -4,-1.4 -4,-4.2 V 9.1 c 0,-2.9 1.4,-4.2 4.5,-4.2 h 18.1 c 4.2,0 4.3,2.6 4.3,3.4 0,0.8 -0.2,2 -0.8,2.6 -0.9,0.9 -2.4,1.1 -3.5,1.2 h -15.2 v 32.1 h 32.3 V 34.1 c 0,-3.7 2,-4.2 3.5,-4.2 h 0.1 c 1.5,0 3.4,0.4 3.4,4 v 13.6 c 0,2.8 -1.3,4.1 -4,4.2 h -20.4 0.1 z"
         style="fill:#000000;stroke-width:0px"
         id="path5" />
      <path
         d="m 274.3,23.8 c 4.8,-6 9.3,-11.6 13.8,-17.2 2.1,-2.7 4.5,-4.4 7.8,-2.2 2.8,1.9 2.7,4.8 0,8.4 -5.9,7.5 -11.8,14.9 -17.8,22.3 -3.6,4.5 -7.1,4.1 -9.8,-1 -1.4,-2.6 -2.6,-5.2 -4,-7.8 -1.4,-2.9 -1.3,-5.6 1.6,-7.2 3.2,-1.8 5.6,-0.4 7.2,2.7 0.3,0.5 0.6,1 1.3,2.1 h -0.1 z"
         style="fill:#000000;stroke-width:0px"
         id="path6" />
    </g>
    <g
       id="g9">
      <path
         d="M 7.3,115.6 V 79.7 h 36.3 v 35.9 z"
         style="fill:#32ff00;stroke-width:0px"
         id="path7" />
      <path
         d="M 22.4,123.1 H 4 c -2.7,0 -4,-1.4 -4,-4.2 V 80.6 c 0,-2.9 1.4,-4.2 4.5,-4.2 h 18.1 c 4.2,0 4.3,2.6 4.3,3.4 0,0.8 -0.2,2 -0.8,2.6 -0.9,0.9 -2.4,1.1 -3.5,1.2 H 7.4 v 32.1 h 32.3 v -10.1 c 0,-3.7 2,-4.2 3.5,-4.2 v 0 c 1.5,0 3.4,0.4 3.4,4 V 119 c 0,2.8 -1.3,4.1 -4,4.2 h -20.4 0.2 v 0 z"
         style="fill:#000000;stroke-width:0px"
         id="path8" />
      <path
         d="m 23.2,95.3 c 4.8,-6 9.3,-11.6 13.8,-17.2 2.1,-2.7 4.5,-4.4 7.8,-2.2 2.8,1.9 2.7,4.8 0,8.4 -5.9,7.5 -11.8,14.9 -17.8,22.3 -3.6,4.5 -7.1,4.1 -9.8,-1 -1.4,-2.6 -2.6,-5.2 -4,-7.8 -1.4,-2.9 -1.3,-5.6 1.6,-7.2 3.2,-1.8 5.6,-0.4 7.2,2.7 0.3,0.5 0.6,1 1.3,2.1 v 0 z"
         style="fill:#000000;stroke-width:0px"
         id="path9" />
    </g>
    <g
       id="g12">
      <path
         d="M 258.3,115.6 V 79.7 h 36.3 v 35.9 z"
         style="fill:#32ff00;stroke-width:0px"
         id="path10" />
      <path
         d="m 273.5,123.1 h -18.4 c -2.7,0 -4,-1.4 -4,-4.2 V 80.6 c 0,-2.9 1.4,-4.2 4.5,-4.2 h 18.1 c 4.2,0 4.3,2.6 4.3,3.4 0,0.8 -0.2,2 -0.8,2.6 -0.9,0.9 -2.4,1.1 -3.5,1.2 h -15.2 v 32.1 h 32.3 v -10.1 c 0,-3.7 2,-4.2 3.5,-4.2 h 0.1 c 1.5,0 3.4,0.4 3.4,4 V 119 c 0,2.8 -1.3,4.1 -4,4.2 h -20.4 0.1 z"
         style="fill:#000000;stroke-width:0px"
         id="path11" />
      <path
         d="m 274.3,95.3 c 4.8,-6 9.3,-11.6 13.8,-17.2 2.1,-2.7 4.5,-4.4 7.8,-2.2 2.8,1.9 2.7,4.8 0,8.4 -5.9,7.5 -11.8,14.9 -17.8,22.3 -3.6,4.5 -7.1,4.1 -9.8,-1 -1.4,-2.6 -2.6,-5.2 -4,-7.8 -1.4,-2.9 -1.3,-5.6 1.6,-7.2 3.2,-1.8 5.6,-0.4 7.2,2.7 0.3,0.5 0.6,1 1.3,2.1 h -0.1 z"
         style="fill:#000000;stroke-width:0px"
         id="path12" />
    </g>
    <g
       id="g15">
      <path
         d="m 258.3,187.2 v -35.9 h 36.3 v 35.9 z"
         style="fill:#32ff00;stroke-width:0px"
         id="path13" />
      <path
         d="m 273.5,194.7 h -18.4 c -2.7,0 -4,-1.4 -4,-4.2 v -38.3 c 0,-2.9 1.4,-4.2 4.5,-4.2 h 18.1 c 4.2,0 4.3,2.6 4.3,3.4 0,0.8 -0.2,2 -0.8,2.6 -0.9,0.9 -2.4,1.1 -3.5,1.2 h -15.2 v 32.1 h 32.3 v -10.1 c 0,-3.7 2,-4.2 3.5,-4.2 h 0.1 c 1.5,0 3.4,0.4 3.4,4 v 13.6 c 0,2.8 -1.3,4.1 -4,4.2 h -20.4 0.1 z"
         style="fill:#000000;stroke-width:0px"
         id="path14" />
      <path
         d="m 274.3,166.9 c 4.8,-6 9.3,-11.6 13.8,-17.2 2.1,-2.7 4.5,-4.4 7.8,-2.2 2.8,1.9 2.7,4.8 0,8.4 -5.9,7.5 -11.8,14.9 -17.8,22.3 -3.6,4.5 -7.1,4.1 -9.8,-1 -1.4,-2.6 -2.6,-5.2 -4,-7.8 -1.4,-2.9 -1.3,-5.6 1.6,-7.2 3.2,-1.8 5.6,-0.4 7.2,2.7 0.3,0.5 0.6,1 1.3,2.1 h -0.1 z"
         style="fill:#000000;stroke-width:0px"
         id="path15" />
    </g>
    <g
       id="g18">
      <path
         d="m 7.3,258.7 v -35.9 h 36.3 v 35.9 z"
         style="fill:#32ff00;stroke-width:0px"
         id="path16" />
      <path
         d="M 22.4,266.2 H 4 c -2.7,0 -4,-1.4 -4,-4.2 v -38.3 c 0,-2.9 1.4,-4.2 4.5,-4.2 h 18.1 c 4.2,0 4.3,2.6 4.3,3.4 0,0.8 -0.2,2 -0.8,2.6 -0.9,0.9 -2.4,1.1 -3.5,1.2 H 7.4 v 32.1 h 32.3 v -10.1 c 0,-3.7 2,-4.2 3.5,-4.2 v 0 c 1.5,0 3.4,0.4 3.4,4 v 13.6 c 0,2.8 -1.3,4.1 -4,4.2 h -20.4 0.2 v 0 z"
         style="fill:#000000;stroke-width:0px"
         id="path17" />
      <path
         d="m 23.2,238.4 c 4.8,-6 9.3,-11.6 13.8,-17.2 2.1,-2.7 4.5,-4.4 7.8,-2.2 2.8,1.9 2.7,4.8 0,8.4 -5.9,7.5 -11.8,14.9 -17.8,22.3 -3.6,4.5 -7.1,4.1 -9.8,-1 -1.4,-2.6 -2.6,-5.2 -4,-7.8 -1.4,-2.9 -1.3,-5.6 1.6,-7.2 3.2,-1.8 5.6,-0.4 7.2,2.7 0.3,0.5 0.6,1 1.3,2.1 v 0 z"
         style="fill:#000000;stroke-width:0px"
         id="path18" />
    </g>
    <g
       id="g19">
      <path
         d="m 3,191.5 v -38.7 h 41.7 v 38.7 z"
         style="fill:#ff0c17;stroke-width:0px"
         id="path19" />
      <rect
         x="3.0999999"
         y="150.89999"
         width="40.799999"
         height="40.799999"
         rx="3.5999999"
         ry="3.5999999"
         style="fill:none;stroke:#000000;stroke-width:6px;stroke-linecap:round;stroke-linejoin:round"
         id="rect19" />
    </g>
    <g
       id="g20">
      <path
         d="m 254.1,263 v -38.7 h 41.7 V 263 Z"
         style="fill:#ff0c17;stroke-width:0px"
         id="path20" />
      <rect
         x="254.3"
         y="222.39999"
         width="40.799999"
         height="40.799999"
         rx="3.5999999"
         ry="3.5999999"
         style="fill:none;stroke:#000000;stroke-width:6px;stroke-linecap:round;stroke-linejoin:round"
         id="rect20" />
    </g>
    <g
       id="g26">
      <path
         d="m 128.8,176.2 c 0.3,-1 0.7,-1.9 1,-2.8 3.6,-8.4 7.1,-16.7 10.7,-25 5.9,-13.9 12.1,-28.2 18.1,-42.4 1.4,-3.2 2.7,-4.1 6.1,-4.1 h 52.5 c 5.8,0 2.1,0 3.3,0 l -2.3,5.4 c -4.2,10 -6.2,25.4 -10.4,34.8 -0.2,0.6 -2.5,-0.5 -4.2,-0.1 -8.1,1.9 -11.8,3 -16.9,9.8 -6.6,9.1 -0.4,14.9 6.9,22.1 l -65,2.1 h 0.2 z"
         style="fill:#d2d2d2;stroke-width:0px"
         id="path21" />
      <path
         d="m 193.2,166.3 c -2.1,0 -4.6,-0.2 -8,-0.8 3.4,-10.8 12.5,-18.1 23.9,-18.9 -4.8,16.9 -8.2,19.6 -16,19.6 h 0.1 z"
         style="fill:#f0c8a0;stroke-width:0px"
         id="path22" />
      <path
         d="m 135.1,61.2 c -7.7,0 -14.9,-3.1 -20.4,-8.6 -5.5,-5.5 -8.5,-12.8 -8.4,-20.5 0,-15.8 13,-28.6 28.8,-28.6 h 0.5 c 15.7,0.3 28.5,13.2 28.5,28.9 0,15.7 -11.5,27.5 -26.2,28.9 h -2.8 z"
         style="fill:#f0caa3;stroke-width:0px"
         id="path23" />
      <path
         d="m 135,64.6 c -17.8,0 -32.3,-14.5 -32.4,-32.3 0,-8.5 3.3,-16.6 9.4,-22.7 C 118.2,3.4 126.4,0 135.1,0 h 0.4 c 8.6,0 16.7,3.5 22.8,9.7 6.1,6.2 9.4,14.3 9.3,22.9 -0.2,17.7 -14.7,32.1 -32.4,32.1 H 135 Z m -3.3,-8.4 h 3.4 c 13.2,0 24,-10.8 24,-24 C 159.1,19 148.5,8.5 135.5,8.3 h -0.4 c -13,0 -23.7,10.6 -23.9,23.7 0,6.4 2.4,12.5 6.9,17.1 3.8,3.8 8.6,6.2 13.8,6.9 l -0.3,0.3 h 0.1 z"
         style="fill:#000000;stroke-width:0px"
         id="path24" />
      <path
         d="m 164.9,264.6 v -81.8 h -36.8 c -4.3,0 -6.5,-0.4 -7.3,-1.5 -0.8,-1 -0.7,-3.3 0.3,-7.7 l 0.4,-1.8 h -15.7 v 92.6 H 97.4 V 171.5 H 89.1 C 78.5,171 69.9,163.1 69.5,153.6 68.8,137.8 68.4,121 69.8,104.8 71.2,88.1 87.4,73.6 105.1,73.1 h 0.5 c 4.7,0 5.4,1.9 5.5,4 0,2 -0.4,4.1 -5.2,4.5 C 89,82.9 77.6,95.1 77.6,112 v 36.6 c 0,9.8 4.9,14.7 14.4,14.7 9.5,0 9.8,0.1 14.8,0.1 5,0 10.4,0 14.8,-0.2 v 0 c 2.1,0 4.8,-1.8 5.9,-3.8 1.4,-2.7 2.6,-5.6 3.8,-8.6 0.7,-1.7 1.4,-3.5 2.2,-5.3 l 0.9,-2 h -30.3 c -6,0 -6.9,-0.8 -6.9,-6.7 v -14 c 0,-2 0.7,-4.5 4,-4.5 3.3,0 4.1,1.4 4.3,4.4 v 12.1 h 24.4 l -2.2,-2.4 c -2.3,-2.5 -4.3,-4.5 -6.1,-6.3 -0.9,-0.9 -2,-2.3 -2,-3.7 0,-1.4 0.5,-2 1.5,-3 0.9,-0.8 1.8,-1.2 2.7,-1.2 1.5,0 2.8,1.1 3.7,2 1.3,1.4 2.6,2.8 3.9,4.2 1.9,2.1 3.9,4.2 6.2,6.6 l 1.5,1.6 0.8,-2 c 1.3,-3.1 2.6,-6.1 3.9,-9 3,-7 5.9,-13.6 8.6,-20.4 1.6,-4 3.8,-5.5 7.8,-5.5 4,0 0.5,0 0.7,0 h 27.6 l -1.8,-2.3 c -5.5,-7 -12.3,-10.8 -21.5,-11.8 -0.4,0 -0.8,0 -1.3,-0.2 -1,0 -2.6,-0.3 -2.9,-0.7 -1.2,-1.6 -1.8,-3.8 -1.5,-4.5 0.6,-1.3 3,-2.9 4.3,-2.9 13.3,0 23.7,5.9 31,17.2 2.4,3.7 4.9,5.2 8.7,5.2 h 0.8 c 2.2,0 4.6,-0.2 7.4,-0.2 h 11.5 c 1.9,0 4.3,0.4 5.3,1.9 1,1.5 0.3,3.9 -0.4,5.7 -3.7,8.9 -7.6,18 -11.4,26.8 l -3.6,8.4 0.6,0.7 c 3.3,3.6 3.8,7.6 1.6,12.2 -2.7,5.6 -5.6,11.4 -8.6,17 -0.9,1.6 -2.3,2.9 -2.8,3 h -0.6 c -4.8,0 -6,3.7 -7,6.4 v 0.3 c -1.3,3.5 -3.4,5.1 -7.2,5.1 -3.8,0 -0.4,0 -0.6,0 -0.8,0 -1.6,0 -2.5,-0.2 -1.5,-0.1 -3.1,-0.2 -4.6,-0.2 -2.2,0 -5.3,0.2 -7.2,1.9 -2.2,2 -1.9,6.1 -1.6,10.1 0.1,1.4 0.2,2.7 0.2,3.8 v 0.9 h 0.2 v 65.3 h -8.4 z M 166,104.1 c -4.1,0 -6.2,1.4 -7.9,5.2 -5.2,12.3 -10.5,24.7 -15.6,36.8 -3.1,7.2 -6.2,14.4 -9.3,21.7 -0.5,1 -0.8,2.1 -1.3,3.4 l -0.4,1.1 -0.6,1.9 h 59.6 l -3.4,-2.6 c -7.7,-5.8 -8.8,-12.6 -3.3,-20.2 3.9,-5.4 9.1,-8.9 15.5,-10.4 0.9,-0.2 4.1,-1 5,-3.1 3.7,-8.2 7.1,-16.4 10.8,-25 l 3.6,-8.4 -3.5,-0.2 H 166 Z m 36.9,45.5 c -6.9,0 -12.4,4.6 -13.6,11.4 l -0.3,1.4 1.4,0.3 c 2.3,0.4 3.9,0.6 5.2,0.6 6.1,0 7.8,-4.5 9.7,-11.8 l 0.4,-1.6 H 204 c -0.4,-0.2 -0.8,-0.2 -1.2,-0.2 h 0.1 z"
         style="fill:#000000;stroke-width:0px"
         id="path25" />
      <path
         d="m 130.9,264.6 v -67.8 c 0.1,-4.6 2.4,-5.2 4.4,-5.2 2,0 3.8,0.6 4.1,5.1 v 4.8 0 63.1 h -8.6 z"
         style="fill:#000000;stroke-width:0px"
         id="path26" />
    </g>
  </g>
</svg>
