<?xml version="1.0" encoding="UTF-8" standalone="no"?>
<svg
   id="svg2"
   version="1.2"
   viewBox="0 0 77284 83521"
   sodipodi:docname="ServiceProviders.svg"
   width="77284"
   height="83521"
   xmlns:inkscape="http://www.inkscape.org/namespaces/inkscape"
   xmlns:sodipodi="http://sodipodi.sourceforge.net/DTD/sodipodi-0.dtd"
   xmlns="http://www.w3.org/2000/svg"
   xmlns:svg="http://www.w3.org/2000/svg">
  <defs
     id="defs16" />
  <g
     id="g8">
    <path
       d="m 266.7,189.6 v 0 c -2,-4.3 -5.9,-7.3 -10.8,-8.3 -1.2,-0.4 -0.3,-0.4 -3.7,-0.4 -3.4,0 -5.8,0.6 -8.5,1.3 -0.4,0 -0.8,0.2 -1.1,0.3 0,0 0,0 -0.1,0 -0.2,0 -0.2,0 -1.1,0 -0.9,0 -2.3,-0.3 -3.2,-1.1 -3,-2.8 -6.2,-4.7 -9.6,-5.8 -2.1,-0.6 -4.3,-0.9 -6.6,-0.9 v 0 c -6.2,0 -5.3,0.3 -8.1,1.1 0,0 0,0 0,0 0,0 0,0 0,0 -0.4,0 0,0 -1.1,0 -1.1,0 0,0 0,0 -1.1,0 -2.5,-0.5 -3.1,-0.8 -1.3,-0.7 -2.5,-1.4 -3.7,-2.1 -1.6,-1 -3.2,-1.9 -4.8,-2.5 -0.5,-0.2 -1.1,-0.4 -1.6,-0.6 -0.6,-0.2 -1,-0.3 -1.3,-0.5 -0.4,-0.2 -0.8,-0.3 -1.4,-0.4 -0.2,0 -0.5,0 -0.8,0 -0.8,0 -1.9,0 -3.6,0 -3.4,0 -6.9,0.7 -10.4,2 -1,0.4 -2.1,0.9 -3.1,1.4 -1.1,0.5 -2.1,1.1 -3.2,1.7 -6.3,3.8 -12.5,7.7 -18.6,11.5 -0.8,0.5 -1.6,1 -2.4,1.5 -1,0.6 -2,1.2 -3,1.8 -0.8,0.5 -1.6,1 -2.4,1.5 -1.8,1.1 -3.2,2 -4.4,2.6 -2.1,1.1 -3.7,1.7 -5.7,1.7 -2,0 -4.4,-0.7 -8.2,-2 h -0.4 c -2.3,-0.7 -4.5,-1.7 -6.5,-3 -0.5,-0.3 -1,-0.7 -1.5,-1 -1.5,-1.1 -3,-2.4 -4.4,-3.8 -0.5,-0.5 -1,-1.1 -1.5,-1.6 -1,-1 -2,-1.9 -3.1,-2.8 -1.5,-1.3 -3,-2.5 -4.5,-3.4 -1,-0.7 -2,-1.3 -3,-1.8 -3,-1.6 -6.1,-2.9 -9.3,-3.9 -2.1,-0.7 -4.3,-1.2 -6.6,-1.6 -2.3,-0.4 -4.5,-0.7 -6.8,-0.8 -1.2,0 -2.3,-0.1 -3.5,-0.1 v 0 c -9.4,0 -10.9,0.6 -16.7,2 -5.1,1.1 -10.1,3.1 -14.9,5.2 -0.7,0.3 -1.4,0.6 -2.1,0.9 -2.3,1 -4.7,2.1 -7.1,3.1 -7.1,3.1 -14.2,6.3 -21.1,9.5 l -5.6,2.5 c -0.5,0.2 -0.8,0.4 -1.2,0.7 -0.2,0.1 -0.3,0.3 -0.5,0.4 -0.7,0.8 -1,1.8 -0.9,2.8 0,0 0,0 0,0 v 0 c 0,0.1 0,0.2 0,0.4 0,0.3 0.2,0.6 0.3,0.8 3.3,8.2 25.7,58.4 25.7,58.4 0,0 1.3,0.7 2.3,2.3 0.8,1.1 2,1.7 2.9,1.7 0.9,0 0,0 0,0 0,0 0,0 0,0 0.9,0 1.9,-0.4 2.9,-1 1,-0.7 2.1,-1.3 3.1,-1.9 2.9,-1.7 5.5,-3.3 7.9,-5.2 3.8,-3.1 8.2,-4.6 11.7,-4.6 3.5,0 7.2,1.1 11.2,3.3 11.3,6.1 23,12 34.4,17.6 3.5,1.8 7.1,3.5 10.6,5.3 6.2,3.1 12.1,4.8 18.1,5.3 h 2.6 v 0.8 c 0,0 0,0 0,0 v 0 c 6.9,0 13.8,-2.3 21.5,-7.2 5.6,-3.5 11.2,-7.1 16.8,-10.6 9.2,-5.8 18.7,-11.7 27.9,-17.7 12.4,-8 25,-16.3 37.1,-24.3 l 6.9,-4.6 c 3.9,-2.6 8.8,-6.3 11.8,-11.7 2.4,-4.2 2.6,-9.1 0.7,-13.3 z"
       fill="#ffffff"
       stroke-width="0"
       id="path1" />
    <path
       d="m 46.8,102.8 c 0.7,0 1.4,0.2 2.1,0.4 2.7,0.5 5.5,1.1 8.3,1.4 2.9,0.2 9,0.8 10,7.8 v 0.2 c 1.9,2.7 0.2,4.9 -0.3,5.6 -2.9,4 -5.9,8.1 -8.8,12.2 -1.4,2 -1.3,3.6 0.4,5.3 3.6,3.7 7.4,7.5 11.5,11.6 1,0.9 2.1,1.4 2.8,1.4 0.7,0 1.6,-0.3 2.5,-0.9 0.7,-0.4 1.3,-0.9 2,-1.3 2.3,-1.4 4.5,-2.8 6.4,-4.5 2.6,-2.3 5.8,-3.4 7.7,-3.4 1.9,0 3.8,0.6 5.8,1.8 1.2,0.7 2.9,1.8 3.3,4.4 0.7,4.8 1.6,9.7 2.4,14.3 0.5,2.8 1.6,3.8 4.5,3.8 h 15.9 c 3,0 4.1,-1 4.6,-4 0.1,-1 0.3,-1.9 0.5,-2.9 0.5,-2.3 1,-4.4 1,-6.5 0.2,-4 1.4,-9.4 8.6,-10.9 0.7,-0.2 1,-0.3 2,-0.3 1,0 2,0.3 2.9,1 3.9,2.8 7.9,5.6 12.3,8.7 1.1,0.7 1.9,1.1 2.7,1.1 0.8,0 1.4,-0.2 2.8,-1.5 3.7,-3.6 7.7,-7.5 11.6,-11.5 0.4,-0.5 0.8,-1.3 1.2,-2.1 0,-0.2 0.2,-0.4 0.3,-0.6 -0.1,-0.2 -0.3,-0.4 -0.3,-0.6 -0.3,-0.9 -0.6,-1.6 -1,-2.2 -0.4,-0.6 -0.7,-1.1 -1.1,-1.7 -1.4,-2.3 -2.8,-4.4 -4.5,-6.2 -4.3,-4.5 -4.8,-9.3 -1.4,-14.2 0.4,-0.6 1.6,-2.1 3.3,-2.4 4,-0.8 8.2,-1.4 12.2,-2.1 l 2.7,-0.4 c 2.8,-0.4 4,-1.8 4,-4.6 V 83.4 c 0,-2.7 -0.9,-3.9 -3.6,-4.4 -0.8,-0.2 -1.6,-0.3 -2.4,-0.5 -2.6,-0.6 -5,-1.2 -7.4,-1.2 -3.8,-0.2 -9.1,-1.2 -10.7,-8.4 -0.4,-1.6 -0.7,-3.3 0.8,-5.4 2.8,-3.8 5.5,-7.7 8.5,-12 1.4,-2 1.3,-3.6 -0.4,-5.3 -3.6,-3.7 -7.4,-7.5 -11.3,-11.4 -1.4,-1.4 -2.2,-1.6 -3,-1.6 -0.8,0 -1.8,0.3 -2.9,1.1 -0.8,0.5 -1.5,1 -2.3,1.5 -2,1.3 -3.9,2.6 -5.6,4.1 -2.6,2.4 -5.7,3.5 -7.6,3.5 -1.9,0 -3.7,-0.6 -5.7,-1.8 -1.6,-1 -3,-2.1 -3.4,-4.7 -0.7,-5 -1.4,-9.8 -2.3,-14.3 -0.5,-2.6 -1.5,-3.5 -4.2,-3.5 -3.8,0 -7.8,0 -11.8,0 h -4.3 c -2.4,0 -3.7,1.1 -4.2,3.6 -0.2,1 -0.4,2 -0.6,3 -0.5,2.4 -1.1,4.6 -1.1,6.8 -0.3,5.8 -3,9.2 -8.6,10.6 -0.9,0.3 -1,0.3 -2.2,0.3 -1.2,0 -2.2,-0.4 -3.3,-1.2 C 83.9,39 79.7,36 76.5,33.8 c -1.1,-0.7 -2.2,-1.1 -2.8,-1.1 -0.6,0 0.5,-1.9 -3.1,1.7 -3.6,3.6 -7.3,7.2 -10.9,10.8 -3.6,3.6 -2.4,3.6 -0.7,6.1 0.5,0.7 0.9,1.4 1.4,2.2 1.2,1.9 2.3,3.6 3.7,5.1 4.4,4.8 4.9,9.8 1.5,14.7 -0.5,0.7 -1.7,2.2 -3.3,2.5 -4,0.7 -8,1.4 -11.8,2 l -3.2,0.5 c -3.6,0.6 -3.6,2.6 -3.6,3.3 -0.2,6.4 -0.2,12.1 -0.2,17.6 0,2.2 1,3.2 3.3,3.7 z M 57.9,83.9 c 3.1,-0.5 6.2,-1 9.4,-1.5 2.1,-0.3 3.2,-1.3 4,-3.5 1.6,-4.2 3.1,-7.9 4.8,-11.4 1,-2.1 0.9,-3.5 -0.2,-5.1 -2,-2.9 -4,-5.8 -6,-8.7 l -3.3,-4.8 7.7,-7.3 1.2,0.8 0.5,0.3 c 0.5,0.3 1,0.7 1.6,1.1 l 0.5,0.4 c 3.1,2.3 6.3,4.5 9.4,6.8 0.8,0.6 1.7,0.9 2.5,0.9 0.8,0 1.6,-0.3 2.6,-0.7 3.9,-1.8 7.8,-3.4 11.7,-4.8 2,-0.7 2.9,-1.7 3.2,-3.6 0.8,-4.3 1.6,-8.8 2.6,-13.4 0.4,-1.5 2.2,-3 3.8,-3 h 3.7 c 3.6,0 4.1,1.3 4.5,4.4 0,0.7 0.2,1.7 0.4,2.8 0.4,2.4 0.8,4.8 1.2,7.2 l 0.4,2.4 c 0.2,1.6 1,2.5 2.7,3.2 4.3,1.7 8.5,3.5 12.5,5.3 0.7,0.3 1.2,0.5 2,0.5 0.8,0 1.7,-0.4 2.6,-1 2.8,-2 5.6,-4 8.6,-6.1 l 5.3,-3.8 1.1,1.2 c 0.4,0.4 0.8,0.9 1.2,1.3 1,1.1 2.1,2.3 3,3.6 1,1.4 0.5,3.6 -0.2,4.6 -2.3,3.5 -4.8,7.1 -7.4,10.5 -1.4,1.8 -1.4,3.4 -0.3,5.7 1.7,3.5 3.1,7 4.2,10.4 0.9,2.9 2.2,4.1 4.8,4.4 2.5,0.3 5,0.8 7.4,1.2 1.6,0.3 2.3,0.5 4.7,0.8 2.4,0.3 3.6,1.7 3.6,4.1 v 0.2 c 0.1,6.3 -0.5,7 -6.9,8.2 -2.9,0.6 -5.9,1.1 -8.9,1.5 -2.7,0.4 -4.1,1.6 -4.9,4.3 -0.9,3.2 -2.3,6.5 -4.4,10.4 -1.2,2.2 -1.2,3.8 0.2,5.6 2.1,2.8 4.1,5.7 6.1,8.5 0.8,1.2 3.3,4.7 3.3,4.7 l -0.9,1.1 c -3,3.5 -4.9,5.2 -6.8,5.2 -1.9,0 -3.5,-1.2 -6.5,-3.3 -1.1,-0.8 -2.3,-1.6 -3.4,-2.4 -1.3,-0.9 -2.5,-1.7 -3.7,-2.6 -0.8,-0.5 -1.7,-0.8 -2.4,-0.8 -0.7,0 -1.6,0.2 -2.5,0.6 -4,1.9 -8,3.5 -11.7,4.8 -2,0.7 -2.9,1.7 -3.2,3.4 -0.2,1.1 -0.4,2.3 -0.6,3.5 -0.5,3.2 -1.1,6.5 -1.6,9.8 -0.4,3 -2.3,3.6 -3.9,3.6 h -2.4 v 0 c 0,0.1 -4.9,0.1 -4.9,0.1 l -2.4,-13.6 c 0,-0.5 -0.2,-0.9 -0.2,-1.4 -0.2,-0.7 -0.4,-1.4 -0.4,-2.1 -0.3,-1.5 -1.2,-2.4 -2.9,-3.1 -4.7,-1.8 -8.5,-3.4 -12.1,-5.1 -0.9,-0.4 -1.5,-0.6 -2.3,-0.6 -0.8,0 -1.5,0.2 -2.3,0.8 -1.2,0.8 -2.4,1.6 -3.6,2.4 -2.4,1.5 -4.8,3.2 -7.1,4.9 -1,0.7 -1.3,1.1 -2.9,1.1 -1.6,0 -2.7,-1 -3.4,-1.8 -0.6,-0.7 -1.4,-1.3 -2.3,-2 -0.4,-0.4 -0.9,-0.7 -1.3,-1.1 l -1.3,-1.1 1,-1.4 c 1,-1.4 1.9,-2.6 2.8,-3.9 2.1,-2.8 4,-5.5 6,-8.2 1.5,-2 1.6,-3.7 0.4,-6.1 -1.6,-3.2 -3.1,-6.8 -4.3,-10.6 -0.8,-2.5 -2.1,-3.6 -4.4,-4 -2.2,-0.4 -4.5,-0.8 -6.6,-1.2 -2,-0.3 -3.9,-0.7 -5.8,-1 -2.4,-0.4 -3.6,-1.7 -3.6,-4.1 v -0.2 c -0.1,-6.3 0.5,-7.1 6.9,-8.2 z"
       fill="#ffffff"
       stroke-width="0"
       id="path2" />
    <path
       d="m 61,94.2 c 2.2,0.4 4.3,0.8 6.5,1.1 3.7,0.6 6.1,2.7 7.3,6.5 1.2,3.6 2.5,7 4.1,10.1 1.8,3.7 1.6,6.9 -0.8,10 -2,2.6 -3.9,5.3 -5.9,8.1 -0.5,0.7 -1.1,1.6 -1.7,2.4 1,0.7 1.9,1.4 2.7,2.3 0.4,0.6 0.6,0.6 0.6,0.6 0,0 0.2,0 0.7,-0.4 2.4,-1.8 4.8,-3.5 7.2,-5.1 1.2,-0.8 2.4,-1.6 3.6,-2.4 1.4,-1 3.1,-1.5 4.4,-1.5 1.3,0 2.5,0.3 3.9,0.9 3.5,1.7 7.3,3.2 11.9,5 2.9,1.1 4.6,3.1 5.2,5.9 0.2,0.7 0.4,1.4 0.4,2.2 0,0.8 0.2,0.9 0.2,1.3 l 1.8,10.6 h 4 l 0.2,-0.3 h 0.5 v -0.4 c 0.5,-3.3 1,-6.7 1.6,-9.9 0.2,-1.2 0.4,-2.3 0.6,-3.5 0.6,-3 2.4,-5 5.6,-6.2 3.6,-1.4 7.5,-2.9 11.4,-4.7 1.4,-0.7 2.4,-1 4,-1 1.6,0 3.2,0.5 4.6,1.5 1.2,0.9 2.4,1.7 3.6,2.6 1.2,0.8 2.3,1.7 3.5,2.5 2,1.4 3.8,2.6 4.3,2.6 0.5,0 1.6,-1.2 3,-2.8 -0.5,-0.7 -1,-1.5 -1.6,-2.3 -1.9,-2.8 -3.9,-5.7 -6,-8.5 -2.2,-3 -2.4,-6.1 -0.6,-9.6 1.9,-3.7 3.2,-6.8 4.1,-9.7 1.2,-4.1 3.8,-6.3 7.9,-6.9 2.9,-0.4 5.8,-1 8.7,-1.5 1.6,-0.3 3.5,-0.6 3.7,-0.9 0.2,-0.3 0.2,-2.1 0.2,-3.6 V 88.6 H 176 c -1.6,-0.2 -3.2,-0.5 -4.8,-0.8 -2.3,-0.4 -4.8,-0.8 -7.2,-1.1 -4,-0.4 -6.6,-2.6 -7.9,-6.9 -1,-3.2 -2.4,-6.6 -4,-9.9 -1.8,-3.5 -1.6,-6.6 0.6,-9.5 2.5,-3.3 5,-6.8 7.3,-10.3 0,0 0,-0.4 0,-0.6 -0.8,-1 -1.7,-2 -2.6,-3.1 h -0.1 l -2.6,1.9 c -2.9,2.1 -5.7,4.1 -8.5,6.1 -1.6,1.1 -3.6,1.7 -4.8,1.7 -1.2,0 -2.4,-0.3 -3.6,-0.8 -4,-1.7 -8.1,-3.5 -12.4,-5.2 -2.9,-1.1 -4.5,-3.1 -5,-6 L 120,41.7 c -0.4,-2.3 -0.8,-4.7 -1.2,-7.1 -0.2,-1.2 -0.4,-2.1 -0.4,-2.9 -0.2,-0.4 -0.2,-0.9 -0.2,-1.2 H 114 c -0.1,0 -0.3,0.3 -0.3,0.3 -1,4.5 -1.8,8.9 -2.5,13.1 -0.6,3.2 -2.5,5.3 -5.7,6.5 -3.8,1.4 -7.6,3 -11.4,4.7 -1.5,0.7 -2.5,1 -4.1,1 -1.6,0 -3.2,-0.5 -4.7,-1.6 -3.1,-2.3 -6.2,-4.6 -9.4,-6.8 l -0.5,-0.4 c -0.2,-0.2 -0.5,-0.5 -0.7,-0.5 l -3.3,3.1 1.5,2.2 c 2,2.9 4,5.8 6,8.7 1.9,2.7 2.1,5.6 0.5,8.8 -1.7,3.3 -3.2,7 -4.7,11.1 -1.3,3.4 -3.5,5.4 -6.9,5.9 -3.2,0.5 -6.3,1 -9.3,1.5 -1.6,0.3 -3.4,0.6 -3.7,0.9 -0.2,0.3 -0.2,2.1 -0.2,3.6 v 0.6 H 55 c 2,0.3 4,0.6 5.9,1 z M 115.2,61 v 0 c 0,0 0,0 0,0 16.7,0 30.2,13.7 30.2,30.4 0,16.7 -13.6,30.2 -30.2,30.2 h -0.3 C 98,121.6 84.9,108 84.9,91 84.9,74.2 98.3,61.1 115.1,61.1 Z"
       fill="#ffffff"
       stroke-width="0"
       id="path3" />
    <path
       d="m 115,117.8 v 0 c 0,0.1 0.3,0.1 0.3,0.1 14.5,0 26.5,-11.9 26.5,-26.5 0,-14.7 -11.8,-26.7 -26.6,-26.7 -14.8,0 -26.5,11.5 -26.5,26.2 0,15 11.5,26.9 26.3,26.9 z m 0.2,-45.7 h 0.1 c 10.5,0.1 18.9,8.8 18.9,19.3 0,10.5 -8.6,19 -19,19 H 115 c -10.5,-0.1 -18.9,-8.8 -18.9,-19.3 0,-10.5 8.6,-19 19.1,-19 z"
       fill="#ffffff"
       stroke-width="0"
       id="path4" />
    <path
       d="m 180,38.7 c 0.3,0.2 0.6,0.4 0.9,0.6 1.2,0.7 2.4,1.6 3.7,2.2 1.3,0.6 4.1,2.1 3.3,5.6 0.4,1.6 -0.8,2.4 -1.2,2.6 -2.1,1.4 -4.3,2.8 -6.5,4.2 -1,0.7 -1.3,1.5 -0.8,2.6 1,2.4 2.1,5 3.3,7.7 0.3,0.6 0.7,1.2 1.1,1.2 h 1.4 c 0.4,0 0.8,-0.2 1.2,-0.2 1.4,-0.3 2.7,-0.6 3.9,-1 1.6,-0.6 3.4,-0.6 4.3,-0.2 0.9,0.4 1.7,1 2.4,2 0.5,0.6 1.1,1.4 0.8,2.7 -0.5,2.4 -1,4.9 -1.5,7.3 -0.3,1.5 0,2.1 1.4,2.7 1.7,0.7 3.4,1.3 5.1,2 h 0.1 v 0.5 l 2.4,0.9 c 1.4,0.5 2.1,0.3 2.9,-1.1 0.3,-0.4 0.5,-0.9 0.8,-1.3 0.6,-1 1.2,-1.9 1.7,-2.9 0.9,-1.9 2.5,-4.3 6.2,-3.6 0.3,0 0.5,0 1,0.2 0.5,0.2 0.9,0.5 1.2,1 1.3,2.1 2.6,4.2 4.2,6.5 0.4,0.5 0.7,1 1.1,1 0.2,0 0.7,0.2 1.6,-0.2 2.4,-1 5.1,-2.1 7.7,-3.3 0.3,-0.2 0.7,-0.5 1,-0.8 0.1,0 0.3,-0.2 0.3,-0.2 v -1.6 c 0,-0.3 -0.2,-0.7 -0.2,-1 -0.3,-1.3 -0.5,-2.6 -1,-3.8 -1.2,-3 -0.5,-5.4 2,-7.1 0.3,-0.2 1.1,-0.7 2,-0.5 2.1,0.4 4.3,0.9 6.3,1.3 l 1.4,0.3 c 1.5,0.3 2.3,0 2.8,-1.5 l 3,-7.5 c 0.5,-1.3 0.3,-2 -0.9,-2.8 -0.4,-0.2 -0.7,-0.5 -1.1,-0.7 -1.1,-0.7 -2.2,-1.4 -3.3,-1.9 -1.9,-0.8 -4.2,-2.3 -3.6,-6 0,-0.8 0.3,-1.7 1.4,-2.4 2.1,-1.3 4.2,-2.7 6.4,-4.2 1,-0.7 1.3,-1.5 0.8,-2.6 -1.1,-2.5 -2.2,-5 -3.3,-7.6 -0.4,-0.9 -0.7,-1.1 -1.1,-1.3 -0.4,-0.2 -0.9,-0.2 -1.6,0 -0.5,0 -0.9,0.3 -1.4,0.3 -1.2,0.2 -2.4,0.5 -3.5,0.9 -1.7,0.6 -3.4,0.5 -4.3,0.2 -0.9,-0.3 -1.7,-0.9 -2.4,-1.9 -0.6,-0.8 -1.1,-1.6 -0.8,-2.9 0.6,-2.5 1.2,-5 1.6,-7.3 0.2,-1.4 0,-2 -1.4,-2.5 -1.8,-0.8 -3.7,-1.5 -5.6,-2.3 -0.7,-0.3 -1.4,-0.5 -2.1,-0.8 -1.2,-0.5 -2,-0.2 -2.7,0.9 -0.3,0.4 -0.6,0.9 -0.9,1.3 -0.7,1 -1.3,2 -1.8,3 -1.2,2.8 -3.2,3.9 -6.1,3.5 -0.3,-0.1 -0.7,-0.2 -1.1,-0.3 -0.6,-0.2 -1,-0.6 -1.4,-1.2 -1.4,-2.3 -2.9,-4.5 -4,-6.2 -0.4,-0.6 -0.8,-1.1 -1.1,-1.1 -0.3,0 -0.8,-0.2 -1.8,0.2 -2.5,1 -4.9,2.1 -7.3,3.1 -1.5,0.7 -1.8,1.3 -1.5,2.8 0.1,0.4 0.3,0.9 0.3,1.3 0.2,1.1 0.4,2.1 0.8,3.1 1.3,3.1 0.6,5.6 -2,7.3 -0.3,0.3 -1.2,0.8 -2,0.6 -2,-0.3 -4,-0.8 -6,-1.2 L 184.9,27 c -1.8,-0.4 -2.3,0.6 -2.4,0.9 -1.3,3 -2.4,5.7 -3.4,8.4 -0.4,1.1 0,1.7 0.9,2.4 z m 4.2,-4.5 c 1.2,-3 1.6,-3.3 4.9,-2.6 1.6,0.3 3.2,0.6 4.8,1 1.1,0.3 1.8,0 2.6,-0.9 1.5,-1.8 2.9,-3.3 4.4,-4.6 0.9,-0.8 1.1,-1.5 0.9,-2.5 -0.4,-1.8 -0.8,-3.5 -1.2,-5.3 l -0.7,-3 5.1,-2 0.4,0.6 0.2,0.2 c 0.2,0.2 0.4,0.5 0.6,0.8 l 0.2,0.3 c 1,1.6 2.1,3.3 3.2,5 0.3,0.4 0.7,0.7 1,0.9 0.3,0.2 0.8,0.2 1.3,0.2 h 6.5 c 1.1,0 1.7,-0.3 2.2,-1.1 1.1,-1.9 2.4,-3.9 3.7,-5.9 0.5,-0.7 1.6,-1 2.4,-0.7 0.3,0.2 0.6,0.4 0.9,0.4 l 0.8,0.3 c 1.7,0.7 1.7,1.4 1.3,3 -0.1,0.3 -0.2,0.8 -0.3,1.4 -0.3,1.3 -0.5,2.5 -0.8,3.7 l -0.3,1.2 c -0.2,0.8 0,1.4 0.7,2 1.8,1.7 3.4,3.3 5,4.9 0.3,0.3 0.5,0.5 0.9,0.6 0.4,0 0.8,0 1.4,0 1.8,-0.4 3.5,-0.9 5.3,-1.3 l 3.2,-0.8 0.3,0.8 c 0,0.2 0.2,0.5 0.3,0.8 0.3,0.8 0.6,1.5 0.8,2.3 0.2,0.9 -0.5,1.8 -1,2.2 -1.8,1.2 -3.6,2.4 -5.5,3.6 -1,0.6 -1.3,1.4 -1.2,2.7 0,2 0,4 0,5.8 -0.1,1.6 0.3,2.4 1.5,3 1.2,0.7 2.3,1.3 3.4,2 0.7,0.5 1.4,0.9 2.1,1.3 1,0.6 1.3,1.4 0.9,2.7 -1.2,3 -1.6,3.2 -4.9,2.6 -1.5,-0.3 -3,-0.6 -4.5,-1 -1.4,-0.4 -2.3,0 -3.2,1.1 -1.1,1.4 -2.4,2.7 -4.1,4.2 -0.9,0.9 -1.2,1.7 -0.9,2.8 0.4,1.7 0.9,3.5 1.3,5.2 0.2,0.7 0.7,2.9 0.7,2.9 l -0.7,0.3 c -2,1.2 -3.3,1.5 -4.2,1.2 -0.9,-0.3 -1.5,-1.2 -2.5,-2.8 -0.4,-0.6 -0.8,-1.2 -1.2,-1.8 -0.5,-0.6 -0.9,-1.3 -1.3,-1.9 -0.3,-0.5 -0.7,-0.7 -1,-0.9 -0.3,-0.2 -0.8,-0.2 -1.3,-0.2 h -6.5 c -1,-0.1 -1.6,0.2 -2.1,1 -0.4,0.5 -0.7,1.1 -1,1.6 -0.9,1.4 -1.8,2.9 -2.6,4.4 -0.8,1.4 -1.9,1.3 -2.6,1 h -0.2 c -0.3,-0.2 -0.6,-0.4 -0.9,-0.4 v 0 c -0.2,-0.2 -0.4,-0.4 -0.7,-0.4 -0.3,0 -0.6,-0.3 -0.9,-0.3 l -0.7,-0.3 1.4,-7 c 0,-0.2 0.2,-0.5 0.2,-0.7 0,-0.4 0.2,-0.7 0.2,-1.1 0,-0.7 -0.1,-1.4 -0.8,-2 -1.9,-1.7 -3.4,-3.2 -4.8,-4.7 -0.3,-0.3 -0.6,-0.7 -1,-0.7 h -1.3 c -0.7,0.2 -1.5,0.3 -2.2,0.5 -1.4,0.3 -2.9,0.6 -4.3,1 -0.6,0.2 -0.8,0.3 -1.6,0 -0.8,-0.3 -1.1,-1 -1.3,-1.5 0,-0.5 -0.4,-0.9 -0.7,-1.4 0,-0.3 -0.3,-0.5 -0.4,-0.8 l -0.4,-0.8 0.7,-0.5 c 0.8,-0.4 1.4,-0.9 2.1,-1.3 1.5,-1 2.9,-1.9 4.4,-2.8 1.1,-0.6 1.4,-1.4 1.3,-2.8 0,-1.9 0,-3.8 0,-5.9 0.1,-1.3 -0.3,-2.1 -1.3,-2.7 -1,-0.6 -1.9,-1.2 -2.9,-1.8 -0.9,-0.6 -1.7,-1.1 -2.6,-1.6 -1,-0.6 -1.3,-1.5 -0.9,-2.7 z"
       fill="#ffffff"
       stroke-width="0"
       id="path5" />
    <path
       d="m 188.4,37.1 c 1,0.6 1.9,1.2 2.9,1.8 1.7,1 2.4,2.4 2.3,4.5 -0.2,1.9 -0.2,3.8 0,5.6 0.2,2.2 -0.5,3.7 -2.2,4.7 -1.5,0.9 -2.9,1.8 -4.4,2.8 -0.4,0.2 -0.9,0.5 -1.3,0.8 0.3,0.5 0.6,1 0.8,1.6 l 0.2,0.4 h 0.4 c 1.5,-0.4 3,-0.8 4.4,-1.1 0.8,-0.2 1.5,-0.3 2.2,-0.5 0.8,-0.3 1.8,-0.2 2.4,0 0.6,0.2 1.2,0.6 1.7,1.2 1.4,1.4 2.9,2.9 4.8,4.6 1.2,1.1 1.7,2.3 1.4,3.8 0,0.3 -0.2,0.7 -0.2,1.1 -0.1,0.2 -0.1,0.5 -0.1,0.7 l -1.1,5.4 c 0.3,0 0.5,0.2 0.8,0.3 0.3,0.1 0.7,0.2 1,0.4 v 0.2 h 0.2 v -0.2 c 0.8,-1.5 1.7,-3 2.6,-4.4 0.4,-0.6 0.7,-1.1 1,-1.6 0.8,-1.3 2,-1.9 3.8,-1.9 h 6.3 c 0.8,0 1.3,0 2.1,0.3 0.8,0.3 1.4,0.8 1.9,1.6 0.5,0.6 0.9,1.3 1.3,1.9 0.4,0.6 0.8,1.2 1.2,1.8 0.7,1.1 1.3,2 1.6,2.1 0.3,0 1,-0.3 2,-0.8 -0.2,-0.4 -0.3,-0.9 -0.4,-1.4 -0.4,-1.7 -0.8,-3.5 -1.3,-5.2 -0.5,-1.9 0,-3.4 1.5,-4.7 1.6,-1.4 2.8,-2.7 3.8,-3.9 1.3,-1.8 3,-2.3 5.1,-1.8 l 4.5,0.9 c 0.8,0.3 1.7,0.3 1.9,0.3 0.2,0 0.5,-1 0.8,-1.8 v -0.2 h -0.2 c -0.8,-0.4 -1.5,-0.9 -2.2,-1.3 -1.1,-0.6 -2.2,-1.3 -3.3,-1.9 -1.9,-1 -2.7,-2.5 -2.5,-4.8 0.2,-1.7 0.2,-3.6 0,-5.5 -0.2,-2.1 0.5,-3.5 2.1,-4.5 1.9,-1.2 3.7,-2.4 5.5,-3.6 0,0 0.2,-0.3 0.2,-0.3 -0.2,-0.6 -0.4,-1.2 -0.7,-1.9 l -1.6,0.4 c -1.8,0.4 -3.5,0.9 -5.2,1.3 -0.9,0.2 -1.8,0.2 -2.6,0 -0.5,-0.3 -1,-0.6 -1.5,-1.1 -1.5,-1.6 -3.2,-3.2 -4.9,-4.8 -1.2,-1 -1.6,-2.3 -1.3,-3.8 l 0.3,-1.2 c 0.3,-1.2 0.6,-2.4 0.8,-3.6 0.1,-0.6 0.3,-1.1 0.3,-1.5 0.1,-0.2 0.1,-0.4 0.1,-0.7 h -0.3 l -0.8,-0.3 c -0.3,-0.1 -0.6,-0.4 -0.9,-0.4 h -0.2 c -1.2,1.9 -2.5,3.9 -3.6,5.8 -0.8,1.4 -2.1,2 -3.9,2 -2,-0.2 -4.2,0 -6.3,0 -0.9,0 -1.4,0 -2.2,-0.3 -0.8,-0.3 -1.5,-0.9 -2,-1.7 -1,-1.7 -2.1,-3.3 -3.2,-5 L 204,17.4 c 0,-0.2 -0.2,-0.4 -0.2,-0.4 l -2.2,0.9 0.3,1.4 c 0.4,1.8 0.8,3.5 1.2,5.3 0.4,1.6 0,3 -1.4,4.3 -1.4,1.2 -2.8,2.7 -4.3,4.4 -1.2,1.4 -2.7,1.9 -4.4,1.5 -1.6,-0.3 -3.2,-0.7 -4.7,-1 -0.8,-0.2 -1.7,-0.3 -1.9,-0.3 -0.2,0.1 -0.5,1 -0.8,1.8 v 0.2 c 0.1,0.1 0.2,0.1 0.2,0.1 0.9,0.5 1.7,1.1 2.6,1.6 z m 12.1,3 c 3.2,-8.1 12,-11.9 20.1,-8.7 v 0 c 0,0 0,0 0,0 7.9,3.1 11.9,12.2 8.7,20.2 -3.2,7.9 -12.2,11.9 -20.2,8.7 v 0 C 201,57.1 197.3,48.1 200.5,40 Z"
       fill="#ffffff"
       stroke-width="0"
       id="path6" />
    <path
       d="m 275.8,185.5 -2.8,-5.9 h -1.1 c -3.4,-3.9 -8,-6.6 -13.2,-7.9 -2.1,-0.8 -3.6,-0.8 -6.6,-0.8 -3,0 -6.7,0.6 -9.5,1.3 -3.5,-2.8 -7.3,-4.8 -11.2,-6 -3,-0.9 -6.2,-1.4 -9.5,-1.4 -4.7,0 -6.6,0.2 -8.9,0.9 -0.7,-0.4 -1.3,-0.8 -2,-1.2 -2,-1.2 -3.9,-2.3 -6.1,-3.2 -0.9,-0.4 -1.7,-0.6 -2.5,-0.9 -0.2,0 -0.4,-0.1 -0.5,-0.2 h -0.2 c -0.8,-0.4 -1.9,-0.7 -3.3,-0.9 -0.4,0 -0.9,-0.1 -1.5,-0.2 -1.1,0 -2.4,-0.1 -4.4,-0.1 -4.6,0 -9.3,0.9 -14,2.6 -1.2,0.5 -2.5,1 -4,1.8 -1.4,0.7 -2.7,1.4 -3.9,2.1 -5.2,3.1 -10.3,6.3 -15.3,9.4 l -3.4,2.1 c -0.6,0.4 -1.3,0.8 -1.9,1.2 l -4,2.5 c -0.6,0.4 -1.2,0.8 -1.8,1.1 -1.5,0.9 -2.9,1.8 -3.9,2.3 -0.6,0.3 -0.9,0.4 -1,0.5 -0.9,0 -3.8,-1.1 -4.9,-1.5 l -1.6,-0.5 h -0.4 c -1,-0.4 -1.9,-0.9 -2.8,-1.4 -0.3,-0.2 -0.7,-0.4 -1,-0.7 -1,-0.7 -2.1,-1.7 -3.1,-2.7 -0.6,-0.6 -1.2,-1.2 -1.7,-1.7 -1.1,-1.1 -2.3,-2.2 -3.5,-3.2 h 3 c 7.9,0 13.2,-4.5 14.5,-12.4 v -0.3 c 0,0 0,-0.3 0,-0.3 0,-0.4 0.1,-0.8 0.3,-1.5 l 0.2,-0.8 c 0.5,-2.3 1.1,-4.9 1.1,-7.8 0,-0.3 0,-0.5 0,-0.7 2.4,1.7 4.8,3.4 7.3,5.2 l 2.8,2 h 0.2 c 2.1,1.4 4.6,2.8 8.1,2.8 3.5,0 6.6,-1.4 9.6,-4.2 l 0.2,-0.2 c 4,-3.9 7.9,-7.7 11.8,-11.7 l 0.3,-0.3 0.3,-0.4 c 1.1,-1.3 1.8,-2.7 2.3,-3.9 l 2.5,-5.1 c 0,0 -2.2,-4.5 -2.2,-4.5 -0.4,-1.1 -1,-2.5 -1.9,-3.8 -0.2,-0.2 -0.3,-0.5 -0.4,-0.7 -0.2,-0.3 -0.3,-0.5 -0.5,-0.8 -1.5,-2.4 -3.3,-5.2 -5.7,-7.7 -0.2,-0.2 -0.3,-0.3 -0.4,-0.4 1.5,-0.3 3,-0.5 4.5,-0.7 1.5,-0.2 3,-0.5 4.4,-0.7 l 2.5,-0.4 c 7.8,-1.1 12.6,-6.7 12.6,-14.5 V 90 l 4.2,1.6 c 1.6,0.6 3,0.8 4.5,0.8 1.5,0 6.1,-0.5 9.4,-4.8 2,2.5 4.3,3.6 6.2,4.1 0.9,0.2 1.8,0.3 2.8,0.3 1.7,0 3.4,-0.4 5.1,-1.1 l 1,-0.4 c 2.1,-0.9 4.6,-1.9 7,-3 l 0.7,-0.3 0.7,-0.4 c 0.4,-0.3 0.9,-0.6 1.5,-1.1 0.5,-0.3 0.9,-0.7 1.3,-1.1 l 2.9,-2.9 v -6.5 c 0.4,0 0.9,0 1.3,0 5.1,0 9.4,-3.1 11.3,-8 l 3,-7.5 c 2.1,-5.3 0.6,-10.6 -3.8,-14.1 4.3,-3.5 5.6,-9.1 3.3,-14.2 v 0 C 259,28.9 258,26.5 256.9,24 v -0.2 c -1.3,-2.9 -3.2,-4.9 -5.8,-6.2 -2.6,-1.3 -3.3,-1.2 -5.2,-1.2 -1.9,0 -1.1,0 -1.7,0.1 0.5,-5.6 -2.3,-10.3 -7.5,-12.4 -1.2,-0.5 -2.3,-1 -3.4,-1.4 -0.7,-0.3 -1.5,-0.6 -2.1,-0.9 -0.5,-0.2 -1.1,-0.4 -1.6,-0.6 -0.2,0 -0.3,-0.1 -0.5,-0.2 H 229 c -1.6,-0.7 -3.2,-1 -4.9,-1 -3.7,0 -7,1.7 -9.4,4.7 -2.1,-2.8 -4.5,-3.9 -6.6,-4.4 -0.9,-0.2 -1.7,-0.3 -2.6,-0.3 -1.6,0 -3.3,0.3 -5,1 -1.6,0.6 -3.1,1.3 -4.6,1.9 -0.9,0.4 -1.9,0.8 -2.8,1.2 h -0.2 c 0,0 -0.2,0.2 -0.2,0.2 -5.3,2.5 -7.9,7.1 -7.3,12.6 -0.4,0 -0.9,0 -1.3,0 -4.9,0 -9.1,2.9 -10.9,7.2 -0.9,2.2 -1.8,4.2 -2.5,6.1 -0.8,-0.8 -1.6,-1.6 -2.5,-2.5 -3,-3 -6.3,-4.5 -10.1,-4.5 -3.8,0 -5.8,1 -8.5,2.8 -0.4,0.2 -0.8,0.5 -1.1,0.7 -0.3,0.2 -0.6,0.4 -0.9,0.6 h -0.1 c -2.2,1.5 -4.5,3.1 -6.8,5.1 h -0.2 c -0.1,0.3 -0.3,0.4 -0.4,0.5 -0.6,-4.1 -1.2,-8.2 -2,-12.2 C 136.7,13.4 131.6,9.1 124.2,9.1 120.3,9 116.2,9 112.2,9 h -4.3 c -7.2,0 -12.6,4.5 -14,11.6 l -0.6,2.9 c 0,0.4 -0.2,0.8 -0.3,1.3 -0.5,2.1 -1,4.5 -1,7.2 0,0.2 0,0.4 0,0.6 -4.3,-3.2 -8,-5.8 -10,-7.2 L 81.7,25.2 C 80.8,24.6 79.6,24 78.3,23.5 76.8,22.6 75,22.1 73.1,22.1 c -4.6,0 -7.4,2.8 -9.7,5.1 -2.3,2.3 -3.6,3.6 -5.4,5.3 -1.8,1.8 -3.7,3.6 -5.5,5.5 -5.6,5.6 -6.3,12.3 -1.9,18.8 V 57 c 0.4,0.3 0.5,0.6 0.7,1 l 0.5,0.8 c 1.5,2.4 2.9,4.5 4.8,6.5 0.4,0.5 0.7,0.8 0.9,1.1 -2.9,0.5 -5.9,1 -8.6,1.4 l -3.3,0.5 c -7.2,1.2 -11.9,6.3 -12,13 -0.2,6.5 -0.2,12.2 -0.2,17.8 v 0.5 c 0.3,6.7 4.5,11.6 11.2,13 H 45 c 0,0 0.4,0.1 0.4,0.1 0.3,0 0.7,0 0.8,0.1 h 0.5 c 0,0.1 1.6,0.4 2.1,0.5 2.2,0.4 4.8,0.9 7.4,1.2 h 0.2 c 0,0 0.6,0 0.8,0 l -0.2,0.2 c -2.3,3.2 -4.7,6.5 -7.1,9.8 -4.2,6 -3.6,12.9 1.5,18 3.6,3.7 7.4,7.5 11.6,11.7 l 0.2,0.2 0.2,0.2 c 1.6,1.5 5.1,4 9.5,4 4.4,0 5.3,-0.8 7.8,-2.4 0.6,-0.4 1.1,-0.7 1.4,-0.9 0.1,0 0.2,-0.2 0.3,-0.2 h 0.2 c 2.5,-1.6 5.3,-3.4 7.8,-5.7 0.2,-0.2 0.5,-0.4 0.7,-0.5 0.5,3 1,6 1.5,9 l 0.4,2 c -0.3,0 -0.5,-0.1 -0.8,-0.2 -2.6,-0.5 -5.3,-0.8 -8,-1 -1.4,0 -2.7,-0.1 -4.1,-0.1 -9.4,0 -12.2,0.6 -17.6,1.9 l -1.4,0.3 c -5.9,1.3 -11.5,3.6 -16.6,5.8 -0.7,0.3 -1.4,0.6 -2.1,0.9 -2.4,1 -4.7,2.1 -7.1,3.1 -6.8,3 -14,6.2 -21.2,9.5 l -5.4,2.4 c -1.3,0.5 -2.5,1.3 -3.6,2.1 -0.6,0.5 -1.1,1 -1.6,1.6 -2.4,2.7 -3.6,6.2 -3.4,9.8 v 1.1 c 0.2,0.7 0.4,1.3 0.5,1.8 0.2,0.7 0.4,1.3 0.7,1.9 3.7,9.1 24.8,56.4 25.7,58.4 l 1.4,3.1 2,1.1 c 2.3,3.2 5.9,5.2 9.6,5.6 h 0.3 c 0,0 1.1,0 1.1,0 2.7,0 5.4,-0.8 8,-2.4 l 0.3,-0.2 0.3,-0.2 c 0.4,-0.3 1,-0.6 1.6,-1 0.3,-0.2 0.6,-0.4 0.8,-0.5 3.4,-2 6.3,-3.8 9,-6 h 0.1 c 2.3,-1.9 4.5,-2.4 5.3,-2.4 1.7,0 4,0.7 6.5,2.1 10,5.4 21,11 34.7,17.7 1.8,0.9 3.6,1.8 5.4,2.7 1.7,0.8 3.4,1.7 5.1,2.6 h 0.1 c 5.1,2.6 10.1,4.4 15.2,5.4 v 1.8 h 10.1 c 8.8,0 17.6,-2.9 26.8,-8.7 2.8,-1.8 5.7,-3.6 8.5,-5.4 2.8,-1.8 5.5,-3.5 8.4,-5.3 2.2,-1.4 4.3,-2.7 6.5,-4.1 7.1,-4.5 14.4,-9.1 21.5,-13.7 12.6,-8.1 25.3,-16.5 37.2,-24.4 l 6.9,-4.6 c 4.5,-3 10.9,-7.8 15,-15.1 3.9,-6.9 4.3,-15.2 1.1,-22.3 z"
       fill="#ffffff"
       stroke-width="0"
       id="path7" />
    <path
       d="m 209.8,58.6 v 0 c 0,0.1 0,0.1 0,0.1 7,2.7 14.9,-0.7 17.7,-7.7 2.8,-7 -0.6,-15 -7.7,-17.8 -7.1,-2.8 -14.8,0.6 -17.6,7.6 -2.9,7.1 0.4,14.9 7.5,17.8 z m -3.9,-16.4 c 2,-5 7.7,-7.5 12.7,-5.5 5,2 7.4,7.8 5.4,12.8 -2,5 -7.7,7.5 -12.7,5.5 -5,-2 -7.4,-7.8 -5.4,-12.8 z"
       fill="#ffffff"
       stroke-width="0"
       id="path8" />
  </g>
  <g
     id="svg1"
     inkscape:export-filename="ServiceProviders.svg"
     inkscape:export-xdpi="96"
     inkscape:export-ydpi="96"
     inkscape:version="1.3.2 (091e20e, 2023-11-25, custom)">
    <g
       id="Layer_1"
       data-name="Layer 1"
       inkscape:export-filename="ServiceProviders.svg"
       inkscape:export-xdpi="96"
       inkscape:export-ydpi="96"
       inkscape:version="1.3.2 (091e20e, 2023-11-25, custom)">
      <sodipodi:namedview
         id="namedview13"
         bordercolor="#000000"
         borderopacity="0.25"
         inkscape:current-layer="Layer_1"
         inkscape:cx="204.01553"
         inkscape:cy="182.95888"
         inkscape:deskcolor="#d1d1d1"
         inkscape:pagecheckerboard="0"
         inkscape:pageopacity="0.0"
         inkscape:showpageshadow="2"
         inkscape:window-height="1009"
         inkscape:window-maximized="1"
         inkscape:window-width="1920"
         inkscape:window-x="-8"
         inkscape:window-y="-8"
         inkscape:zoom="1.0685461"
         pagecolor="#ffffff"
         showgrid="false" />
      <g
         id="g6"
         inkscape:export-filename=".\g6.svg"
         inkscape:export-xdpi="96"
         inkscape:export-ydpi="96">
        <g
           id="g5">
          <g
             id="g4">
            <path
               id="path9"
               d="m 10,195.8 c -0.2,-1.6 0.7,-3.2 2.5,-3.9 l 5.6,-2.5 c 9.2,-4.2 18.8,-8.5 28.2,-12.6 5.5,-2.4 11.2,-4.8 17,-6.1 5.8,-1.4 11.4,-2 16.7,-2 9.4,0 18.2,2.2 26.2,6.5 3.9,2.1 8,5.3 12.1,9.6 3.8,3.9 7.8,6.5 12.4,7.9 h 0.4 c 3.8,1.3 6.1,2 8.2,2 3.1,0 5.4,-1.4 10.1,-4.3 2.6,-1.6 5.1,-3.2 7.7,-4.8 6.1,-3.8 12.3,-7.7 18.6,-11.5 5.6,-3.4 11.2,-5.1 16.7,-5.1 5.5,0 4.8,0.3 7.1,1 2.1,0.6 4.2,1.8 6.4,3.1 1.2,0.7 2.4,1.4 3.7,2.1 0.6,0.3 1.9,0.8 3.1,0.8 1.2,0 0.7,0 1.1,-0.1 2.8,-0.8 5.6,-1.1 8.1,-1.1 6.2,0 11.4,2.2 16.2,6.7 0.9,0.8 2.2,1.1 3.2,1.1 1,0 0.8,0 1.2,-0.1 3,-0.8 6.2,-1.6 9.6,-1.6 3.4,0 2.5,0 3.7,0.4 4.9,1 8.8,4 10.8,8.3 1.9,4.2 1.7,9.1 -0.7,13.3 -3,5.4 -7.9,9.1 -11.8,11.7 l -6.9,4.6 c -12.1,8 -24.7,16.3 -37.1,24.3 -9.2,6 -18.7,11.9 -27.9,17.7 -5.6,3.5 -11.2,7.1 -16.8,10.6 -7.7,4.9 -14.6,7.2 -21.5,7.2 v -0.8 h -2.6 c -6,-0.5 -11.9,-2.2 -18.1,-5.3 -3.5,-1.8 -7.1,-3.5 -10.6,-5.3 C 101.2,262 89.5,256.1 78.2,250 c -4.1,-2.2 -7.8,-3.3 -11.3,-3.3 -3.5,0 -7.9,1.5 -11.7,4.6 -2.4,1.9 -5,3.5 -7.9,5.2 -1,0.6 -2.1,1.2 -3.1,1.9 -1,0.6 -2,1 -2.9,1 -0.9,0 -2.1,-0.6 -2.9,-1.7 -1,-1.6 -2.3,-2.3 -2.3,-2.3 0,0 -25.9,-58.1 -26.1,-59.5 v 0 z"
               fill="#ffe4c9"
               stroke-width="0" />
            <path
               id="path10"
               d="m 266.6,189.6 c -2,-4.3 -5.9,-7.3 -10.8,-8.3 -1.2,-0.3 -0.3,-0.4 -3.7,-0.4 -3.4,0 -6.6,0.8 -9.6,1.6 -0.4,0.1 -0.2,0.1 -1.2,0.1 -1,0 -2.3,-0.3 -3.2,-1.1 -4.8,-4.5 -10,-6.7 -16.2,-6.7 -6.2,0 -5.3,0.3 -8.1,1.1 -0.4,0.1 0,0.1 -1.1,0.1 -1.1,0 -2.5,-0.5 -3.1,-0.8 -1.3,-0.7 -2.5,-1.4 -3.7,-2.1 -2.2,-1.3 -4.3,-2.5 -6.4,-3.1 -2.3,-0.7 -1.6,-1 -7.1,-1 -5.5,0 -11.1,1.7 -16.7,5.1 -6.3,3.8 -12.5,7.7 -18.6,11.5 -2.6,1.6 -5.1,3.2 -7.7,4.8 -4.7,2.9 -7,4.3 -10.1,4.3 -3.1,0 -4.4,-0.7 -8.2,-2 h -0.4 c -4.6,-1.4 -8.6,-4 -12.4,-7.9 -4.1,-4.3 -8.2,-7.5 -12.1,-9.6 -8,-4.3 -16.8,-6.5 -26.2,-6.5 -9.4,0 -10.9,0.6 -16.7,2 -5.8,1.3 -11.5,3.7 -17,6.1 -9.4,4.1 -19,8.4 -28.2,12.6 l -5.6,2.5 c -1.8,0.7 -2.7,2.3 -2.5,3.9 0.2,1.4 1.4,3 3,3.1 h 0.3 c 1,0 2.2,-0.3 3.5,-0.9 5,-2.2 10.1,-4.4 15.1,-6.7 5.6,-2.5 11.4,-5.1 17.1,-7.6 8.3,-3.6 17.6,-7.7 28,-7.7 10.4,0 2.4,0 3.6,0.2 h 2 c 1.5,0.1 2.9,0.2 4.4,0.3 10.5,0.9 18.3,4.7 23.7,11.5 5,6.2 11.7,10.2 21.7,12.8 11.3,2.9 22.8,3.6 31.5,3.9 3.5,0.1 6.8,0.5 9.7,1.3 3.8,1 6.2,3.5 6.9,6.9 1.2,6 -1.8,10.3 -8.2,11.7 -3.2,0.6 -6.6,0.8 -9.5,0.8 -4.8,0.2 -9.4,0.2 -14.1,0.2 -14.7,0 -32,-0.6 -48.9,-5.7 -0.3,0 0.8,0 -0.8,0 -1.6,0 -3.2,1.3 -3.6,3 -0.3,0.9 0,2 0.4,2.8 0.4,0.6 1.1,1.3 2.3,1.6 l 2.7,0.6 c 6.5,1.5 13.2,3 19.9,4 6.5,1 13.7,1.4 22.7,1.4 9,0 9,0 13.4,-0.2 3.8,-0.1 7.8,-0.2 11.7,-0.2 3.9,0 9.1,-1.5 13.4,-4.4 14,-9.2 32.4,-21.3 50.9,-33.4 6.3,-4.2 11.9,-6.4 17.7,-7.1 0.6,0 -2,0 1.6,0 3.6,0 6.3,1.6 7.7,4.5 2.1,4.2 -1.2,7.4 -2.3,8.5 -2.5,2.5 -6,5.8 -10,8.4 -21.2,14 -40.9,26.9 -60.2,39.3 -9.9,6.4 -20.2,12.6 -30.1,18.7 v 0 c -4.3,2.6 -8.9,3.9 -13.5,3.9 -4.6,0 -5.9,-0.5 -8.8,-1.6 -6.3,-2.3 -12.5,-5.3 -18.3,-8.2 -7.7,-3.8 -15.5,-7.8 -23,-11.6 -5.6,-2.9 -11.2,-5.8 -16.9,-8.6 -3.2,-1.7 -5.6,-2.5 -9.7,-2.5 -4.1,0 -8.2,1.4 -12.2,4 -2.7,1.8 -5.5,3.6 -8.2,5.3 -2.1,1.3 -4.3,2.7 -6.4,4.1 -2.3,1.5 -2.9,3.6 -1.7,5.5 0.8,1.1 2,1.7 2.9,1.7 0.9,0 1.9,-0.4 2.9,-1 1,-0.7 2.1,-1.3 3.1,-1.9 2.9,-1.7 5.5,-3.3 7.9,-5.2 3.8,-3.1 8.2,-4.6 11.7,-4.6 3.5,0 7.2,1.1 11.3,3.3 11.3,6.1 23,12 34.4,17.6 3.5,1.8 7.1,3.5 10.6,5.3 6.2,3.1 12.1,4.8 18.1,5.3 h 2.6 v 0.8 c 6.9,0 13.8,-2.3 21.5,-7.2 5.6,-3.5 11.2,-7.1 16.8,-10.6 9.2,-5.8 18.7,-11.7 27.9,-17.7 12.4,-8 25,-16.3 37.1,-24.3 l 6.9,-4.6 c 3.9,-2.6 8.8,-6.3 11.8,-11.7 2.4,-4.2 2.6,-9.1 0.7,-13.3 v 0 z m -88.6,7.1 c -1,0.6 -2.4,0.9 -4.2,0.9 H 173 c -2,-0.1 -4.1,-0.3 -6.1,-0.5 -1,-0.1 -2.1,-0.3 -3.1,-0.3 -1,0 -1.5,-0.1 -2.3,-0.2 H 159 l -0.8,-3.4 1.2,-0.7 c 2.2,-1.3 4.4,-2.7 6.6,-4.1 5.1,-3.2 10.5,-6.6 15.9,-9.5 3.7,-2 7.5,-3 11.2,-3 v 0 c 2.1,0 4.2,0.4 6.3,1.1 0.4,0.1 1,0.3 1.6,0.6 0.3,0.2 0.6,0.4 0.9,0.6 0.1,0.1 0.3,0.2 0.5,0.3 l 2.3,1.5 -2.3,1.6 -0.8,0.5 c -0.5,0.4 -0.9,0.7 -1.4,1 l -4.9,3 c -5.6,3.5 -11.5,7.1 -17.3,10.6 z m 11.6,17.6 -5.5,-12.2 1.3,-0.9 0.4,-0.3 c 0.5,-0.3 1,-0.7 1.6,-1.1 l 6,-3.7 c 6.1,-3.8 12.4,-7.7 18.6,-11.5 3.3,-2 6.6,-3 9.9,-3 v 0 c 1.9,-0.1 3.8,0.2 5.6,0.9 0.6,0.2 1.2,0.4 1.9,0.8 0.4,0.2 0.6,0.5 0.9,0.7 0.1,0.2 0.2,0.3 0.4,0.4 l 2,1.6 z"
               fill="#000000"
               stroke-width="0" />
          </g>
          <path
             id="path11"
             d="m 118,162.9 h -10.6 c -2.9,0 -4,-1 -4.5,-3.8 -0.8,-4.6 -1.7,-9.5 -2.4,-14.3 -0.4,-2.6 -2.1,-3.7 -3.3,-4.4 -2,-1.2 -3.9,-1.8 -5.8,-1.8 -1.9,0 -5.1,1.1 -7.7,3.4 -1.9,1.7 -4.1,3.1 -6.4,4.5 -0.7,0.4 -1.3,0.9 -2,1.3 -0.9,0.6 -1.8,0.9 -2.5,0.9 -0.7,0 -1.8,-0.5 -2.8,-1.4 -4.1,-4.1 -7.9,-7.9 -11.5,-11.6 -1.7,-1.7 -1.8,-3.3 -0.4,-5.3 2.9,-4.1 5.9,-8.2 8.8,-12.2 0.5,-0.7 2.2,-2.9 0.3,-5.6 v -0.2 c -1,-7 -7.1,-7.6 -10,-7.8 -2.8,-0.3 -5.6,-0.9 -8.3,-1.4 -0.7,-0.2 -1.4,-0.3 -2.1,-0.4 -2.3,-0.5 -3.2,-1.5 -3.3,-3.7 0,-5.5 0,-11.2 0.2,-17.6 0,-0.7 0,-2.7 3.6,-3.3 l 3.2,-0.5 c 3.8,-0.6 7.8,-1.3 11.8,-2 1.6,-0.3 2.8,-1.8 3.3,-2.5 C 69,68.3 68.5,63.3 64.1,58.5 62.7,57 61.6,55.3 60.4,53.4 59.9,52.6 59.5,51.9 59,51.2 c -1.7,-2.5 -1.5,-3.9 0.7,-6.1 3.6,-3.6 7.3,-7.2 10.9,-10.8 3.6,-3.6 2.5,-1.7 3.1,-1.7 0.6,0 1.7,0.4 2.8,1.1 3.2,2.2 7.4,5.2 11.6,8.4 1.1,0.8 2.1,1.2 3.3,1.2 1.2,0 1.3,0 2.2,-0.3 5.6,-1.4 8.3,-4.8 8.6,-10.6 0,-2.2 0.6,-4.4 1.1,-6.8 0.2,-1 0.4,-2 0.6,-3 0.5,-2.5 1.8,-3.6 4.2,-3.6 h 4.3 c 4,0 8,0 11.8,0.1 2.7,0 3.7,0.9 4.2,3.5 0.9,4.5 1.6,9.3 2.3,14.3 0.4,2.6 1.8,3.7 3.4,4.7 2,1.2 3.8,1.8 5.7,1.8 1.9,0 5,-1.1 7.6,-3.5 1.7,-1.5 3.6,-2.8 5.6,-4.1 0.8,-0.5 1.5,-1 2.3,-1.5 1.1,-0.8 2.1,-1.1 2.9,-1.1 0.8,0 1.6,0.2 3,1.6 3.9,3.9 7.7,7.7 11.3,11.4 1.7,1.7 1.8,3.3 0.4,5.3 -3,4.3 -5.7,8.2 -8.5,12 -1.5,2.1 -1.2,3.8 -0.8,5.4 1.6,7.2 6.9,8.2 10.7,8.4 2.4,0 4.8,0.6 7.4,1.2 0.8,0.2 1.6,0.3 2.4,0.5 2.7,0.5 3.6,1.7 3.6,4.4 V 99 c 0,2.8 -1.2,4.2 -4,4.6 L 181,104 c -4,0.7 -8.2,1.3 -12.2,2.1 -1.7,0.3 -2.9,1.8 -3.3,2.4 -3.4,4.9 -2.9,9.7 1.4,14.2 1.7,1.8 3.1,3.9 4.5,6.2 0.4,0.6 0.7,1.1 1.1,1.7 0.4,0.6 0.7,1.3 1,2.2 0,0.2 0.2,0.4 0.3,0.6 -0.1,0.2 -0.2,0.4 -0.3,0.6 -0.4,0.8 -0.8,1.6 -1.2,2.1 -3.9,4 -7.9,7.9 -11.6,11.5 -1.4,1.3 -2.3,1.5 -2.8,1.5 -0.8,0 -1.6,-0.4 -2.7,-1.1 -4.4,-3.1 -8.4,-5.9 -12.3,-8.7 -0.9,-0.7 -1.9,-1 -2.9,-1 -1,0 -1.3,0.1 -2,0.3 -7.2,1.5 -8.4,6.9 -8.6,10.9 0,2.1 -0.5,4.2 -1,6.5 -0.2,1 -0.4,1.9 -0.5,2.9 -0.5,3 -1.6,4 -4.6,4 z m -3.2,-7.5 h 2.4 c 1.6,0 3.5,-0.6 3.9,-3.6 0.5,-3.3 1.1,-6.6 1.6,-9.8 0.2,-1.2 0.4,-2.4 0.6,-3.5 0.3,-1.7 1.2,-2.7 3.2,-3.4 3.7,-1.3 7.7,-2.9 11.7,-4.8 0.9,-0.4 1.8,-0.6 2.5,-0.6 0.7,0 1.6,0.3 2.4,0.8 1.2,0.9 2.4,1.7 3.7,2.6 1.1,0.8 2.3,1.6 3.4,2.4 3,2.1 4.6,3.3 6.5,3.3 1.9,0 3.8,-1.7 6.8,-5.2 l 0.9,-1.1 c 0,0 -2.5,-3.5 -3.3,-4.7 -2,-2.8 -4,-5.7 -6.1,-8.5 -1.4,-1.8 -1.4,-3.4 -0.2,-5.6 2.1,-3.9 3.5,-7.2 4.4,-10.4 0.8,-2.7 2.2,-3.9 4.9,-4.3 3,-0.4 6,-0.9 8.9,-1.5 6.4,-1.2 7,-1.9 6.9,-8.2 v -0.2 c 0,-2.4 -1.2,-3.8 -3.6,-4.1 -2.4,-0.3 -3.1,-0.5 -4.7,-0.8 -2.4,-0.4 -4.9,-0.9 -7.4,-1.2 -2.6,-0.3 -3.9,-1.5 -4.8,-4.4 -1.1,-3.4 -2.5,-6.9 -4.2,-10.4 -1.1,-2.3 -1.1,-3.9 0.3,-5.7 2.6,-3.4 5.1,-7 7.4,-10.5 0.7,-1 1.2,-3.2 0.2,-4.6 -0.9,-1.3 -2,-2.5 -3,-3.6 -0.4,-0.4 -0.8,-0.9 -1.2,-1.3 l -1.1,-1.2 -5.3,3.8 c -3,2.1 -5.8,4.1 -8.6,6.1 -0.9,0.6 -1.8,1 -2.6,1 -0.8,0 -1.3,-0.2 -2,-0.5 -4,-1.8 -8.2,-3.6 -12.5,-5.3 -1.7,-0.7 -2.5,-1.6 -2.7,-3.2 l -0.4,-2.4 c -0.4,-2.4 -0.8,-4.8 -1.2,-7.2 -0.2,-1.1 -0.3,-2.1 -0.4,-2.8 -0.4,-3.1 -0.9,-4.4 -4.5,-4.4 h -3.7 c -1.6,0 -3.4,1.5 -3.8,3 -1,4.6 -1.8,9.1 -2.6,13.4 -0.3,1.9 -1.2,2.9 -3.2,3.6 -3.9,1.4 -7.8,3 -11.7,4.8 -1,0.4 -1.8,0.7 -2.6,0.7 -0.8,0 -1.7,-0.3 -2.5,-0.9 -3.1,-2.3 -6.3,-4.5 -9.4,-6.8 L 77.6,43.8 C 77,43.4 76.5,43 76,42.7 l -0.5,-0.3 -1.2,-0.8 -7.7,7.3 3.3,4.8 c 2,2.9 4,5.8 6,8.7 1.1,1.6 1.2,3 0.2,5.1 -1.7,3.5 -3.2,7.2 -4.8,11.4 -0.8,2.2 -1.9,3.2 -4,3.5 -3.2,0.5 -6.3,1 -9.4,1.5 -6.4,1.1 -7,1.9 -6.9,8.2 v 0.2 c 0,2.4 1.2,3.7 3.6,4.1 1.9,0.3 3.8,0.7 5.8,1 2.1,0.4 4.4,0.8 6.6,1.2 2.3,0.4 3.6,1.5 4.4,4 1.2,3.8 2.7,7.4 4.3,10.6 1.2,2.4 1.1,4.1 -0.4,6.1 -2,2.7 -3.9,5.4 -6,8.2 -0.9,1.3 -1.8,2.5 -2.8,3.9 l -1,1.4 1.3,1.1 c 0.4,0.4 0.9,0.7 1.3,1.1 0.9,0.7 1.7,1.3 2.3,2 0.7,0.8 1.8,1.8 3.4,1.8 1.6,0 1.9,-0.4 2.9,-1.1 2.3,-1.7 4.7,-3.4 7.1,-4.9 1.2,-0.8 2.4,-1.6 3.6,-2.4 0.8,-0.6 1.5,-0.8 2.3,-0.8 0.8,0 1.4,0.2 2.3,0.6 3.6,1.7 7.4,3.3 12.1,5.1 1.7,0.7 2.6,1.6 2.9,3.1 0,0.7 0.2,1.4 0.4,2.1 0,0.5 0.2,0.9 0.2,1.4 l 2.4,13.6 h 4.9 v 0 z"
             fill="#000000"
             stroke-width="0" />
          <path
             id="path12"
             d="m 117,151.8 h -3.9 l -1.8,-10.6 c 0,-0.4 -0.2,-0.9 -0.2,-1.3 0,-0.8 -0.2,-1.5 -0.4,-2.2 -0.6,-2.8 -2.3,-4.8 -5.2,-5.9 -4.6,-1.8 -8.4,-3.3 -11.9,-5 -1.4,-0.6 -2.6,-0.9 -3.9,-0.9 -1.3,0 -3,0.5 -4.4,1.5 -1.2,0.8 -2.4,1.6 -3.6,2.4 -2.4,1.6 -4.8,3.3 -7.2,5.1 -0.5,0.3 -0.7,0.4 -0.7,0.4 0,0 -0.2,0 -0.6,-0.6 -0.8,-0.9 -1.7,-1.6 -2.7,-2.3 0.6,-0.8 1.2,-1.7 1.7,-2.4 2,-2.8 3.9,-5.5 5.9,-8.1 2.4,-3.1 2.6,-6.3 0.8,-10 C 77.3,108.8 76,105.4 74.8,101.8 73.6,98 71.2,95.9 67.5,95.3 65.3,95 63.2,94.6 61,94.2 c -1.9,-0.4 -3.9,-0.7 -5.9,-1 h -0.4 v -0.6 c 0,-1.5 0,-3.3 0.2,-3.6 0.3,-0.3 2.1,-0.6 3.7,-0.9 3,-0.5 6.1,-1 9.3,-1.5 3.4,-0.5 5.6,-2.5 6.9,-5.9 1.5,-4.1 3,-7.8 4.7,-11.1 1.6,-3.2 1.4,-6.1 -0.5,-8.8 -2,-2.9 -4,-5.8 -6,-8.7 l -1.5,-2.2 3.3,-3.1 c 0.2,0 0.5,0.3 0.7,0.5 l 0.5,0.4 c 3.2,2.2 6.3,4.5 9.4,6.8 1.5,1.1 3.1,1.6 4.7,1.6 1.6,0 2.6,-0.3 4.1,-1 3.8,-1.7 7.6,-3.3 11.4,-4.7 3.2,-1.2 5.1,-3.3 5.7,-6.5 0.7,-4.2 1.5,-8.6 2.5,-13.1 0,0 0.2,-0.2 0.3,-0.3 h 4.2 c 0,0.3 0,0.8 0.2,1.2 0,0.8 0.2,1.7 0.4,2.9 0.4,2.4 0.8,4.8 1.2,7.1 l 0.4,2.4 c 0.5,2.9 2.1,4.9 5,6 4.3,1.7 8.4,3.5 12.4,5.2 1.2,0.5 2.4,0.8 3.6,0.8 1.2,0 3.2,-0.6 4.8,-1.7 2.8,-2 5.6,-4 8.5,-6.1 l 2.6,-1.9 h 0.1 c 0.9,1.1 1.8,2.1 2.6,3.1 0,0.2 0,0.5 -0.1,0.6 -2.3,3.5 -4.8,7 -7.3,10.3 -2.2,2.9 -2.4,6 -0.6,9.5 1.6,3.3 3,6.7 4,9.9 1.3,4.3 3.9,6.5 7.9,6.9 2.4,0.3 4.9,0.7 7.2,1.1 1.6,0.3 3.2,0.6 4.8,0.8 h 0.4 v 0.6 c 0,1.5 0,3.3 -0.2,3.6 -0.2,0.3 -2.1,0.6 -3.7,0.9 -2.9,0.5 -5.8,1.1 -8.7,1.5 -4.1,0.6 -6.7,2.8 -7.9,6.9 -0.9,2.9 -2.2,6 -4.1,9.7 -1.8,3.5 -1.6,6.6 0.6,9.6 2.1,2.8 4.1,5.7 6,8.5 0.6,0.8 1.1,1.6 1.6,2.3 -1.4,1.6 -2.5,2.8 -3,2.8 -0.5,0 -2.3,-1.2 -4.3,-2.6 -1.2,-0.8 -2.3,-1.7 -3.5,-2.5 -1.2,-0.9 -2.4,-1.7 -3.6,-2.6 -1.4,-1 -3,-1.5 -4.6,-1.5 -1.6,0 -2.6,0.3 -4,1 -3.9,1.8 -7.8,3.3 -11.4,4.7 -3.2,1.2 -5,3.2 -5.6,6.2 -0.2,1.2 -0.4,2.3 -0.6,3.5 -0.6,3.2 -1.1,6.6 -1.6,9.9 v 0.4 h -0.5 l -0.2,0.3 v 0 z M 115.2,61 C 98.4,61 85.1,74.1 85,90.9 c 0,17 13.1,30.5 30,30.6 h 0.3 c 16.6,0 30.2,-13.5 30.2,-30.2 C 145.5,74.6 132,61 115.3,60.9 h -0.1 z"
             fill="#d1d3d4"
             stroke-width="0" />
          <path
             id="path13"
             d="m 115,117.8 c -14.8,0 -26.4,-11.9 -26.3,-26.9 0,-14.7 11.7,-26.2 26.5,-26.2 14.8,0 26.7,12 26.6,26.7 0,14.6 -12,26.5 -26.5,26.5 H 115 Z m 0.2,-45.7 c -10.5,0 -19,8.5 -19.1,19 0,10.5 8.4,19.2 18.9,19.3 h 0.2 c 10.4,0 19,-8.5 19,-19 0,-10.5 -8.4,-19.2 -18.9,-19.3 v 0 z"
             fill="#000000"
             stroke-width="0" />
          <g
             id="g13">
            <path
               id="path14"
               d="m 202.8,80.7 c -1.7,-0.7 -3.4,-1.3 -5.1,-2 -1.4,-0.6 -1.7,-1.2 -1.4,-2.7 0.5,-2.4 1,-4.9 1.5,-7.3 0.3,-1.3 -0.3,-2.1 -0.8,-2.7 -0.7,-1 -1.5,-1.6 -2.4,-2 -0.9,-0.4 -2.7,-0.4 -4.3,0.2 -1.2,0.4 -2.5,0.7 -3.9,1 -0.4,0 -0.8,0.2 -1.2,0.2 h -1.4 c -0.4,0 -0.8,-0.6 -1.1,-1.2 -1.2,-2.7 -2.3,-5.3 -3.3,-7.7 -0.5,-1.1 -0.2,-1.9 0.8,-2.6 2.2,-1.4 4.4,-2.8 6.5,-4.2 0.4,-0.2 1.6,-1 1.2,-2.6 v 0 c 0.8,-3.5 -2,-5 -3.3,-5.6 -1.3,-0.6 -2.5,-1.5 -3.7,-2.2 -0.3,-0.2 -0.6,-0.4 -0.9,-0.6 -1,-0.7 -1.3,-1.3 -0.9,-2.4 1,-2.7 2.1,-5.4 3.4,-8.4 0.1,-0.3 0.6,-1.3 2.4,-0.9 l 1.6,0.3 c 2,0.4 4,0.9 6,1.2 0.8,0.2 1.7,-0.3 2,-0.6 2.6,-1.7 3.3,-4.2 2,-7.3 -0.4,-1 -0.6,-2 -0.8,-3.1 0,-0.4 -0.2,-0.9 -0.3,-1.3 -0.3,-1.5 0,-2.1 1.5,-2.8 2.4,-1 4.8,-2.1 7.3,-3.1 1,-0.4 1.5,-0.3 1.8,-0.2 0.3,0 0.7,0.5 1.1,1.1 1.1,1.7 2.6,3.9 4,6.2 0.4,0.6 0.8,1 1.4,1.2 0.4,0.1 0.8,0.2 1.1,0.3 2.9,0.4 4.9,-0.7 6.1,-3.5 0.5,-1 1.1,-2 1.8,-3 0.3,-0.4 0.6,-0.9 0.9,-1.3 0.7,-1.1 1.5,-1.4 2.7,-0.9 0.7,0.3 1.4,0.5 2.1,0.8 1.9,0.8 3.8,1.5 5.6,2.3 1.3,0.5 1.6,1.1 1.4,2.5 -0.4,2.3 -1,4.8 -1.6,7.3 -0.3,1.3 0.2,2.1 0.8,2.9 0.7,1 1.5,1.6 2.4,1.9 0.9,0.3 2.6,0.4 4.3,-0.2 1.1,-0.4 2.3,-0.7 3.5,-0.9 0.5,0 0.9,-0.2 1.4,-0.3 0.7,-0.2 1.2,-0.2 1.6,0 0.4,0.2 0.7,0.4 1.1,1.3 1.1,2.6 2.2,5.1 3.3,7.6 0.5,1.1 0.2,1.9 -0.8,2.6 -2.2,1.5 -4.3,2.9 -6.4,4.2 -1.1,0.7 -1.3,1.6 -1.4,2.4 -0.6,3.7 1.7,5.2 3.6,6 1.1,0.5 2.2,1.2 3.3,1.9 0.4,0.2 0.7,0.5 1.1,0.7 1.2,0.8 1.4,1.5 0.9,2.8 l -3,7.5 c -0.5,1.4 -1.3,1.8 -2.8,1.5 l -1.4,-0.3 c -2,-0.4 -4.2,-0.9 -6.3,-1.3 -0.9,-0.2 -1.7,0.3 -2,0.5 -2.5,1.7 -3.2,4.1 -2,7.1 0.5,1.2 0.7,2.5 1,3.8 0,0.3 0.1,0.7 0.2,1 v 1.6 c 0,0 -0.2,0.2 -0.3,0.2 -0.3,0.3 -0.7,0.6 -1,0.8 -2.6,1.2 -5.3,2.3 -7.7,3.3 -0.9,0.4 -1.4,0.3 -1.6,0.2 -0.4,0 -0.7,-0.5 -1.1,-1 -1.6,-2.3 -2.9,-4.4 -4.2,-6.5 -0.3,-0.5 -0.7,-0.8 -1.2,-1 -0.5,-0.2 -0.7,-0.2 -1,-0.2 -3.7,-0.7 -5.3,1.7 -6.2,3.6 -0.5,1 -1.1,1.9 -1.7,2.9 -0.3,0.4 -0.5,0.9 -0.8,1.3 -0.8,1.4 -1.5,1.6 -2.9,1.1 l -2.4,-0.9 v 0 -0.5 z m -0.1,-4.2 c 0.3,0 0.6,0.2 0.9,0.4 h 0.2 c 0.7,0.3 1.8,0.4 2.6,-1 0.8,-1.5 1.7,-3 2.6,-4.4 0.3,-0.5 0.6,-1.1 1,-1.6 0.5,-0.8 1.1,-1.1 2.1,-1 h 6.5 c 0.5,0 1,0 1.3,0.2 0.3,0.2 0.7,0.4 1,0.9 0.4,0.6 0.8,1.3 1.3,1.9 0.4,0.6 0.8,1.2 1.2,1.8 1,1.6 1.6,2.5 2.5,2.8 0.9,0.3 2.2,0 4.2,-1.2 l 0.7,-0.3 c 0,0 -0.5,-2.2 -0.7,-2.9 -0.4,-1.7 -0.9,-3.5 -1.3,-5.2 -0.3,-1.1 0,-1.9 0.9,-2.8 1.7,-1.5 3,-2.8 4.1,-4.2 0.9,-1.2 1.8,-1.5 3.2,-1.1 1.5,0.4 3,0.7 4.5,1 3.3,0.6 3.7,0.4 4.9,-2.6 v 0 c 0.4,-1.3 0.1,-2.1 -0.9,-2.7 -0.7,-0.4 -1.4,-0.8 -2.1,-1.3 -1.1,-0.7 -2.2,-1.3 -3.4,-2 -1.2,-0.6 -1.6,-1.4 -1.5,-3 0.1,-1.8 0.1,-3.8 0,-5.8 -0.1,-1.3 0.2,-2.1 1.2,-2.7 1.9,-1.2 3.7,-2.4 5.5,-3.6 0.5,-0.4 1.2,-1.3 1,-2.2 -0.2,-0.8 -0.5,-1.5 -0.8,-2.3 -0.1,-0.3 -0.2,-0.6 -0.3,-0.8 l -0.3,-0.8 -3.2,0.8 c -1.8,0.4 -3.5,0.9 -5.3,1.3 -0.6,0.1 -1,0.1 -1.4,0 -0.4,-0.1 -0.6,-0.3 -0.9,-0.6 -1.6,-1.6 -3.2,-3.2 -5,-4.9 -0.7,-0.6 -0.9,-1.2 -0.7,-2 l 0.3,-1.2 c 0.3,-1.2 0.5,-2.4 0.8,-3.7 0.1,-0.6 0.2,-1.1 0.3,-1.4 0.4,-1.6 0.4,-2.3 -1.3,-3 L 227.6,15 c -0.3,0 -0.6,-0.2 -0.9,-0.4 v 0 c -0.8,-0.3 -1.9,0 -2.4,0.7 -1.3,2 -2.6,4 -3.7,5.9 -0.5,0.8 -1.1,1.1 -2.2,1.1 h -6.5 c -0.5,0 -1,0 -1.3,-0.2 -0.3,-0.2 -0.7,-0.5 -1,-0.9 -1.1,-1.7 -2.2,-3.4 -3.2,-5 l -0.2,-0.3 c -0.2,-0.3 -0.4,-0.6 -0.6,-0.8 l -0.2,-0.2 -0.4,-0.6 -5.1,2 0.7,3 c 0.4,1.8 0.8,3.5 1.2,5.3 0.2,1 0,1.7 -0.9,2.5 -1.5,1.3 -2.9,2.8 -4.4,4.6 -0.8,0.9 -1.5,1.2 -2.6,0.9 -1.6,-0.4 -3.2,-0.7 -4.8,-1 -3.3,-0.7 -3.7,-0.4 -4.9,2.6 v 0 c -0.4,1.2 -0.1,2.1 0.9,2.7 0.9,0.5 1.7,1 2.6,1.6 1,0.6 1.9,1.2 2.9,1.8 1,0.6 1.4,1.4 1.3,2.7 -0.1,2.1 -0.1,4 0,5.9 0.1,1.4 -0.2,2.2 -1.3,2.8 -1.5,0.9 -2.9,1.8 -4.4,2.8 -0.7,0.4 -1.3,0.9 -2.1,1.3 l -0.7,0.5 0.4,0.8 c 0.1,0.3 0.3,0.5 0.4,0.8 0.3,0.5 0.6,0.9 0.7,1.4 0.2,0.5 0.5,1.2 1.3,1.5 0.8,0.3 1,0.2 1.6,0 1.4,-0.4 2.9,-0.7 4.3,-1 0.7,-0.2 1.5,-0.3 2.2,-0.5 h 1.3 c 0.4,0 0.7,0.4 1,0.7 1.4,1.5 2.9,3 4.8,4.7 0.7,0.6 0.9,1.3 0.8,2 0,0.4 -0.1,0.7 -0.2,1.1 0,0.2 -0.1,0.5 -0.2,0.7 l -1.4,7 0.7,0.3 c 0.3,0 0.6,0.2 0.9,0.3 0.3,0 0.5,0.2 0.7,0.3 v 0 z"
               fill="#000000"
               stroke-width="0" />
            <path
               id="path15"
               d="m 204.4,75.2 c -0.3,-0.2 -0.7,-0.3 -1,-0.4 -0.3,-0.1 -0.5,-0.2 -0.8,-0.3 v 0 l 1.1,-5.4 c 0,-0.2 0,-0.5 0.1,-0.7 0,-0.4 0.2,-0.8 0.2,-1.1 0.3,-1.5 -0.2,-2.7 -1.4,-3.8 -1.9,-1.7 -3.4,-3.2 -4.8,-4.6 -0.5,-0.6 -1.1,-1 -1.7,-1.2 -0.6,-0.2 -1.6,-0.3 -2.4,0 -0.7,0.2 -1.4,0.3 -2.2,0.5 -1.4,0.3 -2.9,0.7 -4.4,1.1 h -0.4 l -0.2,-0.4 c -0.2,-0.6 -0.5,-1.1 -0.8,-1.6 0.4,-0.3 0.9,-0.6 1.3,-0.8 1.5,-1 2.9,-1.9 4.4,-2.8 1.7,-1 2.4,-2.5 2.2,-4.7 -0.2,-1.8 -0.2,-3.7 0,-5.6 0.1,-2.1 -0.6,-3.5 -2.3,-4.5 -1,-0.6 -1.9,-1.2 -2.9,-1.8 -0.9,-0.5 -1.7,-1.1 -2.6,-1.6 0,0 -0.1,0 -0.2,-0.1 v -0.2 0 c 0.3,-0.8 0.6,-1.7 0.8,-1.8 0.2,0 1.1,0.1 1.9,0.3 1.5,0.3 3.1,0.7 4.7,1 1.7,0.4 3.2,-0.1 4.4,-1.5 1.5,-1.7 2.9,-3.2 4.3,-4.4 1.4,-1.3 1.8,-2.7 1.4,-4.3 -0.4,-1.8 -0.8,-3.5 -1.2,-5.3 l -0.3,-1.4 2.2,-0.9 c 0,0 0.2,0.2 0.2,0.4 l 0.2,0.3 c 1.1,1.7 2.2,3.3 3.2,5 0.5,0.8 1.2,1.4 2,1.7 0.8,0.3 1.3,0.3 2.2,0.3 2.1,-0.1 4.3,-0.2 6.3,0 1.8,0 3.1,-0.6 3.9,-2 1.1,-1.9 2.4,-3.9 3.6,-5.8 h 0.2 c 0.3,0 0.6,0.3 0.9,0.4 l 0.8,0.3 h 0.3 c 0,0.3 0,0.5 -0.1,0.7 0,0.4 -0.2,0.9 -0.3,1.5 -0.2,1.2 -0.5,2.4 -0.8,3.6 l -0.3,1.2 c -0.3,1.5 0.1,2.8 1.3,3.8 1.7,1.6 3.4,3.2 4.9,4.8 0.5,0.5 1,0.8 1.5,1.1 0.8,0.3 1.7,0.3 2.6,0.1 1.7,-0.4 3.4,-0.9 5.2,-1.3 l 1.6,-0.4 v 0 c 0.3,0.7 0.5,1.3 0.7,1.9 0,0 -0.1,0.2 -0.2,0.3 -1.8,1.2 -3.6,2.4 -5.5,3.6 -1.6,1 -2.3,2.4 -2.1,4.5 0.2,1.9 0.2,3.8 0,5.5 -0.2,2.3 0.6,3.8 2.5,4.8 1.1,0.6 2.2,1.3 3.3,1.9 0.7,0.4 1.4,0.9 2.2,1.3 h 0.2 v 0.2 0 c -0.3,0.8 -0.6,1.7 -0.8,1.8 -0.2,0 -1.1,0 -1.9,-0.3 -1.5,-0.3 -3,-0.6 -4.5,-0.9 -2.1,-0.5 -3.8,0 -5.1,1.8 -1,1.2 -2.2,2.5 -3.8,3.9 -1.5,1.3 -2,2.8 -1.5,4.7 0.5,1.7 0.9,3.5 1.3,5.2 0.1,0.5 0.2,1 0.4,1.4 -1,0.5 -1.7,0.9 -2,0.8 -0.3,-0.1 -0.9,-1 -1.6,-2.1 -0.4,-0.6 -0.8,-1.2 -1.2,-1.8 -0.4,-0.6 -0.8,-1.3 -1.3,-1.9 -0.5,-0.8 -1.1,-1.3 -1.9,-1.6 -0.8,-0.3 -1.3,-0.3 -2.1,-0.3 H 212 c -1.8,0 -3,0.6 -3.8,1.9 -0.3,0.5 -0.6,1 -1,1.6 -0.9,1.4 -1.8,2.9 -2.6,4.4 v 0.2 h -0.2 z m 16.2,-43.8 c -8.1,-3.2 -16.9,0.6 -20.1,8.7 -3.2,8.1 0.5,17.1 8.6,20.3 h 0.1 c 8,3.2 17,-0.8 20.2,-8.7 3.2,-8 -0.8,-17.1 -8.7,-20.2 h -0.1 z"
               fill="#d1d3d4"
               stroke-width="0" />
            <path
               id="path16"
               d="m 209.8,58.6 c -7.1,-2.9 -10.4,-10.7 -7.5,-17.8 2.8,-7 10.5,-10.4 17.6,-7.6 7.1,2.8 10.5,10.8 7.7,17.8 -2.8,7 -10.7,10.4 -17.7,7.7 h -0.1 z m 8.8,-21.9 c -5,-2 -10.7,0.5 -12.7,5.5 -2,5 0.4,10.8 5.4,12.8 v 0 c 5,2 10.7,-0.5 12.7,-5.5 2,-5 -0.4,-10.8 -5.4,-12.8 z"
               fill="#000000"
               stroke-width="0" />
          </g>
        </g>
      </g>
    </g>
  </g>
  <sodipodi:namedview
     id="namedview16"
     bordercolor="#000000"
     borderopacity="0.25"
     inkscape:current-layer="Layer_1"
     inkscape:cx="204.01553"
     inkscape:cy="182.95888"
     inkscape:deskcolor="#d1d1d1"
     inkscape:pagecheckerboard="0"
     inkscape:pageopacity="0.0"
     inkscape:showpageshadow="2"
     inkscape:window-height="1009"
     inkscape:window-maximized="1"
     inkscape:window-width="1920"
     inkscape:window-x="-8"
     inkscape:window-y="-8"
     inkscape:zoom="1.0685461"
     pagecolor="#ffffff"
     showgrid="false" />
</svg>
