<?xml version="1.0" encoding="UTF-8" standalone="no"?>
<svg
   id="svg1"
   version="1.2"
   viewBox="0 0 98031.607 41046.76"
   sodipodi:docname="we.svg"
   width="98031.609"
   height="41046.762"
   xmlns:inkscape="http://www.inkscape.org/namespaces/inkscape"
   xmlns:sodipodi="http://sodipodi.sourceforge.net/DTD/sodipodi-0.dtd"
   xmlns="http://www.w3.org/2000/svg"
   xmlns:svg="http://www.w3.org/2000/svg">
  <defs
     id="defs7" />
  <sodipodi:namedview
     id="namedview5"
     bordercolor="#000000"
     borderopacity="0.25"
     inkscape:deskcolor="#d1d1d1"
     inkscape:pagecheckerboard="0"
     inkscape:pageopacity="0.0"
     inkscape:showpageshadow="2"
     pagecolor="#ffffff" />
  <g
     id="g7">
    <path
       d="m 301.9,101.5 c 2.8,-4.2 4.5,-9.3 4.5,-14.7 0,-14.7 -11.9,-26.6 -26.6,-26.6 -14.7,0 -25.3,10.7 -26.5,24.3 -0.9,-0.7 -1.8,-1.4 -2.7,-2.1 4.6,-5.5 7.3,-12.6 7.3,-20.3 0,-17.7 -14.4,-32.1 -32.1,-32.1 -17.7,0 -32.1,14.4 -32.1,32.1 0,17.7 1.1,9.5 3.1,13.7 -3.5,-4.9 -7.9,-9.1 -13,-12.4 6.4,-6.7 10.3,-15.8 10.3,-25.8 C 194.1,16.9 177.2,0 156.5,0 c -20.7,0 -37.6,16.9 -37.6,37.6 0,20.7 3.9,19 10.3,25.8 -5.3,3.3 -9.8,7.7 -13.3,12.8 2.1,-4.3 3.3,-9 3.3,-14.1 C 119.2,44.4 104.8,30 87.1,30 69.4,30 55,44.4 55,62.1 55,79.8 57.8,77 62.4,82.5 61.5,83.2 60.5,83.9 59.7,84.7 58.6,71 47.2,60.2 33.2,60.2 c -14,0 -26.6,11.9 -26.6,26.6 0,14.7 1.6,10.5 4.4,14.7 -6.7,5.7 -11,14.3 -11,23.8 v 77.3 h 312.9 v -67.3 h 0.2 v -10 c 0,-9.5 -4.3,-18 -11,-23.8 z"
       fill="#ffffff"
       stroke-width="0"
       id="path1" />
    <g
       id="Layer_1"
       data-name="Layer 1"
       sodipodi:docname="we.svg">
      <sodipodi:namedview
         id="namedview1"
         bordercolor="#000000"
         borderopacity="0.25"
         inkscape:deskcolor="#d1d1d1"
         inkscape:pagecheckerboard="0"
         inkscape:pageopacity="0.0"
         inkscape:showpageshadow="2"
         pagecolor="#ffffff" />
      <g
         id="g6">
        <g
           id="g1">
          <path
             id="path2"
             d="m 195.2,101.8 c 0,-19.6 -15.8,-35.4 -35.4,-35.4 h -6.3 c -19.6,0 -35.4,15.8 -35.4,35.4 v 90.8 h 77.1 z"
             fill="#fed966"
             stroke="#000000"
             stroke-miterlimit="10"
             stroke-width="6" />
          <circle
             id="circle1"
             cx="156.7"
             cy="37.599998"
             r="27.6"
             fill="#fed966"
             stroke="#000000"
             stroke-miterlimit="10"
             stroke-width="6" />
        </g>
        <g
           id="g2">
          <path
             id="path3"
             d="m 256.9,113.6 c 0,-15.7 -12.7,-28.3 -28.3,-28.3 h -5 c -15.7,0 -28.3,12.7 -28.3,28.3 v 79 h 61.6 z"
             fill="#fee69b"
             stroke="#000000"
             stroke-miterlimit="10"
             stroke-width="6" />
          <circle
             id="circle2"
             cx="226"
             cy="62.099998"
             r="22.1"
             fill="#fee69b"
             stroke="#000000"
             stroke-miterlimit="10"
             stroke-width="6" />
        </g>
        <g
           id="g3">
          <path
             id="path4"
             d="m 118.1,113.6 c 0,-15.7 -12.7,-28.3 -28.3,-28.3 h -5 C 69.1,85.3 56.5,98 56.5,113.6 v 79 h 61.6 z"
             fill="#fee69b"
             stroke="#000000"
             stroke-miterlimit="10"
             stroke-width="6" />
          <circle
             id="circle3"
             cx="87.199997"
             cy="62.099998"
             r="22.1"
             fill="#fee69b"
             stroke="#000000"
             stroke-miterlimit="10"
             stroke-width="6" />
        </g>
        <g
           id="g4">
          <path
             id="path5"
             d="M 56.4,125.3 C 56.4,113.5 46.9,104 35.1,104 H 31.3 C 19.5,104 10,113.5 10,125.3 v 67.3 h 46.2 v -67.3 z"
             fill="#fef0c6"
             stroke="#000000"
             stroke-miterlimit="10"
             stroke-width="6" />
          <circle
             id="circle4"
             cx="33.200001"
             cy="86.800003"
             r="16.6"
             fill="#fef0c6"
             stroke="#000000"
             stroke-miterlimit="10"
             stroke-width="6" />
        </g>
        <g
           id="g5">
          <path
             id="path6"
             d="m 303.1,125.3 c 0,-11.8 -9.5,-21.3 -21.3,-21.3 H 278 c -11.8,0 -21.3,9.5 -21.3,21.3 v 67.3 h 46.2 v -67.3 z"
             fill="#fef0c6"
             stroke="#000000"
             stroke-miterlimit="10"
             stroke-width="6" />
          <circle
             id="circle5"
             cx="280"
             cy="86.800003"
             r="16.6"
             fill="#fef0c6"
             stroke="#000000"
             stroke-miterlimit="10"
             stroke-width="6" />
        </g>
      </g>
    </g>
  </g>
</svg>
