<?xml version="1.0" encoding="UTF-8"?>
<svg id="Layer_1" data-name="Layer 1" xmlns="http://www.w3.org/2000/svg" baseProfile="tiny" version="1.2" viewBox="0 0 303.4 298.1">
  <g>
    <path d="M249.5,44.8c7.7.1,14.2,6.4,14.9,14.1.1,1.8.2,3.5.2,5.3v179c0,11.5-5.9,20.3-15.8,24.1-2.9,1.1-5.9,1.5-9,1.5h-78.5c-1.6,0-2.4.8-2.4,2.3v17.8c0,1.7.9,2.6,2.6,2.6,13.5.2,27.1-.4,40.5.2,3.3.6,3.5,5.3.1,6.1-46.3.7-92.6,0-138.9.2-4.2-.3-4.4-6.1,0-6.5,13.4-.2,26.8,0,40.2,0s2-.4,1.9-2v-19.6c0-.8-.2-1.1-1-1.1H24.8c-4.2,0-8.2-.5-12.1-2-8.1-3.3-12.7-9.9-12.7-18.6V60.1c0-8.5,7-15.3,15.6-15.3h233.9Z" fill="#000" stroke-width="0"/>
    <path d="M131.9,262.4h109.4c8.4-.3,16.3-8,16.5-16.4.2-8.8,0-17.6,0-26.4s-.5-1.7-1.7-1.6H7.8c-1.2,0-1.6.2-1.6,1.5v28.5c0,6.4,3.3,11,9.4,13.1,3.1,1.1,6.2,1.4,9.4,1.4h106.9ZM132,268.9h-18.9c-.8,0-1.5-.2-1.4,1.1v19.8c0,1.4.4,1.8,1.8,1.8h38c.9,0,1-.1,1-1.1,0-6.7-.1-13.4,0-20.1,0-1.4-.4-1.5-1.5-1.5h-19Z" fill="#fff" stroke-width="0"/>
    <path d="M255,211.6c1.9,0,2.9-1,2.9-3V61.2c0-6.3-3.7-9.9-9.9-10-7.5.3-82.9,0-92.4,0-46.3,0-92.5-.2-138.8,0-5.7-.3-10.5,3.5-10.4,9.8v147.2c0,2.3,1.1,3.4,3.3,3.4h245.3Z" fill="#fff" stroke-width="0"/>
    <path d="M146.9,238.7c0,8.3-6.5,14.7-14.8,14.7s-14.8-6.7-14.7-14.8c0-8.1,6.8-14.7,14.9-14.6,8,0,14.5,6.7,14.5,14.8h.1ZM140.5,238.7c0-4.6-3.7-8.4-8.2-8.4s-8.3,3.8-8.4,8.2c0,4.5,3.7,8.3,8.2,8.4,4.6,0,8.3-3.7,8.4-8.2Z" fill="#000" stroke-width="0"/>
  </g>
  <path d="M132.2,230.4c-4.5,0-8.4,3.8-8.4,8.2s3.7,8.3,8.2,8.4c4.6,0,8.3-3.7,8.4-8.2,0-4.6-3.7-8.4-8.2-8.4Z" fill="#969696" stroke-width="0"/>
  <g>
    <path d="M22.5,176c1.7-.6,3.8-1.2,6-1.9,1.1-.3,1.2-.9.8-1.9-1.6-3.8-2.8-7.6-3.7-11.6-.2-1-.7-1.4-1.8-1.1-2,.7-3.9,1.3-5.9,1.9-.9.2-1.2.9-1.2,1.8-.2,4.5,1.2,8.4,3.9,12.1.3.6.8.9,2,.8h-.1Z" fill="#d9e2e9" stroke-width="0"/>
    <path d="M138.9,139.4c.3-1.3.3-2.7.3-4.7-.3-6.4-2.4-12.8-6.6-18.5-.7-.9-1.4-2.1-2.5-1.8s-.9,1.9-1,2.9c-.3,6.9,1.8,13.2,5.2,19,.8,1.3,1.8,2.4,2.9,3.4.9.7,1.3.7,1.7-.6h.1Z" fill="#969696" stroke-width="0"/>
    <path d="M67.7,124.6c-1,1.1-1.4,2.2-1.4,3.8.2,14.8,4,28.7,12,41.3,1.7,2.7,3.3,4.2,6.8,4.5,9.2.7,18.3,1.8,27.3,2.7,9.3,1,18.6,1.9,27.9,2.8,2.8.2,5.4.6,8.3.8-12.1-15.1-19.4-32.2-25.2-49.9-5.9-17.8-10-36-10-54.8-.1,0-.3-.2-.6-.2-.3.4-.8,1-1.1,1.4-5,5.4-10,11-15.1,16.4-9.7,10.5-19.4,21-29.1,31.4h.2Z" fill="#d9e2e9" stroke-width="0"/>
    <path d="M80.5,228.1c-3.3-10.1-6.4-20.2-9.6-30.2-1.2-4-2.5-8-3.9-12-.2-.7-.2-1.6-1.3-1.4-3.1.8-6.1,1.6-9.2,2.2-1.3.3-1.4.9-1.1,2.1,4.7,14.4,9.2,28.7,13.7,43.1.4,1.3,1.1,1.6,2.3,1.1,2.5-.9,5.2-1.8,7.9-2.4,1.4-.4,1.7-1,1.2-2.4Z" fill="#d9e2e9" stroke-width="0"/>
    <path d="M124.4,107.3c.2,1.2.6,1.3,1.7.7,2.1-1.4,4.3-1.4,6.6-.6,2.2.9,3.9,2.4,5.4,4.2,3.9,4.9,6.2,10.5,7.5,16.6,1,4.7,1.6,9.3,0,13.8-1,2.9-2.7,5.2-5.9,5.5-1.9.2-1.6.9-1,2,2.3,5,4.8,9.9,7.5,14.6,3.2,5.3,6.6,10.5,11.4,14.5,4.3,3.7,6.8,2.8,8.2-2.5,1.1-3.9,1.2-7.8,1.1-12.1.2-4.5-.3-9.3-1-14.1-2.5-18.2-7.8-35.7-14.9-52.5-4.1-9.7-8.9-19.3-15.5-27.6-2.1-2.7-4.3-5.3-7.3-7-2-1.2-2.9-1-4.4.7-1.1,1.1-1.7,2.5-2,4-1.1,5.3-1.2,10.7-.9,16.2.6,8,1.9,15.7,3.4,23.5Z" fill="#5fc4f8" stroke-width="0"/>
    <path d="M72.1,173.2h0c-8-12.4-12.3-26.1-13-41q0-2.1-2-1.3c-8.4,3.7-16.8,7.3-25.2,10.9-1.4.7-1.9,1.4-1.8,2.9.3,4.1,1,8.1,1.9,12.1,2,8.6,5,16.8,9.7,24.2.4.8.9,1.6,2,1.4.4,0,1-.2,1.4-.3,8.6-2.1,17.4-4.3,26-6.4q2.2-.6.9-2.4Z" fill="#5fc4f8" stroke-width="0"/>
    <path d="M11.1,173.6c0,0,0,.1.1.2v-.2h-.1Z" fill="#000" stroke-width="0"/>
    <path d="M9.4,160.4c-1.7,6.1,1.8,13.4,1.8,13.4,0,0,0,0,0-.1h0c0,0,0,.1,0,.1,0,0,0,0,0,.1l.3-16.9-2.1,3.3Z" fill="#000" stroke-width="0"/>
    <path d="M140.1,63.8s0,0,0,0l7.5,10.6" fill="#000" stroke-width="0"/>
    <path d="M172.3,143.5c-4.4-24-12.1-46.9-24.2-68.3-.2-.4-.4-.6-.5-.9l-7.5-10.6c-2.4-3.2-5.4-5.8-9.1-7.6-5.2-2.5-9.7-1.4-13.1,3.3-1.2,1.7-2.7,3.2-4.1,4.8l.3-.4-.3.4s0,0-.1.1c-.5.6-1,1.2-1.5,1.6l-8,8.6c0,0-.1.1-.2.2h0c0,0,0,0,0,0-.1.1-.3.3-.4.4-11.4,11.7-22.3,24-33.4,36-2.9,3.1-5.8,6.2-8.6,9.4-.7.8-1.4,1.2-2.3,1.7-7.9,3.3-15.6,6.8-23.5,10.1-1.5.7-2.9,1.3-4.5,2l.9-.4-.9.4s0,0,0,0c-.1,0-.2.1-.4.1l-8,3.1c.1,4.1.5,8.3,1,12.4.2,1.6-.2,2.1-1.6,2.4-3,.9-6.1,1.8-9,3-.6.3-.9.6-1.1.6l-.7,1-.3,16.9c1.6,3,3.4,5.7,5.7,8.1,1.1,1.1,2.3,1.9,3.9,1.7.3,0,.6,0,.8,0l10.1-3.2-10.1,3.2c.8.1,10.1-3.1,10.1-3.1,1.2-.3,1.6.5,2.1,1.4,1.1,1.9,2.4,3.7,3.5,5.5,1.6,2.4,3.7,3.1,6.4,2.5q4.2-.9,5.5,3.2c1.9,5.8,3.7,11.6,5.5,17.4.1.4.2.6.2.9l2.9,9.1c.2.3.3.6.4,1,.2.9.5,1.9.8,2.8l.5,1.4c.4,1.1.8,2.2,1.2,3.4.1.4.2.7.2,1l3.8,9.6c1,1.2,2.5,1.5,4.2,1.3.4,0,1-.1,1.4-.3,1.6-.7,3.3-1.3,4.9-1.7l11.7-3.9,1.7-4.6c-.1-.2-.2-.4-.3-.7-.8-2.8-1.7-5.4-2.5-8.2-.7-2.1-2.8-9.5-3.3-10.5l2.9,9.5-2.9-9.5c-.1-.2-.2-.5-.3-.8-.7-2.5-1.6-5-2.3-7.5-2-6.2-4-12.5-6-18.8-.2-.8-.9-1.7.6-2,2.8-.6,5.3-1.7,8.2-1.3,4.1.4,8.1.8,12.2,1.2,10.4,1.1,20.8,2.1,31.2,3.2,9.2,1,18.4,1.9,27.6,2.8,2.9.2,5.6,1,8.5.6,5.1-.9,8.3-4,10-8.9,1.4-4.3,2-8.7,2.1-13.3.2-7.8-.7-15.3-2.1-22.8ZM28.4,174.2c-2.1.7-4.3,1.3-6,1.9-1.2.2-1.7-.2-2-.8-2.7-3.5-4.1-7.5-3.9-12.1,0-.9.3-1.4,1.2-1.8h.1c2-.6,4-1.2,5.9-1.9,1.1-.3,1.6,0,1.8,1.1.9,4,2.2,7.9,3.7,11.6.4,1,.3,1.6-.8,1.9ZM45.2,182.4h0c-.6,0-1.1.1-1.4.2-1.1,0-1.6-.8-2-1.4-4.8-7.4-7.8-15.6-9.7-24.2-.9-4-1.6-8-1.9-12.1-.1-1.4.3-2.3,1.8-2.9,8.4-3.5,16.8-7.3,25.2-10.9q2-.9,2,1.3c.7,14.8,5,28.6,13,41.1,1.2,2,1.2,1.9-.9,2.4-8.6,2.1-17.4,4.3-26,6.4ZM80.5,228.1c.4,1.4.2,2.1-1.2,2.4-2.7.7-5.2,1.6-7.9,2.4-1.2.4-1.9.2-2.3-1.1-4.5-14.4-9.2-28.8-13.7-43.1-.3-1.1-.2-1.8,1.1-2.1,3.1-.7,6.1-1.6,9.2-2.2,1.1-.1,1.1.8,1.3,1.4,1.3,4,2.5,8,3.9,12,3.2,10.1,6.4,20.2,9.6,30.2ZM140.4,179.5c-9.3-.9-18.6-1.9-27.9-2.8-9.1-.9-18.3-2-27.3-2.7-3.4-.2-5.1-1.9-6.8-4.5-8-12.6-11.8-26.5-12-41.3,0-1.6.4-2.7,1.4-3.8,9.7-10.5,19.5-20.9,29.1-31.4,5-5.4,10.1-11,15.1-16.4h-.2c.4-.3.8-.8,1.1-1.3.2,0,.3.2.6.2,0,18.9,4.1,37,10,54.8,5.9,17.8,13.2,35,25.2,49.9-2.9-.2-5.6-.6-8.3-.8ZM130.1,114.6c1.1-.3,1.9,1,2.5,1.8,4.3,5.6,6.4,12.1,6.6,18.5,0,2,0,3.3-.3,4.7-.3,1.1-.9,1.2-1.7.6h-.1c-1.2-1.1-2.1-2.3-2.9-3.5-3.4-5.9-5.5-12.2-5.2-19,0-1.1-.1-2.5,1-2.9ZM167,164.2c0,4.2,0,8.2-1.1,12.1-1.6,5.4-4,6.2-8.2,2.5-4.8-4.1-8.2-9.2-11.4-14.5-2.8-4.7-5.3-9.6-7.5-14.6-.6-1.2-.8-1.9,1-2,3.2-.3,5-2.7,5.9-5.5,1.6-4.7,1.1-9.2,0-13.8-1.3-6.1-3.7-11.7-7.5-16.6-1.4-1.8-3.2-3.3-5.4-4.2-2.3-1-4.5-.9-6.6.6-1,.8-1.4.6-1.7-.7-1.6-7.8-3-15.5-3.4-23.5-.3-5.4-.3-10.9.9-16.2.3-1.6,1-2.9,2-4,1.6-1.7,2.4-1.9,4.4-.7,3,1.8,5.2,4.3,7.3,7,6.6,8.4,11.3,17.8,15.5,27.6,7.2,16.8,12.3,34.3,14.9,52.5.7,4.8,1.2,9.5,1,14.1Z" fill="#000" stroke-width="0"/>
    <path d="M59.2,224.4c.2.5.3,1,.5,1.4l-.5-1.4Z" fill="#000" stroke-width="0"/>
  </g>
  <g>
    <g>
      <path d="M175.2,83c-1.5,1.5-2.9,3-4.2,4.6-1.4,1.6-1.3,3.3.3,4.8,3.1,2.9,6.2,5.8,9.3,8.6,1.7,1.5,3.4,1.4,5-.2,1.4-1.5,2.8-3,4.1-4.5.6-.7,1-1.4,1-2.4s-.4-1.8-1.1-2.5c-3.1-2.9-6.3-5.8-9.5-8.6-1.6-1.4-3.3-1.3-4.8.2h-.1Z" fill="#fdd100" stroke-width="0"/>
      <path d="M199.8,133.6c-2.1-.5-4.3-1-6.4-1.5-1.6-.3-3.1.5-3.5,2-1.1,4.5-2.1,9-3,13.5-.3,1.7.5,3,2.1,3.5,2.3.8,4.8,1.2,6.9,1.5,2.2,0,3.3-.7,3.8-2.8,1-4.1,1.9-8.2,2.8-12.4.4-2-.6-3.4-2.6-3.9h-.1Z" fill="#fdd100" stroke-width="0"/>
      <path d="M293.4,146.1c-5.5-.7-11-1.4-16.5-2.1-16.3-2.1-32.6-4.2-48.8-6.3-2.6-.3-3.8.5-4.4,3-1.3,5.4-2.6,10.8-3.9,16.2-.5,2.2.2,3.6,2.3,4.4,20.4,8,40.7,15.9,61.1,23.9.7.3,1.4.6,2.2.6,1.7,0,2.8-.8,3.3-2.8,2.7-10.8,5.4-21.5,8-32.3.6-2.6-.6-4.3-3.3-4.6h0Z" fill="#fdd100" stroke-width="0"/>
      <path d="M205.1,77.2c2,1.9,3.6,2,5.7.3,11.6-9.3,23.2-18.6,34.8-27.9,5.3-4.2,10.7-8.4,16-12.7,2.8-2.2,2.9-4.1.5-6.6-3.8-3.7-7.6-7.3-11.4-11-4-3.9-8.1-7.8-12.1-11.6-.8-.7-1.6-1.3-2.8-1.3s-2.4,1.1-3.3,2.2c-6.4,8.4-12.8,16.8-19.1,25.2-6.8,8.9-13.6,17.8-20.4,26.7-1.6,2.1-1.5,3.7.4,5.5,3.9,3.7,7.8,7.5,11.6,11.2h.1Z" fill="#fdd100" stroke-width="0"/>
      <path d="M201.2,82.3c3.7,3.5,8.9,3.9,13,.7,9.6-7.5,19.1-15.2,28.6-22.8,7.5-6,15-12.2,22.6-18.1,6.2-4.8,6.6-11.4.8-16.8-7.4-7-14.8-14.1-22-21.3-1.8-1.8-3.8-3.3-6.3-4h-4c-2.7.9-4.8,2.5-6.5,4.8-13.1,17.3-26.2,34.6-39.4,51.8-3.7,4.9-3.4,9.9,1,14.2,4,3.9,8.1,7.7,12.2,11.6h0ZM193.1,60.5c6.8-8.9,13.6-17.8,20.4-26.7,6.4-8.4,12.8-16.8,19.1-25.2.8-1.1,1.7-2.2,3.3-2.2s2,.6,2.8,1.3c4,3.9,8.1,7.8,12.1,11.6,3.8,3.7,7.6,7.3,11.4,11,2.5,2.4,2.3,4.3-.5,6.6-5.3,4.2-10.7,8.4-16,12.7-11.6,9.3-23.2,18.6-34.8,27.9-2.1,1.7-3.6,1.6-5.7-.3-3.9-3.7-7.8-7.5-11.6-11.2-1.9-1.8-2-3.4-.4-5.5h-.1Z" fill="#000" stroke-width="0"/>
      <path d="M294.4,139.8c-5.3-.7-10.6-1.4-15.8-2-12.5-1.6-25-3.2-37.6-4.8-4.7-.6-9.4-1.2-13.7-1.7-4.9,0-8.7,3-9.9,7.6-1.4,5.7-2.8,11.4-4.1,17.1-1.2,5.1,1.2,9.5,6.1,11.4,3.5,1.4,7,2.8,10.6,4.2,17.1,6.7,34.3,13.4,51.4,20.1,5.9,2.3,12-.7,13.5-6.7,2.7-10.9,5.4-21.7,8.1-32.6,1.6-6.3-2-11.6-8.5-12.5h-.1ZM296.6,150.8c-2.6,10.8-5.3,21.5-8,32.3-.5,2-1.6,2.9-3.3,2.8-.8,0-1.5-.3-2.2-.6-20.4-8-40.7-15.9-61.1-23.9-2.2-.8-2.8-2.2-2.3-4.4,1.3-5.4,2.6-10.8,3.9-16.2.6-2.5,1.9-3.4,4.4-3,16.3,2.1,32.6,4.2,48.8,6.3,5.5.7,11,1.4,16.5,2.1,2.6.3,3.9,2,3.3,4.6h0Z" fill="#000" stroke-width="0"/>
      <path d="M201.3,127.2c-2.1-.5-4.2-1-6.3-1.4-3.1-.7-5.9,0-8.4,2-1.2,1-2.2,2.2-2.7,3.7-1.7,5.4-2.7,11-3.6,15.6,0,5.6,2.8,9.4,7.3,10.5,2.3.6,4.6,1.1,6.9,1.5,5.4,1,10.1-2.1,11.4-7.5,1-4.2,1.9-8.3,2.8-12.5,1.2-5.5-1.9-10.4-7.4-11.8h0ZM202.4,137.5c-.9,4.1-1.8,8.3-2.8,12.4-.5,2-1.6,2.8-3.8,2.8-2.1-.3-4.6-.8-6.9-1.5-1.6-.5-2.4-1.8-2.1-3.5.9-4.5,1.9-9,3-13.5.4-1.5,2-2.3,3.5-2,2.1.4,4.3.9,6.4,1.5,2,.5,3,2,2.6,3.9h.1Z" fill="#000" stroke-width="0"/>
      <path d="M170.8,78.4c-1.6,1.6-3.1,3.3-4.6,5-3.8,4.2-3.5,10,.6,13.8,3.2,3,6.4,5.9,9.6,8.8,3.9,3.5,9.6,3.4,13.4-.3,1.8-1.7,3.4-3.6,5-5.5,3.3-3.8,3.1-9.5-.5-13-3.4-3.3-6.9-6.4-10.4-9.6-1.8-1.6-3.9-2.3-6.2-2.2-2.8,0-5,1-6.9,3h0ZM189.5,91.5c.7.7,1.1,1.5,1.1,2.5s-.4,1.7-1,2.4c-1.3,1.5-2.7,3-4.1,4.5-1.5,1.6-3.3,1.7-5,.2-3.1-2.8-6.2-5.7-9.3-8.6-1.6-1.5-1.7-3.2-.3-4.8,1.4-1.6,2.8-3.1,4.2-4.6,1.5-1.5,3.2-1.6,4.8-.2,3.2,2.8,6.3,5.7,9.5,8.6h.1Z" fill="#000" stroke-width="0"/>
    </g>
    <g>
      <path d="M217.4,114.5h-8.8l-1.2,4.1h-7.9l9.4-25h8.4l9.4,25h-8.1l-1.2-4.1h0ZM215.8,109.1l-2.8-9-2.7,9h5.5Z" fill="#9f0000" stroke-width="0"/>
      <path d="M229.3,93.7h11.5c2.3,0,4.1.3,5.5.9s2.5,1.5,3.5,2.6,1.6,2.5,2,4,.6,3.1.6,4.8c0,2.7-.3,4.7-.9,6.2s-1.5,2.7-2.5,3.7-2.2,1.7-3.5,2c-1.7.5-3.2.7-4.6.7h-11.5v-25h-.1ZM237,99.3v13.7h1.9c1.6,0,2.8-.2,3.4-.5s1.2-1,1.6-1.9.6-2.3.6-4.3-.4-4.5-1.3-5.4-2.3-1.5-4.3-1.5h-1.9Z" fill="#9f0000" stroke-width="0"/>
    </g>
  </g>
</svg>