<?xml version="1.0" encoding="UTF-8" standalone="no"?>
<svg
   id="svg1"
   version="1.1"
   viewBox="0 0 70013.162 64160.89"
   sodipodi:docname="AnalyticProviders.svg"
   width="70013.164"
   height="64160.891"
   xmlns:inkscape="http://www.inkscape.org/namespaces/inkscape"
   xmlns:sodipodi="http://sodipodi.sourceforge.net/DTD/sodipodi-0.dtd"
   xmlns="http://www.w3.org/2000/svg"
   xmlns:svg="http://www.w3.org/2000/svg">
  <sodipodi:namedview
     id="namedview1"
     pagecolor="#ffffff"
     bordercolor="#000000"
     borderopacity="0.25"
     inkscape:showpageshadow="2"
     inkscape:pageopacity="0.0"
     inkscape:pagecheckerboard="0"
     inkscape:deskcolor="#d1d1d1" />
  <defs
     id="defs1">
    <style
       id="style1">
      .cls-1 {
        fill: #000;
      }

      .cls-1, .cls-2, .cls-3 {
        stroke-width: 0px;
      }

      .cls-4 {
        fill: none;
        stroke-linecap: round;
        stroke-linejoin: round;
        stroke-width: 7px;
      }

      .cls-4, .cls-5, .cls-6, .cls-7 {
        stroke: #000;
      }

      .cls-5 {
        fill: #19a6b3;
      }

      .cls-5, .cls-6, .cls-7 {
        stroke-miterlimit: 37.8;
        stroke-width: 4px;
      }

      .cls-6 {
        fill: #237db6;
      }

      .cls-7 {
        fill: #e46301;
      }

      .cls-2 {
        fill: #fff;
      }

      .cls-3 {
        fill: #969696;
      }
    </style>
  </defs>
  <g
     id="layer1">
    <g
       id="g4">
      <path
         id="path1"
         class="cls-1"
         d="m 249.5,0 c 7.7,0.1 14.2,6.4 14.9,14.1 0.1,1.8 0.2,3.5 0.2,5.3 v 179 c 0,11.5 -5.9,20.3 -15.8,24.1 -2.9,1.1 -5.9,1.5 -9,1.5 h -78.5 c -1.6,0 -2.4,0.8 -2.4,2.3 v 17.8 c 0,1.7 0.9,2.6 2.6,2.6 13.5,0.2 27.1,-0.4 40.5,0.2 3.3,0.6 3.5,5.3 0.1,6.1 -46.3,0.7 -92.6,0 -138.9,0.2 -4.2,-0.3 -4.4,-6.1 0,-6.5 13.4,-0.2 26.8,0 40.2,0 13.4,0 2,-0.4 1.9,-2 v -19.6 c 0,-0.8 -0.2,-1.1 -1,-1.1 H 24.8 c -4.2,0 -8.2,-0.5 -12.1,-2 C 4.6,218.7 0,212.1 0,203.4 V 15.3 C 0,6.8 7,0 15.6,0 Z" />
      <path
         id="path2"
         class="cls-2"
         d="m 131.9,217.6 h 109.4 c 8.4,-0.3 16.3,-8 16.5,-16.4 0.2,-8.8 0,-17.6 0,-26.4 0,-8.8 -0.5,-1.7 -1.7,-1.6 H 7.8 c -1.2,0 -1.6,0.2 -1.6,1.5 v 28.5 c 0,6.4 3.3,11 9.4,13.1 3.1,1.1 6.2,1.4 9.4,1.4 h 106.9 z m 0.1,6.5 h -18.9 c -0.8,0 -1.5,-0.2 -1.4,1.1 V 245 c 0,1.4 0.4,1.8 1.8,1.8 h 38 c 0.9,0 1,-0.1 1,-1.1 0,-6.7 -0.1,-13.4 0,-20.1 0,-1.4 -0.4,-1.5 -1.5,-1.5 z" />
      <path
         id="path3"
         class="cls-2"
         d="m 255,166.8 c 1.9,0 2.9,-1 2.9,-3 V 16.4 c 0,-6.3 -3.7,-9.9 -9.9,-10 -7.5,0.3 -82.9,0 -92.4,0 C 109.3,6.4 63.1,6.2 16.8,6.4 11.1,6.1 6.3,9.9 6.4,16.2 v 147.2 c 0,2.3 1.1,3.4 3.3,3.4 z" />
      <path
         id="path4"
         class="cls-1"
         d="m 146.9,193.9 c 0,8.3 -6.5,14.7 -14.8,14.7 -8.3,0 -14.8,-6.7 -14.7,-14.8 0,-8.1 6.8,-14.7 14.9,-14.6 8,0 14.5,6.7 14.5,14.8 h 0.1 z m -6.4,0 c 0,-4.6 -3.7,-8.4 -8.2,-8.4 -4.5,0 -8.3,3.8 -8.4,8.2 0,4.5 3.7,8.3 8.2,8.4 4.6,0 8.3,-3.7 8.4,-8.2 z" />
    </g>
    <rect
       id="rect4"
       class="cls-6"
       x="25.5"
       y="90.699997"
       width="16.5"
       height="55"
       rx="1.5"
       ry="1.5" />
    <rect
       id="rect5"
       class="cls-6"
       x="54.900002"
       y="64.199997"
       width="16.5"
       height="81.5"
       rx="1.5"
       ry="1.5" />
    <rect
       id="rect6"
       class="cls-6"
       x="84.300003"
       y="78.5"
       width="16.5"
       height="67.199997"
       rx="1.5"
       ry="1.5" />
    <rect
       id="rect7"
       class="cls-6"
       x="113.6"
       y="90.699997"
       width="16.5"
       height="55"
       rx="1.5"
       ry="1.5" />
    <polyline
       id="polyline7"
       class="cls-4"
       points="12.8 84.7 62.2 39.9 119.8 71.4 141.3 45.7" />
    <polyline
       id="polyline8"
       class="cls-4"
       points="134.8 43 146.2 39.9 146.2 50" />
    <path
       id="path10"
       class="cls-3"
       d="m 132.2,185.6 c -4.5,0 -8.4,3.8 -8.4,8.2 0,4.4 3.7,8.3 8.2,8.4 4.6,0 8.3,-3.7 8.4,-8.2 0,-4.6 -3.7,-8.4 -8.2,-8.4 z" />
    <path
       id="path8"
       class="cls-5"
       d="m 200.5,137.9 c -7.2,0 -14.3,-1.9 -20.5,-5.4 -17.3,-9.8 -25.2,-30.7 -18.9,-49.6 5,-15 21.4,-27.9 35,-27.9 h 0.8 v 40 c 0,1.9 0.6,3.3 1.9,4.7 7.7,7.7 15.4,15.4 23.2,23.1 l 5.3,5.2 c -6.9,6.2 -16.8,9.8 -26.8,9.8 v 0 z" />
    <path
       id="path9"
       class="cls-7"
       d="m 215,101.8 -2.3,-2.3 c -1.9,-1.9 -3.8,-3.8 -5.6,-5.7 -0.4,-0.4 -0.6,-0.9 -0.6,-1 V 53.3 h 1.2 c 10.6,0 25.9,10.6 32,22.2 7.9,15.1 5.8,33.7 -5,46.1 L 215,101.9 v 0 z" />
  </g>
</svg>
