<?xml version="1.0" encoding="UTF-8"?>
<svg id="Layer_1" data-name="Layer 1" xmlns="http://www.w3.org/2000/svg" baseProfile="tiny" version="1.2" viewBox="0 0 218.2 261.7">
  <g>
    <g>
      <g>
        <path d="M159.8,126.1c0-15-12.1-27.1-27.1-27.1h-4.8c-15,0-27.1,12.1-27.1,27.1v45h59v-45h0Z" fill="#fff" stroke="#000" stroke-miterlimit="10" stroke-width="6"/>
        <circle cx="130.3" cy="76.9" r="21.1" fill="#fff" stroke="#000" stroke-miterlimit="10" stroke-width="6"/>
      </g>
      <path d="M146.3,128.9c0-6.6-3.6-12-8-12h-15.6c-4.4,0-8,5.4-8,12v26.7h31.6v-26.7Z" fill="#89e177" stroke="#000" stroke-linecap="round" stroke-linejoin="round" stroke-width="6"/>
      <g>
        <line x1="118.6" y1="103" x2="120.6" y2="118.5" fill="none" stroke="#000" stroke-miterlimit="10" stroke-width="4"/>
        <line x1="142.3" y1="103" x2="140.4" y2="118.5" fill="none" stroke="#000" stroke-miterlimit="10" stroke-width="4"/>
      </g>
    </g>
    <rect x="38" y="137.7" width="41.7" height="19.3" fill="#e3a76f" stroke="#000" stroke-miterlimit="10" stroke-width="6"/>
    <rect x="30" y="122.6" width="56.9" height="14.3" fill="#e3a76f" stroke="#000" stroke-miterlimit="10" stroke-width="6"/>
    <rect x="50.7" y="90.1" width="32.7" height="20.2" fill="#f2d1a5" stroke="#000" stroke-miterlimit="10" stroke-width="6"/>
    <polyline points="50.7 100.2 35.9 100.2 35.9 122.6" fill="none" stroke="#000" stroke-miterlimit="10" stroke-width="6"/>
  </g>
  <rect x="8.6" y="158.1" width="198.1" height="17.4" fill="#dbdbdb" stroke="#000" stroke-miterlimit="10" stroke-width="6"/>
  <path d="M14.2,175.5h187.4v69.6c0,7.5-6.1,13.7-13.7,13.7H27.8c-7.5,0-13.7-6.1-13.7-13.7v-69.6h.1Z" fill="#ededed" stroke="#000" stroke-miterlimit="10" stroke-width="6"/>
  <path d="M201.7,3H18.4L3.1,30.6c0,.6,7,16.7,15.7,16.7s15.8-11.7,15.8-11.7h4.9s6.3,11.8,15.7,11.7c8.7,0,15.8-11.7,15.8-11.7h4.7c0,.6,0,0,0,0,0,0,7.1,11.7,15.8,11.7s15.8-11.7,15.8-11.7h4.6s7.1,11.7,15.8,11.7,15.8-11.7,15.8-11.7h4.6s7.1,11.7,15.8,11.7,15.8-11.7,15.8-11.7h4.6s7.1,11.7,15.8,11.7,15.8-16.7,15.8-16.7l-13.5-27.6h-.7Z" fill="#ffe177" stroke="#000" stroke-linecap="round" stroke-linejoin="round" stroke-width="6"/>
</svg>