<?xml version="1.0" encoding="UTF-8"?>
<svg id="Layer_1" data-name="Layer 1" xmlns="http://www.w3.org/2000/svg" baseProfile="tiny" version="1.2" viewBox="0 0 319.1 358.8">
  <polygon points="79.2 68.9 79.2 344.8 88.7 344.8 95.4 344.8 262.2 344.8 262.2 3.1 79.2 68.9" fill="#dfdeed" stroke-width="0"/>
  <polygon points="270.2 0 262.2 3.1 262.2 344.8 302.8 344.8 310.8 344.8 319.1 344.8 319.1 329.5 319.1 61.3 270.2 0" fill="#9e9ea8" stroke-width="0"/>
  <path d="M270.2,0L79.2,68.9v275.9h239.9V61.3L270.2,0ZM286.5,332.8V65.4l-24.5-27.1v294.4H112.5l-23-3.3V76.6L262.1,15.3l42.9,48.8v268.6h-18.5Z" fill="#000" stroke-width="0"/>
  <g>
    <polygon points="144.2 99.6 0 153.2 0 329.5 0 343.6 0 344.8 0 358.8 144.9 358.8 144.9 100.1 144.2 99.6" fill="#cac2a8" stroke-width="0"/>
    <polygon points="143.9 103.6 143.9 351 208.4 348.4 208.4 348.4 208.4 333 208.4 149.2 143.9 103.6" fill="#9c9581" stroke-width="0"/>
    <polygon points="111.7 160.9 40.4 184.7 40.7 214.5 111.7 191.6 111.7 160.9" fill="#000" stroke-width="0"/>
    <polygon points="111.7 229.8 40.4 246.8 40.7 275.9 111.7 260.5 111.7 229.8" fill="#000" stroke-width="0"/>
    <path d="M144.2,99.6L0,153.2v205.6h209.4v-14.1h0v-199.3l-65.2-45.9h0ZM144.2,115l53.5,35.2.2,197.8h-34.8l-.8-198.8-18.1-11.3v210H10.6v-187.1l133.8-45.9h-.2Z" fill="#000" stroke-width="0"/>
  </g>
  <polygon points="40.7 329.5 111.7 329.5 111.7 291.1 40.7 306.4 40.7 329.5" fill="#000" stroke-width="0"/>
</svg>