<?xml version="1.0" encoding="UTF-8" standalone="no"?>
<!-- Created with Inkscape (http://www.inkscape.org/) -->

<svg
   width="70.008743mm"
   height="67.02401mm"
   viewBox="0 0 70.008743 67.02401"
   version="1.1"
   id="svg1"
   xmlns="http://www.w3.org/2000/svg"
   xmlns:svg="http://www.w3.org/2000/svg">
  <defs
     id="defs1" />
  <g
     id="layer1"
     transform="translate(-70.11458,-115.09375)">
    <g
       id="g4"
       transform="matrix(0.26458333,0,0,0.26458333,70.114583,115.09375)">
      <path
         id="path1"
         d="m 249.5,0 c 7.7,0.1 14.2,6.4 14.9,14.1 0.1,1.8 0.2,3.5 0.2,5.3 v 179 c 0,11.5 -5.9,20.3 -15.8,24.1 -2.9,1.1 -5.9,1.5 -9,1.5 h -78.5 c -1.6,0 -2.4,0.8 -2.4,2.3 v 17.8 c 0,1.7 0.9,2.6 2.6,2.6 13.5,0.2 27.1,-0.4 40.5,0.2 3.3,0.6 3.5,5.3 0.1,6.1 -46.3,0.7 -92.6,0 -138.9,0.2 -4.2,-0.3 -4.4,-6.1 0,-6.5 13.4,-0.2 26.8,0 40.2,0 13.4,0 2,-0.4 1.9,-2 v -19.6 c 0,-0.8 -0.2,-1.1 -1,-1.1 H 24.8 c -4.2,0 -8.2,-0.5 -12.1,-2 C 4.6,218.7 0,212.1 0,203.4 V 15.3 C 0,6.8 7,0 15.6,0 Z"
         fill="#000000"
         stroke-width="0" />
      <path
         id="path2"
         d="m 131.9,217.6 h 109.4 c 8.4,-0.3 16.3,-8 16.5,-16.4 0.2,-8.8 0,-17.6 0,-26.4 0,-8.8 -0.5,-1.7 -1.7,-1.6 H 7.8 c -1.2,0 -1.6,0.2 -1.6,1.5 v 28.5 c 0,6.4 3.3,11 9.4,13.1 3.1,1.1 6.2,1.4 9.4,1.4 h 106.9 z m 0.1,6.5 h -18.9 c -0.8,0 -1.5,-0.2 -1.4,1.1 V 245 c 0,1.4 0.4,1.8 1.8,1.8 h 38 c 0.9,0 1,-0.1 1,-1.1 0,-6.7 -0.1,-13.4 0,-20.1 0,-1.4 -0.4,-1.5 -1.5,-1.5 z"
         fill="#ffffff"
         stroke-width="0" />
      <path
         id="path3"
         d="m 255,166.8 c 1.9,0 2.9,-1 2.9,-3 V 16.4 c 0,-6.3 -3.7,-9.9 -9.9,-10 -7.5,0.3 -82.9,0 -92.4,0 C 109.3,6.4 63.1,6.2 16.8,6.4 11.1,6.1 6.3,9.9 6.4,16.2 v 147.2 c 0,2.3 1.1,3.4 3.3,3.4 z"
         fill="#ffffff"
         stroke-width="0" />
      <path
         id="path4"
         d="m 146.9,193.9 c 0,8.3 -6.5,14.7 -14.8,14.7 -8.3,0 -14.8,-6.7 -14.7,-14.8 0,-8.1 6.8,-14.7 14.9,-14.6 8,0 14.5,6.7 14.5,14.8 h 0.1 z m -6.4,0 c 0,-4.6 -3.7,-8.4 -8.2,-8.4 -4.5,0 -8.3,3.8 -8.4,8.2 0,4.5 3.7,8.3 8.2,8.4 4.6,0 8.3,-3.7 8.4,-8.2 z"
         fill="#000000"
         stroke-width="0" />
    </g>
    <rect
       id="rect4"
       x="76.861458"
       y="139.09146"
       width="4.3656249"
       height="14.552083"
       rx="0.39687499"
       ry="0.39687499"
       fill="#237db6"
       stroke="#000000"
       stroke-miterlimit="10"
       stroke-width="1.05833" />
    <rect
       id="rect5"
       x="84.640205"
       y="132.08"
       width="4.3656249"
       height="21.563541"
       rx="0.39687499"
       ry="0.39687499"
       fill="#237db6"
       stroke="#000000"
       stroke-miterlimit="10"
       stroke-width="1.05833" />
    <rect
       id="rect6"
       x="92.418961"
       y="135.86354"
       width="4.3656249"
       height="17.779999"
       rx="0.39687499"
       ry="0.39687499"
       fill="#237db6"
       stroke="#000000"
       stroke-miterlimit="10"
       stroke-width="1.05833" />
    <rect
       id="rect7"
       x="100.17125"
       y="139.09146"
       width="4.3656249"
       height="14.552083"
       rx="0.39687499"
       ry="0.39687499"
       fill="#237db6"
       stroke="#000000"
       stroke-miterlimit="10"
       stroke-width="1.05833" />
    <polyline
       id="polyline7"
       points="12.8 84.7 62.2 39.9 119.8 71.4 141.3 45.7"
       fill="none"
       stroke="#000000"
       stroke-linecap="round"
       stroke-linejoin="round"
       stroke-width="7"
       transform="matrix(0.26458333,0,0,0.26458333,70.114583,115.09375)" />
    <polyline
       id="polyline8"
       points="134.8 43 146.2 39.9 146.2 50"
       fill="none"
       stroke="#000000"
       stroke-linecap="round"
       stroke-linejoin="round"
       stroke-width="7"
       transform="matrix(0.26458333,0,0,0.26458333,70.114583,115.09375)" />
    <path
       id="path10"
       d="m 105.0925,164.20042 c -1.19063,0 -2.2225,1.00541 -2.2225,2.16958 0,1.16417 0.97896,2.19604 2.16958,2.2225 1.21709,0 2.19604,-0.97896 2.2225,-2.16958 0,-1.21709 -0.97896,-2.2225 -2.16958,-2.2225 z"
       fill="#969696"
       stroke-width="0" />
    <path
       id="path8"
       d="m 123.16354,151.57979 c -1.905,0 -3.78354,-0.50271 -5.42396,-1.42875 -4.57729,-2.59292 -6.6675,-8.12271 -5.00062,-13.12333 1.32291,-3.96875 5.66208,-7.38188 9.26041,-7.38188 h 0.21167 v 10.58334 c 0,0.5027 0.15875,0.87312 0.50271,1.24354 2.03729,2.03729 4.07458,4.07458 6.13833,6.11187 l 1.40229,1.37584 c -1.82562,1.64041 -4.445,2.59291 -7.09083,2.59291 v 0 z"
       fill="#19b394"
       stroke="#000000"
       stroke-miterlimit="10"
       stroke-width="1.05833"
       style="fill:#5b19b3;fill-opacity:1" />
    <path
       id="path9"
       d="m 127,142.02833 -0.60854,-0.60854 c -0.50271,-0.50271 -1.00542,-1.00542 -1.48167,-1.50812 -0.10583,-0.10584 -0.15875,-0.23813 -0.15875,-0.26459 v -10.45104 h 0.3175 c 2.80458,0 6.85271,2.80458 8.46667,5.87375 2.09021,3.99521 1.53458,8.91646 -1.32292,12.19729 L 127,142.05479 v 0 z"
       fill="#e46301"
       stroke="#000000"
       stroke-miterlimit="10"
       stroke-width="1.05833" />
  </g>
</svg>
