<?xml version="1.0" encoding="UTF-8"?>
<svg id="Layer_1" data-name="Layer 1" xmlns="http://www.w3.org/2000/svg" baseProfile="tiny" version="1.2" viewBox="0 0 278.2 247.2">
  <path d="M278.2,246.5c0-80.7-58.4-144.1-139.1-144.1S0,165.9,0,246.5s0,.1,0,.7h278.1c0-.6,0-.1,0-.7Z" fill="#000" stroke-width="0"/>
  <path d="M78.1,239.9c-.4-.3-.8-.6-1.1-.8-.4-.3-.7-.5-1-.7-.3-.2-.6-.4-.8-.6-.3-.2-.5-.4-.8-.6-.5-.4-1-.7-1.5-1-2.7-1.7-5.4-3.5-8.1-5.2-5.5-3.6-11.1-7.2-16.8-10.8-1.9-1.2-3.8-2.3-5.7-3.5-1.4-.8-2.4-1.7-3.2-2.6-.1-.2-.3-.4-.4-.5-.3-.5-.6-1.1-.7-1.7,0-.2,0-.4,0-.6,0-1.3.3-2.7,1.1-4.4.9-2,1.8-4,2.6-6,.8-2,1.6-3.9,2.2-5.8.5-1.3.9-2.5,1.3-3.6.3-.7.5-1.8.5-2.9,0-.5,0-1.1-.2-1.6-.1-.5-.3-1-.6-1.3-1-1.2-1.9-2.4-2.9-3.7-3-3.6-6-7.2-9.2-11-1.2-1.4-2.5-2.9-3.7-4.4-14,21-22.2,46.1-22.2,73.2s0,1,0,1.5h72.6l-1.6-1.2Z" fill="#43cb8e" stroke-width="0"/>
  <path d="M179.4,114.3c-1-.3-2-.6-3-.8-6.1-1.6-12.4-2.9-18.7-3.7-4.3-.6-8.6-.9-12.9-1.1-2.2,0-4.3-.1-6.5-.1h0c-1.5,0-2.9,0-4.3,0-2.9,0-5.7.3-8.6.5s-5.6.6-8.4,1c-2.8.4-5.5.9-8.2,1.5-5.4,1.1-10.6,2.6-15.6,4.4-2.5.9-4.9,1.9-7.3,2.9-3.6,1.6-7.1,3.3-10.4,5.2l-1,.6.8.9c1.1,1.3,2.3,2.7,3.3,4,2.3,2.9,4.6,5.6,7.2,7.9,10.5,9.2,14.8,19,13.4,30.7,0,.8-.2,1.6-.4,2.4-.2.9-.2,1.7-.1,2.4,0,.7.3,1.4.7,2,.7,1.2,2,2.3,3.9,3.1,6.4,3,12.9,6.2,19.3,9.5,2.1,1.1,4.3,2.2,6.4,3.4,1.1.6,2,.9,2.9,1,.3,0,.6,0,.9,0s.4,0,.6,0c.2,0,.4,0,.6-.1.4,0,.8-.2,1.2-.4.6-.3,1.2-.7,1.8-1.2.2-.2.4-.4.6-.5,4-3.6,8.1-7.2,12.1-10.6,1.3-1.2,2.7-2.3,4-3.5,1.3-1.2,2.7-2.3,4-3.5,2.7-2.4,5.4-4.8,8-7.2,1.1-1,2.1-1.8,3.2-2.6,1.6-1.1,3.3-2,5.1-2.6,1.2-.4,2.4-.7,3.7-1,.6-.1,1.3-.2,2-.3,1.4-.1,2.8-.3,4.3-.5,1.4-.2,2.8-.4,4.2-.6,3.2-.5,6.4-1,9.6-1.2,1.1,0,2.1-.1,3.2-.1,4.1,0,7.7-1,11-2.4.9-.4,1.9-.9,2.7-1.4.4-.2.9-.5,1.3-.8,2.2-1.3,4.3-2.8,6.3-4.3.4-.3.8-.6,1.2-.9.8-.6,1.6-1.2,2.4-1.7.8-.6,1.6-1.2,2.4-1.7l.3-.2c-11-10.2-23.7-18.5-37.7-24.4-1.8-.7-3.6-1.4-5.5-2-2-.7-3.9-1.3-6-1.9Z" fill="#43cb8e" stroke-width="0"/>
  <path d="M246.9,240.3c.9-.6,1.7-1.3,1.9-2.1.2-1.1.8-2.2,1.4-3.3.2-.4.4-.8.6-1.2.2-.4.4-.8.5-1.2.2-.4.3-.9.4-1.3.2-.9.3-1.8.2-2.7,0,0,0-.1,0-.2,0-.4-.2-.9-.4-1.3-.1-.2-.2-.5-.4-.7-.4-.7-1-1.5-1.8-2.3-1.3-1.2-2.6-2.5-3.9-3.8-1.4-1.4-2.8-2.8-4.2-4.2-2.7-2.7-5.3-5.4-7.9-8-2-2.1-4.1-4.1-6.1-6.2-.4-.4-.7-.7-1-1-.5-.5-.9-1-1.2-1.4-.3-.4-.6-.7-.7-1.1-.4-.7-.6-1.4-.6-1.9h0c0-.2,0-.3,0-.5.1-.3.3-.6.5-1,.3-.4.6-.7,1.1-1.1.7-.6,1.6-1.3,2.7-2.1,6.2-4.4,12.5-8.8,18.9-13.3l6.6-4.6c-5.5-9.5-12.1-18.2-19.7-26.1-.3.2-.5.4-.8.5-.8.5-1.6,1.1-2.3,1.6-1.6,1.1-3.2,2.2-4.8,3.2-1.5,1.1-3,2.2-4.4,3.3-1.1.9-2.2,1.7-3.4,2.3-3.5,2-7.6,3.2-12.4,3.7-.9,0-1.8.2-2.7.3-.9.1-1.8.2-2.7.3-2.8.4-5.7.7-8.6.8-2.9.1-5.7.4-8.3,1-2,.4-3.8,1-5.6,1.6-.6.2-1.2.5-1.8.7-4.7,2-8.8,5-12.7,9-1.1,1.1-2.2,2.2-3.3,3.3-2.3,2.2-4.7,4.2-7.1,6.2-1.2,1-2.4,2-3.6,3-3.5,2.9-7,5.9-10.4,9-1.8,1.7-3.5,2.5-5.2,2.5s-2.8-.5-4.6-1.5c-1.3-.7-2.6-1.5-3.9-2.2-1.4-.8-2.8-1.6-4.3-2.4-1.4-.8-2.9-1.6-4.4-2.3-1-.5-1.9-.9-2.9-1.4-1.8-.8-3.5-1.5-5.4-2.1-.3,0-.5-.2-.8-.3-4.4-1.4-8-3.2-10.7-5.5-1.1-.9-2.1-1.9-2.9-3-3.7-4.8-4.8-11.2-3.3-19.3.2-.9.2-2,.1-3.1,0,0,0-.1,0-.2,0-.7-.2-1.4-.4-2.1-.3-1.1-.7-2.1-1.4-2.8-1.2-1.5-2.5-3-3.8-4.5-2.6-3-5.2-5.9-7.9-9-1.4-1.5-2.7-3-4.1-4.6-1-1.2-2.1-2.3-3.2-3.5-.7-.7-1.4-1.5-2-2.3-13.3,8.5-25,19.4-34.5,31.9,1.5,1.8,3,3.6,4.5,5.5,1.1,1.4,2.2,2.7,3.4,4.1,2.3,2.8,4.5,5.5,6.9,8.3,1.2,1.4,2.3,2.7,3.5,4.1,1,1.1,1.6,2.1,2,3.2.6,1.8.4,3.6-.6,5.8-.5,1-.9,2-1.3,3-1.3,3-2.5,6.1-3.7,9.3-.7,1.8-1.4,3.6-2.1,5.4l-.3.7,11,7.2c3,2,6,3.9,9.1,5.9,5,3.3,10.1,6.6,15.2,9.9,4.2,2.7,8.3,5.4,12.5,8,.2.1.4.3.7.4,0,0,0,0,0,0h151.2c.6-.2,1.2-.5,1.7-.8Z" fill="#23a8fe" stroke-width="0"/>
  <path d="M271.1,239.6c0-21.3-5.1-41.5-14-59.3l-24.7,17.3.8.8c1.5,1.4,2.9,2.9,4.4,4.3.5.5,1,1,1.4,1.4,2.1,2.1,4.1,4.1,6.2,6.1,1,1,2.1,1.9,3.1,2.9,1.1.9,2.1,1.8,3.2,2.7,2,1.6,3.7,3.2,4.9,4.8,1.7,2.2,2.7,4.3,3,6.6.3,2.2,0,4.4-1.1,6.8-.4,1-.9,1.9-1.5,3-.2.4-.3.8-.4,1.2,0,.4-.1.8-.1,1.3,0,.4,0,.8-.1,1.2v.5c0,0,15,0,15,0,0-.5,0-1,0-1.5Z" fill="#43cb8e" stroke-width="0"/>
  <g>
    <path d="M191.3,48.7c-8.8-3.4-17-1.2-25.2,1.5-4.9,1.6-9.9,3-14.9,4.1-3.8.9-7.6.3-11.1-1.4-.7-.3-1.5-1.3-1.5-1.9,0-12.1,0-24.1,0-36.2,0-.2.1-.4.2-.8,8.8,3.4,17.2.9,25.6-1.8,5-1.6,10-3,15.2-4.1,3.6-.8,7.2,0,10.5,1.6.7.4,1.5,1.4,1.6,2.2,0,11.9,0,23.7,0,35.6,0,.3,0,.5-.2,1.2Z" fill="#fff" stroke-width="0"/>
    <path d="M197.2,9.8c0-1.7-.6-2.9-2-3.7-3.8-2.3-7.8-3.9-12.2-3.6-4.5.3-9,1-13.3,2-4.9,1.2-9.5,3.1-14.4,4.5-4.2,1.2-8.5,1.6-12.8.3q-4-1.2-4.1-5.4c0-.1,0-.3,0-.4-.1-2.2-1.3-3.5-3-3.4-1.7,0-2.7,1.3-2.7,3.5,0,2.5,0,5,0,7.5,0,22.9,0,125,0,125.1h5.9V58.6c8.9,3.3,17.2,1.1,25.5-1.6,3.8-1.3,7.6-2.6,11.5-3.6,5.9-1.5,11.7-1.1,17,2.3,2.6,1.7,4.7.3,4.7-2.9,0-14.4,0-28.7,0-43.1ZM191.6,47.5c0,.3,0,.5-.2,1.2-8.8-3.4-17-1.2-25.2,1.5-4.9,1.6-9.9,3-14.9,4.1-3.8.9-7.6.3-11.1-1.4-.7-.3-1.5-1.3-1.5-1.9,0-12.1,0-24.1,0-36.2,0-.2.1-.4.2-.8,8.8,3.4,17.2.9,25.6-1.8,5-1.6,10-3,15.2-4.1,3.6-.8,7.2,0,10.5,1.6.7.4,1.5,1.4,1.6,2.2,0,11.9,0,23.7,0,35.6Z" fill="#000" stroke-width="0"/>
  </g>
</svg>