<?xml version="1.0" encoding="utf-8"?>
<!-- Generator: Adobe Illustrator 28.5.0, SVG Export Plug-In . SVG Version: 9.03 Build 54727)  -->
<svg version="1.0" id="Layer_1" xmlns="http://www.w3.org/2000/svg" xmlns:xlink="http://www.w3.org/1999/xlink" x="0px" y="0px"
	 viewBox="0 0 270.57 278.59" style="enable-background:new 0 0 270.57 278.59;" xml:space="preserve">
<style type="text/css">
	.st0{fill:none;}
</style>
<path class="st0" d="M76.07,267.95c-1.08-0.79-1.93-1.41-2.82-1.99c-2.49-1.6-4.96-3.22-7.44-4.84c-6.74-4.4-13.72-8.94-20.73-13.16
	c-4.14-2.49-4.9-4.88-2.89-9.12c2.33-4.92,4.19-9.97,5.7-14.27c0.48-1.36,0.83-4.03-0.25-5.42c-3.56-4.53-7.27-8.9-11.19-13.53
	c-1.33-1.56-2.67-3.15-4.04-4.78l-0.74-0.87l-0.66,0.93l-0.02,0.02C16.3,221.83,8.58,244.44,7.37,270.06l-0.04,0.92h72.94
	l-2.22-1.59C77.29,268.85,76.65,268.37,76.07,267.95z"/>
<path class="st0" d="M37.75,99.44c6.78,2.55,13.64,3.85,20.4,3.85s13.77-1.33,20.54-3.95c1.27-0.49,2.8-2.1,2.86-3.43
	c0.17-3.68,0.15-7.4,0.13-11.34c0-1.43-0.02-2.9-0.02-4.42V78.9l-1.17,0.42c-7.45,2.66-14.71,3.95-22.2,3.95
	c-7.49,0-14.7-1.23-22.59-3.77l-1.15-0.37v1.19c0,1.5-0.01,2.96-0.02,4.38c-0.03,3.78-0.06,7.34,0.14,10.89
	C34.76,97.11,36.42,98.94,37.75,99.44z"/>
<path class="st0" d="M143.33,45.46c6.43,2.16,12.95,3.26,19.38,3.26c3.68,0,7.42-0.36,11.13-1.06c11.96-2.27,12.31-2.69,12.28-14.83
	c0-1.35,0-8.14,0-8.14l-1.15,0.38c-7.48,2.45-14.74,3.64-22.19,3.64c-7.45,0-14.89-1.2-22.67-3.67l-1.15-0.36v1.2
	c0,1.54,0.02,3.02,0.04,4.45c0.04,3.16,0.08,6.14-0.1,9.07C138.66,43.34,140.89,44.64,143.33,45.46z"/>
<path class="st0" d="M215.95,127.2c6.38,2.19,12.82,3.31,19.15,3.31c6.33,0,13.18-1.19,19.68-3.55c1.48-0.54,3.68-2.23,3.8-3.88
	c0.26-3.62,0.22-7.27,0.18-11.13c-0.01-1.45-0.03-2.94-0.03-4.48v-1.23l-1.16,0.4c-7.58,2.6-14.89,3.86-22.36,3.86
	c-7.47,0-14.71-1.23-22.46-3.75l-1.15-0.38v1.21l0-0.01c0,1.55,0.02,3.03,0.04,4.47c0.04,3.16,0.08,6.14-0.11,9.07
	C211.28,125.04,213.5,126.36,215.95,127.2z"/>
<path class="st0" d="M79.51,166.47c2.16,2.64,4.2,5.14,6.65,7.26c10.37,9.01,14.18,18.7,11.97,30.49c-0.61,3.26,0.65,5.42,4.09,7.02
	c7.87,3.66,15.85,7.66,23.73,11.9c1.3,0.7,2.4,1.03,3.46,1.03c1.47,0,2.84-0.64,4.44-2.09c3.67-3.31,7.46-6.61,11.13-9.8
	c4.89-4.25,9.94-8.64,14.77-13.12c3.9-3.62,8.02-5.51,12.95-5.95c2.61-0.23,5.25-0.63,7.8-1.02c3.88-0.59,7.9-1.2,11.81-1.21
	c8.7,0,14.87-4.58,20.84-9c1.43-1.06,2.91-2.16,4.41-3.18l0.9-0.61l-0.79-0.75c-19.88-18.95-50.96-30.26-83.14-30.26l-0.01-0.01
	c-21.48,0-41.49,4.95-57.85,14.31l-0.93,0.53l0.71,0.81C77.51,164.03,78.53,165.27,79.51,166.47z"/>
<path class="st0" d="M222.16,239.89c-1.88-1.9-3.75-3.81-5.63-5.7c-2.39-2.4-3.32-3.83-3.23-4.94c0.1-1.11,1.27-2.36,4.04-4.31
	c5.74-4.06,11.49-8.1,17.44-12.29l9.24-6.5l-19.14-23.3l-0.67,0.46c-1.52,1.06-2.99,2.04-4.4,2.98c-3.01,2.02-5.85,3.92-8.47,6.04
	c-3.98,3.23-8.61,4.99-14.55,5.54c-1.68,0.15-3.38,0.37-5.02,0.58c-2.59,0.33-5.27,0.67-7.89,0.77
	c-10.77,0.39-19.08,4.02-26.15,11.4c-3.97,4.15-8.51,7.92-12.89,11.57c-3.19,2.66-6.49,5.41-9.57,8.29
	c-1.69,1.58-3.2,2.32-4.77,2.32c-1.22,0-2.57-0.43-4.26-1.36c-1.21-0.67-2.43-1.35-3.64-2.04c-5.21-2.94-10.59-5.97-16.3-7.75
	c-13.06-4.07-18.03-12.2-15.63-25.59c0.42-2.34,0.03-5.7-1.52-7.58c-4.57-5.54-9.42-10.93-14.56-16.64
	c-1.92-2.13-3.89-4.32-5.92-6.6l-0.58-0.65l-32.38,28.2l-0.01,0.01l0.52,0.66c0.74,0.94,0.92,1.29,0.99,1.43
	c0.04,0.09,0.09,0.18,0.18,0.29c1.59,1.93,3.17,3.87,4.75,5.81c4.09,5.02,8.31,10.2,12.66,15.15c2.35,2.68,2.69,5.01,1.21,8.31
	c-1.67,3.74-3.13,7.46-4.67,11.41c-0.65,1.65-1.3,3.32-1.97,4.99l-0.27,0.67l10.15,6.63c11.08,7.25,22.55,14.74,33.84,21.97
	c1.61,1.03,3.88,1.12,5.88,1.12c18.56,0.02,37.12,0.04,55.69,0.04c28.11,0,52.78-0.04,75.4-0.12c1.99,0,5.98-1.41,6.45-3.4
	c0.23-0.99,0.74-2,1.28-3.08c1.42-2.82,3.18-6.33-0.79-10.08C231.94,249.82,226.97,244.77,222.16,239.89z"/>
<path class="st0" d="M247.62,213.81l-0.47-0.86l-24.85,17.39l0.77,0.74c1.85,1.78,3.63,3.57,5.34,5.3
	c3.85,3.87,7.48,7.53,11.53,10.77c7.84,6.25,9.3,12.1,4.9,19.56c-0.4,0.67-0.45,1.43-0.51,2.24c-0.02,0.34-0.05,0.7-0.11,1.08
	l-0.16,1.01h19.23l-0.04-0.92C262.26,249.73,257.14,231.31,247.62,213.81z"/>
<path d="M270.47,271.36c-0.57-8.18-1.22-16.18-2.88-24.02c-7.02-33.08-24.33-60.26-51.48-80.79c-2.88-2.18-4.26-3.95-4.34-5.57
	c-0.31-6.27-0.26-12.64-0.22-18.79c0.02-2.19,0.03-4.38,0.03-6.56v-0.74l0.73-0.12c0.31-0.05,0.55-0.1,0.75-0.15
	c0.3-0.07,0.57-0.13,0.84-0.13c0.13,0,0.25,0.01,0.37,0.04c0.97,0.22,1.94,0.46,2.91,0.71c0.86,0.22,1.72,0.44,2.59,0.64
	c5.28,1.22,10.56,1.84,15.7,1.84c8.77,0,17.49-1.81,25.91-5.38c3.58-1.51,4.91-3.58,4.75-7.39c-0.2-4.76-0.15-9.61-0.11-14.29
	c0.02-2.24,0.04-4.49,0.04-6.73c-0.02-6.28-1.49-6.8-3-6.8c-1.14,0-2.75,0.45-4.93,1.37c-7.42,3.14-15.11,4.73-22.84,4.73
	c-5.4,0-10.97-0.78-16.54-2.31c-4.78-1.31-7.69-3.31-7.45-9.23c0.1-2.3-0.94-4.69-2.03-7.22c-0.4-0.93-0.82-1.88-1.17-2.84
	l-1.29,0.1c-0.26,1.39-0.57,2.77-0.87,4.12c-0.74,3.34-1.51,6.8-1.56,10.16c-0.22,14.52-0.19,28.83-0.15,43.98
	c0.02,5.62,0.03,11.29,0.03,17.04v1.51l-1.31-0.75c-19.26-10.97-39.81-16.94-62.83-18.24l-0.83-0.05V52.27l3.39,0.83
	c1.48,0.36,2.81,0.69,4.14,0.99c5.43,1.24,10.82,1.86,16.04,1.86c8.73,0,17.35-1.75,25.62-5.21c3.85-1.61,5.21-3.71,5.02-7.75
	c-0.21-4.35-0.16-8.77-0.11-13.05c0.03-2.28,0.05-4.56,0.04-6.84c-0.03-6.51-0.99-7.7-2.87-7.7c-1.24,0-3.04,0.51-5.86,1.66
	c-7.46,3.04-14.93,4.58-22.19,4.58c-6.31,0-12.63-1.17-18.79-3.46c-1.76-0.66-4.01-2.03-4.54-3.74c-1.12-3.61-1.93-7.36-2.71-10.98
	c-0.25-1.16-0.5-2.31-0.76-3.46h-1.06c-3.26,5.88-3.17,12.18-3.07,18.85c0.01,1.12,0.03,2.23,0.03,3.35
	c-0.01,27.66,0,55.32,0.01,82.98v34.32l-0.83,0.05c-37.46,2.12-68.37,16.2-94.49,43.06l-1.51,1.55v-77.39l3.53,0.85
	c1.59,0.38,3.05,0.73,4.51,1.09c5.11,1.26,10.27,1.9,15.35,1.9c8.68,0,17.5-1.87,26.22-5.56c3.46-1.46,4.76-3.39,4.64-6.9
	c-0.16-4.7-0.12-9.48-0.08-14.1c0.02-2.49,0.03-4.99,0.03-7.48c-0.02-6.16-1.4-6.67-2.94-6.67c-1.17,0-2.78,0.45-5.07,1.4
	c-7.59,3.16-15.23,4.76-22.71,4.76c-6.48,0-13-1.21-19.35-3.58c-2.18-0.81-3.7-3.9-4.26-5.59c-1.01-3.07-1.73-6.26-2.43-9.35
	c-0.24-1.04-0.47-2.09-0.72-3.14h-1.29c-0.31,1.18-0.68,2.36-1.04,3.51c-0.93,3-1.81,5.82-1.83,8.67
	c-0.12,20.67-0.14,41.69-0.15,62.02c-0.01,19.28-0.02,39.21-0.13,58.82c-0.02,3.62-1.29,7.75-3.33,10.79
	C8.73,220.57,0.76,245.28,0.02,271.65c-0.08,3.03,0.04,4.96,0.91,5.86c0.88,0.9,2.87,1.08,6.01,1.08c11.79,0,23.57,0,35.36,0v0
	h125.72c31.79,0,63.58,0,95.37,0c3.44,0,5.47-0.18,6.36-1.13C270.53,276.63,270.72,274.98,270.47,271.36z M211.53,121.11
	c0.19-2.93,0.15-5.91,0.11-9.07c-0.02-1.44-0.04-2.92-0.04-4.47l0,0.01v-1.21l1.15,0.38c7.75,2.52,14.99,3.75,22.46,3.75
	c7.47,0,14.78-1.26,22.36-3.86l1.16-0.4v1.23c0,1.54,0.02,3.03,0.03,4.48c0.04,3.86,0.08,7.51-0.18,11.13
	c-0.12,1.65-2.32,3.34-3.8,3.88c-6.5,2.36-13.35,3.55-19.68,3.55c-6.33,0-12.77-1.12-19.15-3.31
	C213.5,126.36,211.28,125.04,211.53,121.11z M138.9,39.4c0.18-2.93,0.14-5.91,0.1-9.07c-0.02-1.43-0.04-2.91-0.04-4.45v-1.2
	l1.15,0.36c7.78,2.47,15.22,3.67,22.67,3.67c7.45,0,14.71-1.19,22.19-3.64l1.15-0.38c0,0,0,6.79,0,8.14
	c0.03,12.14-0.32,12.56-12.28,14.83c-3.71,0.7-7.45,1.06-11.13,1.06c-6.43,0-12.95-1.1-19.38-3.26
	C140.89,44.64,138.66,43.34,138.9,39.4z M76.67,161.48c16.36-9.36,36.37-14.31,57.85-14.31l0.01,0.01
	c32.18,0,63.26,11.31,83.14,30.26l0.79,0.75l-0.9,0.61c-1.5,1.02-2.98,2.12-4.41,3.18c-5.97,4.42-12.14,9-20.84,9
	c-3.91,0.01-7.93,0.62-11.81,1.21c-2.55,0.39-5.19,0.79-7.8,1.02c-4.93,0.44-9.05,2.33-12.95,5.95c-4.83,4.48-9.88,8.87-14.77,13.12
	c-3.67,3.19-7.46,6.49-11.13,9.8c-1.6,1.45-2.97,2.09-4.44,2.09c-1.06,0-2.16-0.33-3.46-1.03c-7.88-4.24-15.86-8.24-23.73-11.9
	c-3.44-1.6-4.7-3.76-4.09-7.02c2.21-11.79-1.6-21.48-11.97-30.49c-2.45-2.12-4.49-4.62-6.65-7.26c-0.98-1.2-2-2.44-3.06-3.65
	l-0.71-0.81L76.67,161.48z M34.53,84.7c0.01-1.42,0.02-2.88,0.02-4.38v-1.19l1.15,0.37c7.89,2.54,15.1,3.77,22.59,3.77
	c7.49,0,14.75-1.29,22.2-3.95l1.17-0.42v1.25c0,1.52,0.02,2.99,0.02,4.42c0.02,3.94,0.04,7.66-0.13,11.34
	c-0.06,1.33-1.59,2.94-2.86,3.43c-6.77,2.62-13.78,3.95-20.54,3.95s-13.62-1.3-20.4-3.85c-1.33-0.5-2.99-2.33-3.08-3.85
	C34.47,92.04,34.5,88.48,34.53,84.7z M7.33,270.98l0.04-0.92c1.21-25.62,8.93-48.23,23.62-69.14l0.02-0.02l0.66-0.93l0.74,0.87
	c1.37,1.63,2.71,3.22,4.04,4.78c3.92,4.63,7.63,9,11.19,13.53c1.08,1.39,0.73,4.06,0.25,5.42c-1.51,4.3-3.37,9.35-5.7,14.27
	c-2.01,4.24-1.25,6.63,2.89,9.12c7.01,4.22,13.99,8.76,20.73,13.16c2.48,1.62,4.95,3.24,7.44,4.84c0.89,0.58,1.74,1.2,2.82,1.99
	c0.58,0.42,1.22,0.9,1.98,1.44l2.22,1.59H7.33z M237.79,264.68c-0.54,1.08-1.05,2.09-1.28,3.08c-0.47,1.99-4.46,3.4-6.45,3.4
	c-22.62,0.08-47.29,0.12-75.4,0.12c-18.57,0-37.13-0.02-55.69-0.04c-2,0-4.27-0.09-5.88-1.12c-11.29-7.23-22.76-14.72-33.84-21.97
	l-10.15-6.63l0.27-0.67c0.67-1.67,1.32-3.34,1.97-4.99c1.54-3.95,3-7.67,4.67-11.41c1.48-3.3,1.14-5.63-1.21-8.31
	c-4.35-4.95-8.57-10.13-12.66-15.15c-1.58-1.94-3.16-3.88-4.75-5.81c-0.09-0.11-0.14-0.2-0.18-0.29c-0.07-0.14-0.25-0.49-0.99-1.43
	l-0.52-0.66l0.01-0.01l32.38-28.2l0.58,0.65c2.03,2.28,4,4.47,5.92,6.6c5.14,5.71,9.99,11.1,14.56,16.64
	c1.55,1.88,1.94,5.24,1.52,7.58c-2.4,13.39,2.57,21.52,15.63,25.59c5.71,1.78,11.09,4.81,16.3,7.75c1.21,0.69,2.43,1.37,3.64,2.04
	c1.69,0.93,3.04,1.36,4.26,1.36c1.57,0,3.08-0.74,4.77-2.32c3.08-2.88,6.38-5.63,9.57-8.29c4.38-3.65,8.92-7.42,12.89-11.57
	c7.07-7.38,15.38-11.01,26.15-11.4c2.62-0.1,5.3-0.44,7.89-0.77c1.64-0.21,3.34-0.43,5.02-0.58c5.94-0.55,10.57-2.31,14.55-5.54
	c2.62-2.12,5.46-4.02,8.47-6.04c1.41-0.94,2.88-1.92,4.4-2.98l0.67-0.46l19.14,23.3l-9.24,6.5c-5.95,4.19-11.7,8.23-17.44,12.29
	c-2.77,1.95-3.94,3.2-4.04,4.31c-0.09,1.11,0.84,2.54,3.23,4.94c1.88,1.89,3.75,3.8,5.63,5.7c4.81,4.88,9.78,9.93,14.84,14.71
	C240.97,258.35,239.21,261.86,237.79,264.68z M244.06,271.04l0.16-1.01c0.06-0.38,0.09-0.74,0.11-1.08
	c0.06-0.81,0.11-1.57,0.51-2.24c4.4-7.46,2.94-13.31-4.9-19.56c-4.05-3.24-7.68-6.9-11.53-10.77c-1.71-1.73-3.49-3.52-5.34-5.3
	l-0.77-0.74l24.85-17.39l0.47,0.86c9.52,17.5,14.64,35.92,15.63,56.31l0.04,0.92H244.06z"/>
</svg>
