<?xml version="1.0" encoding="UTF-8"?>
<svg id="Layer_1" data-name="Layer 1" xmlns="http://www.w3.org/2000/svg" baseProfile="tiny" version="1.2" viewBox="0 0 274.1 267.9">
  <g>
    <g>
      <path d="M223.7,41.8h-65.2c-2.7,0-4.4.4-5.6,3.3-1.1,2.6-3.3,4.8-5.5,6.7-1.7,1.4-2.3,2.6-2.3,4.7v41.8c0,2.3-.7,3.4-2.8,4.9-4,2.8-7.3,6.6-10.8,10-.7.6-1.1,1.5-1.7,2.2-.3,0-.6-.2-.9-.3v-57.8c0-2.4-.5-3.9-2.6-5.6-2.4-1.9-3.9-4.9-5.9-7.3-.8-1-2.1-2.3-3.2-2.3-21.7,0-43.4,0-65.1,0s-.9,0-1.6.2c0,.7.2,1.4.4,2,12.7,36,25.6,60.9,37.9,97,1.4,4.1,0,9.6-1.2,14.1-6.1,20.8-26.6,33.8-48.3,31.4C18.2,184,1.5,166.6,0,145.2c-.2-2.9,1-6,2-8.8,12.1-34.4,24.3-57.8,36.4-92.3.2-.6.3-1.3.6-2.4h-16.5c-2.6,0-4.9-1.4-4.7-4.2.1-1.8,1.5-3.7,2.8-5s2.7-.5,4.1-.5h90.9c2.7,0,4.2-.5,5.8-3.2,1.9-3.1,5.2-5.6,8.3-7.8,1.5-1.1,2.4-1.8,2.4-3.8-.1-3.9,0-7.8,0-11.7,0-3.4,1.9-5.5,4.9-5.5s4.8,2.1,4.8,5.7.1,7.8,0,11.7c0,1.9.6,2.9,2.4,3.7,4,1.6,7,4.4,8.7,8.4,1,2.3,2.3,2.7,4.6,2.7h93c3.7,0,5.7,1.7,5.8,4.7,0,3.1-2,4.9-5.9,5h-15.7c2.1,6.1,4,11.7,6,17.4,10.8,30.6,21.6,50.3,32.5,80.9,1.9,5.3.4,10.3-1.2,15.2-6.5,20.8-26.3,33.6-48,31.3-21-2.2-37.8-19.5-39.7-41-.1-1.6.1-3.3.6-4.8,12.5-35.5,25.1-60.1,37.6-95.6.3-.9.6-1.8,1.1-3.3v-.2ZM83.7,141.8c-12.9-36.6-25.7-61.9-38.5-98.2h-.9c-12.8,36.3-25.6,61.6-38.5,98.2h77.9ZM268.2,141.9c-13-36.8-25.8-62.1-38.6-98.4-.3,0-.5,0-.8,0-12.8,36.3-25.6,61.7-38.5,98.3h77.9Z" fill="#000" stroke-width="0"/>
      <path d="M162.1,150.6c-2,1.8-4.3,3.8-6.7,5.9.9,1,1.4,1.8,2,2.4,20.6,20.7,41.2,41.4,61.8,62.2,4.2,4.2,4.2,10.5.2,15s-10.5,5.3-14.8,1.2c-10.4-9.9-20.7-20-30.9-30.1-10.3-10.2-20.6-20.4-30.9-30.6-1.1-1.1-1.8-2.5-2.8-3.9-3,2.8-5.2,4.9-7.3,6.9-8.2-8.2-16.3-16.2-24.5-24.4,10-9.6,20-19.3,30.1-29,7.4,7.6,15.5,15.9,23.9,24.5h-.1Z" fill="#73482c" stroke-width="0"/>
      <path d="M100.7,156.9c9.8,10,19.6,20,29.5,30.2-4,5.7-7.1,6.1-12.4,1.1-6.3-6.1-12.6-12.3-18.7-18.7-4.9-5-4.4-8.2,1.6-12.6Z" fill="#442510" stroke-width="0"/>
      <path d="M168.8,148.3c-10-10-19.9-19.9-29.8-29.7,3.7-5.5,7.4-6.1,12.3-1.5,6.7,6.4,13.2,13.1,19.7,19.8,4,4.1,3.3,7.1-2.1,11.5h0Z" fill="#442510" stroke-width="0"/>
    </g>
    <path d="M145,189.6v39.9h-16v-28.3l12.7-12.9c1.2-1.2,3.3-.4,3.3,1.4h0Z" fill="#000" stroke-width="0"/>
    <path d="M107.9,234.7h58.3c4.5,0,8.2,3.7,8.2,8.2v6h-74.7v-6c0-4.5,3.7-8.2,8.2-8.2Z" fill="#000" stroke-width="0"/>
    <path d="M91.5,253.7h91.1c4.5,0,8.2,3.7,8.2,8.2v6h-107.5v-6c0-4.5,3.7-8.2,8.2-8.2Z" fill="#000" stroke-width="0"/>
  </g>
  <circle cx="137" cy="37.4" r="9.7" fill="#fff" stroke-width="0"/>
</svg>