<?xml version="1.0" encoding="UTF-8"?>
<svg id="Layer_1" data-name="Layer 1" xmlns="http://www.w3.org/2000/svg" baseProfile="tiny" version="1.2" viewBox="0 0 274.5 274.5">
  <g>
    <path d="M137.2,3C63.1,3,3,63.1,3,137.2s60.1,134.2,134.2,134.2,134.2-60.1,134.2-134.2S211.3,3,137.2,3ZM137.2,255.3c-65.2,0-118.1-52.9-118.1-118.1S72,19.1,137.2,19.1s118.1,52.9,118.1,118.1-52.9,118.1-118.1,118.1Z" fill="#000" stroke-width="0"/>
    <path d="M137.2,3C63.1,3,3,63.1,3,137.2s60.1,134.2,134.2,134.2,134.2-60.1,134.2-134.2S211.3,3,137.2,3ZM137.2,255.3c-65.2,0-118.1-52.9-118.1-118.1S72,19.1,137.2,19.1s118.1,52.9,118.1,118.1-52.9,118.1-118.1,118.1Z" fill="none" stroke="#000" stroke-miterlimit="10" stroke-width="2"/>
  </g>
  <path d="M151.1,179.5h-29.8c0-4.3,0-6.9,0-7.8,0-9.6,1.6-17.6,4.8-23.8s9.6-13.2,19.1-21c9.6-7.8,15.3-12.9,17.2-15.3,2.9-3.8,4.3-8,4.3-12.6s-2.5-11.8-7.6-16.4-12-6.8-20.6-6.8-15.3,2.4-20.9,7.1-9.5,12-11.6,21.7l-30.1-3.7c.9-13.9,6.8-25.7,17.8-35.5,11-9.7,25.5-14.6,43.4-14.6s33.8,4.9,44.9,14.8c11.1,9.8,16.7,21.3,16.7,34.4s-2,14.1-6.1,20.5c-4.1,6.5-12.8,15.2-26.2,26.4-6.9,5.8-11.2,10.4-12.9,13.9s-2.4,9.8-2.3,18.8h0ZM121.4,223.7v-32.8h32.8v32.8s-32.8,0-32.8,0Z" fill="#c27a7a" stroke-width="0"/>
</svg>