<?xml version="1.0" encoding="UTF-8"?>
<svg id="Layer_1" data-name="Layer 1" xmlns="http://www.w3.org/2000/svg" version="1.1" viewBox="0 0 257 256.97">
  <defs>
    <style>
      .cls-1 {
        fill: #000;
      }

      .cls-1, .cls-2, .cls-3 {
        stroke-width: 0px;
      }

      .cls-2 {
        fill: #fff;
      }

      .cls-3 {
        fill: #009444;
      }
    </style>
  </defs>
  <path class="cls-2" d="M123.16,256.97c-6.09,0-12.12-1.44-17.91-4.28-9.66-4.74-19.34-9.88-28.69-14.85l-2.55-1.35c-5.98-3.17-10.58-4.59-14.93-4.59-.25,0-.5,0-.76.01l-1.08.04-.28,1.04c-1.37,5.08-1.43,5.13-6.84,5.13,0,0-12.42,0-12.42,0l-.15,2.74c-.04.86-.09,1.67-.15,2.47-.22,3-1.29,4.13-3.96,4.17-4.41.06-8.89.09-13.31.09-5.4,0-10.89-.05-16.3-.14-2.67-.05-3.81-1.28-3.81-4.14-.03-22.49-.03-42.98,0-62.67,0-2.67.89-4.32,5.25-4.32h.95c6.34,0,12.68,0,19.02.01,0,0,11.75.01,11.75.01,1.21,0,2.3-.01,3.4-.02,1.09-.01,2.18-.02,3.27-.02,1.65,0,3.01.03,4.26.08.13,0,.25,0,.37,0,2.12,0,3.65-.81,5.09-2.72,6.4-8.43,13.43-13.38,21.5-15.16,3.18-.7,6.32-1.05,9.32-1.05,10.33,0,19.69,4.17,27.82,12.4,1.37,1.38,3.04,2.47,4.71,3.05,13.15,4.59,24.06,8.31,34.34,11.71,7.92,2.61,12.88,7.06,15.6,13.98l.47,1.21,2.84-.73c1.1-.28,2.2-.56,3.29-.86,3.46-.96,6.92-1.94,10.38-2.91,7.61-2.15,15.47-4.37,23.25-6.35,2.43-.62,4.73-.93,6.85-.93,5.3,0,9.59,1.88,13.13,5.76,3.78,4.14,5.6,9.21,5.14,14.3-.49,5.33-3.42,10.28-8.26,13.94-2.25,1.7-4.73,3.07-7.18,3.96-11.3,4.1-22.62,8.15-33.93,12.21-14.4,5.16-29.3,10.49-43.91,15.84-5.3,1.94-10.54,2.92-15.58,2.92ZM115.31,160.22c-1.14,0-2.48-.83-4.34-2.69l-4.59-4.59c-29.52-29.53-59.04-59.07-88.53-88.62-.95-.95-2.02-2.03-2.44-3.1-.59-1.52-.07-2.86,1.85-4.78,12.13-12.11,24.25-24.23,36.37-36.35l10.49-10.5,2.33-2.34c1.8-1.82,3.61-3.63,5.44-5.42,1.27-1.24,2.38-1.84,3.37-1.84s2.14.63,3.43,1.92l2.4,2.39c4.02,4,8.18,8.15,12.17,12.3,1.09,1.14,2.19,1.67,3.46,1.67.65,0,1.33-.14,2.14-.44,3.33-1.24,6.68-2.43,10.03-3.62,3.41-1.21,6.94-2.46,10.39-3.75,4.85-1.81,9.74-2.73,14.52-2.73,5.85,0,11.68,1.37,17.33,4.06,8.52,4.07,17.03,8.59,25.25,12.97,2.23,1.19,4.47,2.38,6.7,3.56,4.2,2.22,9.33,4.51,15.51,4.67l1.19.03.27-1.16c1.15-4.93,1.52-5.22,6.52-5.23.86,0,1.71-.01,2.56-.02.92-.01,1.83-.02,2.75-.02,1.38,0,2.51.02,3.57.08.16,0,.31.01.46.01.83,0,2.03-.1,2.88-1.01.88-.94.9-2.23.84-3.12-.14-2.12.16-2.71.29-2.87,1.12-1.29,2.53-2.24,3.37-2.26,4.67-.11,9.76-.17,15.58-.17,4.85,0,9.71.04,14.56.08,2.9.02,3.53,2.26,3.55,4.14.04,4.42.03,8.83.02,13.25v5.42s0,42.73,0,42.73c0,4.51-1.09,5.61-5.57,5.61h-19.02c-7.81,0-15.63,0-23.44-.05h0c-2.34,0-3.94.81-5.4,2.72-6.65,8.67-14.33,13.78-23.48,15.63-1.8.36-3.57.55-5.26.55-.49,0-.97-.02-1.45-.05-.22-.01-.43-.02-.63-.02-2.01,0-3.61.71-5.19,2.3-12.05,12.12-24.14,24.21-36.23,36.3l-11.67,11.68c-1.87,1.87-3.21,2.7-4.35,2.7Z"/>
  <path class="cls-1" d="M115.31,160.22c-1.14,0-2.48-.83-4.34-2.69l-4.65-4.65c-29.5-29.51-58.99-59.03-88.47-88.56-.95-.95-2.02-2.03-2.44-3.1-.59-1.52-.07-2.86,1.85-4.78,12.13-12.11,24.25-24.23,36.36-36.35l10.5-10.5,2.33-2.34c1.8-1.82,3.61-3.63,5.44-5.42,1.27-1.24,2.38-1.84,3.37-1.84s2.14.63,3.43,1.92l2.4,2.39c4.02,4,8.18,8.15,12.17,12.3,1.09,1.14,2.19,1.67,3.46,1.67.65,0,1.33-.14,2.14-.44,3.33-1.24,6.68-2.43,10.03-3.62,3.41-1.21,6.94-2.46,10.39-3.75,4.85-1.81,9.74-2.73,14.52-2.73,5.85,0,11.68,1.37,17.33,4.06,8.52,4.07,17.03,8.59,25.25,12.97,2.23,1.19,4.47,2.38,6.7,3.56,4.2,2.22,9.33,4.51,15.51,4.67l1.19.03.27-1.16c1.15-4.93,1.52-5.22,6.52-5.23.85,0,1.71-.01,2.56-.02.92-.01,1.83-.02,2.75-.02,1.38,0,2.51.02,3.57.08.16,0,.31.01.46.01.83,0,2.03-.1,2.88-1.01.88-.94.9-2.23.84-3.12-.14-2.12.16-2.71.29-2.87,1.12-1.29,2.53-2.24,3.37-2.26,4.67-.11,9.77-.17,15.58-.17,4.85,0,9.71.04,14.56.08,2.9.02,3.53,2.26,3.55,4.14.04,4.42.03,8.83.02,13.25v5.42s0,42.73,0,42.73c0,4.51-1.09,5.61-5.57,5.61h-19.02c-7.81,0-15.62,0-23.44-.05h0c-2.34,0-3.94.81-5.4,2.72-6.65,8.67-14.33,13.78-23.48,15.63-1.8.36-3.57.55-5.26.55-.49,0-.97-.02-1.45-.05-.22-.01-.43-.02-.63-.02-2.01,0-3.61.71-5.19,2.3-12.06,12.12-24.15,24.22-36.23,36.31l-11.66,11.67c-1.87,1.87-3.21,2.7-4.35,2.7ZM115.4,133.27c-3.98,0-8.01,1.1-12.01,3.28l-1.71.93,13.35,13.53,13.54-13.72-1.7-.93c-3.75-2.05-7.61-3.09-11.47-3.09ZM114.84,126.06c2.68,0,5.45.39,8.21,1.16,2.52.7,4.96,1.8,7.33,2.87,1.08.48,2.13.96,3.16,1.39l.9.37,12.97-12.89-.66-1c-4.73-7.2-6.47-14.89-5.16-22.86.19-1.17-.6-2.96-1.79-3.4-4.19-1.5-8.49-2.95-12.66-4.36l-4.71-1.59-1.47,4c-3.66,10.12-13.69,17.46-24.4,17.84-.35.01-.7.02-1.04.02-13.78,0-25.31-9.81-27.42-23.34-2.13-13.68,6.61-26.87,20.33-30.68,1.41-.39,2.9-1.5,3.71-2.76,2.64-4.1,6.23-6.8,11-8.26.41-.12.82-.27,1.36-.46l3.23-1.12-1.7-1.66c-.99-.96-1.95-1.9-2.89-2.81-2.27-2.2-4.42-4.29-6.5-6.43-.58-.59-1.49-1.38-2.78-1.38-.71,0-1.43.23-2.28.74-5.44,3.22-10.95,4.85-16.37,4.85s-11.01-1.65-16.48-4.92c-.81-.48-1.51-.71-2.19-.71-1.25,0-2.12.76-2.67,1.33-3.11,3.25-5.94,6.06-8.64,8.61-2.12,2-1.51,3.79-.64,5.28,6.32,10.72,6.34,21.63.04,32.42-1.25,2.15-1.06,3.72.66,5.44,15.99,15.9,32.24,32.14,48.3,48.28.78.78,1.76,1.59,3.11,1.59.79,0,1.6-.28,2.54-.87,4.93-3.11,10.16-4.68,15.57-4.68ZM147.82,101.29l3.94,12.15,9.54-7.55-10.98-5.84-2.5,1.24ZM87.54,61.64c-9.12,3.98-14.25,13.9-11.92,23.08,2.37,9.34,10.25,15.62,19.61,15.62.6,0,1.21-.03,1.82-.08,8.93-.76,17.01-8.12,17.66-16.08l.1-1.19-1.15-.33c-12.25-3.54-21.8-7.25-24.08-19.94l-.33-1.83-1.7.74ZM107.92,49.16c-3.98,0-7.57,2.06-9.63,5.52-2.78,4.68-1.93,10.44,2.05,14,2.05,1.83,4.69,3.38,7.44,4.35,6.17,2.19,12.46,4.33,18.55,6.41,6.03,2.06,12.27,4.18,18.38,6.35,1.67.59,3.42,1.8,4.68,3.23,6.44,7.36,14.54,11.09,24.06,11.09.79,0,1.59-.03,2.4-.08,12.26-.79,19.48-9.43,23.85-15.86.46-.67.72-1.58.72-2.5.03-13.58.04-25.82-.06-38.14-.01-1.42-1.67-3.21-3.06-3.31-7.91-.57-14.78-4.01-21.15-7.48-8.1-4.42-17.08-9.03-28.26-14.5-4.5-2.2-8.94-3.32-13.2-3.32-1.66,0-3.3.17-4.9.51-4.39.93-8.72,2.36-12.9,3.74-1.36.45-2.71.9-4.07,1.33-2.07.66-4.09,1.4-6.23,2.19-.96.35-1.95.72-2.96,1.08l-2.06.74,1.47,1.62.71.79c.42.47.76.86,1.12,1.22,1.26,1.27,2.52,2.54,3.78,3.81,3.61,3.64,7.33,7.41,11.12,11.01,1.63,1.55,3.77,2.84,5.87,3.54,7.41,2.45,14.97,4.84,22.28,7.14,2.96.93,5.92,1.87,8.87,2.81,2.16.69,3.59,1.62,4.15,2.71.36.7.38,1.51.07,2.48-.51,1.57-1.52,2.28-3.27,2.28-.91,0-1.99-.2-3.22-.59l-12.9-4.09c-10.04-3.19-20.08-6.37-30.14-9.51-1.18-.37-2.39-.56-3.59-.56ZM207.83,81.17h11.75v-15.1c0-9.42,0-18.83-.02-28.25,0-.14.01-.28.02-.43.05-.72.14-1.8-.63-2.64-.5-.55-1.23-.84-2.16-.85-.98-.02-1.95-.02-2.94-.02h-6.02v47.29ZM230.81,24.39c-.96,0-2.17.11-3.04.99-.9.91-1.02,2.2-1.01,3.34.07,11.61.07,23.42.06,34.84,0,4.49,0,8.98,0,13.48,0,.59.04,1.18.09,1.81.02.28.04.56.06.86l.08,1.38h22.59V24.45h-1.46c-1.69,0-3.37,0-5.03.02-1.63,0-3.24.02-4.84.02-2.81,0-5.09-.03-7.18-.08h-.31ZM24.25,60.18l13.3,13.05,1.02-1.22c4.76-5.69,4.77-17.89.03-23.74l-1.02-1.25-13.33,13.16ZM62.13,22.79l1.45,1c3.06,2.09,7.43,3.29,11.98,3.29,4.92,0,9.17-1.38,11.64-3.77l1.06-1.03-12.71-12.95-13.43,13.46Z"/>
  <path class="cls-1" d="M123.16,256.97c-6.09,0-12.12-1.44-17.91-4.28-9.66-4.74-19.34-9.88-28.69-14.85l-2.55-1.36c-5.98-3.17-10.58-4.59-14.93-4.59-.25,0-.5,0-.76.01l-1.08.04-.28,1.04c-1.37,5.08-1.43,5.13-6.84,5.13h-12.42s-.15,2.74-.15,2.74c-.04.86-.09,1.67-.15,2.47-.22,3-1.29,4.13-3.96,4.17-4.41.06-8.89.09-13.31.09-5.4,0-10.89-.05-16.3-.14-2.67-.05-3.81-1.28-3.81-4.14-.03-22.49-.03-42.99,0-62.67,0-2.67.89-4.32,5.25-4.32h.95c6.33,0,12.67,0,19.01.01,0,0,11.76.01,11.76.01,1.21,0,2.31-.01,3.4-.02,1.09-.01,2.18-.02,3.27-.02,1.65,0,3.01.03,4.26.08.13,0,.25,0,.37,0,2.12,0,3.65-.81,5.09-2.72,6.4-8.43,13.43-13.38,21.5-15.16,3.18-.7,6.32-1.05,9.32-1.05,10.33,0,19.69,4.17,27.82,12.4,1.37,1.38,3.04,2.47,4.71,3.05,13.14,4.59,24.06,8.31,34.34,11.71,7.92,2.61,12.88,7.06,15.6,13.99l.47,1.21,2.84-.73c1.1-.28,2.2-.56,3.29-.86,3.46-.96,6.92-1.94,10.38-2.91,7.61-2.15,15.47-4.37,23.25-6.35,2.43-.62,4.73-.93,6.85-.93,5.3,0,9.59,1.88,13.13,5.76,3.78,4.14,5.6,9.21,5.14,14.3-.49,5.33-3.42,10.28-8.26,13.94-2.25,1.7-4.73,3.07-7.18,3.96-11.3,4.1-22.62,8.15-33.93,12.21-14.4,5.16-29.3,10.49-43.91,15.84-5.3,1.94-10.54,2.92-15.58,2.92ZM83.71,164.65c-1.06,0-2.16.05-3.25.15-11.97,1.08-18.97,9.62-23.19,15.96-.67,1.01-.68,2.28-.68,3.31v.2c-.03,4.85-.02,9.69-.02,14.54,0,0,0,6.75.01,8.43.01,4.29.03,8.73-.05,13.08-.03,1.91.37,4.13,3.83,4.38,7.09.49,13.39,3.46,18.62,6.29,10.87,5.88,20.69,10.95,30.04,15.49,4.64,2.26,9.45,3.4,14.28,3.4,3.58,0,7.19-.63,10.72-1.89,27.55-9.78,54.34-19.42,79.63-28.64,2.48-.91,5.06-2.55,7.88-5.03,2.71-2.39,3.78-5.87,3.01-9.81-1.12-5.76-5.29-9.19-11.14-9.19-1.42,0-2.92.21-4.46.62-12.63,3.39-25.71,7-38.87,10.74-1.58.45-2.94,2.03-3.43,3.29-3.13,8.14-9.49,12.81-17.44,12.81-2.19,0-4.47-.37-6.77-1.09-14.06-4.43-28.11-8.87-42.16-13.33-.95-.3-2.03-.68-2.93-1.25-1.23-.77-1.72-1.87-1.48-3.36.25-1.61,1.01-2.52,2.24-2.71.35-.05.72-.08,1.11-.08.89,0,1.81.14,2.68.4,6.09,1.86,12.26,3.82,18.23,5.71,0,0,9.84,3.13,11.84,3.76,4.34,1.39,8.82,2.82,13.26,4.17,1.26.39,2.54.58,3.8.58,4.08,0,7.6-2,9.67-5.49,2.89-4.88,1.92-10.66-2.41-14.37-1.97-1.69-4.49-3.1-7.29-4.09-5.69-2-11.5-3.97-17.12-5.87-6.33-2.15-12.88-4.37-19.29-6.64-1.77-.63-3.68-1.95-5.1-3.53-6.53-7.26-14.53-10.95-23.78-10.95ZM7.36,240.39h17.98c4.16,0,4.84-.67,4.84-4.74v-44.48c0-7.01-.63-7.65-7.55-7.65H7.36v56.88ZM37.42,222.08c0,6.16,0,8.98,5.4,8.98h0c1.09,0,2.44-.09,4.13-.21.33-.02.6-.11.84-.18l.28-.08,1.09-.29v-46.59h-11.75v38.37Z"/>
  <path class="cls-2" d="M173.44,97.18c-8.64,0-15.99-3.39-21.85-10.09-1.59-1.82-3.74-3.3-5.9-4.07-6.12-2.17-12.37-4.3-18.41-6.36-6.08-2.07-12.36-4.21-18.51-6.39-2.4-.85-4.69-2.19-6.47-3.77-2.93-2.61-3.54-6.86-1.49-10.32,1.52-2.56,4.18-4.09,7.11-4.09.9,0,1.81.14,2.71.42,10.05,3.14,20.09,6.32,30.12,9.51l12.9,4.09c1.51.48,2.89.72,4.1.72,3.01,0,5.16-1.53,6.06-4.3.56-1.72.47-3.31-.25-4.72-.94-1.82-2.91-3.22-5.87-4.16-2.96-.94-5.92-1.87-8.88-2.81-7.3-2.3-14.85-4.68-22.24-7.13-1.7-.56-3.44-1.61-4.78-2.88-3.75-3.57-7.47-7.32-11.06-10.94-1.26-1.27-2.52-2.55-3.79-3.82-.09-.1-.19-.19-.28-.29.32-.12.63-.23.94-.35,2.1-.77,4.09-1.51,6.1-2.15,1.37-.43,2.73-.89,4.1-1.34,4.1-1.36,8.35-2.76,12.58-3.66,1.39-.3,2.84-.45,4.29-.45,3.81,0,7.82,1.02,11.91,3.02,11.14,5.45,20.08,10.04,28.14,14.44,6.61,3.6,13.76,7.18,22.19,7.82.16.11.41.38.5.55.1,12.26.08,24.46.06,37.98,0,.36-.11.71-.22.86-6.48,9.54-13.14,14.04-21.61,14.58-.75.05-1.49.07-2.22.07ZM175.84,59.91c-3.72,0-6.44,2.66-6.48,6.33-.02,1.74.64,3.38,1.84,4.6,1.2,1.22,2.83,1.9,4.58,1.91h0c3.7,0,6.46-2.76,6.48-6.42,0-1.78-.62-3.41-1.79-4.59-1.17-1.18-2.8-1.83-4.6-1.84h-.03Z"/>
  <path class="cls-3" d="M96.73,128.69c-.21,0-.55-.24-1.03-.72-16.07-16.14-32.32-32.39-48.31-48.29-.75-.75-.8-.85-.2-1.88,6.87-11.78,6.85-23.68-.05-35.39-.59-.99-.51-1.07.12-1.66,2.74-2.58,5.61-5.44,8.75-8.72.34-.35.51-.43.55-.43.03,0,.22.01.69.3,5.94,3.54,11.99,5.33,17.98,5.33s11.96-1.77,17.86-5.26c.5-.3.72-.33.79-.33.12,0,.38.18.68.49,2.11,2.17,4.27,4.27,6.56,6.49.39.38.78.76,1.18,1.14,0,0,0,0,0,0-5.38,1.65-9.62,4.83-12.61,9.47-.43.66-1.3,1.32-2.03,1.52-15.15,4.21-24.8,18.8-22.44,33.95,2.33,14.96,15.08,25.81,30.31,25.81h0c.38,0,.76,0,1.15-.02,11.87-.42,22.99-8.55,27.05-19.76l.48-1.31,2.02.68c4.26,1.44,8.28,2.79,12.36,4.25.06.11.12.27.13.36-1.36,8.24.3,16.29,4.96,23.83l-9.9,9.84c-.72-.31-1.45-.64-2.19-.97-2.47-1.11-5.02-2.26-7.75-3.02-3.02-.84-6.05-1.27-9-1.27-5.97,0-11.73,1.73-17.13,5.14-.58.37-.86.42-.98.42Z"/>
  <path class="cls-2" d="M229.79,78.15c-.03-.38-.05-.75-.05-1.12,0-4.49,0-8.98,0-13.47,0-11.42.01-23.24-.06-34.86,0-1.04.15-1.25.16-1.26h0s.19-.13.96-.13h.23c2.12.06,4.43.09,7.26.09h0c1.61,0,3.22,0,4.85-.02,1.17,0,2.36-.01,3.55-.01v50.77h-16.92Z"/>
  <path class="cls-3" d="M95.23,97.41c-8.12,0-14.7-5.26-16.77-13.41-1.84-7.25,1.83-15.06,8.63-18.87,3.32,13.35,14.79,17.16,24.53,19.99-1.19,6.16-7.69,11.62-14.82,12.22-.53.04-1.05.07-1.57.07Z"/>
  <path class="cls-2" d="M210.76,78.24v-41.42h3.09c.95,0,1.89,0,2.83.01,0,.12-.01.24-.02.34-.02.23-.03.45-.03.66.02,9.41.02,18.83.02,28.24v12.17h-5.89Z"/>
  <path class="cls-3" d="M106.55,138.24c2.97-1.36,5.94-2.04,8.85-2.04s5.56.62,8.3,1.86l-8.67,8.78-8.48-8.6Z"/>
  <path class="cls-3" d="M28.43,60.18l8.81-8.7c2.63,4.7,2.63,12.74,0,17.34l-8.8-8.64Z"/>
  <path class="cls-3" d="M75.57,24.15c-3.24,0-6.35-.67-8.78-1.88l8.76-8.78,8.46,8.62c-2.03,1.29-5.06,2.04-8.44,2.04Z"/>
  <polygon class="cls-3" points="151.83 104.17 155.96 106.37 153.24 108.53 151.83 104.17"/>
  <path class="cls-2" d="M123.3,246.95c-4.39,0-8.76-1.05-13-3.11-9.31-4.52-19.09-9.57-29.92-15.43-5.5-2.98-12.16-6.1-19.81-6.63-1.06-.08-1.13-.08-1.1-1.41.08-4.43.06-8.93.05-13.28,0-1.63-.01-8.81-.01-8.81,0-4.66,0-9.33.02-13.99v-.21c0-.53,0-1.41.19-1.69,6.18-9.27,12.86-13.93,21.02-14.66,1.01-.09,2.01-.14,2.99-.14,8.38,0,15.65,3.36,21.6,9.98,1.77,1.96,4.06,3.54,6.3,4.34,6.42,2.28,12.98,4.5,19.33,6.65,5.61,1.9,11.41,3.87,17.09,5.86,2.42.85,4.68,2.11,6.35,3.54,3.21,2.76,3.93,7.04,1.8,10.66-1.52,2.58-4.13,4.05-7.15,4.05-.97,0-1.96-.15-2.95-.45-4.42-1.35-8.89-2.78-13.22-4.16-2-.64-11.84-3.77-11.84-3.77-5.98-1.9-12.16-3.87-18.26-5.72-1.14-.35-2.36-.53-3.53-.53-.53,0-1.06.04-1.55.11-2.53.39-4.24,2.26-4.69,5.15-.42,2.66.58,4.9,2.82,6.3,1.18.74,2.48,1.2,3.6,1.56,14.05,4.46,28.1,8.91,42.16,13.34,2.58.81,5.15,1.23,7.65,1.23,9.1,0,16.64-5.49,20.18-14.69.25-.65,1.05-1.4,1.49-1.52,13.15-3.73,26.21-7.34,38.83-10.73,1.29-.35,2.53-.52,3.7-.52,4.41,0,7.42,2.49,8.26,6.83.4,2.04.36,4.91-2.07,7.05-2.54,2.24-4.82,3.7-6.95,4.48-25.28,9.22-52.06,18.85-79.6,28.63-3.21,1.14-6.49,1.72-9.74,1.72ZM81.16,192.03c-1.77,0-3.4.66-4.58,1.86-1.18,1.19-1.84,2.83-1.84,4.6,0,3.63,2.88,6.59,6.41,6.59,3.51-.01,6.48-3.02,6.5-6.56.01-1.74-.64-3.36-1.84-4.58-1.21-1.22-2.85-1.9-4.63-1.91h-.03Z"/>
  <path class="cls-2" d="M10.29,237.46v-51.02h12.35c2.03,0,3.95,0,4.28.34.34.35.34,2.31.34,4.39v44.48c0,.66,0,1.38-.05,1.76-.38.05-1.14.05-1.87.05h-6.99s-8.07,0-8.07,0Z"/>
  <path class="cls-2" d="M42.81,228.12c-1.85,0-2-.32-2.1-.56-.36-.82-.36-2.78-.36-5.49v-35.45h5.89v41.32c-1.39.1-2.53.17-3.43.17Z"/>
  <path class="cls-1" d="M175.8,69.83c-.97,0-1.87-.38-2.52-1.04-.65-.66-1.01-1.55-1-2.51.02-2.09,1.41-3.43,3.55-3.43,1.05,0,1.93.34,2.56.97.62.62.94,1.49.94,2.51-.01,2.03-1.48,3.5-3.49,3.5h-.04Z"/>
  <path class="cls-1" d="M81.15,202.15c-1.92,0-3.48-1.64-3.48-3.66,0-1,.35-1.9.99-2.54.63-.64,1.52-.99,2.51-.99,1.01,0,1.91.37,2.57,1.04.65.65,1,1.54.99,2.5-.01,1.97-1.65,3.65-3.57,3.65h0Z"/>
</svg>