<?xml version="1.0" encoding="UTF-8"?>
<svg id="Layer_1" data-name="Layer 1" xmlns="http://www.w3.org/2000/svg" baseProfile="tiny" version="1.2" viewBox="0 0 264.8 267.1">
  <path d="M133.6,267c-.9,0-1.8,0-2.6-.1-6-.5-11.9-2.2-18.1-5.3-3.5-1.8-7.1-3.5-10.6-5.3-11.4-5.6-23.1-11.5-34.4-17.6-4.1-2.2-7.8-3.3-11.3-3.3s-7.9,1.5-11.7,4.6c-2.4,1.9-5,3.5-7.9,5.2-1,.6-2.1,1.2-3.1,1.9-1,.6-2,1-2.9,1s-2.1-.6-2.9-1.7c-1.2-1.9-.6-4,1.7-5.5,2.1-1.4,4.3-2.8,6.4-4.1,2.7-1.7,5.5-3.5,8.2-5.3,4-2.6,8.1-4,12.2-4s6.5.8,9.7,2.5c5.7,2.8,11.3,5.7,16.9,8.6,7.5,3.8,15.3,7.8,23,11.6,5.8,2.9,12,5.9,18.3,8.2,2.9,1.1,5.8,1.6,8.8,1.6,4.6,0,9.2-1.3,13.5-3.9h.1c9.9-6.1,20.2-12.3,30.1-18.7,19.3-12.4,39-25.3,60.2-39.3,4-2.6,7.5-5.9,10-8.4,1.1-1.1,4.4-4.3,2.3-8.5-1.4-2.9-4.1-4.5-7.7-4.5s-1,0-1.6.1c-5.8.7-11.4,2.9-17.7,7.1-18.5,12.1-36.9,24.2-50.9,33.4-4.3,2.9-8.9,4.3-13.4,4.4-3.9,0-7.9.1-11.7.2-4.4.1-8.9.2-13.4.2-9,0-16.2-.4-22.7-1.4-6.7-1-13.4-2.5-19.9-4l-2.7-.6c-1.2-.3-1.9-1-2.3-1.6-.5-.8-.7-1.9-.4-2.8.4-1.7,2-3,3.6-3s.5,0,.8.1c16.9,5.1,34.2,5.7,48.9,5.7s9.3,0,14.1-.2c2.9,0,6.3-.2,9.5-.8,6.4-1.4,9.4-5.7,8.2-11.7-.7-3.4-3.1-5.9-6.9-6.9-2.9-.8-6.2-1.2-9.7-1.3-8.7-.3-20.2-1-31.5-3.9-10-2.6-16.7-6.6-21.7-12.8-5.4-6.8-13.2-10.6-23.7-11.5-1.5-.1-2.9-.2-4.4-.3-.7,0-1.3,0-2-.1-1.2-.1-2.4-.2-3.6-.2-9.6,0-18,3.3-28,7.7-5.7,2.5-11.5,5.1-17.1,7.6-5,2.3-10.1,4.5-15.1,6.7-1.3.6-2.5.9-3.5.9h-.3c-1.6-.1-2.8-1.7-3-3.1-.2-1.6.7-3.2,2.5-3.9l5.6-2.5c9.2-4.2,18.8-8.5,28.2-12.6,5.5-2.4,11.2-4.8,17-6.1,5.8-1.4,11.4-2,16.7-2,9.4,0,18.2,2.2,26.2,6.5,3.9,2.1,8,5.3,12.1,9.6,3.8,3.9,7.8,6.5,12.4,7.9h.4c3.8,1.3,6.1,2,8.2,2,3.1,0,5.4-1.4,10.1-4.3,2.6-1.6,5.1-3.2,7.7-4.8,6.1-3.8,12.3-7.7,18.6-11.5,5.6-3.4,11.2-5.1,16.7-5.1s4.8.3,7.1,1c2.1.6,4.2,1.8,6.4,3.1,1.2.7,2.4,1.4,3.7,2.1.6.3,1.9.8,3.1.8s.7,0,1.1-.1c2.8-.8,5.6-1.1,8.1-1.1,6.2,0,11.4,2.2,16.2,6.7.9.8,2.2,1.1,3.2,1.1s.8,0,1.2-.1c3-.8,6.2-1.6,9.6-1.6s2.5.1,3.7.4c4.9,1,8.8,4,10.8,8.3,1.9,4.2,1.7,9.1-.7,13.3-3,5.4-7.9,9.1-11.8,11.7l-6.9,4.6c-12.1,8-24.7,16.3-37.1,24.3-9.2,6-18.7,11.9-27.9,17.7-5.6,3.5-11.2,7.1-16.8,10.6-7.7,4.9-14.6,7.2-21.5,7.2h0ZM110.7,157c-3.5,0-7.1,0-10.6,0-2.9,0-4-1-4.5-3.8-.8-4.6-1.7-9.5-2.4-14.3-.4-2.6-2.1-3.7-3.3-4.4-2-1.2-3.9-1.8-5.8-1.8s-5.1,1.1-7.7,3.4c-1.9,1.7-4.1,3.1-6.4,4.5-.7.4-1.3.9-2,1.3-.9.6-1.8.9-2.5.9s-1.8-.5-2.8-1.4c-4.1-4.1-7.9-7.9-11.5-11.6-1.7-1.7-1.8-3.3-.4-5.3,2.9-4.1,5.9-8.2,8.8-12.2.5-.7,2.2-2.9.3-5.6,0,0,0-.2,0-.2-1-7-7.1-7.6-10-7.8-2.8-.3-5.6-.9-8.3-1.4-.7-.2-1.4-.3-2.1-.4-2.3-.5-3.2-1.5-3.3-3.7,0-5.5,0-11.2.2-17.6,0-.7,0-2.7,3.6-3.3l3.2-.5c3.8-.6,7.8-1.3,11.8-2,1.6-.3,2.8-1.8,3.3-2.5,3.4-4.9,2.9-9.9-1.5-14.7-1.4-1.5-2.5-3.2-3.7-5.1-.5-.8-.9-1.5-1.4-2.2-1.7-2.5-1.5-3.9.7-6.1,3.6-3.6,7.3-7.2,10.9-10.8,1.5-1.5,2.5-1.7,3.1-1.7s1.7.4,2.8,1.1c3.2,2.2,7.4,5.2,11.6,8.4,1.1.8,2.1,1.2,3.3,1.2s1.3-.1,2.2-.3c5.6-1.4,8.3-4.8,8.6-10.6,0-2.2.6-4.4,1.1-6.8.2-1,.4-2,.6-3,.5-2.5,1.8-3.6,4.2-3.6,1.4,0,2.9,0,4.3,0,4,0,8,0,11.8.1,2.7,0,3.7.9,4.2,3.5.9,4.5,1.6,9.3,2.3,14.3.4,2.6,1.8,3.7,3.4,4.7,2,1.2,3.8,1.8,5.7,1.8s5-1.1,7.6-3.5c1.7-1.5,3.6-2.8,5.6-4.1.8-.5,1.5-1,2.3-1.5,1.1-.8,2.1-1.1,2.9-1.1s1.6.2,3,1.6c3.9,3.9,7.7,7.7,11.3,11.4,1.7,1.7,1.8,3.3.4,5.3-3,4.3-5.7,8.2-8.5,12-1.5,2.1-1.2,3.8-.8,5.4,1.6,7.2,6.9,8.2,10.7,8.4,2.4,0,4.8.6,7.4,1.2.8.2,1.6.3,2.4.5,2.7.5,3.6,1.7,3.6,4.4,0,5.2,0,10.5,0,15.6,0,2.8-1.2,4.2-4,4.6l-2.7.4c-4,.7-8.2,1.3-12.2,2.2-1.7.3-2.9,1.8-3.3,2.4-3.4,4.9-2.9,9.7,1.4,14.2,1.7,1.8,3.1,3.9,4.5,6.2.4.6.7,1.1,1.1,1.7.4.6.7,1.3,1,2.2,0,.2.2.4.3.6-.1.2-.2.4-.3.6-.4.8-.8,1.6-1.2,2.1-3.9,4-7.9,7.9-11.6,11.5-1.4,1.3-2.3,1.5-2.8,1.5-.8,0-1.6-.4-2.7-1.1-4.4-3.1-8.4-5.9-12.3-8.7-.9-.7-1.9-1-2.9-1s-1.3.1-2,.3c-7.2,1.5-8.4,6.9-8.6,10.9-.1,2.1-.5,4.2-1,6.5-.2,1-.4,1.9-.5,2.9-.5,3-1.6,4-4.6,4h-5Z" fill="#fff" stroke-width="0"/>
  <path d="M133.6,267c-.9,0-1.8,0-2.6-.1-6-.5-11.9-2.2-18.1-5.3-3.5-1.8-7.1-3.5-10.6-5.3-11.4-5.6-23.1-11.5-34.4-17.6-4.1-2.2-7.8-3.3-11.3-3.3s-7.9,1.5-11.7,4.6c-2.4,1.9-5,3.5-7.9,5.2-1,.6-2.1,1.2-3.1,1.9-1,.6-2,1-2.9,1s-2.1-.6-2.9-1.7c-1.2-1.9-.6-4,1.7-5.5,2.1-1.4,4.3-2.8,6.4-4.1,2.7-1.7,5.5-3.5,8.2-5.3,4-2.6,8.1-4,12.2-4s6.5.8,9.7,2.5c5.7,2.8,11.3,5.7,16.9,8.6,7.5,3.8,15.3,7.8,23,11.6,5.8,2.9,12,5.9,18.3,8.2,2.9,1.1,5.9,1.6,8.8,1.6,4.6,0,9.2-1.3,13.5-3.9h.1c9.9-6.1,20.2-12.3,30.1-18.7,19.3-12.4,39-25.3,60.2-39.3,4-2.6,7.5-5.9,10-8.4,1.1-1.1,4.4-4.3,2.3-8.5-1.4-2.9-4.1-4.5-7.7-4.5s-1,0-1.6.1c-5.8.7-11.4,2.9-17.7,7.1-18.5,12.1-36.9,24.2-50.9,33.4-4.3,2.9-8.9,4.3-13.4,4.4-3.9,0-7.9.1-11.7.2-4.4.1-8.9.2-13.4.2-9,0-16.2-.4-22.7-1.4-6.7-1-13.4-2.5-19.9-4l-2.7-.6c-1.2-.3-1.9-1-2.3-1.6-.5-.8-.7-1.9-.4-2.8.4-1.7,2-3,3.6-3s.5,0,.8.1c16.9,5.1,34.2,5.7,48.9,5.7h0c4.7,0,9.3,0,14.1-.2,2.9,0,6.3-.2,9.5-.8,6.4-1.4,9.4-5.7,8.2-11.7-.7-3.4-3.1-5.9-6.9-6.9-2.9-.8-6.2-1.2-9.7-1.3-8.7-.3-20.2-1-31.5-3.9-10-2.6-16.7-6.6-21.7-12.8-5.4-6.8-13.2-10.6-23.7-11.5-1.5-.1-2.9-.2-4.4-.3-.7,0-1.3,0-2-.1-1.2-.1-2.4-.2-3.6-.2-10.4,0-19.7,4.1-28,7.7-5.7,2.5-11.5,5.1-17.1,7.6-5,2.3-10.1,4.5-15.1,6.7-1.3.6-2.5.9-3.5.9h-.3c-1.6-.1-2.8-1.7-3-3.1-.2-1.6.7-3.2,2.5-3.9l5.6-2.5c9.2-4.2,18.8-8.5,28.2-12.6,5.5-2.4,11.2-4.8,17-6.1,5.8-1.4,11.4-2,16.7-2,9.4,0,18.2,2.2,26.2,6.5,3.9,2.1,8,5.3,12.1,9.6,3.8,3.9,7.8,6.5,12.4,7.9h.4c3.8,1.3,6.1,2,8.2,2,3.1,0,5.4-1.4,10.1-4.3,2.6-1.6,5.1-3.2,7.7-4.8,6.1-3.8,12.3-7.7,18.6-11.5,5.6-3.4,11.2-5.1,16.7-5.1s4.8.3,7.1,1c2.1.6,4.2,1.8,6.4,3.1,1.2.7,2.4,1.4,3.7,2.1.6.3,1.9.8,3.1.8s.7,0,1.1-.1c2.8-.8,5.6-1.1,8.1-1.1,6.2,0,11.4,2.2,16.2,6.7.9.8,2.2,1.1,3.2,1.1s.8,0,1.2-.1c3-.8,6.2-1.6,9.6-1.6s2.5.1,3.7.4c4.9,1,8.8,4,10.8,8.3,1.9,4.2,1.7,9.1-.7,13.3-3,5.4-7.9,9.1-11.8,11.7l-6.9,4.6c-12.1,8-24.7,16.3-37.1,24.3-9.2,6-18.7,11.9-27.9,17.7-5.6,3.5-11.2,7.1-16.8,10.6-7.7,4.9-14.6,7.2-21.5,7.2h0ZM211.6,170.4c-3.3,0-6.6,1-9.9,3-6.2,3.8-12.5,7.7-18.6,11.5l-6,3.7c-.6.4-1.1.8-1.6,1.1l-.4.3-1.3.9,5.5,12.2,43.1-28.3-2-1.6c-.2-.1-.3-.2-.4-.4-.3-.2-.5-.5-.9-.7-.7-.4-1.3-.6-1.9-.8-1.8-.7-3.7-1-5.6-1h0ZM182.8,164.7c-3.7,0-7.5,1-11.2,3-5.4,2.9-10.8,6.3-15.9,9.5-2.2,1.4-4.4,2.8-6.6,4.1l-1.2.7.8,3.4h2.5c.8.1,1.5.2,2.3.2,1,0,2.1.2,3.1.3,2,.2,4.1.4,6.1.5.2,0,.5,0,.8,0,1.8,0,3.2-.3,4.2-.9,5.8-3.5,11.7-7.1,17.3-10.6l4.9-3c.5-.3.9-.6,1.4-1l.8-.5,2.3-1.6-2.3-1.5c-.2-.1-.4-.2-.5-.3-.3-.2-.6-.4-.9-.6-.6-.3-1.2-.5-1.6-.6-2.1-.7-4.2-1-6.3-1h0Z" fill="#000" stroke-width="0"/>
  <path d="M110.7,157c-3.5,0-7.1,0-10.6,0-2.9,0-4-1-4.5-3.8-.8-4.6-1.7-9.5-2.4-14.3-.4-2.6-2.1-3.7-3.3-4.4-2-1.2-3.9-1.8-5.8-1.8s-5.1,1.1-7.7,3.4c-1.9,1.7-4.1,3.1-6.4,4.5-.7.4-1.3.9-2,1.3-.9.6-1.8.9-2.5.9s-1.8-.5-2.8-1.4c-4.1-4.1-7.9-7.9-11.5-11.6-1.7-1.7-1.8-3.3-.4-5.3,2.9-4.1,5.9-8.2,8.8-12.2.5-.7,2.2-2.9.3-5.6,0,0,0-.2,0-.2-1-7-7.1-7.6-10-7.8-2.8-.3-5.6-.9-8.3-1.4-.7-.2-1.4-.3-2.1-.4-2.3-.5-3.2-1.5-3.3-3.7,0-5.5,0-11.2.2-17.6,0-.7,0-2.7,3.6-3.3l3.2-.5c3.8-.6,7.8-1.3,11.8-2,1.6-.3,2.8-1.8,3.3-2.5,3.4-4.9,2.9-9.9-1.5-14.7-1.4-1.5-2.5-3.2-3.7-5.1-.5-.8-.9-1.5-1.4-2.2-1.7-2.5-1.5-3.9.7-6.1,3.6-3.6,7.3-7.2,10.9-10.8,1.5-1.5,2.5-1.7,3.1-1.7s1.7.4,2.8,1.1c3.2,2.2,7.4,5.2,11.6,8.4,1.1.8,2.1,1.2,3.3,1.2s1.3-.1,2.2-.3c5.6-1.4,8.3-4.8,8.6-10.6,0-2.2.6-4.4,1.1-6.8.2-1,.4-2,.6-3,.5-2.5,1.8-3.6,4.2-3.6,1.4,0,2.9,0,4.3,0,4,0,8,0,11.8.1,2.7,0,3.7.9,4.2,3.5.9,4.5,1.6,9.3,2.3,14.3.4,2.6,1.8,3.7,3.4,4.7,2,1.2,3.8,1.8,5.7,1.8s5-1.1,7.6-3.5c1.7-1.5,3.6-2.8,5.6-4.1.8-.5,1.5-1,2.3-1.5,1.1-.8,2.1-1.1,2.9-1.1s1.6.2,3,1.6c3.9,3.9,7.7,7.7,11.3,11.4,1.7,1.7,1.8,3.3.4,5.3-3,4.3-5.7,8.2-8.5,12-1.5,2.1-1.2,3.8-.8,5.4,1.6,7.2,6.9,8.2,10.7,8.4,2.4,0,4.8.6,7.4,1.2.8.2,1.6.3,2.4.5,2.7.5,3.6,1.7,3.6,4.4,0,5.2,0,10.5,0,15.6,0,2.8-1.2,4.2-4,4.6l-2.7.4c-4,.7-8.2,1.3-12.2,2.1-1.7.3-2.9,1.8-3.3,2.4-3.4,4.9-2.9,9.7,1.4,14.2,1.7,1.8,3.1,3.9,4.5,6.2.4.6.7,1.1,1.1,1.7.4.6.7,1.3,1,2.2,0,.2.2.4.3.6-.1.2-.2.4-.3.6-.4.8-.8,1.6-1.2,2.1-3.9,4-7.9,7.9-11.6,11.5-1.4,1.3-2.3,1.5-2.8,1.5-.8,0-1.6-.4-2.7-1.1-4.4-3.1-8.4-5.9-12.3-8.7-.9-.7-1.9-1-2.9-1s-1.3.1-2,.3c-7.2,1.5-8.4,6.9-8.6,10.9-.1,2.1-.5,4.2-1,6.5-.2,1-.4,1.9-.5,2.9-.5,3-1.6,4-4.6,4h-5ZM107.5,149.5c.6,0,1.3,0,1.9,0,.2,0,.4,0,.5,0,1.6,0,3.5-.6,3.9-3.6.5-3.3,1.1-6.6,1.6-9.8.2-1.2.4-2.4.6-3.5.3-1.7,1.2-2.7,3.2-3.4,3.7-1.3,7.7-2.9,11.7-4.8.9-.4,1.8-.6,2.5-.6s1.6.3,2.4.8c1.2.9,2.4,1.7,3.7,2.6,1.1.8,2.3,1.6,3.4,2.4,3,2.1,4.6,3.3,6.5,3.3s3.8-1.7,6.8-5.2l.9-1.1s-2.5-3.5-3.3-4.7c-2-2.8-4-5.7-6.1-8.5-1.4-1.8-1.4-3.4-.2-5.6,2.1-3.9,3.5-7.2,4.4-10.4.8-2.7,2.2-3.9,4.9-4.3,3-.4,6-.9,8.9-1.5,6.4-1.2,7-1.9,6.9-8.2v-.2c0-2.4-1.2-3.8-3.6-4.1-1.6-.2-3.1-.5-4.7-.8-2.4-.4-4.9-.9-7.4-1.2-2.6-.3-3.9-1.5-4.8-4.4-1.1-3.4-2.5-6.9-4.2-10.4-1.1-2.3-1.1-3.9.3-5.7,2.6-3.4,5.1-7,7.4-10.5.7-1,1.2-3.2.2-4.6-.9-1.3-2-2.5-3-3.6-.4-.4-.8-.9-1.2-1.3l-1.1-1.2-5.3,3.8c-3,2.1-5.8,4.1-8.6,6.1-.9.6-1.8,1-2.6,1s-1.3-.2-2-.5c-4-1.8-8.2-3.6-12.5-5.3-1.7-.7-2.5-1.6-2.7-3.2l-.4-2.4c-.4-2.4-.8-4.8-1.2-7.2-.2-1.1-.3-2.1-.4-2.8-.4-3.1-.9-4.4-4.5-4.4h-1.7c-.6,0-1.2,0-2,0h0c-1.6,0-3.4,1.5-3.8,3-1,4.6-1.8,9.1-2.6,13.4-.3,1.9-1.2,2.9-3.2,3.6-3.9,1.4-7.8,3-11.7,4.8-1,.4-1.8.7-2.6.7s-1.7-.3-2.5-.9c-3.1-2.3-6.3-4.5-9.4-6.8l-.5-.4c-.6-.4-1.1-.8-1.6-1.1l-.5-.3-1.2-.8-7.7,7.3,3.3,4.8c2,2.9,4,5.8,6,8.7,1.1,1.6,1.2,3,.2,5.1-1.7,3.5-3.2,7.2-4.8,11.4-.8,2.2-1.9,3.2-4,3.5-3.2.5-6.3,1-9.4,1.5-6.4,1.1-7,1.9-6.9,8.2v.2c0,2.4,1.2,3.7,3.6,4.1,1.9.3,3.8.7,5.8,1,2.1.4,4.4.8,6.6,1.2,2.3.4,3.6,1.5,4.4,4,1.2,3.8,2.7,7.4,4.3,10.6,1.2,2.4,1.1,4.1-.4,6.1-2,2.7-3.9,5.4-6,8.2-.9,1.3-1.8,2.5-2.8,3.9l-1,1.4,1.3,1.1c.4.4.9.7,1.3,1.1.9.7,1.7,1.3,2.3,2,.7.8,1.8,1.8,3.4,1.8s1.9-.4,2.9-1.1c2.3-1.7,4.7-3.4,7.1-4.9,1.2-.8,2.4-1.6,3.6-2.4.8-.6,1.5-.8,2.3-.8s1.4.2,2.3.6c3.6,1.7,7.4,3.3,12.1,5.1,1.7.7,2.6,1.6,2.9,3.1.1.7.2,1.4.4,2.1,0,.5.2.9.2,1.4l2.4,13.6h1.6c.6,0,1.2,0,1.8,0,.5,0,1,0,1.5,0h0Z" fill="#000" stroke-width="0"/>
  <path d="M178.4,192.2c.2-.1.4-.3.6-.4l6-3.7c6.1-3.8,12.4-7.7,18.6-11.5,2.8-1.7,5.4-2.5,8-2.5s2.7.2,4.1.7l-34.8,22.8-2.4-5.4h0Z" fill="#fff" stroke-width="0"/>
  <path d="M163.5,182.7c-.2,0-.4,0-.6,0-2,0-4-.3-5.9-.4-.7,0-1.4-.1-2-.2.9-.6,1.8-1.1,2.7-1.7,5.1-3.2,10.4-6.5,15.7-9.4,3.2-1.7,6.3-2.6,9.5-2.6s3.1.2,4.5.6l-4.2,2.6c-5.6,3.5-11.5,7.1-17.3,10.6-.3.2-1,.4-2.3.4h0Z" fill="#fff" stroke-width="0"/>
  <path d="M109.7,145.9c-.7,0-1.4,0-2.1,0s-1.1,0-1.6,0h-.2l-1.8-10.6c0-.4-.2-.9-.2-1.3-.1-.8-.2-1.5-.4-2.2-.6-2.8-2.3-4.8-5.2-5.9-4.6-1.8-8.4-3.3-11.9-5-1.4-.6-2.6-.9-3.9-.9s-3,.5-4.4,1.5c-1.2.8-2.4,1.6-3.6,2.4-2.4,1.6-4.8,3.3-7.2,5.1-.5.3-.7.4-.7.4,0,0-.2,0-.6-.6-.8-.9-1.7-1.6-2.7-2.3.6-.8,1.2-1.7,1.7-2.4,2-2.8,3.9-5.5,5.9-8.1,2.4-3.1,2.6-6.3.8-10-1.6-3.1-2.9-6.5-4.1-10.1-1.2-3.8-3.6-5.9-7.3-6.5-2.2-.3-4.3-.7-6.5-1.1-1.9-.4-3.9-.7-5.9-1-.2,0-.3,0-.4,0,0,0,0-.2,0-.4v-.2c0-1.5,0-3.3.2-3.6.3-.3,2.1-.6,3.7-.9,3-.5,6.1-1,9.3-1.5,3.4-.5,5.6-2.5,6.9-5.9,1.5-4.1,3-7.8,4.7-11.1,1.6-3.2,1.4-6.1-.5-8.8-2-2.9-4-5.8-6-8.7l-1.5-2.2,3.3-3.1c.2.1.5.3.7.5l.5.4c3.2,2.2,6.3,4.5,9.4,6.8,1.5,1.1,3.1,1.6,4.7,1.6s2.6-.3,4.1-1c3.8-1.7,7.6-3.3,11.4-4.7,3.2-1.2,5.1-3.3,5.7-6.5.7-4.2,1.5-8.6,2.5-13.1,0,0,.2-.2.3-.3.7,0,1.3,0,1.9,0h2.3c0,.3.1.8.2,1.2.1.8.2,1.7.4,2.9.4,2.4.8,4.8,1.2,7.1l.4,2.4c.5,2.9,2.1,4.9,5,6,4.3,1.7,8.4,3.5,12.4,5.2,1.2.5,2.4.8,3.6.8,1.6,0,3.2-.6,4.8-1.7,2.8-2,5.6-4,8.5-6.1l2.6-1.9s0,0,.1.1c.9,1,1.8,2,2.6,3,0,.2,0,.5-.1.6-2.3,3.5-4.8,7-7.3,10.3-2.2,2.9-2.4,6-.6,9.5,1.6,3.3,3,6.7,4,9.9,1.3,4.3,3.9,6.5,7.9,6.9,2.4.3,4.9.7,7.2,1.1,1.6.3,3.2.6,4.8.8.2,0,.3,0,.4,0,0,0,0,.2,0,.4v.2c0,1.5,0,3.3-.2,3.6-.2.3-2.1.6-3.7.9-2.9.5-5.8,1.1-8.7,1.5-4.1.6-6.7,2.8-7.9,6.9-.9,2.9-2.2,6-4.1,9.7-1.8,3.5-1.6,6.6.6,9.6,2.1,2.8,4.1,5.7,6,8.5.6.8,1.1,1.6,1.6,2.3-1.4,1.6-2.5,2.8-3,2.8s-2.3-1.2-4.3-2.6c-1.2-.8-2.3-1.7-3.5-2.5-1.2-.9-2.4-1.7-3.6-2.6-1.4-1-3-1.5-4.6-1.5s-2.6.3-4,1c-3.9,1.8-7.8,3.3-11.4,4.7-3.2,1.2-5,3.2-5.6,6.2-.2,1.2-.4,2.3-.6,3.5-.6,3.2-1.1,6.6-1.6,9.9,0,.2,0,.4-.1.4h-.2c0,0-.2,0-.3,0h0ZM107.9,55.1c-16.8,0-30.1,13.1-30.2,29.9,0,17,13.1,30.5,30,30.6h.3c16.6,0,30.2-13.5,30.2-30.2,0-16.7-13.5-30.3-30.2-30.4h-.1Z" fill="#d1d3d4" stroke-width="0"/>
  <path d="M107.7,111.9c-14.8-.1-26.4-11.9-26.3-26.9,0-14.7,11.7-26.2,26.5-26.2,14.8,0,26.7,12,26.6,26.7,0,14.6-12,26.5-26.5,26.5h-.2,0ZM107.9,66.2c-10.5,0-19,8.5-19.1,19,0,10.5,8.4,19.2,18.9,19.3h.2c10.4,0,19-8.5,19-19,0-10.5-8.4-19.2-18.9-19.3h-.1Z" fill="#000" stroke-width="0"/>
  <path d="M107.8,100.8c-8.4,0-15.3-7.1-15.2-15.6,0-8.4,6.9-15.3,15.4-15.3,8.6,0,15.4,7,15.4,15.5,0,8.3-7.1,15.3-15.3,15.3h-.2Z" fill="#fff" stroke-width="0"/>
  <g>
    <path d="M195.5,74.8c-1.7-.7-3.4-1.3-5.1-2-1.4-.6-1.7-1.2-1.4-2.7.5-2.4,1-4.9,1.5-7.3.3-1.3-.3-2.1-.8-2.7-.7-1-1.5-1.6-2.4-2s-2.7-.4-4.3.2c-1.2.4-2.5.7-3.9,1-.4,0-.8.2-1.2.2-.5.1-1,.1-1.4,0s-.8-.6-1.1-1.2c-1.2-2.7-2.3-5.3-3.3-7.7-.5-1.1-.2-1.9.8-2.6,2.2-1.4,4.4-2.8,6.5-4.2.4-.2,1.6-1,1.2-2.6,0,0,0,0,0,0,.8-3.5-2-5-3.3-5.6-1.3-.6-2.5-1.5-3.7-2.2-.3-.2-.6-.4-.9-.6-1-.7-1.3-1.3-.9-2.4,1-2.7,2.1-5.4,3.4-8.4.1-.3.6-1.3,2.4-.9l1.6.3c2,.4,4,.9,6,1.2.8.2,1.7-.3,2-.6,2.6-1.7,3.3-4.2,2-7.3-.4-1-.6-2-.8-3.1,0-.4-.2-.9-.3-1.3-.3-1.5,0-2.1,1.5-2.8,2.4-1,4.8-2.1,7.3-3.1,1-.4,1.5-.3,1.8-.2s.7.5,1.1,1.1c1.1,1.7,2.6,3.9,4,6.2.4.6.8,1,1.4,1.2s.6.2,1.1.3c2.9.4,4.9-.7,6.1-3.5.5-1,1.1-2,1.8-3,.3-.4.6-.9.9-1.3.7-1.1,1.5-1.4,2.7-.9.7.3,1.4.5,2.1.8,1.9.8,3.8,1.5,5.6,2.3,1.3.5,1.6,1.1,1.4,2.5-.4,2.3-1,4.8-1.6,7.3-.3,1.3.2,2.1.8,2.9.7,1,1.5,1.6,2.4,1.9s2.6.4,4.3-.2c1.1-.4,2.3-.7,3.5-.9.5,0,.9-.2,1.4-.3.7-.2,1.2-.2,1.6,0s.7.4,1.1,1.3c1.1,2.6,2.2,5.1,3.3,7.6.5,1.1.2,1.9-.8,2.6-2.2,1.5-4.3,2.9-6.4,4.2-1.1.7-1.3,1.6-1.4,2.4-.6,3.7,1.7,5.2,3.6,6,1.1.5,2.2,1.2,3.3,1.9.4.2.7.5,1.1.7,1.2.8,1.4,1.5.9,2.8-1,2.5-2,5-3,7.5-.5,1.4-1.3,1.8-2.8,1.5l-1.4-.3c-2-.4-4.2-.9-6.3-1.3-.9-.2-1.7.3-2,.5-2.5,1.7-3.2,4.1-2,7.1.5,1.2.7,2.5,1,3.8,0,.3.1.7.2,1,0,.3,0,.8,0,1.2,0,.1,0,.2,0,.4,0,0-.2.2-.3.2-.3.3-.7.6-1,.8-2.6,1.2-5.3,2.3-7.7,3.3-.9.4-1.4.3-1.6.2-.4-.1-.7-.5-1.1-1-1.6-2.3-2.9-4.4-4.2-6.5-.3-.5-.7-.8-1.2-1s-.7-.2-1-.2c-3.7-.7-5.3,1.7-6.2,3.6-.5,1-1.1,1.9-1.7,2.9-.3.4-.5.9-.8,1.3-.8,1.4-1.5,1.6-2.9,1.1l-2.4-.9h0Z" fill="#fff" stroke-width="0"/>
    <path d="M195.5,74.8c-1.7-.7-3.4-1.3-5.1-2-1.4-.6-1.7-1.2-1.4-2.7.5-2.4,1-4.9,1.5-7.3.3-1.3-.3-2.1-.8-2.7-.7-1-1.5-1.6-2.4-2s-2.7-.4-4.3.2c-1.2.4-2.5.7-3.9,1-.4,0-.8.2-1.2.2-.5.1-1,.1-1.4,0s-.8-.6-1.1-1.2c-1.2-2.7-2.3-5.3-3.3-7.7-.5-1.1-.2-1.9.8-2.6,2.2-1.4,4.4-2.8,6.5-4.2.4-.2,1.6-1,1.2-2.6,0,0,0,0,0,0,.8-3.5-2-5-3.3-5.6-1.3-.6-2.5-1.5-3.7-2.2-.3-.2-.6-.4-.9-.6-1-.7-1.3-1.3-.9-2.4,1-2.7,2.1-5.4,3.4-8.4.1-.3.6-1.3,2.4-.9l1.6.3c2,.4,4,.9,6,1.2.8.2,1.7-.3,2-.6,2.6-1.7,3.3-4.2,2-7.3-.4-1-.6-2-.8-3.1,0-.4-.2-.9-.3-1.3-.3-1.5,0-2.1,1.5-2.8,2.4-1,4.8-2.1,7.3-3.1,1-.4,1.5-.3,1.8-.2s.7.5,1.1,1.1c1.1,1.7,2.6,3.9,4,6.2.4.6.8,1,1.4,1.2s.6.2,1.1.3c2.9.4,4.9-.7,6.1-3.5.5-1,1.1-2,1.8-3,.3-.4.6-.9.9-1.3.7-1.1,1.5-1.4,2.7-.9.7.3,1.4.5,2.1.8,1.9.8,3.8,1.5,5.6,2.3,1.3.5,1.6,1.1,1.4,2.5-.4,2.3-1,4.8-1.6,7.3-.3,1.3.2,2.1.8,2.9.7,1,1.5,1.6,2.4,1.9s2.6.4,4.3-.2c1.1-.4,2.3-.7,3.5-.9.5,0,.9-.2,1.4-.3.7-.2,1.2-.2,1.6,0s.7.4,1.1,1.3c1.1,2.6,2.2,5.1,3.3,7.6.5,1.1.2,1.9-.8,2.6-2.2,1.5-4.3,2.9-6.4,4.2-1.1.7-1.3,1.6-1.4,2.4-.6,3.7,1.7,5.2,3.6,6,1.1.5,2.2,1.2,3.3,1.9.4.2.7.5,1.1.7,1.2.8,1.4,1.5.9,2.8-1,2.5-2,5-3,7.5-.5,1.4-1.3,1.8-2.8,1.5l-1.4-.3c-2-.4-4.2-.9-6.3-1.3-.9-.2-1.7.3-2,.5-2.5,1.7-3.2,4.1-2,7.1.5,1.2.7,2.5,1,3.8,0,.3.1.7.2,1,0,.3,0,.8,0,1.2,0,.1,0,.2,0,.4,0,0-.2.2-.3.2-.3.3-.7.6-1,.8-2.6,1.2-5.3,2.3-7.7,3.3-.9.4-1.4.3-1.6.2-.4-.1-.7-.5-1.1-1-1.6-2.3-2.9-4.4-4.2-6.5-.3-.5-.7-.8-1.2-1s-.7-.2-1-.2c-3.7-.7-5.3,1.7-6.2,3.6-.5,1-1.1,1.9-1.7,2.9-.3.4-.5.9-.8,1.3-.8,1.4-1.5,1.6-2.9,1.1l-2.4-.9h0ZM195.4,70.6c.3.1.6.2.9.4,0,0,.2,0,.2.1.7.3,1.8.4,2.6-1,.8-1.5,1.7-3,2.6-4.4.3-.5.6-1.1,1-1.6.5-.8,1.1-1.1,2.1-1,2,0,4.2,0,6.5,0,.5,0,1,0,1.3.2s.7.4,1,.9c.4.6.8,1.3,1.3,1.9.4.6.8,1.2,1.2,1.8,1,1.6,1.6,2.5,2.5,2.8s2.2-.1,4.2-1.2l.7-.3s-.5-2.2-.7-2.9c-.4-1.7-.9-3.5-1.3-5.2-.3-1.1,0-1.9.9-2.8,1.7-1.5,3-2.8,4.1-4.2.9-1.2,1.8-1.5,3.2-1.1,1.5.4,3,.7,4.5,1,3.3.6,3.7.4,4.9-2.6h0c.4-1.3.1-2.1-.9-2.7-.7-.4-1.4-.8-2.1-1.3-1.1-.7-2.2-1.3-3.4-2-1.2-.6-1.6-1.4-1.5-3,.1-1.8.1-3.8,0-5.8-.1-1.3.2-2.1,1.2-2.7,1.9-1.2,3.7-2.4,5.5-3.6.5-.4,1.2-1.3,1-2.2-.2-.8-.5-1.5-.8-2.3-.1-.3-.2-.6-.3-.8l-.3-.8-3.2.8c-1.8.4-3.5.9-5.3,1.3-.6.1-1,.1-1.4,0s-.6-.3-.9-.6c-1.6-1.6-3.2-3.2-5-4.9-.7-.6-.9-1.2-.7-2l.3-1.2c.3-1.2.5-2.4.8-3.7.1-.6.2-1.1.3-1.4.4-1.6.4-2.3-1.3-3l-.8-.3c-.3-.1-.6-.2-.9-.4h0c-.8-.3-1.9,0-2.4.7-1.3,2-2.6,4-3.7,5.9-.5.8-1.1,1.1-2.2,1.1-2.1,0-4.3,0-6.5,0-.5,0-1,0-1.3-.2s-.7-.5-1-.9c-1.1-1.7-2.2-3.4-3.2-5l-.2-.3c-.2-.3-.4-.6-.6-.8l-.2-.2-.4-.6-5.1,2,.7,3c.4,1.8.8,3.5,1.2,5.3.2,1,0,1.7-.9,2.5-1.5,1.3-2.9,2.8-4.4,4.6-.8.9-1.5,1.2-2.6.9-1.6-.4-3.2-.7-4.8-1-3.3-.7-3.7-.4-4.9,2.6h0c-.4,1.2-.1,2.1.9,2.7.9.5,1.7,1,2.6,1.6,1,.6,1.9,1.2,2.9,1.8,1,.6,1.4,1.4,1.3,2.7-.1,2.1-.1,4,0,5.9.1,1.4-.2,2.2-1.3,2.8-1.5.9-2.9,1.8-4.4,2.8-.7.4-1.3.9-2.1,1.3l-.7.5.4.8c.1.3.3.5.4.8.3.5.6.9.7,1.4.2.5.5,1.2,1.3,1.5s1,.2,1.6,0c1.4-.4,2.9-.7,4.3-1,.7-.2,1.5-.3,2.2-.5.5-.1.9-.1,1.3,0s.7.4,1,.7c1.4,1.5,2.9,3,4.8,4.7.7.6.9,1.3.8,2,0,.4-.1.7-.2,1.1,0,.2-.1.5-.2.7l-1.4,7,.7.3c.3.1.6.2.9.3.3,0,.5.2.7.3h0Z" fill="#000" stroke-width="0"/>
    <path d="M197.1,69.3c-.3-.2-.7-.3-1-.4s-.5-.2-.8-.3h0s1.1-5.4,1.1-5.4c0-.2,0-.5.1-.7,0-.4.2-.8.2-1.1.3-1.5-.2-2.7-1.4-3.8-1.9-1.7-3.4-3.2-4.8-4.6-.5-.6-1.1-1-1.7-1.2s-1.6-.3-2.4-.1c-.7.2-1.4.3-2.2.5-1.4.3-2.9.7-4.4,1.1-.3,0-.4,0-.4,0,0,0,0,0-.2-.4-.2-.6-.5-1.1-.8-1.6.4-.3.9-.6,1.3-.8,1.5-1,2.9-1.9,4.4-2.8,1.7-1,2.4-2.5,2.2-4.7-.2-1.8-.2-3.7,0-5.6.1-2.1-.6-3.5-2.3-4.5-1-.6-1.9-1.2-2.9-1.8-.9-.5-1.7-1.1-2.6-1.6,0,0-.1,0-.2-.1,0,0,0-.1,0-.2h0c.3-.8.6-1.7.8-1.8.2,0,1.1.1,1.9.3,1.5.3,3.1.7,4.7,1,1.7.4,3.2-.1,4.4-1.5,1.5-1.7,2.9-3.2,4.3-4.4,1.4-1.3,1.8-2.7,1.4-4.3-.4-1.8-.8-3.5-1.2-5.3l-.3-1.4,2.2-.9c0,.1.2.2.2.4l.2.3c1.1,1.7,2.2,3.3,3.2,5,.5.8,1.2,1.4,2,1.7s1.3.3,2.2.3c2.1-.1,4.3-.2,6.3,0,1.8,0,3.1-.6,3.9-2,1.1-1.9,2.4-3.9,3.6-5.8,0,0,.1,0,.2,0,.3.1.6.3.9.4l.8.3h.3c0,.3,0,.5-.1.7,0,.4-.2.9-.3,1.5-.2,1.2-.5,2.4-.8,3.6l-.3,1.2c-.3,1.5.1,2.8,1.3,3.8,1.7,1.6,3.4,3.2,4.9,4.8.5.5,1,.8,1.5,1.1.8.3,1.7.3,2.6.1,1.7-.4,3.4-.9,5.2-1.3l1.6-.4s0,0,0,0c.3.7.5,1.3.7,1.9,0,0-.1.2-.2.3-1.8,1.2-3.6,2.4-5.5,3.6-1.6,1-2.3,2.4-2.1,4.5.2,1.9.2,3.8,0,5.5-.2,2.3.6,3.8,2.5,4.8,1.1.6,2.2,1.3,3.3,1.9.7.4,1.4.9,2.2,1.3,0,0,.1,0,.2.1,0,0,0,.1,0,.2h0c-.3.8-.6,1.7-.8,1.8-.2,0-1.1,0-1.9-.3-1.5-.3-3-.6-4.5-.9-2.1-.5-3.8,0-5.1,1.8-1,1.2-2.2,2.5-3.8,3.9-1.5,1.3-2,2.8-1.5,4.7.5,1.7.9,3.5,1.3,5.2.1.5.2,1,.4,1.4-1,.5-1.7.9-2,.8s-.9-1-1.6-2.1c-.4-.6-.8-1.2-1.2-1.8-.4-.6-.8-1.3-1.3-1.9-.5-.8-1.1-1.3-1.9-1.6s-1.3-.3-2.1-.3c-2.2.1-4.4.1-6.3,0-1.8,0-3,.6-3.8,1.9-.3.5-.6,1-1,1.6-.9,1.4-1.8,2.9-2.6,4.4,0,0-.1.2-.1.2h0s0,0-.1,0h0ZM213.3,25.5c-8.1-3.2-16.9.6-20.1,8.7-3.2,8.1.5,17.1,8.6,20.3h.1c8,3.2,17-.8,20.2-8.7,3.2-8-.8-17.1-8.7-20.2h0Z" fill="#d1d3d4" stroke-width="0"/>
    <path d="M202.5,52.7c-7.1-2.9-10.4-10.7-7.5-17.8,2.8-7,10.5-10.4,17.6-7.6,7.1,2.8,10.5,10.8,7.7,17.8-2.8,7-10.7,10.4-17.7,7.7h-.1s0,0,0,0ZM211.3,30.8c-5-2-10.7.5-12.7,5.5-2,5,.4,10.8,5.4,12.8h0c5,2,10.7-.5,12.7-5.5,2-5-.4-10.8-5.4-12.8h0s0,0,0,0Z" fill="#000" stroke-width="0"/>
    <path d="M204.7,47.3c-4-1.6-6-6.3-4.4-10.3,1.6-4,6.2-6,10.2-4.4,4.1,1.6,6.1,6.3,4.4,10.3-1.6,4-6.3,6-10.2,4.5h0s0,0,0,0Z" fill="#fff" stroke-width="0"/>
  </g>
</svg>