<?xml version="1.0" encoding="UTF-8" standalone="no"?>
<svg
   id="svg1"
   version="1.2"
   viewBox="0 0 89460.811 24523.56"
   sodipodi:docname="we.svg"
   width="89460.812"
   height="24523.561"
   xmlns:inkscape="http://www.inkscape.org/namespaces/inkscape"
   xmlns:sodipodi="http://sodipodi.sourceforge.net/DTD/sodipodi-0.dtd"
   xmlns="http://www.w3.org/2000/svg"
   xmlns:svg="http://www.w3.org/2000/svg">
  <defs
     id="defs1" />
  <g
     id="svg6"
     sodipodi:docname="we.svg">
    <g
       id="Layer_1"
       data-name="Layer 1"
       sodipodi:docname="we.svg">
      <sodipodi:namedview
         id="namedview5"
         bordercolor="#000000"
         borderopacity="0.25"
         inkscape:deskcolor="#d1d1d1"
         inkscape:pagecheckerboard="0"
         inkscape:pageopacity="0.0"
         inkscape:showpageshadow="2"
         pagecolor="#ffffff" />
      <g
         id="g6">
        <g
           id="g1">
          <path
             id="path1"
             d="m 188.2,94.8 c 0,-19.6 -15.8,-35.4 -35.4,-35.4 h -6.3 c -19.6,0 -35.4,15.8 -35.4,35.4 v 58.8 h 77.1 z"
             fill="#fed966"
             stroke="#000000"
             stroke-miterlimit="10"
             stroke-width="6" />
          <circle
             id="circle1"
             cx="149.7"
             cy="30.6"
             r="27.6"
             fill="#fed966"
             stroke="#000000"
             stroke-miterlimit="10"
             stroke-width="6" />
        </g>
        <g
           id="g2">
          <path
             id="path2"
             d="m 249.9,106.6 c 0,-15.7 -12.7,-28.3 -28.3,-28.3 h -5 c -15.7,0 -28.3,12.7 -28.3,28.3 v 47 h 61.6 z"
             fill="#fee69b"
             stroke="#000000"
             stroke-miterlimit="10"
             stroke-width="6" />
          <circle
             id="circle2"
             cx="219"
             cy="55.099998"
             r="22.1"
             fill="#fee69b"
             stroke="#000000"
             stroke-miterlimit="10"
             stroke-width="6" />
        </g>
        <g
           id="g3">
          <path
             id="path3"
             d="M 111.1,106.6 C 111.1,90.9 98.4,78.3 82.8,78.3 h -5 C 62.1,78.3 49.5,91 49.5,106.6 v 47 h 61.6 z"
             fill="#fee69b"
             stroke="#000000"
             stroke-miterlimit="10"
             stroke-width="6" />
          <circle
             id="circle3"
             cx="80.199997"
             cy="55.099998"
             r="22.1"
             fill="#fee69b"
             stroke="#000000"
             stroke-miterlimit="10"
             stroke-width="6" />
        </g>
        <g
           id="g4">
          <path
             id="path4"
             d="M 49.4,118.3 C 49.4,106.5 39.9,97 28.1,97 H 24.3 C 12.5,97 3,106.5 3,118.3 v 35.3 h 46.2 v -35.3 z"
             fill="#fef0c6"
             stroke="#000000"
             stroke-miterlimit="10"
             stroke-width="6" />
          <circle
             id="circle4"
             cx="26.200001"
             cy="79.800003"
             r="16.6"
             fill="#fef0c6"
             stroke="#000000"
             stroke-miterlimit="10"
             stroke-width="6" />
        </g>
        <g
           id="g5">
          <path
             id="path5"
             d="M 296.1,118.3 C 296.1,106.5 286.6,97 274.8,97 H 271 c -11.8,0 -21.3,9.5 -21.3,21.3 v 35.3 h 46.2 v -35.3 z"
             fill="#fef0c6"
             stroke="#000000"
             stroke-miterlimit="10"
             stroke-width="6" />
          <circle
             id="circle5"
             cx="273"
             cy="79.800003"
             r="16.6"
             fill="#fef0c6"
             stroke="#000000"
             stroke-miterlimit="10"
             stroke-width="6" />
        </g>
      </g>
    </g>
  </g>
</svg>
