<?xml version="1.0" encoding="UTF-8" standalone="no"?>
<svg
   version="1.1"
   viewBox="0 0 92233.692 7005.6897"
   id="svg8"
   sodipodi:docname="openai.svg"
   width="92233.695"
   height="7005.6895"
   xmlns:inkscape="http://www.inkscape.org/namespaces/inkscape"
   xmlns:sodipodi="http://sodipodi.sourceforge.net/DTD/sodipodi-0.dtd"
   xmlns="http://www.w3.org/2000/svg"
   xmlns:svg="http://www.w3.org/2000/svg">
  <defs
     id="defs8" />
  <sodipodi:namedview
     id="namedview8"
     pagecolor="#ffffff"
     bordercolor="#000000"
     borderopacity="0.25"
     inkscape:showpageshadow="2"
     inkscape:pageopacity="0.0"
     inkscape:pagecheckerboard="0"
     inkscape:deskcolor="#d1d1d1" />
  <!-- Generator: Adobe Illustrator 28.7.1, SVG Export Plug-In . SVG Version: 1.2.0 Build 142)  -->
  <g
     id="g8">
    <g
       id="Layer_1">
      <g
         id="g7">
        <path
           d="m 95.5,40.2 c 0,13.7 8.8,23.2 21,23.2 12.2,0 21,-9.5 21,-23.2 0,-13.7 -8.8,-23.2 -21,-23.2 -12.2,0 -21,9.5 -21,23.2 z m 33.9,0 c 0,9.8 -5.3,16.1 -12.9,16.1 -7.6,0 -12.9,-6.3 -12.9,-16.1 0,-9.8 5.3,-16.1 12.9,-16.1 7.6,0 12.9,6.3 12.9,16.1 z"
           id="path1" />
        <path
           d="m 160,63.4 c 9.2,0 14.5,-7.8 14.5,-17.1 0,-9.3 -5.3,-17.1 -14.5,-17.1 -9.2,0 -7.4,1.7 -9.5,4.1 V 29.8 H 143 V 74 h 7.5 V 59.3 c 2.1,2.4 5.2,4.1 9.5,4.1 z m -9.6,-18 c 0,-6.2 3.5,-9.6 8.2,-9.6 4.7,0 8.4,4.3 8.4,10.5 0,6.2 -2.9,10.5 -8.4,10.5 -5.5,0 -8.2,-3.5 -8.2,-9.5 z"
           id="path2" />
        <path
           d="m 194.9,63.4 c 6.6,0 11.8,-3.5 14.1,-9.2 l -6.5,-2.4 c -1,3.4 -4,5.3 -7.7,5.3 -3.7,0 -8.2,-3.5 -8.8,-9.1 h 23.1 v -2.5 c 0,-9 -5.1,-16.3 -14.6,-16.3 -9.5,0 -15.7,7.5 -15.7,17.1 0,9.6 6.6,17.1 16,17.1 v 0 z m -0.4,-27.9 c 4.8,0 7,3.1 7.1,6.8 h -15.1 c 1.1,-4.5 4.1,-6.8 8,-6.8 z"
           id="path3" />
        <path
           d="m 214.9,62.8 h 7.5 V 43.5 c 0,-4.7 3.5,-7.2 6.8,-7.2 3.3,0 5.8,2.9 5.8,7 v 19.5 h 7.5 V 41.1 c 0,-7.1 -4.1,-11.9 -11,-11.9 -6.9,0 -7.2,1.9 -9.1,4.1 v -3.5 h -7.5 v 32.9 z"
           id="path4" />
        <path
           d="m 264.6,17.7 -17.1,45.1 h 8 l 3.8,-10.3 h 19.5 l 3.9,10.3 h 8.1 L 273.7,17.7 Z m 4.4,8.9 7.2,18.8 H 262 Z"
           id="path5" />
        <path
           d="m 303.7,17.8 h -8 v 45.1 h 8 z"
           id="path6" />
        <path
           d="M 77.1,34.2 C 79,28.5 78.3,22.3 75.3,17.1 70.7,9.2 61.6,5.1 52.6,7 48.6,2.5 42.9,0 36.9,0 27.7,0 19.6,5.9 16.8,14.6 c -5.9,1.2 -11,4.9 -13.9,10.1 -4.6,7.9 -3.6,17.9 2.6,24.7 -1.9,5.7 -1.2,11.9 1.8,17.1 4.6,7.9 13.7,12 22.7,10.1 4,4.5 9.7,7 15.7,7 9.2,0 17.3,-5.9 20.1,-14.6 5.9,-1.2 11,-4.9 13.9,-10.1 C 84.3,51 83.2,41 77.1,34.2 Z m -31.4,44 c -3.7,0 -7.2,-1.3 -10,-3.6 0.1,0 0.4,-0.2 0.5,-0.3 l 16.7,-9.6 c 0.9,-0.5 1.4,-1.4 1.4,-2.4 V 38.8 l 7,4.1 c 0,0 0.1,0.1 0.1,0.2 v 19.4 c 0,8.6 -7,15.7 -15.7,15.7 z M 12,63.8 c -1.8,-3.2 -2.5,-6.9 -1.9,-10.5 0.1,0 0.3,0.2 0.5,0.3 l 16.7,9.6 c 0.8,0.5 1.9,0.5 2.7,0 L 50.3,51.5 v 8.1 c 0,0 0,0.2 0,0.2 L 33.5,69.5 C 26,73.8 16.4,71.3 12.1,63.8 v 0 z M 7.6,27.4 c 1.8,-3.2 4.7,-5.6 8.2,-6.9 0,0.1 0,0.4 0,0.6 v 19.2 c 0,1 0.5,1.9 1.4,2.4 l 20.3,11.7 -7,4.1 c 0,0 -0.2,0 -0.2,0 L 13.5,48.8 C 6,44.5 3.4,34.9 7.8,27.4 v 0 z m 57.8,13.5 -20.3,-11.7 7,-4.1 c 0,0 0.2,0 0.2,0 l 16.8,9.7 c 7.5,4.3 10.1,13.9 5.7,21.4 -1.8,3.2 -4.7,5.6 -8.2,6.9 V 43.3 c 0,-1 -0.5,-1.9 -1.4,-2.4 v 0 z m 7.1,-10.5 c -0.1,0 -0.3,-0.2 -0.5,-0.3 L 55.3,20.5 C 54.5,20 53.4,20 52.6,20.5 L 32.3,32.2 v -8.1 c 0,0 0,-0.2 0,-0.2 l 16.8,-9.7 c 7.5,-4.3 17.1,-1.8 21.4,5.8 1.8,3.2 2.5,6.9 1.9,10.5 v 0 z m -44.1,14.5 -7,-4.1 c 0,0 -0.1,-0.1 -0.1,-0.2 V 21.2 c 0,-8.7 7,-15.7 15.7,-15.7 3.7,0 7.2,1.3 10,3.6 -0.1,0 -0.3,0.2 -0.5,0.3 L 29.8,19 c -0.9,0.5 -1.4,1.4 -1.4,2.4 z m 3.8,-8.3 9.1,-5.2 9.1,5.2 v 10.5 l -9.1,5.2 -9.1,-5.2 z"
           id="path7" />
      </g>
    </g>
  </g>
</svg>
