<?xml version="1.0" encoding="UTF-8" standalone="no"?>
<svg
   version="1.1"
   viewBox="0 0 92233.692 7832.25"
   id="svg8"
   sodipodi:docname="tiktok.svg"
   width="92233.695"
   height="7832.25"
   xmlns:inkscape="http://www.inkscape.org/namespaces/inkscape"
   xmlns:sodipodi="http://sodipodi.sourceforge.net/DTD/sodipodi-0.dtd"
   xmlns="http://www.w3.org/2000/svg"
   xmlns:svg="http://www.w3.org/2000/svg">
  <sodipodi:namedview
     id="namedview8"
     pagecolor="#ffffff"
     bordercolor="#000000"
     borderopacity="0.25"
     inkscape:showpageshadow="2"
     inkscape:pageopacity="0.0"
     inkscape:pagecheckerboard="0"
     inkscape:deskcolor="#d1d1d1" />
  <defs
     id="defs1">
    <style
       id="style1">
      .cls-1 {
        fill: #ff004f;
      }

      .cls-2 {
        fill: #00f2ea;
      }
    </style>
  </defs>
  <!-- Generator: Adobe Illustrator 28.7.1, SVG Export Plug-In . SVG Version: 1.2.0 Build 142)  -->
  <g
     id="g8">
    <g
       id="Layer_1">
      <g
         id="g7">
        <path
           class="cls-1"
           d="m 58,31.9 c 5.7,4.1 12.7,6.5 20.3,6.5 V 23.9 c -1.4,0 -2.9,-0.1 -4.3,-0.4 v 11.4 c -7.6,0 -14.6,-2.4 -20.3,-6.5 v 29.7 c 0,14.8 -12,26.9 -26.9,26.9 -14.9,0 -10.7,-1.7 -15,-4.5 4.9,5 11.7,8.1 19.2,8.1 14.9,0 26.9,-12 26.9,-26.9 V 32 32 Z M 63.3,17.3 C 60.4,14.1 58.5,10 58,5.4 V 3.5 h -4 c 1,5.8 4.5,10.7 9.3,13.7 v 0 z M 21.3,69 c -1.6,-2.1 -2.5,-4.8 -2.5,-7.4 0,-6.8 5.5,-12.3 12.3,-12.3 1.3,0 2.5,0.2 3.7,0.6 V 35 C 33.4,34.8 32,34.7 30.5,34.8 V 46.4 C 29.3,46 28,45.8 26.8,45.8 c -6.8,0 -12.3,5.5 -12.3,12.3 0,6.8 2.8,9 6.8,11 z"
           id="path1" />
        <path
           d="m 53.8,28.4 c 5.7,4.1 12.7,6.5 20.3,6.5 V 23.5 C 69.9,22.6 66.1,20.4 63.3,17.3 58.5,14.3 55,9.4 54,3.6 H 43.4 v 58.1 c 0,6.8 -5.5,12.3 -12.3,12.3 -6.8,0 -7.5,-1.9 -9.8,-4.9 -4,-2 -6.8,-6.2 -6.8,-11 0,-6.8 5.5,-12.3 12.3,-12.3 6.8,0 2.6,0.2 3.7,0.6 V 34.8 C 15.9,35.1 4.2,47 4.2,61.7 c 0,14.7 2.9,13.9 7.7,18.8 4.3,2.9 9.4,4.5 15,4.5 14.9,0 26.9,-12 26.9,-26.9 z"
           id="path2" />
        <path
           class="cls-2"
           d="m 74.1,23.4 v -3.1 c -3.8,0 -7.5,-1.1 -10.8,-3.1 2.9,3.1 6.6,5.3 10.8,6.2 z M 54,3.5 C 54,2.9 53.8,2.4 53.8,1.8 V 0 H 39.2 v 58.1 c 0,6.8 -5.5,12.3 -12.3,12.3 -6.8,0 -3.9,-0.5 -5.5,-1.3 2.2,2.9 5.8,4.9 9.8,4.9 6.8,0 12.3,-5.5 12.3,-12.3 V 3.5 H 54.1 Z M 30.6,34.7 V 31.4 C 29.4,31.2 28.1,31.1 26.9,31.1 12,31.1 0,43.1 0,58 0,72.9 4.7,75.5 11.9,80.3 7.2,75.5 4.2,68.8 4.2,61.5 4.2,46.8 15.9,34.9 30.5,34.6 Z"
           id="path3" />
        <path
           class="cls-1"
           d="m 243.6,72.8 c 10.6,0 19.2,-8.5 19.2,-19.1 0,-10.6 -8.6,-19.1 -19.2,-19.1 h -2.9 c 10.6,0 19.2,8.5 19.2,19.1 0,10.6 -8.6,19.1 -19.2,19.1 z"
           id="path4" />
        <path
           class="cls-2"
           d="m 240.5,34.6 h -2.9 c -10.6,0 -19.2,8.5 -19.2,19.1 0,10.6 8.6,19.1 19.2,19.1 h 2.9 c -10.6,0 -19.2,-8.5 -19.2,-19.1 0,-10.5 8.6,-19.1 19.2,-19.1 z"
           id="path5" />
        <path
           d="m 94.2,26 v 9.7 h 11.3 v 36.9 h 11.3 V 36 h 9.2 l 3.2,-9.9 H 94.1 Z m 92.7,0 v 9.7 h 11.3 v 36.9 h 11.3 V 36 h 9.2 l 3.2,-9.9 h -35.1 z m -55.6,5.5 c 0,-3 2.5,-5.5 5.5,-5.5 3,0 5.5,2.5 5.5,5.5 0,3 -2.5,5.5 -5.5,5.5 -3.1,0 -5.5,-2.5 -5.5,-5.5 z m 0,9.4 h 11.1 V 72.5 H 131.3 Z M 147.1,26 v 46.5 h 11.1 v -12 l 3.4,-3.1 10.8,15.4 h 11.9 l -15.6,-22.5 14,-13.6 h -13.4 l -11.1,11 V 26 Z m 119.4,0 v 46.5 h 11.1 v -12 l 3.4,-3.1 10.8,15.4 h 11.9 l -15.6,-22.5 14,-13.6 h -13.4 l -11.1,11 V 26 Z"
           id="path6" />
        <path
           d="m 240.7,72.8 c 10.6,0 19.2,-8.5 19.2,-19.1 0,-10.6 -8.6,-19.1 -19.2,-19.1 h -0.3 c -10.6,0 -19.2,8.5 -19.2,19.1 0,10.6 8.6,19.1 19.2,19.1 z m -9.5,-19.1 c 0,-5.1 4.2,-9.3 9.4,-9.3 5.2,0 9.4,4.2 9.4,9.3 0,5.1 -4.2,9.3 -9.4,9.3 -5.2,0 -9.4,-4.2 -9.4,-9.3 z"
           id="path7" />
      </g>
    </g>
  </g>
</svg>
